G75*
%MOIN*%
%OFA0B0*%
%FSLAX25Y25*%
%IPPOS*%
%LPD*%
%AMOC8*
5,1,8,0,0,1.08239X$1,22.5*
%
%ADD10R,0.02600X0.08000*%
%ADD11R,0.08000X0.02600*%
%ADD12R,0.05118X0.05906*%
%ADD13R,0.05906X0.05118*%
%ADD14R,0.06299X0.05118*%
%ADD15R,0.05118X0.05118*%
%ADD16R,0.07874X0.05118*%
%ADD17R,0.16929X0.09843*%
%ADD18R,0.05906X0.05906*%
%ADD19R,0.07087X0.08661*%
D10*
X0162495Y0150795D03*
X0167495Y0150795D03*
X0172495Y0150795D03*
X0177495Y0150795D03*
X0182495Y0150795D03*
X0187495Y0150795D03*
X0192495Y0150795D03*
X0197495Y0150795D03*
X0202495Y0150795D03*
X0207495Y0150795D03*
X0207495Y0190395D03*
X0202495Y0190395D03*
X0197495Y0190395D03*
X0192495Y0190395D03*
X0187495Y0190395D03*
X0182495Y0190395D03*
X0177495Y0190395D03*
X0172495Y0190395D03*
X0167495Y0190395D03*
X0162495Y0190395D03*
D11*
X0086455Y0108725D03*
X0086455Y0113725D03*
X0086455Y0118725D03*
X0086455Y0123725D03*
X0086455Y0128725D03*
X0086455Y0133725D03*
X0086455Y0138725D03*
X0086455Y0143725D03*
X0086455Y0148725D03*
X0086455Y0153725D03*
X0086455Y0187465D03*
X0086455Y0192465D03*
X0086455Y0197465D03*
X0086455Y0202465D03*
X0086455Y0207465D03*
X0086455Y0212465D03*
X0086455Y0217465D03*
X0086455Y0222465D03*
X0086455Y0227465D03*
X0086455Y0232465D03*
X0126055Y0232465D03*
X0126055Y0227465D03*
X0126055Y0222465D03*
X0126055Y0217465D03*
X0126055Y0212465D03*
X0126055Y0207465D03*
X0126055Y0202465D03*
X0126055Y0197465D03*
X0126055Y0192465D03*
X0126055Y0187465D03*
X0126055Y0153725D03*
X0126055Y0148725D03*
X0126055Y0143725D03*
X0126055Y0138725D03*
X0126055Y0133725D03*
X0126055Y0128725D03*
X0126055Y0123725D03*
X0126055Y0118725D03*
X0126055Y0113725D03*
X0126055Y0108725D03*
X0243935Y0108725D03*
X0243935Y0113725D03*
X0243935Y0118725D03*
X0243935Y0123725D03*
X0243935Y0128725D03*
X0243935Y0133725D03*
X0243935Y0138725D03*
X0243935Y0143725D03*
X0243935Y0148725D03*
X0243935Y0153725D03*
X0243935Y0187465D03*
X0243935Y0192465D03*
X0243935Y0197465D03*
X0243935Y0202465D03*
X0243935Y0207465D03*
X0243935Y0212465D03*
X0243935Y0217465D03*
X0243935Y0222465D03*
X0243935Y0227465D03*
X0243935Y0232465D03*
X0283535Y0232465D03*
X0283535Y0227465D03*
X0283535Y0222465D03*
X0283535Y0217465D03*
X0283535Y0212465D03*
X0283535Y0207465D03*
X0283535Y0202465D03*
X0283535Y0197465D03*
X0283535Y0192465D03*
X0283535Y0187465D03*
X0283535Y0153725D03*
X0283535Y0148725D03*
X0283535Y0143725D03*
X0283535Y0138725D03*
X0283535Y0133725D03*
X0283535Y0128725D03*
X0283535Y0123725D03*
X0283535Y0118725D03*
X0283535Y0113725D03*
X0283535Y0108725D03*
D12*
X0267476Y0091855D03*
X0259995Y0091855D03*
X0259995Y0249335D03*
X0267476Y0249335D03*
X0109995Y0249335D03*
X0102515Y0249335D03*
X0102515Y0091855D03*
X0109995Y0091855D03*
D13*
X0224365Y0166855D03*
X0224365Y0174335D03*
X0234208Y0174335D03*
X0234208Y0166855D03*
X0229165Y0223025D03*
X0229165Y0230506D03*
X0199638Y0230506D03*
X0199638Y0223025D03*
X0169408Y0223192D03*
X0169408Y0230672D03*
X0141323Y0230672D03*
X0141323Y0223192D03*
D14*
X0150835Y0222770D03*
X0150835Y0230250D03*
X0160677Y0230008D03*
X0160677Y0222528D03*
X0209480Y0223025D03*
X0209480Y0230506D03*
X0219323Y0230506D03*
X0219323Y0223025D03*
X0214523Y0275123D03*
X0214523Y0282603D03*
X0224365Y0282603D03*
X0224365Y0275123D03*
X0204680Y0275123D03*
X0204680Y0282603D03*
X0194838Y0282603D03*
X0194838Y0275123D03*
X0185200Y0275060D03*
X0185200Y0282540D03*
X0175153Y0282603D03*
X0175153Y0275123D03*
X0165310Y0275123D03*
X0165310Y0282603D03*
X0155468Y0282603D03*
X0155468Y0275123D03*
X0145625Y0275123D03*
X0145625Y0282603D03*
X0155468Y0125123D03*
X0155468Y0117643D03*
X0165310Y0117643D03*
X0165310Y0125123D03*
X0175153Y0125123D03*
X0175153Y0117643D03*
X0184995Y0117643D03*
X0184995Y0125123D03*
X0194838Y0125123D03*
X0194838Y0117643D03*
X0204680Y0117643D03*
X0204680Y0125123D03*
X0214523Y0125123D03*
X0214523Y0117643D03*
X0224365Y0117643D03*
X0224365Y0125123D03*
D15*
X0219050Y0238509D03*
X0209995Y0238509D03*
X0159995Y0238509D03*
X0150940Y0238509D03*
D16*
X0155468Y0260162D03*
X0214523Y0260162D03*
D17*
X0201334Y0062328D03*
X0168657Y0062328D03*
D18*
X0165310Y0094808D03*
X0155468Y0094808D03*
X0155468Y0108587D03*
X0165310Y0108587D03*
X0175153Y0108587D03*
X0184995Y0108587D03*
X0194838Y0108587D03*
X0204680Y0108587D03*
X0214523Y0108587D03*
X0224365Y0108587D03*
X0224365Y0094808D03*
X0214523Y0094808D03*
X0204680Y0094808D03*
X0194838Y0094808D03*
X0184995Y0094808D03*
X0175153Y0094808D03*
D19*
X0254361Y0169600D03*
X0274439Y0169600D03*
M02*
