%
M48
M72
T01C0.01378
T02C0.03600
T03C0.04000
%
T01
X100000Y100000
X110800Y113200
X134800Y124000
X146800Y102400
X162400Y133600
X170800Y133600
X178000Y136000
X191200Y133600
X200800Y132400
X201023Y138623
X209200Y143200
X194800Y162400
X186400Y162400
X178000Y167200
X172000Y163600
X156400Y170800
X167200Y198400
X172000Y200800
X186400Y199600
X193600Y199600
X208000Y199600
X220000Y214000
X235600Y212800
X235600Y190000
X214000Y170800
X236800Y133600
X236800Y124000
X233200Y102400
X260800Y107200
X272800Y100000
X270400Y156400
X260800Y156400
X258400Y181600
X258400Y188800
X260800Y234400
X275200Y250000
X253600Y251200
X230800Y239200
X214000Y268000
X204400Y268000
X185200Y292000
X181600Y266800
X199600Y240400
X193600Y224800
X175600Y224800
X169600Y236800
X148000Y217600
X133600Y202000
X118000Y220000
X110800Y194800
X100000Y179200
X113200Y162400
X56800Y169600
X94000Y250000
X118000Y251200
X137200Y278800
X145600Y269200
X145600Y252400
X233200Y278800
X313600Y170800
X128800Y65200
T02
X66885Y126225
X66885Y136225
X66885Y204965
X66885Y214965
X224365Y67328
X224365Y57328
X303106Y126225
X303106Y136225
X303106Y204965
X303106Y214965
T03
X224838Y298548
X214838Y298548
X204838Y298548
X194838Y298548
X175625Y298548
X165625Y298548
X155625Y298548
X145625Y298548
M30
