G75*
%MOIN*%
%OFA0B0*%
%FSLAX25Y25*%
%IPPOS*%
%LPD*%
%AMOC8*
5,1,8,0,0,1.08239X$1,22.5*
%
%ADD10R,0.03400X0.08800*%
%ADD11R,0.08800X0.03400*%
%ADD12C,0.06400*%
%ADD13R,0.05918X0.06706*%
%ADD14R,0.06706X0.05918*%
%ADD15R,0.07099X0.05918*%
%ADD16R,0.05918X0.05918*%
%ADD17R,0.08674X0.05918*%
%ADD18C,0.08200*%
%ADD19R,0.17729X0.10643*%
%ADD20R,0.06706X0.06706*%
%ADD21R,0.07887X0.09461*%
%ADD22C,0.03778*%
D10*
X0143295Y0136395D03*
X0148295Y0136395D03*
X0153295Y0136395D03*
X0158295Y0136395D03*
X0163295Y0136395D03*
X0168295Y0136395D03*
X0173295Y0136395D03*
X0178295Y0136395D03*
X0183295Y0136395D03*
X0188295Y0136395D03*
X0188295Y0175995D03*
X0183295Y0175995D03*
X0178295Y0175995D03*
X0173295Y0175995D03*
X0168295Y0175995D03*
X0163295Y0175995D03*
X0158295Y0175995D03*
X0153295Y0175995D03*
X0148295Y0175995D03*
X0143295Y0175995D03*
D11*
X0106855Y0178065D03*
X0106855Y0183065D03*
X0106855Y0188065D03*
X0106855Y0193065D03*
X0106855Y0198065D03*
X0106855Y0203065D03*
X0106855Y0208065D03*
X0106855Y0213065D03*
X0106855Y0218065D03*
X0067255Y0218065D03*
X0067255Y0213065D03*
X0067255Y0208065D03*
X0067255Y0203065D03*
X0067255Y0198065D03*
X0067255Y0193065D03*
X0067255Y0188065D03*
X0067255Y0183065D03*
X0067255Y0178065D03*
X0067255Y0173065D03*
X0067255Y0139325D03*
X0067255Y0134325D03*
X0067255Y0129325D03*
X0067255Y0124325D03*
X0067255Y0119325D03*
X0067255Y0114325D03*
X0067255Y0109325D03*
X0067255Y0104325D03*
X0067255Y0099325D03*
X0067255Y0094325D03*
X0106855Y0094325D03*
X0106855Y0099325D03*
X0106855Y0104325D03*
X0106855Y0109325D03*
X0106855Y0114325D03*
X0106855Y0119325D03*
X0106855Y0124325D03*
X0106855Y0129325D03*
X0106855Y0134325D03*
X0106855Y0139325D03*
X0106855Y0173065D03*
X0224735Y0173065D03*
X0224735Y0178065D03*
X0224735Y0183065D03*
X0224735Y0188065D03*
X0224735Y0193065D03*
X0224735Y0198065D03*
X0224735Y0203065D03*
X0224735Y0208065D03*
X0224735Y0213065D03*
X0224735Y0218065D03*
X0264335Y0218065D03*
X0264335Y0213065D03*
X0264335Y0208065D03*
X0264335Y0203065D03*
X0264335Y0198065D03*
X0264335Y0193065D03*
X0264335Y0188065D03*
X0264335Y0183065D03*
X0264335Y0178065D03*
X0264335Y0173065D03*
X0264335Y0139325D03*
X0264335Y0134325D03*
X0264335Y0129325D03*
X0264335Y0124325D03*
X0264335Y0119325D03*
X0264335Y0114325D03*
X0264335Y0109325D03*
X0264335Y0104325D03*
X0264335Y0099325D03*
X0264335Y0094325D03*
X0224735Y0094325D03*
X0224735Y0099325D03*
X0224735Y0104325D03*
X0224735Y0109325D03*
X0224735Y0114325D03*
X0224735Y0119325D03*
X0224735Y0124325D03*
X0224735Y0129325D03*
X0224735Y0134325D03*
X0224735Y0139325D03*
D12*
X0281106Y0121825D02*
X0286706Y0121825D01*
X0286706Y0111825D02*
X0281106Y0111825D01*
X0281106Y0190565D02*
X0286706Y0190565D01*
X0286706Y0200565D02*
X0281106Y0200565D01*
X0207965Y0052928D02*
X0202365Y0052928D01*
X0202365Y0042928D02*
X0207965Y0042928D01*
X0050485Y0111825D02*
X0044885Y0111825D01*
X0044885Y0121825D02*
X0050485Y0121825D01*
X0050485Y0190565D02*
X0044885Y0190565D01*
X0044885Y0200565D02*
X0050485Y0200565D01*
D13*
X0083315Y0077455D03*
X0090795Y0077455D03*
X0240795Y0077455D03*
X0248276Y0077455D03*
X0248276Y0234935D03*
X0240795Y0234935D03*
X0090795Y0234935D03*
X0083315Y0234935D03*
D14*
X0122123Y0216272D03*
X0122123Y0208792D03*
X0150208Y0208792D03*
X0150208Y0216272D03*
X0180438Y0216106D03*
X0180438Y0208625D03*
X0209965Y0208625D03*
X0209965Y0216106D03*
X0205165Y0159935D03*
X0205165Y0152455D03*
X0215008Y0152455D03*
X0215008Y0159935D03*
D15*
X0205165Y0110723D03*
X0205165Y0103243D03*
X0195323Y0103243D03*
X0195323Y0110723D03*
X0185480Y0110723D03*
X0185480Y0103243D03*
X0175638Y0103243D03*
X0175638Y0110723D03*
X0165795Y0110723D03*
X0165795Y0103243D03*
X0155953Y0103243D03*
X0155953Y0110723D03*
X0146110Y0110723D03*
X0146110Y0103243D03*
X0136268Y0103243D03*
X0136268Y0110723D03*
X0141477Y0208128D03*
X0141477Y0215608D03*
X0131635Y0215850D03*
X0131635Y0208370D03*
X0136268Y0260723D03*
X0136268Y0268203D03*
X0146110Y0268203D03*
X0146110Y0260723D03*
X0155953Y0260723D03*
X0155953Y0268203D03*
X0166000Y0268140D03*
X0166000Y0260660D03*
X0175638Y0260723D03*
X0175638Y0268203D03*
X0185480Y0268203D03*
X0185480Y0260723D03*
X0195323Y0260723D03*
X0195323Y0268203D03*
X0205165Y0268203D03*
X0205165Y0260723D03*
X0200123Y0216106D03*
X0200123Y0208625D03*
X0190280Y0208625D03*
X0190280Y0216106D03*
X0126425Y0260723D03*
X0126425Y0268203D03*
D16*
X0131740Y0224109D03*
X0140795Y0224109D03*
X0190795Y0224109D03*
X0199850Y0224109D03*
D17*
X0195323Y0245762D03*
X0136268Y0245762D03*
D18*
X0136425Y0284148D03*
X0126425Y0284148D03*
X0146425Y0284148D03*
X0156425Y0284148D03*
X0175638Y0284148D03*
X0185638Y0284148D03*
X0195638Y0284148D03*
X0205638Y0284148D03*
D19*
X0182134Y0047928D03*
X0149457Y0047928D03*
D20*
X0146110Y0080408D03*
X0136268Y0080408D03*
X0136268Y0094187D03*
X0146110Y0094187D03*
X0155953Y0094187D03*
X0165795Y0094187D03*
X0175638Y0094187D03*
X0185480Y0094187D03*
X0195323Y0094187D03*
X0205165Y0094187D03*
X0205165Y0080408D03*
X0195323Y0080408D03*
X0185480Y0080408D03*
X0175638Y0080408D03*
X0165795Y0080408D03*
X0155953Y0080408D03*
D21*
X0235161Y0155200D03*
X0255239Y0155200D03*
D22*
X0251200Y0142000D03*
X0241600Y0142000D03*
X0239200Y0167200D03*
X0239200Y0174400D03*
X0216400Y0175600D03*
X0216400Y0198400D03*
X0200800Y0199600D03*
X0188800Y0185200D03*
X0174400Y0185200D03*
X0167200Y0185200D03*
X0152800Y0184000D03*
X0145600Y0184000D03*
X0128800Y0203200D03*
X0114400Y0187600D03*
X0098800Y0205600D03*
X0091600Y0180400D03*
X0080800Y0164800D03*
X0094000Y0148000D03*
X0115600Y0109600D03*
X0127600Y0088000D03*
X0143200Y0119200D03*
X0151600Y0119200D03*
X0158800Y0121600D03*
X0172000Y0119200D03*
X0181600Y0118000D03*
X0181823Y0124223D03*
X0190000Y0128800D03*
X0175600Y0148000D03*
X0167200Y0148000D03*
X0158800Y0152800D03*
X0152800Y0149200D03*
X0137200Y0156400D03*
X0162400Y0205600D03*
X0156400Y0210400D03*
X0150400Y0222400D03*
X0174400Y0210400D03*
X0180400Y0226000D03*
X0162400Y0252400D03*
X0185200Y0253600D03*
X0194800Y0253600D03*
X0214000Y0264400D03*
X0234400Y0236800D03*
X0241600Y0220000D03*
X0256000Y0235600D03*
X0211600Y0224800D03*
X0166000Y0277600D03*
X0126400Y0254800D03*
X0118000Y0264400D03*
X0126400Y0238000D03*
X0098800Y0236800D03*
X0074800Y0235600D03*
X0037600Y0155200D03*
X0091600Y0098800D03*
X0080800Y0085600D03*
X0109600Y0050800D03*
X0214000Y0088000D03*
X0217600Y0109600D03*
X0217600Y0119200D03*
X0241600Y0092800D03*
X0253600Y0085600D03*
X0294400Y0156400D03*
X0194800Y0156400D03*
M02*
