G75*
%MOIN*%
%OFA0B0*%
%FSLAX25Y25*%
%IPPOS*%
%LPD*%
%AMOC8*
5,1,8,0,0,1.08239X$1,22.5*
%
%ADD10R,0.02600X0.08000*%
%ADD11R,0.08000X0.02600*%
%ADD12C,0.05600*%
%ADD13R,0.05118X0.05906*%
%ADD14R,0.05906X0.05118*%
%ADD15R,0.06299X0.05118*%
%ADD16R,0.05118X0.05118*%
%ADD17R,0.07874X0.05118*%
%ADD18C,0.07400*%
%ADD19R,0.16929X0.09843*%
%ADD20R,0.05906X0.05906*%
%ADD21R,0.07087X0.08661*%
%ADD22C,0.02400*%
%ADD23C,0.02978*%
%ADD24C,0.05000*%
%ADD25C,0.01200*%
D10*
X0143295Y0136395D03*
X0148295Y0136395D03*
X0153295Y0136395D03*
X0158295Y0136395D03*
X0163295Y0136395D03*
X0168295Y0136395D03*
X0173295Y0136395D03*
X0178295Y0136395D03*
X0183295Y0136395D03*
X0188295Y0136395D03*
X0188295Y0175995D03*
X0183295Y0175995D03*
X0178295Y0175995D03*
X0173295Y0175995D03*
X0168295Y0175995D03*
X0163295Y0175995D03*
X0158295Y0175995D03*
X0153295Y0175995D03*
X0148295Y0175995D03*
X0143295Y0175995D03*
D11*
X0106855Y0178065D03*
X0106855Y0183065D03*
X0106855Y0188065D03*
X0106855Y0193065D03*
X0106855Y0198065D03*
X0106855Y0203065D03*
X0106855Y0208065D03*
X0106855Y0213065D03*
X0106855Y0218065D03*
X0067255Y0218065D03*
X0067255Y0213065D03*
X0067255Y0208065D03*
X0067255Y0203065D03*
X0067255Y0198065D03*
X0067255Y0193065D03*
X0067255Y0188065D03*
X0067255Y0183065D03*
X0067255Y0178065D03*
X0067255Y0173065D03*
X0067255Y0139325D03*
X0067255Y0134325D03*
X0067255Y0129325D03*
X0067255Y0124325D03*
X0067255Y0119325D03*
X0067255Y0114325D03*
X0067255Y0109325D03*
X0067255Y0104325D03*
X0067255Y0099325D03*
X0067255Y0094325D03*
X0106855Y0094325D03*
X0106855Y0099325D03*
X0106855Y0104325D03*
X0106855Y0109325D03*
X0106855Y0114325D03*
X0106855Y0119325D03*
X0106855Y0124325D03*
X0106855Y0129325D03*
X0106855Y0134325D03*
X0106855Y0139325D03*
X0106855Y0173065D03*
X0224735Y0173065D03*
X0224735Y0178065D03*
X0224735Y0183065D03*
X0224735Y0188065D03*
X0224735Y0193065D03*
X0224735Y0198065D03*
X0224735Y0203065D03*
X0224735Y0208065D03*
X0224735Y0213065D03*
X0224735Y0218065D03*
X0264335Y0218065D03*
X0264335Y0213065D03*
X0264335Y0208065D03*
X0264335Y0203065D03*
X0264335Y0198065D03*
X0264335Y0193065D03*
X0264335Y0188065D03*
X0264335Y0183065D03*
X0264335Y0178065D03*
X0264335Y0173065D03*
X0264335Y0139325D03*
X0264335Y0134325D03*
X0264335Y0129325D03*
X0264335Y0124325D03*
X0264335Y0119325D03*
X0264335Y0114325D03*
X0264335Y0109325D03*
X0264335Y0104325D03*
X0264335Y0099325D03*
X0264335Y0094325D03*
X0224735Y0094325D03*
X0224735Y0099325D03*
X0224735Y0104325D03*
X0224735Y0109325D03*
X0224735Y0114325D03*
X0224735Y0119325D03*
X0224735Y0124325D03*
X0224735Y0129325D03*
X0224735Y0134325D03*
X0224735Y0139325D03*
D12*
X0281106Y0121825D02*
X0286706Y0121825D01*
X0286706Y0111825D02*
X0281106Y0111825D01*
X0281106Y0190565D02*
X0286706Y0190565D01*
X0286706Y0200565D02*
X0281106Y0200565D01*
X0207965Y0052928D02*
X0202365Y0052928D01*
X0202365Y0042928D02*
X0207965Y0042928D01*
X0050485Y0111825D02*
X0044885Y0111825D01*
X0044885Y0121825D02*
X0050485Y0121825D01*
X0050485Y0190565D02*
X0044885Y0190565D01*
X0044885Y0200565D02*
X0050485Y0200565D01*
D13*
X0083315Y0234935D03*
X0090795Y0234935D03*
X0240795Y0234935D03*
X0248276Y0234935D03*
X0248276Y0077455D03*
X0240795Y0077455D03*
X0090795Y0077455D03*
X0083315Y0077455D03*
D14*
X0205165Y0152455D03*
X0205165Y0159935D03*
X0215008Y0159935D03*
X0215008Y0152455D03*
X0209965Y0208625D03*
X0209965Y0216106D03*
X0180438Y0216106D03*
X0180438Y0208625D03*
X0150208Y0208792D03*
X0150208Y0216272D03*
X0122123Y0216272D03*
X0122123Y0208792D03*
D15*
X0131635Y0208370D03*
X0131635Y0215850D03*
X0141477Y0215608D03*
X0141477Y0208128D03*
X0190280Y0208625D03*
X0190280Y0216106D03*
X0200123Y0216106D03*
X0200123Y0208625D03*
X0195323Y0260723D03*
X0195323Y0268203D03*
X0205165Y0268203D03*
X0205165Y0260723D03*
X0185480Y0260723D03*
X0185480Y0268203D03*
X0175638Y0268203D03*
X0175638Y0260723D03*
X0166000Y0260660D03*
X0166000Y0268140D03*
X0155953Y0268203D03*
X0155953Y0260723D03*
X0146110Y0260723D03*
X0146110Y0268203D03*
X0136268Y0268203D03*
X0136268Y0260723D03*
X0126425Y0260723D03*
X0126425Y0268203D03*
X0136268Y0110723D03*
X0136268Y0103243D03*
X0146110Y0103243D03*
X0146110Y0110723D03*
X0155953Y0110723D03*
X0155953Y0103243D03*
X0165795Y0103243D03*
X0165795Y0110723D03*
X0175638Y0110723D03*
X0175638Y0103243D03*
X0185480Y0103243D03*
X0185480Y0110723D03*
X0195323Y0110723D03*
X0195323Y0103243D03*
X0205165Y0103243D03*
X0205165Y0110723D03*
D16*
X0199850Y0224109D03*
X0190795Y0224109D03*
X0140795Y0224109D03*
X0131740Y0224109D03*
D17*
X0136268Y0245762D03*
X0195323Y0245762D03*
D18*
X0195638Y0284148D03*
X0205638Y0284148D03*
X0185638Y0284148D03*
X0175638Y0284148D03*
X0156425Y0284148D03*
X0146425Y0284148D03*
X0136425Y0284148D03*
X0126425Y0284148D03*
D19*
X0149457Y0047928D03*
X0182134Y0047928D03*
D20*
X0185480Y0080408D03*
X0175638Y0080408D03*
X0165795Y0080408D03*
X0155953Y0080408D03*
X0146110Y0080408D03*
X0136268Y0080408D03*
X0136268Y0094187D03*
X0146110Y0094187D03*
X0155953Y0094187D03*
X0165795Y0094187D03*
X0175638Y0094187D03*
X0185480Y0094187D03*
X0195323Y0094187D03*
X0205165Y0094187D03*
X0205165Y0080408D03*
X0195323Y0080408D03*
D21*
X0235161Y0155200D03*
X0255239Y0155200D03*
D22*
X0255239Y0142439D01*
X0253000Y0140200D01*
X0251200Y0142000D01*
X0253000Y0140200D02*
X0253875Y0139325D01*
X0264335Y0139325D01*
X0264335Y0134325D02*
X0243275Y0134325D01*
X0241600Y0136000D01*
X0241600Y0142000D01*
X0238925Y0139325D01*
X0224735Y0139325D01*
X0224735Y0134325D02*
X0224735Y0129325D01*
X0224735Y0124325D01*
X0224735Y0119325D01*
X0224735Y0114325D02*
X0224735Y0109325D01*
X0224735Y0104325D01*
X0224735Y0099325D01*
X0224735Y0094325D02*
X0224800Y0094325D01*
X0238875Y0094325D01*
X0240400Y0092800D01*
X0241600Y0092800D01*
X0240795Y0091995D01*
X0240795Y0077455D01*
X0248276Y0077455D02*
X0253600Y0082780D01*
X0253600Y0085600D01*
X0264335Y0094325D02*
X0264335Y0099325D01*
X0264335Y0104325D01*
X0264335Y0109325D01*
X0281406Y0109325D01*
X0283906Y0111825D01*
X0283906Y0121825D02*
X0281731Y0124000D01*
X0264661Y0124000D01*
X0264335Y0124325D01*
X0264335Y0129325D01*
X0264335Y0124325D02*
X0264335Y0119325D01*
X0264335Y0114325D01*
X0235161Y0155200D02*
X0223600Y0155200D01*
X0220855Y0152455D01*
X0215008Y0152455D01*
X0205600Y0152455D01*
X0205600Y0146800D01*
X0195195Y0136395D01*
X0188295Y0136395D01*
X0183295Y0136395D02*
X0183295Y0154431D01*
X0188800Y0159935D01*
X0188295Y0160440D01*
X0188295Y0175995D01*
X0188800Y0159935D02*
X0205165Y0159935D01*
X0215008Y0159935D01*
X0218735Y0159935D01*
X0224800Y0166000D01*
X0238000Y0166000D01*
X0239200Y0167200D01*
X0236665Y0173065D02*
X0238000Y0174400D01*
X0239200Y0174400D01*
X0236665Y0173065D02*
X0224735Y0173065D01*
X0224735Y0178065D02*
X0224735Y0183065D01*
X0224735Y0188065D01*
X0224735Y0193065D01*
X0224735Y0198065D02*
X0224735Y0203065D01*
X0224735Y0208065D01*
X0224735Y0213065D01*
X0224735Y0218065D02*
X0226000Y0218065D01*
X0238465Y0218065D01*
X0239200Y0218800D01*
X0239200Y0217600D01*
X0243735Y0213065D01*
X0264335Y0213065D01*
X0264335Y0208065D02*
X0264335Y0203065D01*
X0264335Y0199600D01*
X0265301Y0200565D01*
X0283906Y0200565D01*
X0283906Y0190565D02*
X0281406Y0188065D01*
X0264335Y0188065D01*
X0264335Y0183065D01*
X0264335Y0178065D01*
X0264335Y0173065D01*
X0264335Y0193065D02*
X0264335Y0198065D01*
X0264335Y0199600D01*
X0264335Y0218065D02*
X0256735Y0218065D01*
X0251200Y0223600D01*
X0251200Y0232011D01*
X0248276Y0234935D01*
X0255335Y0234935D01*
X0256000Y0235600D01*
X0240795Y0234935D02*
X0238931Y0236800D01*
X0234400Y0236800D01*
X0240400Y0220000D02*
X0239200Y0218800D01*
X0240400Y0220000D02*
X0241600Y0220000D01*
X0188800Y0159935D02*
X0146865Y0159935D01*
X0143295Y0163505D01*
X0143295Y0175995D01*
X0106855Y0178065D02*
X0106855Y0183065D01*
X0106855Y0187600D01*
X0106855Y0188065D01*
X0106855Y0193065D01*
X0106855Y0198065D02*
X0106855Y0203065D01*
X0106855Y0208065D01*
X0106855Y0213065D01*
X0106855Y0218065D02*
X0097135Y0218065D01*
X0091600Y0223600D01*
X0091600Y0234935D01*
X0096935Y0234935D01*
X0098800Y0236800D01*
X0091600Y0234935D02*
X0090795Y0234935D01*
X0083315Y0234935D02*
X0075465Y0234935D01*
X0074800Y0235600D01*
X0067255Y0218065D02*
X0067255Y0213065D01*
X0067255Y0208065D01*
X0067255Y0203920D01*
X0066400Y0203065D01*
X0050185Y0203065D01*
X0047685Y0200565D01*
X0047685Y0190565D02*
X0065420Y0190565D01*
X0067255Y0192400D01*
X0067255Y0198065D01*
X0067255Y0203065D02*
X0066400Y0203065D01*
X0067255Y0192400D02*
X0067255Y0183065D01*
X0067255Y0178065D02*
X0089265Y0178065D01*
X0091000Y0179800D01*
X0091000Y0176200D01*
X0094135Y0173065D01*
X0106855Y0173065D01*
X0091600Y0180400D02*
X0091000Y0179800D01*
X0080800Y0164800D02*
X0079600Y0164800D01*
X0071335Y0173065D01*
X0067255Y0173065D01*
X0094000Y0148000D02*
X0094000Y0145600D01*
X0100275Y0139325D01*
X0106855Y0139325D01*
X0106855Y0134325D02*
X0106855Y0129325D01*
X0106855Y0124325D01*
X0106855Y0119325D01*
X0106855Y0114325D02*
X0106855Y0109325D01*
X0106855Y0104325D01*
X0106855Y0099325D01*
X0106855Y0094325D02*
X0094875Y0094325D01*
X0091000Y0098200D01*
X0090795Y0097995D01*
X0090795Y0077455D01*
X0083315Y0077455D02*
X0080800Y0079970D01*
X0080800Y0085600D01*
X0072075Y0094325D01*
X0067255Y0094325D01*
X0067780Y0098800D02*
X0090400Y0098800D01*
X0091000Y0098200D01*
X0090400Y0098800D02*
X0091600Y0098800D01*
X0067780Y0098800D02*
X0067255Y0099325D01*
X0067255Y0104325D02*
X0067255Y0109325D01*
X0064755Y0111825D01*
X0047685Y0111825D01*
X0047685Y0121825D02*
X0050185Y0124325D01*
X0067255Y0124325D01*
X0067255Y0129325D01*
X0067255Y0134325D01*
X0067255Y0139325D01*
X0067255Y0119325D02*
X0067255Y0114325D01*
X0067255Y0109325D01*
X0205165Y0152455D02*
X0205600Y0152455D01*
D23*
X0194800Y0156400D03*
X0175600Y0148000D03*
X0167200Y0148000D03*
X0158800Y0152800D03*
X0152800Y0149200D03*
X0137200Y0156400D03*
X0145600Y0184000D03*
X0152800Y0184000D03*
X0167200Y0185200D03*
X0174400Y0185200D03*
X0188800Y0185200D03*
X0200800Y0199600D03*
X0216400Y0198400D03*
X0216400Y0175600D03*
X0239200Y0174400D03*
X0239200Y0167200D03*
X0241600Y0142000D03*
X0251200Y0142000D03*
X0217600Y0119200D03*
X0217600Y0109600D03*
X0214000Y0088000D03*
X0241600Y0092800D03*
X0253600Y0085600D03*
X0190000Y0128800D03*
X0181823Y0124223D03*
X0181600Y0118000D03*
X0172000Y0119200D03*
X0158800Y0121600D03*
X0151600Y0119200D03*
X0143200Y0119200D03*
X0115600Y0109600D03*
X0127600Y0088000D03*
X0091600Y0098800D03*
X0080800Y0085600D03*
X0109600Y0050800D03*
X0094000Y0148000D03*
X0080800Y0164800D03*
X0091600Y0180400D03*
X0114400Y0187600D03*
X0128800Y0203200D03*
X0150400Y0222400D03*
X0156400Y0210400D03*
X0162400Y0205600D03*
X0174400Y0210400D03*
X0180400Y0226000D03*
X0162400Y0252400D03*
X0185200Y0253600D03*
X0194800Y0253600D03*
X0214000Y0264400D03*
X0234400Y0236800D03*
X0241600Y0220000D03*
X0256000Y0235600D03*
X0211600Y0224800D03*
X0166000Y0277600D03*
X0126400Y0254800D03*
X0118000Y0264400D03*
X0126400Y0238000D03*
X0098800Y0236800D03*
X0074800Y0235600D03*
X0098800Y0205600D03*
X0037600Y0155200D03*
X0294400Y0156400D03*
D24*
X0205165Y0052928D02*
X0187134Y0052928D01*
X0182134Y0047928D01*
X0200800Y0034000D02*
X0151600Y0034000D01*
X0150400Y0035200D01*
X0150400Y0046984D01*
X0149457Y0047928D01*
X0200800Y0034000D02*
X0205165Y0038365D01*
X0205165Y0042928D01*
D25*
X0260813Y0071134D02*
X0070778Y0071134D01*
X0071976Y0069936D02*
X0259614Y0069936D01*
X0258416Y0068737D02*
X0073175Y0068737D01*
X0074373Y0067539D02*
X0257217Y0067539D01*
X0256019Y0066340D02*
X0075572Y0066340D01*
X0076770Y0065142D02*
X0254820Y0065142D01*
X0253622Y0063943D02*
X0077969Y0063943D01*
X0079167Y0062745D02*
X0252423Y0062745D01*
X0251225Y0061546D02*
X0080366Y0061546D01*
X0081564Y0060348D02*
X0250026Y0060348D01*
X0248828Y0059149D02*
X0082763Y0059149D01*
X0083961Y0057951D02*
X0247629Y0057951D01*
X0246431Y0056752D02*
X0210151Y0056752D01*
X0210271Y0056691D02*
X0209654Y0057005D01*
X0208996Y0057219D01*
X0208312Y0057328D01*
X0205465Y0057328D01*
X0205465Y0053228D01*
X0204865Y0053228D01*
X0204865Y0057328D01*
X0202019Y0057328D01*
X0201335Y0057219D01*
X0200676Y0057005D01*
X0200059Y0056691D01*
X0199499Y0056284D01*
X0199009Y0055794D01*
X0198602Y0055234D01*
X0198288Y0054617D01*
X0198074Y0053958D01*
X0197965Y0053274D01*
X0197965Y0053228D01*
X0204865Y0053228D01*
X0204865Y0052628D01*
X0197965Y0052628D01*
X0197965Y0052581D01*
X0198074Y0051897D01*
X0198288Y0051239D01*
X0198602Y0050621D01*
X0199009Y0050061D01*
X0199499Y0049571D01*
X0200059Y0049164D01*
X0200676Y0048850D01*
X0201335Y0048636D01*
X0202019Y0048528D01*
X0204865Y0048528D01*
X0204865Y0052627D01*
X0205465Y0052627D01*
X0205465Y0048528D01*
X0208312Y0048528D01*
X0208996Y0048636D01*
X0209654Y0048850D01*
X0210271Y0049164D01*
X0210832Y0049571D01*
X0211321Y0050061D01*
X0211729Y0050621D01*
X0212043Y0051239D01*
X0212257Y0051897D01*
X0212365Y0052581D01*
X0212365Y0052628D01*
X0205465Y0052628D01*
X0205465Y0053228D01*
X0212365Y0053228D01*
X0212365Y0053274D01*
X0212257Y0053958D01*
X0212043Y0054617D01*
X0211729Y0055234D01*
X0211321Y0055794D01*
X0210832Y0056284D01*
X0210271Y0056691D01*
X0211496Y0055554D02*
X0245232Y0055554D01*
X0244034Y0054355D02*
X0212128Y0054355D01*
X0212267Y0051958D02*
X0241637Y0051958D01*
X0242835Y0053157D02*
X0205465Y0053157D01*
X0204865Y0053157D02*
X0192172Y0053157D01*
X0192198Y0053059D02*
X0192089Y0053466D01*
X0191879Y0053831D01*
X0191581Y0054129D01*
X0191216Y0054340D01*
X0190809Y0054449D01*
X0182734Y0054449D01*
X0182734Y0048528D01*
X0181534Y0048528D01*
X0181534Y0054449D01*
X0173459Y0054449D01*
X0173052Y0054340D01*
X0172687Y0054129D01*
X0172389Y0053831D01*
X0172178Y0053466D01*
X0172069Y0053059D01*
X0172069Y0048528D01*
X0181534Y0048528D01*
X0181534Y0047328D01*
X0172069Y0047328D01*
X0172069Y0042796D01*
X0172178Y0042389D01*
X0172389Y0042024D01*
X0172687Y0041726D01*
X0173052Y0041515D01*
X0173459Y0041406D01*
X0181534Y0041406D01*
X0181534Y0047328D01*
X0182734Y0047328D01*
X0182734Y0048528D01*
X0192198Y0048528D01*
X0192198Y0053059D01*
X0192198Y0051958D02*
X0198064Y0051958D01*
X0198532Y0050760D02*
X0192198Y0050760D01*
X0192198Y0049561D02*
X0199513Y0049561D01*
X0200100Y0046319D02*
X0198974Y0045193D01*
X0198365Y0043723D01*
X0198365Y0042132D01*
X0198974Y0040662D01*
X0200100Y0039537D01*
X0200810Y0039242D01*
X0199267Y0037700D01*
X0154100Y0037700D01*
X0154100Y0041806D01*
X0158418Y0041806D01*
X0159121Y0042509D01*
X0159121Y0053346D01*
X0158418Y0054049D01*
X0140495Y0054049D01*
X0139792Y0053346D01*
X0139792Y0042509D01*
X0140495Y0041806D01*
X0146700Y0041806D01*
X0146700Y0034464D01*
X0147263Y0033104D01*
X0149504Y0030863D01*
X0150864Y0030300D01*
X0201536Y0030300D01*
X0202896Y0030863D01*
X0208302Y0036269D01*
X0208865Y0037629D01*
X0208865Y0038971D01*
X0210231Y0039537D01*
X0211356Y0040662D01*
X0211965Y0042132D01*
X0211965Y0043723D01*
X0211356Y0045193D01*
X0210231Y0046319D01*
X0208761Y0046928D01*
X0201570Y0046928D01*
X0200100Y0046319D01*
X0199747Y0045966D02*
X0192198Y0045966D01*
X0192198Y0047164D02*
X0236843Y0047164D01*
X0238041Y0048363D02*
X0182734Y0048363D01*
X0182734Y0047328D02*
X0192198Y0047328D01*
X0192198Y0042796D01*
X0192089Y0042389D01*
X0191879Y0042024D01*
X0191581Y0041726D01*
X0191216Y0041515D01*
X0190809Y0041406D01*
X0182734Y0041406D01*
X0182734Y0047328D01*
X0182734Y0047164D02*
X0181534Y0047164D01*
X0181534Y0045966D02*
X0182734Y0045966D01*
X0182734Y0044767D02*
X0181534Y0044767D01*
X0181534Y0043569D02*
X0182734Y0043569D01*
X0182734Y0042370D02*
X0181534Y0042370D01*
X0181534Y0048363D02*
X0159121Y0048363D01*
X0159121Y0049561D02*
X0172069Y0049561D01*
X0172069Y0050760D02*
X0159121Y0050760D01*
X0159121Y0051958D02*
X0172069Y0051958D01*
X0172095Y0053157D02*
X0159121Y0053157D01*
X0159121Y0047164D02*
X0172069Y0047164D01*
X0172069Y0045966D02*
X0159121Y0045966D01*
X0159121Y0044767D02*
X0172069Y0044767D01*
X0172069Y0043569D02*
X0159121Y0043569D01*
X0158982Y0042370D02*
X0172189Y0042370D01*
X0181534Y0049561D02*
X0182734Y0049561D01*
X0182734Y0050760D02*
X0181534Y0050760D01*
X0181534Y0051958D02*
X0182734Y0051958D01*
X0182734Y0053157D02*
X0181534Y0053157D01*
X0181534Y0054355D02*
X0182734Y0054355D01*
X0191158Y0054355D02*
X0198203Y0054355D01*
X0198835Y0055554D02*
X0086358Y0055554D01*
X0085160Y0056752D02*
X0200180Y0056752D01*
X0204865Y0056752D02*
X0205465Y0056752D01*
X0205465Y0055554D02*
X0204865Y0055554D01*
X0204865Y0054355D02*
X0205465Y0054355D01*
X0205465Y0051958D02*
X0204865Y0051958D01*
X0204865Y0050760D02*
X0205465Y0050760D01*
X0205465Y0049561D02*
X0204865Y0049561D01*
X0210818Y0049561D02*
X0239240Y0049561D01*
X0240438Y0050760D02*
X0211799Y0050760D01*
X0210584Y0045966D02*
X0235644Y0045966D01*
X0234445Y0044767D02*
X0211533Y0044767D01*
X0211965Y0043569D02*
X0233247Y0043569D01*
X0232048Y0042370D02*
X0211965Y0042370D01*
X0211568Y0041172D02*
X0230850Y0041172D01*
X0229651Y0039973D02*
X0210668Y0039973D01*
X0208865Y0038775D02*
X0228453Y0038775D01*
X0227254Y0037576D02*
X0208843Y0037576D01*
X0208347Y0036378D02*
X0226056Y0036378D01*
X0224857Y0035179D02*
X0207212Y0035179D01*
X0206013Y0033981D02*
X0223659Y0033981D01*
X0222460Y0032782D02*
X0204815Y0032782D01*
X0203616Y0031584D02*
X0221262Y0031584D01*
X0220063Y0030385D02*
X0201741Y0030385D01*
X0200342Y0038775D02*
X0154100Y0038775D01*
X0154100Y0039973D02*
X0199663Y0039973D01*
X0198763Y0041172D02*
X0154100Y0041172D01*
X0146700Y0041172D02*
X0100741Y0041172D01*
X0101939Y0039973D02*
X0146700Y0039973D01*
X0146700Y0038775D02*
X0103138Y0038775D01*
X0104336Y0037576D02*
X0146700Y0037576D01*
X0146700Y0036378D02*
X0105535Y0036378D01*
X0106733Y0035179D02*
X0146700Y0035179D01*
X0146900Y0033981D02*
X0107932Y0033981D01*
X0109130Y0032782D02*
X0147585Y0032782D01*
X0148784Y0031584D02*
X0110329Y0031584D01*
X0111527Y0030385D02*
X0150659Y0030385D01*
X0139931Y0042370D02*
X0099542Y0042370D01*
X0098344Y0043569D02*
X0139792Y0043569D01*
X0139792Y0044767D02*
X0097145Y0044767D01*
X0095947Y0045966D02*
X0139792Y0045966D01*
X0139792Y0047164D02*
X0094748Y0047164D01*
X0093550Y0048363D02*
X0139792Y0048363D01*
X0139792Y0049561D02*
X0092351Y0049561D01*
X0091152Y0050760D02*
X0139792Y0050760D01*
X0139792Y0051958D02*
X0089954Y0051958D01*
X0088755Y0053157D02*
X0139792Y0053157D01*
X0139431Y0075855D02*
X0136868Y0075855D01*
X0136868Y0079808D01*
X0136868Y0081008D01*
X0140820Y0081008D01*
X0140820Y0083571D01*
X0140711Y0083978D01*
X0140501Y0084343D01*
X0140203Y0084641D01*
X0139838Y0084852D01*
X0139431Y0084961D01*
X0136868Y0084961D01*
X0136868Y0081008D01*
X0135668Y0081008D01*
X0135668Y0084961D01*
X0133104Y0084961D01*
X0132697Y0084852D01*
X0132333Y0084641D01*
X0132035Y0084343D01*
X0131824Y0083978D01*
X0131715Y0083571D01*
X0131715Y0081008D01*
X0135668Y0081008D01*
X0135668Y0079808D01*
X0136868Y0079808D01*
X0140820Y0079808D01*
X0140820Y0077244D01*
X0140711Y0076838D01*
X0140501Y0076473D01*
X0140203Y0076175D01*
X0139838Y0075964D01*
X0139431Y0075855D01*
X0139705Y0075929D02*
X0142673Y0075929D01*
X0142540Y0075964D02*
X0142947Y0075855D01*
X0145510Y0075855D01*
X0145510Y0079808D01*
X0141557Y0079808D01*
X0141557Y0077244D01*
X0141667Y0076838D01*
X0141877Y0076473D01*
X0142175Y0076175D01*
X0142540Y0075964D01*
X0141589Y0077127D02*
X0140789Y0077127D01*
X0140820Y0078326D02*
X0141557Y0078326D01*
X0141557Y0079524D02*
X0140820Y0079524D01*
X0141557Y0081008D02*
X0141557Y0083571D01*
X0141667Y0083978D01*
X0141877Y0084343D01*
X0142175Y0084641D01*
X0142540Y0084852D01*
X0142947Y0084961D01*
X0145510Y0084961D01*
X0145510Y0081008D01*
X0145510Y0079808D01*
X0146710Y0079808D01*
X0146710Y0075855D01*
X0149274Y0075855D01*
X0149681Y0075964D01*
X0150045Y0076175D01*
X0150343Y0076473D01*
X0150554Y0076838D01*
X0150663Y0077244D01*
X0150663Y0079808D01*
X0146710Y0079808D01*
X0146710Y0081008D01*
X0145510Y0081008D01*
X0141557Y0081008D01*
X0141557Y0081921D02*
X0140820Y0081921D01*
X0140820Y0083120D02*
X0141557Y0083120D01*
X0141863Y0084318D02*
X0140515Y0084318D01*
X0145510Y0084318D02*
X0146710Y0084318D01*
X0146710Y0084961D02*
X0146710Y0081008D01*
X0150663Y0081008D01*
X0150663Y0083571D01*
X0150554Y0083978D01*
X0150343Y0084343D01*
X0150045Y0084641D01*
X0149681Y0084852D01*
X0149274Y0084961D01*
X0146710Y0084961D01*
X0146710Y0083120D02*
X0145510Y0083120D01*
X0145510Y0081921D02*
X0146710Y0081921D01*
X0146710Y0080723D02*
X0155353Y0080723D01*
X0155353Y0081008D02*
X0155353Y0079808D01*
X0156553Y0079808D01*
X0156553Y0081008D01*
X0160505Y0081008D01*
X0160505Y0083571D01*
X0160396Y0083978D01*
X0160186Y0084343D01*
X0159888Y0084641D01*
X0159523Y0084852D01*
X0159116Y0084961D01*
X0156553Y0084961D01*
X0156553Y0081008D01*
X0155353Y0081008D01*
X0155353Y0084961D01*
X0152789Y0084961D01*
X0152382Y0084852D01*
X0152018Y0084641D01*
X0151720Y0084343D01*
X0151509Y0083978D01*
X0151400Y0083571D01*
X0151400Y0081008D01*
X0155353Y0081008D01*
X0155953Y0080408D02*
X0165795Y0080408D01*
X0175638Y0080408D01*
X0185480Y0080408D01*
X0195323Y0080408D01*
X0205165Y0080408D01*
X0217208Y0080408D01*
X0224800Y0088000D01*
X0224800Y0094325D01*
X0224786Y0094275D02*
X0224786Y0094375D01*
X0230335Y0094375D01*
X0230335Y0095836D01*
X0230226Y0096243D01*
X0230016Y0096608D01*
X0229718Y0096905D01*
X0229461Y0097054D01*
X0229935Y0097528D01*
X0229935Y0101122D01*
X0229232Y0101825D01*
X0227135Y0101825D01*
X0229232Y0101825D01*
X0229935Y0102528D01*
X0229935Y0106122D01*
X0229232Y0106825D01*
X0227135Y0106825D01*
X0229232Y0106825D01*
X0229935Y0107528D01*
X0229935Y0111122D01*
X0229232Y0111825D01*
X0227135Y0111825D01*
X0229232Y0111825D01*
X0229935Y0112528D01*
X0229935Y0116122D01*
X0229232Y0116825D01*
X0220238Y0116825D01*
X0219535Y0116122D01*
X0219535Y0112528D01*
X0220238Y0111825D01*
X0219813Y0111400D01*
X0219603Y0111400D01*
X0219123Y0111880D01*
X0218135Y0112289D01*
X0217065Y0112289D01*
X0216077Y0111880D01*
X0215320Y0111123D01*
X0214911Y0110135D01*
X0214911Y0109065D01*
X0215320Y0108077D01*
X0216077Y0107320D01*
X0217065Y0106911D01*
X0218135Y0106911D01*
X0219123Y0107320D01*
X0219535Y0107733D01*
X0219535Y0107528D01*
X0220238Y0106825D01*
X0219535Y0106122D01*
X0219535Y0102528D01*
X0220238Y0101825D01*
X0219535Y0101122D01*
X0219535Y0097528D01*
X0220010Y0097054D01*
X0219753Y0096905D01*
X0219455Y0096608D01*
X0219244Y0096243D01*
X0219135Y0095836D01*
X0219135Y0094375D01*
X0224685Y0094375D01*
X0224685Y0094275D01*
X0219135Y0094275D01*
X0219135Y0092815D01*
X0219244Y0092408D01*
X0219455Y0092043D01*
X0219753Y0091745D01*
X0220118Y0091534D01*
X0220525Y0091425D01*
X0224685Y0091425D01*
X0224685Y0094275D01*
X0224785Y0094275D01*
X0224785Y0091425D01*
X0228946Y0091425D01*
X0229353Y0091534D01*
X0229718Y0091745D01*
X0230016Y0092043D01*
X0230226Y0092408D01*
X0230335Y0092815D01*
X0230335Y0094275D01*
X0224786Y0094275D01*
X0224785Y0093906D02*
X0224685Y0093906D01*
X0224685Y0092708D02*
X0224785Y0092708D01*
X0224785Y0091509D02*
X0224685Y0091509D01*
X0229260Y0091509D02*
X0281187Y0091509D01*
X0279989Y0090311D02*
X0208891Y0090311D01*
X0208615Y0090035D02*
X0209318Y0090738D01*
X0209318Y0097637D01*
X0208615Y0098340D01*
X0206965Y0098340D01*
X0206965Y0099483D01*
X0208812Y0099483D01*
X0209515Y0100186D01*
X0209515Y0106299D01*
X0208831Y0106983D01*
X0209515Y0107667D01*
X0209515Y0113779D01*
X0208812Y0114482D01*
X0203952Y0114482D01*
X0191718Y0126715D01*
X0192280Y0127277D01*
X0192689Y0128265D01*
X0192689Y0129335D01*
X0192280Y0130323D01*
X0191523Y0131080D01*
X0190535Y0131489D01*
X0190386Y0131489D01*
X0190795Y0131898D01*
X0190795Y0133995D01*
X0195673Y0133995D01*
X0196555Y0134361D01*
X0206959Y0144765D01*
X0207635Y0145441D01*
X0208000Y0146323D01*
X0208000Y0148696D01*
X0208615Y0148696D01*
X0209318Y0149399D01*
X0209318Y0150055D01*
X0210855Y0150055D01*
X0210855Y0149399D01*
X0211558Y0148696D01*
X0218458Y0148696D01*
X0219161Y0149399D01*
X0219161Y0150055D01*
X0221333Y0150055D01*
X0222215Y0150420D01*
X0224594Y0152800D01*
X0230417Y0152800D01*
X0230417Y0150372D01*
X0231120Y0149669D01*
X0239201Y0149669D01*
X0239904Y0150372D01*
X0239904Y0160028D01*
X0239201Y0160731D01*
X0231120Y0160731D01*
X0230417Y0160028D01*
X0230417Y0157600D01*
X0223123Y0157600D01*
X0222241Y0157235D01*
X0221565Y0156559D01*
X0219861Y0154855D01*
X0219161Y0154855D01*
X0219161Y0155511D01*
X0218710Y0155962D01*
X0218943Y0156096D01*
X0219241Y0156394D01*
X0219452Y0156759D01*
X0219561Y0157166D01*
X0219561Y0159335D01*
X0215608Y0159335D01*
X0215608Y0160535D01*
X0219561Y0160535D01*
X0219561Y0162705D01*
X0219452Y0163112D01*
X0219241Y0163477D01*
X0218943Y0163775D01*
X0218578Y0163985D01*
X0218171Y0164094D01*
X0215608Y0164094D01*
X0215608Y0160535D01*
X0214408Y0160535D01*
X0214408Y0159335D01*
X0210455Y0159335D01*
X0210455Y0157166D01*
X0210564Y0156759D01*
X0210775Y0156394D01*
X0211073Y0156096D01*
X0211306Y0155962D01*
X0210855Y0155511D01*
X0210855Y0154855D01*
X0209318Y0154855D01*
X0209318Y0155511D01*
X0208868Y0155962D01*
X0209101Y0156096D01*
X0209398Y0156394D01*
X0209609Y0156759D01*
X0209718Y0157166D01*
X0209718Y0159335D01*
X0205765Y0159335D01*
X0205765Y0160535D01*
X0209718Y0160535D01*
X0209718Y0162705D01*
X0209609Y0163112D01*
X0209398Y0163477D01*
X0209101Y0163775D01*
X0208736Y0163985D01*
X0208329Y0164094D01*
X0205765Y0164094D01*
X0205765Y0160535D01*
X0204565Y0160535D01*
X0204565Y0159335D01*
X0200613Y0159335D01*
X0200613Y0157166D01*
X0200722Y0156759D01*
X0200932Y0156394D01*
X0201230Y0156096D01*
X0201463Y0155962D01*
X0201013Y0155511D01*
X0201013Y0149399D01*
X0201716Y0148696D01*
X0203200Y0148696D01*
X0203200Y0147794D01*
X0194201Y0138795D01*
X0190795Y0138795D01*
X0190795Y0140892D01*
X0190092Y0141595D01*
X0186498Y0141595D01*
X0186024Y0141121D01*
X0185876Y0141378D01*
X0185578Y0141676D01*
X0185213Y0141886D01*
X0184806Y0141995D01*
X0183345Y0141995D01*
X0183345Y0136445D01*
X0183245Y0136445D01*
X0183245Y0141995D01*
X0181785Y0141995D01*
X0181378Y0141886D01*
X0181013Y0141676D01*
X0180715Y0141378D01*
X0180567Y0141121D01*
X0180095Y0141592D01*
X0180095Y0146050D01*
X0178289Y0147857D01*
X0178289Y0148535D01*
X0177880Y0149523D01*
X0177123Y0150280D01*
X0176135Y0150689D01*
X0175065Y0150689D01*
X0174077Y0150280D01*
X0173320Y0149523D01*
X0172911Y0148535D01*
X0172911Y0147465D01*
X0173320Y0146477D01*
X0174077Y0145720D01*
X0175065Y0145311D01*
X0175743Y0145311D01*
X0176495Y0144559D01*
X0176495Y0141592D01*
X0175795Y0140892D01*
X0175095Y0141592D01*
X0175095Y0142650D01*
X0169889Y0147857D01*
X0169889Y0148535D01*
X0169480Y0149523D01*
X0168723Y0150280D01*
X0167735Y0150689D01*
X0166665Y0150689D01*
X0165677Y0150280D01*
X0164920Y0149523D01*
X0164511Y0148535D01*
X0164511Y0147465D01*
X0164920Y0146477D01*
X0165677Y0145720D01*
X0166665Y0145311D01*
X0167343Y0145311D01*
X0171279Y0141376D01*
X0170795Y0140892D01*
X0170092Y0141595D01*
X0166498Y0141595D01*
X0165795Y0140892D01*
X0165092Y0141595D01*
X0161498Y0141595D01*
X0160795Y0140892D01*
X0160600Y0141088D01*
X0160600Y0150797D01*
X0161080Y0151277D01*
X0161489Y0152265D01*
X0161489Y0153335D01*
X0161080Y0154323D01*
X0160323Y0155080D01*
X0159335Y0155489D01*
X0158265Y0155489D01*
X0157277Y0155080D01*
X0156520Y0154323D01*
X0156111Y0153335D01*
X0156111Y0152265D01*
X0156520Y0151277D01*
X0157000Y0150797D01*
X0157000Y0141595D01*
X0156498Y0141595D01*
X0155795Y0140892D01*
X0155092Y0141595D01*
X0154600Y0141595D01*
X0154600Y0147197D01*
X0155080Y0147677D01*
X0155489Y0148665D01*
X0155489Y0149735D01*
X0155080Y0150723D01*
X0154323Y0151480D01*
X0153335Y0151889D01*
X0152265Y0151889D01*
X0151277Y0151480D01*
X0150520Y0150723D01*
X0150111Y0149735D01*
X0150111Y0148665D01*
X0150520Y0147677D01*
X0151000Y0147197D01*
X0151000Y0141097D01*
X0150795Y0140892D01*
X0150092Y0141595D01*
X0146498Y0141595D01*
X0145795Y0140892D01*
X0145092Y0141595D01*
X0141498Y0141595D01*
X0140795Y0140892D01*
X0140795Y0136441D01*
X0135522Y0131168D01*
X0134468Y0130113D01*
X0134468Y0116346D01*
X0129688Y0121125D01*
X0112052Y0121125D01*
X0111352Y0121825D01*
X0109255Y0121825D01*
X0109255Y0121825D01*
X0111352Y0121825D01*
X0112055Y0122528D01*
X0112055Y0126122D01*
X0111352Y0126825D01*
X0109255Y0126825D01*
X0109255Y0126825D01*
X0111352Y0126825D01*
X0112055Y0127528D01*
X0112055Y0131122D01*
X0111352Y0131825D01*
X0109255Y0131825D01*
X0109255Y0131825D01*
X0111352Y0131825D01*
X0112055Y0132528D01*
X0112055Y0136122D01*
X0111581Y0136597D01*
X0111838Y0136745D01*
X0112135Y0137043D01*
X0112346Y0137408D01*
X0112455Y0137815D01*
X0112455Y0139275D01*
X0106905Y0139275D01*
X0106905Y0139375D01*
X0112455Y0139375D01*
X0112455Y0140836D01*
X0112346Y0141243D01*
X0112135Y0141608D01*
X0111838Y0141905D01*
X0111473Y0142116D01*
X0111066Y0142225D01*
X0106905Y0142225D01*
X0106905Y0139375D01*
X0106805Y0139375D01*
X0106805Y0139275D01*
X0101255Y0139275D01*
X0101255Y0137815D01*
X0101364Y0137408D01*
X0101575Y0137043D01*
X0101873Y0136745D01*
X0102129Y0136597D01*
X0101655Y0136122D01*
X0101655Y0132528D01*
X0102358Y0131825D01*
X0101655Y0131122D01*
X0101655Y0127528D01*
X0102358Y0126825D01*
X0101655Y0126122D01*
X0101655Y0122528D01*
X0102358Y0121825D01*
X0101655Y0121122D01*
X0101655Y0117528D01*
X0102358Y0116825D01*
X0101655Y0116122D01*
X0101655Y0112528D01*
X0102358Y0111825D01*
X0101655Y0111122D01*
X0101655Y0107528D01*
X0102358Y0106825D01*
X0101655Y0106122D01*
X0101655Y0102528D01*
X0102358Y0101825D01*
X0101655Y0101122D01*
X0101655Y0097528D01*
X0102129Y0097054D01*
X0101873Y0096905D01*
X0101575Y0096608D01*
X0101364Y0096243D01*
X0101255Y0095836D01*
X0101255Y0094375D01*
X0106805Y0094375D01*
X0106805Y0094275D01*
X0106905Y0094275D01*
X0106905Y0091425D01*
X0111066Y0091425D01*
X0111473Y0091534D01*
X0111838Y0091745D01*
X0112135Y0092043D01*
X0112346Y0092408D01*
X0112455Y0092815D01*
X0112455Y0094275D01*
X0106905Y0094275D01*
X0106905Y0094375D01*
X0112455Y0094375D01*
X0112455Y0095836D01*
X0112346Y0096243D01*
X0112135Y0096608D01*
X0111838Y0096905D01*
X0111581Y0097054D01*
X0112055Y0097528D01*
X0112055Y0101122D01*
X0111352Y0101825D01*
X0109255Y0101825D01*
X0109255Y0101825D01*
X0111352Y0101825D01*
X0112055Y0102528D01*
X0112055Y0106122D01*
X0111352Y0106825D01*
X0109255Y0106825D01*
X0109255Y0106825D01*
X0111352Y0106825D01*
X0112052Y0107525D01*
X0113872Y0107525D01*
X0114077Y0107320D01*
X0115065Y0106911D01*
X0116135Y0106911D01*
X0117123Y0107320D01*
X0117880Y0108077D01*
X0118289Y0109065D01*
X0118289Y0110135D01*
X0117880Y0111123D01*
X0117123Y0111880D01*
X0116135Y0112289D01*
X0115065Y0112289D01*
X0114077Y0111880D01*
X0113322Y0111125D01*
X0112052Y0111125D01*
X0111352Y0111825D01*
X0109255Y0111825D01*
X0109255Y0111825D01*
X0111352Y0111825D01*
X0112055Y0112528D01*
X0112055Y0116122D01*
X0111352Y0116825D01*
X0102358Y0116825D01*
X0111352Y0116825D01*
X0112052Y0117525D01*
X0128197Y0117525D01*
X0131931Y0113791D01*
X0131918Y0113779D01*
X0131918Y0107667D01*
X0132602Y0106983D01*
X0131918Y0106299D01*
X0131918Y0100186D01*
X0132621Y0099483D01*
X0134468Y0099483D01*
X0134468Y0098340D01*
X0132818Y0098340D01*
X0132115Y0097637D01*
X0132115Y0090738D01*
X0132818Y0090035D01*
X0139718Y0090035D01*
X0140420Y0090738D01*
X0140420Y0097637D01*
X0139718Y0098340D01*
X0138068Y0098340D01*
X0138068Y0099483D01*
X0139914Y0099483D01*
X0140617Y0100186D01*
X0140617Y0106299D01*
X0139933Y0106983D01*
X0140617Y0107667D01*
X0140617Y0113779D01*
X0139914Y0114482D01*
X0138068Y0114482D01*
X0138068Y0128622D01*
X0141070Y0131624D01*
X0141498Y0131195D01*
X0145092Y0131195D01*
X0145795Y0131898D01*
X0145795Y0140892D01*
X0145795Y0131898D01*
X0146495Y0131198D01*
X0146495Y0127441D01*
X0144854Y0125800D01*
X0143800Y0124746D01*
X0143800Y0121862D01*
X0143735Y0121889D01*
X0142665Y0121889D01*
X0141677Y0121480D01*
X0140920Y0120723D01*
X0140511Y0119735D01*
X0140511Y0118665D01*
X0140920Y0117677D01*
X0141677Y0116920D01*
X0142665Y0116511D01*
X0143343Y0116511D01*
X0143800Y0116054D01*
X0143800Y0114482D01*
X0142464Y0114482D01*
X0141761Y0113779D01*
X0141761Y0107667D01*
X0142445Y0106983D01*
X0141761Y0106299D01*
X0141761Y0100186D01*
X0142464Y0099483D01*
X0144310Y0099483D01*
X0144310Y0098340D01*
X0142660Y0098340D01*
X0141957Y0097637D01*
X0141957Y0090738D01*
X0142660Y0090035D01*
X0149560Y0090035D01*
X0150263Y0090738D01*
X0150263Y0097637D01*
X0149560Y0098340D01*
X0147910Y0098340D01*
X0147910Y0099483D01*
X0149757Y0099483D01*
X0150460Y0100186D01*
X0150460Y0106299D01*
X0149776Y0106983D01*
X0150460Y0107667D01*
X0150460Y0113779D01*
X0149757Y0114482D01*
X0147400Y0114482D01*
X0147400Y0123254D01*
X0150095Y0125950D01*
X0150095Y0131198D01*
X0150795Y0131898D01*
X0150795Y0140892D01*
X0150795Y0131898D01*
X0151495Y0131198D01*
X0151495Y0121889D01*
X0151065Y0121889D01*
X0150077Y0121480D01*
X0149320Y0120723D01*
X0148911Y0119735D01*
X0148911Y0118665D01*
X0149320Y0117677D01*
X0150077Y0116920D01*
X0151000Y0116538D01*
X0151000Y0113130D01*
X0151603Y0112527D01*
X0151603Y0107667D01*
X0152287Y0106983D01*
X0151603Y0106299D01*
X0151603Y0100186D01*
X0152306Y0099483D01*
X0154153Y0099483D01*
X0154153Y0098340D01*
X0152503Y0098340D01*
X0151800Y0097637D01*
X0151800Y0090738D01*
X0152503Y0090035D01*
X0159403Y0090035D01*
X0160105Y0090738D01*
X0160105Y0097637D01*
X0159403Y0098340D01*
X0157753Y0098340D01*
X0157753Y0099483D01*
X0159599Y0099483D01*
X0160302Y0100186D01*
X0160302Y0106299D01*
X0159618Y0106983D01*
X0160302Y0107667D01*
X0160302Y0113779D01*
X0159599Y0114482D01*
X0154739Y0114482D01*
X0154600Y0114621D01*
X0154600Y0118746D01*
X0154289Y0119057D01*
X0154289Y0119343D01*
X0155095Y0120150D01*
X0155095Y0131198D01*
X0155795Y0131898D01*
X0155795Y0140892D01*
X0155795Y0131898D01*
X0156495Y0131198D01*
X0156495Y0123063D01*
X0156111Y0122135D01*
X0156111Y0121065D01*
X0156520Y0120077D01*
X0157277Y0119320D01*
X0158265Y0118911D01*
X0159335Y0118911D01*
X0160323Y0119320D01*
X0161080Y0120077D01*
X0161167Y0120288D01*
X0163995Y0117459D01*
X0163995Y0114482D01*
X0162149Y0114482D01*
X0161446Y0113779D01*
X0161446Y0107667D01*
X0162130Y0106983D01*
X0161446Y0106299D01*
X0161446Y0100186D01*
X0162149Y0099483D01*
X0163995Y0099483D01*
X0163995Y0098340D01*
X0162345Y0098340D01*
X0161643Y0097637D01*
X0161643Y0090738D01*
X0162345Y0090035D01*
X0169245Y0090035D01*
X0169948Y0090738D01*
X0169948Y0097637D01*
X0169245Y0098340D01*
X0167595Y0098340D01*
X0167595Y0099483D01*
X0169442Y0099483D01*
X0170145Y0100186D01*
X0170145Y0106299D01*
X0169461Y0106983D01*
X0170145Y0107667D01*
X0170145Y0113779D01*
X0169442Y0114482D01*
X0167595Y0114482D01*
X0167595Y0118950D01*
X0166541Y0120005D01*
X0160095Y0126450D01*
X0160095Y0131198D01*
X0160795Y0131898D01*
X0160795Y0140892D01*
X0160795Y0131898D01*
X0161495Y0131198D01*
X0161495Y0125959D01*
X0162550Y0124905D01*
X0166454Y0121000D01*
X0167654Y0121000D01*
X0169311Y0119343D01*
X0169311Y0118665D01*
X0169720Y0117677D01*
X0170477Y0116920D01*
X0171465Y0116511D01*
X0172143Y0116511D01*
X0172600Y0116054D01*
X0172600Y0114482D01*
X0171991Y0114482D01*
X0171288Y0113779D01*
X0171288Y0107667D01*
X0171972Y0106983D01*
X0171288Y0106299D01*
X0171288Y0100186D01*
X0171991Y0099483D01*
X0173838Y0099483D01*
X0173838Y0098340D01*
X0172188Y0098340D01*
X0171485Y0097637D01*
X0171485Y0090738D01*
X0172188Y0090035D01*
X0179088Y0090035D01*
X0179791Y0090738D01*
X0179791Y0097637D01*
X0179088Y0098340D01*
X0177438Y0098340D01*
X0177438Y0099483D01*
X0179284Y0099483D01*
X0179987Y0100186D01*
X0179987Y0106299D01*
X0179303Y0106983D01*
X0179987Y0107667D01*
X0179987Y0113670D01*
X0181131Y0112527D01*
X0181131Y0107667D01*
X0181815Y0106983D01*
X0181131Y0106299D01*
X0181131Y0100186D01*
X0181834Y0099483D01*
X0183680Y0099483D01*
X0183680Y0098340D01*
X0182030Y0098340D01*
X0181328Y0097637D01*
X0181328Y0090738D01*
X0182030Y0090035D01*
X0188930Y0090035D01*
X0189633Y0090738D01*
X0189633Y0097637D01*
X0188930Y0098340D01*
X0187280Y0098340D01*
X0187280Y0099483D01*
X0189127Y0099483D01*
X0189830Y0100186D01*
X0189830Y0106299D01*
X0189146Y0106983D01*
X0189830Y0107667D01*
X0189830Y0113670D01*
X0190973Y0112527D01*
X0190973Y0107667D01*
X0191657Y0106983D01*
X0190973Y0106299D01*
X0190973Y0100186D01*
X0191676Y0099483D01*
X0193523Y0099483D01*
X0193523Y0098340D01*
X0191873Y0098340D01*
X0191170Y0097637D01*
X0191170Y0090738D01*
X0191873Y0090035D01*
X0198773Y0090035D01*
X0199476Y0090738D01*
X0199476Y0097637D01*
X0198773Y0098340D01*
X0197123Y0098340D01*
X0197123Y0099483D01*
X0198969Y0099483D01*
X0199672Y0100186D01*
X0199672Y0106299D01*
X0198988Y0106983D01*
X0199672Y0107667D01*
X0199672Y0113670D01*
X0200816Y0112527D01*
X0200816Y0107667D01*
X0201500Y0106983D01*
X0200816Y0106299D01*
X0200816Y0100186D01*
X0201519Y0099483D01*
X0203365Y0099483D01*
X0203365Y0098340D01*
X0201716Y0098340D01*
X0201013Y0097637D01*
X0201013Y0090738D01*
X0201716Y0090035D01*
X0208615Y0090035D01*
X0209318Y0091509D02*
X0220211Y0091509D01*
X0219164Y0092708D02*
X0209318Y0092708D01*
X0209318Y0093906D02*
X0219135Y0093906D01*
X0219135Y0095105D02*
X0209318Y0095105D01*
X0209318Y0096303D02*
X0219279Y0096303D01*
X0219562Y0097502D02*
X0209318Y0097502D01*
X0209227Y0099899D02*
X0219535Y0099899D01*
X0219535Y0101097D02*
X0209515Y0101097D01*
X0209515Y0102296D02*
X0219768Y0102296D01*
X0220238Y0101825D02*
X0222335Y0101825D01*
X0220238Y0101825D01*
X0219535Y0103494D02*
X0209515Y0103494D01*
X0209515Y0104693D02*
X0219535Y0104693D01*
X0219535Y0105891D02*
X0209515Y0105891D01*
X0208938Y0107090D02*
X0216633Y0107090D01*
X0215233Y0108288D02*
X0209515Y0108288D01*
X0209515Y0109487D02*
X0214911Y0109487D01*
X0215139Y0110685D02*
X0209515Y0110685D01*
X0209515Y0111884D02*
X0216087Y0111884D01*
X0217600Y0109600D02*
X0224461Y0109600D01*
X0224735Y0109325D01*
X0222335Y0106825D02*
X0222335Y0106825D01*
X0220238Y0106825D01*
X0222335Y0106825D01*
X0219974Y0107090D02*
X0218567Y0107090D01*
X0219113Y0111884D02*
X0220180Y0111884D01*
X0220238Y0111825D02*
X0222335Y0111825D01*
X0222335Y0111825D01*
X0220238Y0111825D01*
X0219535Y0113082D02*
X0209515Y0113082D01*
X0209013Y0114281D02*
X0219535Y0114281D01*
X0219535Y0115479D02*
X0202954Y0115479D01*
X0201756Y0116678D02*
X0216662Y0116678D01*
X0217065Y0116511D02*
X0218135Y0116511D01*
X0219123Y0116920D01*
X0219603Y0117400D01*
X0219664Y0117400D01*
X0220238Y0116825D01*
X0229232Y0116825D01*
X0229935Y0117528D01*
X0229935Y0121122D01*
X0229232Y0121825D01*
X0227135Y0121825D01*
X0229232Y0121825D01*
X0229935Y0122528D01*
X0229935Y0126122D01*
X0229232Y0126825D01*
X0227135Y0126825D01*
X0229232Y0126825D01*
X0229935Y0127528D01*
X0229935Y0131122D01*
X0229232Y0131825D01*
X0227135Y0131825D01*
X0229232Y0131825D01*
X0229935Y0132528D01*
X0229935Y0136122D01*
X0229461Y0136597D01*
X0229718Y0136745D01*
X0230016Y0137043D01*
X0230226Y0137408D01*
X0230335Y0137815D01*
X0230335Y0139275D01*
X0224786Y0139275D01*
X0224786Y0139375D01*
X0230335Y0139375D01*
X0230335Y0140836D01*
X0230226Y0141243D01*
X0230016Y0141608D01*
X0229718Y0141905D01*
X0229353Y0142116D01*
X0228946Y0142225D01*
X0224785Y0142225D01*
X0224785Y0139375D01*
X0224685Y0139375D01*
X0224685Y0139275D01*
X0219135Y0139275D01*
X0219135Y0137815D01*
X0219244Y0137408D01*
X0219455Y0137043D01*
X0219753Y0136745D01*
X0220010Y0136597D01*
X0219535Y0136122D01*
X0219535Y0132528D01*
X0220238Y0131825D01*
X0219535Y0131122D01*
X0219535Y0127528D01*
X0220238Y0126825D01*
X0219535Y0126122D01*
X0219535Y0122528D01*
X0220238Y0121825D01*
X0219535Y0121122D01*
X0219535Y0121067D01*
X0219123Y0121480D01*
X0218135Y0121889D01*
X0217065Y0121889D01*
X0216077Y0121480D01*
X0215320Y0120723D01*
X0214911Y0119735D01*
X0214911Y0118665D01*
X0215320Y0117677D01*
X0216077Y0116920D01*
X0217065Y0116511D01*
X0218538Y0116678D02*
X0220091Y0116678D01*
X0217600Y0119200D02*
X0224610Y0119200D01*
X0224735Y0119325D01*
X0222335Y0121825D02*
X0220238Y0121825D01*
X0222335Y0121825D01*
X0222335Y0121825D01*
X0219885Y0121472D02*
X0219131Y0121472D01*
X0219535Y0122670D02*
X0195763Y0122670D01*
X0196962Y0121472D02*
X0216069Y0121472D01*
X0215134Y0120273D02*
X0198160Y0120273D01*
X0199359Y0119075D02*
X0214911Y0119075D01*
X0215238Y0117876D02*
X0200557Y0117876D01*
X0197863Y0115479D02*
X0193112Y0115479D01*
X0194109Y0114482D02*
X0184512Y0124079D01*
X0184512Y0124758D01*
X0184102Y0125746D01*
X0183346Y0126502D01*
X0182358Y0126912D01*
X0181679Y0126912D01*
X0181591Y0127000D01*
X0177546Y0127000D01*
X0175095Y0129450D01*
X0175095Y0131198D01*
X0175795Y0131898D01*
X0175795Y0140892D01*
X0175795Y0131898D01*
X0176200Y0131493D01*
X0176200Y0130454D01*
X0177254Y0129400D01*
X0178600Y0128054D01*
X0179654Y0127000D01*
X0186343Y0127000D01*
X0198861Y0114482D01*
X0194109Y0114482D01*
X0191913Y0116678D02*
X0196665Y0116678D01*
X0195466Y0117876D02*
X0190715Y0117876D01*
X0189516Y0119075D02*
X0194268Y0119075D01*
X0193069Y0120273D02*
X0188318Y0120273D01*
X0187119Y0121472D02*
X0191871Y0121472D01*
X0190672Y0122670D02*
X0185921Y0122670D01*
X0184722Y0123869D02*
X0189474Y0123869D01*
X0188275Y0125068D02*
X0184383Y0125068D01*
X0183582Y0126266D02*
X0187077Y0126266D01*
X0187088Y0128800D02*
X0190000Y0128800D01*
X0192471Y0129862D02*
X0219535Y0129862D01*
X0219535Y0131060D02*
X0191543Y0131060D01*
X0190795Y0132259D02*
X0219805Y0132259D01*
X0220238Y0131825D02*
X0222335Y0131825D01*
X0220238Y0131825D01*
X0219535Y0133457D02*
X0190795Y0133457D01*
X0188756Y0131195D02*
X0188477Y0131080D01*
X0187997Y0130600D01*
X0186343Y0130600D01*
X0181146Y0130600D01*
X0180321Y0131424D01*
X0180567Y0131670D01*
X0180715Y0131413D01*
X0181013Y0131115D01*
X0181378Y0130904D01*
X0181785Y0130795D01*
X0183245Y0130795D01*
X0183245Y0136345D01*
X0183345Y0136345D01*
X0183345Y0130795D01*
X0184806Y0130795D01*
X0185213Y0130904D01*
X0185578Y0131115D01*
X0185876Y0131413D01*
X0186024Y0131670D01*
X0186498Y0131195D01*
X0188756Y0131195D01*
X0188457Y0131060D02*
X0185483Y0131060D01*
X0183345Y0131060D02*
X0183245Y0131060D01*
X0183245Y0132259D02*
X0183345Y0132259D01*
X0183345Y0133457D02*
X0183245Y0133457D01*
X0183245Y0134656D02*
X0183345Y0134656D01*
X0183345Y0135854D02*
X0183245Y0135854D01*
X0183245Y0137053D02*
X0183345Y0137053D01*
X0183345Y0138251D02*
X0183245Y0138251D01*
X0183245Y0139450D02*
X0183345Y0139450D01*
X0183345Y0140648D02*
X0183245Y0140648D01*
X0183245Y0141847D02*
X0183345Y0141847D01*
X0185281Y0141847D02*
X0197253Y0141847D01*
X0198451Y0143045D02*
X0180095Y0143045D01*
X0180095Y0141847D02*
X0181309Y0141847D01*
X0180095Y0144244D02*
X0199650Y0144244D01*
X0200848Y0145442D02*
X0180095Y0145442D01*
X0179505Y0146641D02*
X0202047Y0146641D01*
X0203200Y0147839D02*
X0178306Y0147839D01*
X0178081Y0149038D02*
X0201374Y0149038D01*
X0201013Y0150236D02*
X0177167Y0150236D01*
X0175600Y0148000D02*
X0178295Y0145305D01*
X0178295Y0136395D01*
X0178000Y0136100D01*
X0178000Y0131200D01*
X0180400Y0128800D01*
X0187088Y0128800D01*
X0205165Y0110723D01*
X0200816Y0110685D02*
X0199672Y0110685D01*
X0199672Y0109487D02*
X0200816Y0109487D01*
X0200816Y0108288D02*
X0199672Y0108288D01*
X0199096Y0107090D02*
X0201393Y0107090D01*
X0200816Y0105891D02*
X0199672Y0105891D01*
X0199672Y0104693D02*
X0200816Y0104693D01*
X0200816Y0103494D02*
X0199672Y0103494D01*
X0199672Y0102296D02*
X0200816Y0102296D01*
X0200816Y0101097D02*
X0199672Y0101097D01*
X0199385Y0099899D02*
X0201103Y0099899D01*
X0201013Y0097502D02*
X0199476Y0097502D01*
X0199476Y0096303D02*
X0201013Y0096303D01*
X0201013Y0095105D02*
X0199476Y0095105D01*
X0199476Y0093906D02*
X0201013Y0093906D01*
X0201013Y0092708D02*
X0199476Y0092708D01*
X0199476Y0091509D02*
X0201013Y0091509D01*
X0201440Y0090311D02*
X0199049Y0090311D01*
X0198486Y0084961D02*
X0195923Y0084961D01*
X0195923Y0081008D01*
X0199876Y0081008D01*
X0199876Y0083571D01*
X0199767Y0083978D01*
X0199556Y0084343D01*
X0199258Y0084641D01*
X0198893Y0084852D01*
X0198486Y0084961D01*
X0199570Y0084318D02*
X0200918Y0084318D01*
X0200932Y0084343D02*
X0200722Y0083978D01*
X0200613Y0083571D01*
X0200613Y0081008D01*
X0204565Y0081008D01*
X0204565Y0079808D01*
X0200613Y0079808D01*
X0200613Y0077244D01*
X0200722Y0076838D01*
X0200932Y0076473D01*
X0201230Y0076175D01*
X0201595Y0075964D01*
X0202002Y0075855D01*
X0204565Y0075855D01*
X0204565Y0079808D01*
X0205765Y0079808D01*
X0205765Y0075855D01*
X0208329Y0075855D01*
X0208736Y0075964D01*
X0209101Y0076175D01*
X0209398Y0076473D01*
X0209609Y0076838D01*
X0209718Y0077244D01*
X0209718Y0079808D01*
X0205765Y0079808D01*
X0205765Y0081008D01*
X0204565Y0081008D01*
X0204565Y0084961D01*
X0202002Y0084961D01*
X0201595Y0084852D01*
X0201230Y0084641D01*
X0200932Y0084343D01*
X0200613Y0083120D02*
X0199876Y0083120D01*
X0199876Y0081921D02*
X0200613Y0081921D01*
X0199876Y0079808D02*
X0195923Y0079808D01*
X0195923Y0081008D01*
X0194723Y0081008D01*
X0194723Y0084961D01*
X0192159Y0084961D01*
X0191752Y0084852D01*
X0191388Y0084641D01*
X0191090Y0084343D01*
X0190879Y0083978D01*
X0190770Y0083571D01*
X0190770Y0081008D01*
X0194723Y0081008D01*
X0194723Y0079808D01*
X0195923Y0079808D01*
X0195923Y0075855D01*
X0198486Y0075855D01*
X0198893Y0075964D01*
X0199258Y0076175D01*
X0199556Y0076473D01*
X0199767Y0076838D01*
X0199876Y0077244D01*
X0199876Y0079808D01*
X0199876Y0079524D02*
X0200613Y0079524D01*
X0200613Y0078326D02*
X0199876Y0078326D01*
X0199844Y0077127D02*
X0200644Y0077127D01*
X0201728Y0075929D02*
X0198760Y0075929D01*
X0195923Y0075929D02*
X0194723Y0075929D01*
X0194723Y0075855D02*
X0194723Y0079808D01*
X0190770Y0079808D01*
X0190770Y0077244D01*
X0190879Y0076838D01*
X0191090Y0076473D01*
X0191388Y0076175D01*
X0191752Y0075964D01*
X0192159Y0075855D01*
X0194723Y0075855D01*
X0194723Y0077127D02*
X0195923Y0077127D01*
X0195923Y0078326D02*
X0194723Y0078326D01*
X0194723Y0079524D02*
X0195923Y0079524D01*
X0195923Y0080723D02*
X0204565Y0080723D01*
X0204565Y0081921D02*
X0205765Y0081921D01*
X0205765Y0081008D02*
X0205765Y0084961D01*
X0208329Y0084961D01*
X0208736Y0084852D01*
X0209101Y0084641D01*
X0209398Y0084343D01*
X0209609Y0083978D01*
X0209718Y0083571D01*
X0209718Y0081008D01*
X0205765Y0081008D01*
X0205765Y0080723D02*
X0236664Y0080723D01*
X0236636Y0080619D02*
X0236636Y0078055D01*
X0240195Y0078055D01*
X0240195Y0076855D01*
X0236636Y0076855D01*
X0236636Y0074292D01*
X0236745Y0073885D01*
X0236956Y0073520D01*
X0237254Y0073222D01*
X0237619Y0073011D01*
X0238026Y0072902D01*
X0240195Y0072902D01*
X0240195Y0076855D01*
X0241395Y0076855D01*
X0241395Y0072902D01*
X0243565Y0072902D01*
X0243972Y0073011D01*
X0244337Y0073222D01*
X0244635Y0073520D01*
X0244769Y0073753D01*
X0245219Y0073302D01*
X0251332Y0073302D01*
X0252035Y0074005D01*
X0252035Y0077820D01*
X0254959Y0080745D01*
X0255635Y0081420D01*
X0256000Y0082302D01*
X0256000Y0084367D01*
X0256289Y0085065D01*
X0256289Y0086135D01*
X0255880Y0087123D01*
X0255123Y0087880D01*
X0254135Y0088289D01*
X0253065Y0088289D01*
X0252077Y0087880D01*
X0251320Y0087123D01*
X0250911Y0086135D01*
X0250911Y0085065D01*
X0251200Y0084367D01*
X0251200Y0083774D01*
X0249034Y0081608D01*
X0245219Y0081608D01*
X0244769Y0081157D01*
X0244635Y0081390D01*
X0244337Y0081688D01*
X0243972Y0081899D01*
X0243565Y0082008D01*
X0241395Y0082008D01*
X0241395Y0078055D01*
X0240195Y0078055D01*
X0240195Y0082008D01*
X0238026Y0082008D01*
X0237619Y0081899D01*
X0237254Y0081688D01*
X0236956Y0081390D01*
X0236745Y0081025D01*
X0236636Y0080619D01*
X0236636Y0079524D02*
X0209718Y0079524D01*
X0209718Y0078326D02*
X0236636Y0078326D01*
X0236636Y0075929D02*
X0208603Y0075929D01*
X0209687Y0077127D02*
X0240195Y0077127D01*
X0240195Y0075929D02*
X0241395Y0075929D01*
X0241395Y0074730D02*
X0240195Y0074730D01*
X0240195Y0073532D02*
X0241395Y0073532D01*
X0244641Y0073532D02*
X0244990Y0073532D01*
X0241395Y0078326D02*
X0240195Y0078326D01*
X0240195Y0079524D02*
X0241395Y0079524D01*
X0241395Y0080723D02*
X0240195Y0080723D01*
X0240195Y0081921D02*
X0241395Y0081921D01*
X0243889Y0081921D02*
X0249347Y0081921D01*
X0250546Y0083120D02*
X0209718Y0083120D01*
X0209718Y0081921D02*
X0237702Y0081921D01*
X0236636Y0074730D02*
X0094954Y0074730D01*
X0094954Y0074292D02*
X0094954Y0076855D01*
X0091395Y0076855D01*
X0091395Y0072902D01*
X0093565Y0072902D01*
X0093972Y0073011D01*
X0094337Y0073222D01*
X0094635Y0073520D01*
X0094845Y0073885D01*
X0094954Y0074292D01*
X0094641Y0073532D02*
X0236949Y0073532D01*
X0251561Y0073532D02*
X0263210Y0073532D01*
X0264408Y0074730D02*
X0252035Y0074730D01*
X0252035Y0075929D02*
X0265607Y0075929D01*
X0266805Y0077127D02*
X0252035Y0077127D01*
X0252540Y0078326D02*
X0268004Y0078326D01*
X0269202Y0079524D02*
X0253739Y0079524D01*
X0254937Y0080723D02*
X0270401Y0080723D01*
X0271599Y0081921D02*
X0255842Y0081921D01*
X0256000Y0083120D02*
X0272798Y0083120D01*
X0273996Y0084318D02*
X0256000Y0084318D01*
X0256289Y0085517D02*
X0275195Y0085517D01*
X0276393Y0086715D02*
X0256049Y0086715D01*
X0255041Y0087914D02*
X0277592Y0087914D01*
X0278790Y0089112D02*
X0080682Y0089112D01*
X0081626Y0088169D02*
X0073434Y0096360D01*
X0072552Y0096725D01*
X0072203Y0096725D01*
X0072238Y0096745D01*
X0072535Y0097043D01*
X0072746Y0097408D01*
X0072855Y0097815D01*
X0072855Y0099275D01*
X0067305Y0099275D01*
X0067305Y0099375D01*
X0072855Y0099375D01*
X0072855Y0100836D01*
X0072746Y0101243D01*
X0072535Y0101608D01*
X0072238Y0101905D01*
X0071981Y0102054D01*
X0072455Y0102528D01*
X0072455Y0106122D01*
X0071752Y0106825D01*
X0069655Y0106825D01*
X0069655Y0106825D01*
X0071752Y0106825D01*
X0072455Y0107528D01*
X0072455Y0111122D01*
X0071752Y0111825D01*
X0069655Y0111825D01*
X0069655Y0111825D01*
X0071752Y0111825D01*
X0072455Y0112528D01*
X0072455Y0116122D01*
X0071752Y0116825D01*
X0069655Y0116825D01*
X0069655Y0116825D01*
X0071752Y0116825D01*
X0072455Y0117528D01*
X0072455Y0121122D01*
X0071752Y0121825D01*
X0062758Y0121825D01*
X0062055Y0121122D01*
X0062055Y0117528D01*
X0062758Y0116825D01*
X0062055Y0116122D01*
X0062055Y0114225D01*
X0053742Y0114225D01*
X0052751Y0115216D01*
X0051281Y0115825D01*
X0044089Y0115825D01*
X0042619Y0115216D01*
X0041494Y0114091D01*
X0040885Y0112621D01*
X0040885Y0111030D01*
X0041494Y0109559D01*
X0042619Y0108434D01*
X0044089Y0107825D01*
X0051281Y0107825D01*
X0052751Y0108434D01*
X0053742Y0109425D01*
X0062055Y0109425D01*
X0062055Y0107528D01*
X0062758Y0106825D01*
X0062055Y0106122D01*
X0062055Y0102528D01*
X0062530Y0102054D01*
X0062273Y0101905D01*
X0061975Y0101608D01*
X0061764Y0101243D01*
X0061655Y0100836D01*
X0061655Y0099375D01*
X0067205Y0099375D01*
X0067205Y0099275D01*
X0061655Y0099275D01*
X0061655Y0097815D01*
X0061764Y0097408D01*
X0061975Y0097043D01*
X0062273Y0096745D01*
X0062530Y0096597D01*
X0062055Y0096122D01*
X0062055Y0092528D01*
X0062758Y0091825D01*
X0071181Y0091825D01*
X0078231Y0084774D01*
X0078400Y0084367D01*
X0078400Y0079493D01*
X0078765Y0078611D01*
X0079441Y0077935D01*
X0079556Y0077820D01*
X0079556Y0074005D01*
X0080259Y0073302D01*
X0086371Y0073302D01*
X0086821Y0073753D01*
X0086956Y0073520D01*
X0087254Y0073222D01*
X0087619Y0073011D01*
X0088026Y0072902D01*
X0090195Y0072902D01*
X0090195Y0076855D01*
X0091395Y0076855D01*
X0091395Y0078055D01*
X0090195Y0078055D01*
X0090195Y0082008D01*
X0088026Y0082008D01*
X0087619Y0081899D01*
X0087254Y0081688D01*
X0086956Y0081390D01*
X0086821Y0081157D01*
X0086371Y0081608D01*
X0083200Y0081608D01*
X0083200Y0084367D01*
X0083489Y0085065D01*
X0083489Y0086135D01*
X0083080Y0087123D01*
X0082323Y0087880D01*
X0081626Y0088169D01*
X0082241Y0087914D02*
X0252159Y0087914D01*
X0251151Y0086715D02*
X0083249Y0086715D01*
X0083489Y0085517D02*
X0250911Y0085517D01*
X0251200Y0084318D02*
X0209413Y0084318D01*
X0205765Y0084318D02*
X0204565Y0084318D01*
X0204565Y0083120D02*
X0205765Y0083120D01*
X0205765Y0079524D02*
X0204565Y0079524D01*
X0204565Y0078326D02*
X0205765Y0078326D01*
X0205765Y0077127D02*
X0204565Y0077127D01*
X0204565Y0075929D02*
X0205765Y0075929D01*
X0195923Y0081921D02*
X0194723Y0081921D01*
X0194723Y0080723D02*
X0186080Y0080723D01*
X0186080Y0081008D02*
X0186080Y0079808D01*
X0186080Y0075855D01*
X0188644Y0075855D01*
X0189051Y0075964D01*
X0189415Y0076175D01*
X0189713Y0076473D01*
X0189924Y0076838D01*
X0190033Y0077244D01*
X0190033Y0079808D01*
X0186080Y0079808D01*
X0184880Y0079808D01*
X0180928Y0079808D01*
X0180928Y0077244D01*
X0181037Y0076838D01*
X0181247Y0076473D01*
X0181545Y0076175D01*
X0181910Y0075964D01*
X0182317Y0075855D01*
X0184880Y0075855D01*
X0184880Y0079808D01*
X0184880Y0081008D01*
X0180928Y0081008D01*
X0180928Y0083571D01*
X0181037Y0083978D01*
X0181247Y0084343D01*
X0181545Y0084641D01*
X0181910Y0084852D01*
X0182317Y0084961D01*
X0184880Y0084961D01*
X0184880Y0081008D01*
X0186080Y0081008D01*
X0186080Y0084961D01*
X0188644Y0084961D01*
X0189051Y0084852D01*
X0189415Y0084641D01*
X0189713Y0084343D01*
X0189924Y0083978D01*
X0190033Y0083571D01*
X0190033Y0081008D01*
X0186080Y0081008D01*
X0186080Y0081921D02*
X0184880Y0081921D01*
X0184880Y0080723D02*
X0176238Y0080723D01*
X0176238Y0081008D02*
X0176238Y0079808D01*
X0180191Y0079808D01*
X0180191Y0077244D01*
X0180082Y0076838D01*
X0179871Y0076473D01*
X0179573Y0076175D01*
X0179208Y0075964D01*
X0178801Y0075855D01*
X0176238Y0075855D01*
X0176238Y0079808D01*
X0175038Y0079808D01*
X0175038Y0075855D01*
X0172474Y0075855D01*
X0172067Y0075964D01*
X0171703Y0076175D01*
X0171405Y0076473D01*
X0171194Y0076838D01*
X0171085Y0077244D01*
X0171085Y0079808D01*
X0175038Y0079808D01*
X0175038Y0081008D01*
X0175038Y0084961D01*
X0172474Y0084961D01*
X0172067Y0084852D01*
X0171703Y0084641D01*
X0171405Y0084343D01*
X0171194Y0083978D01*
X0171085Y0083571D01*
X0171085Y0081008D01*
X0175038Y0081008D01*
X0176238Y0081008D01*
X0180191Y0081008D01*
X0180191Y0083571D01*
X0180082Y0083978D01*
X0179871Y0084343D01*
X0179573Y0084641D01*
X0179208Y0084852D01*
X0178801Y0084961D01*
X0176238Y0084961D01*
X0176238Y0081008D01*
X0176238Y0081921D02*
X0175038Y0081921D01*
X0175038Y0080723D02*
X0166395Y0080723D01*
X0166395Y0081008D02*
X0166395Y0079808D01*
X0166395Y0075855D01*
X0168959Y0075855D01*
X0169366Y0075964D01*
X0169730Y0076175D01*
X0170028Y0076473D01*
X0170239Y0076838D01*
X0170348Y0077244D01*
X0170348Y0079808D01*
X0166395Y0079808D01*
X0165195Y0079808D01*
X0161243Y0079808D01*
X0161243Y0077244D01*
X0161352Y0076838D01*
X0161562Y0076473D01*
X0161860Y0076175D01*
X0162225Y0075964D01*
X0162632Y0075855D01*
X0165195Y0075855D01*
X0165195Y0079808D01*
X0165195Y0081008D01*
X0161243Y0081008D01*
X0161243Y0083571D01*
X0161352Y0083978D01*
X0161562Y0084343D01*
X0161860Y0084641D01*
X0162225Y0084852D01*
X0162632Y0084961D01*
X0165195Y0084961D01*
X0165195Y0081008D01*
X0166395Y0081008D01*
X0166395Y0084961D01*
X0168959Y0084961D01*
X0169366Y0084852D01*
X0169730Y0084641D01*
X0170028Y0084343D01*
X0170239Y0083978D01*
X0170348Y0083571D01*
X0170348Y0081008D01*
X0166395Y0081008D01*
X0166395Y0081921D02*
X0165195Y0081921D01*
X0165195Y0080723D02*
X0156553Y0080723D01*
X0155953Y0080408D02*
X0146110Y0080408D01*
X0136268Y0080408D01*
X0136868Y0080723D02*
X0145510Y0080723D01*
X0145510Y0079524D02*
X0146710Y0079524D01*
X0146710Y0078326D02*
X0145510Y0078326D01*
X0145510Y0077127D02*
X0146710Y0077127D01*
X0146710Y0075929D02*
X0145510Y0075929D01*
X0149548Y0075929D02*
X0152515Y0075929D01*
X0152382Y0075964D02*
X0152789Y0075855D01*
X0155353Y0075855D01*
X0155353Y0079808D01*
X0151400Y0079808D01*
X0151400Y0077244D01*
X0151509Y0076838D01*
X0151720Y0076473D01*
X0152018Y0076175D01*
X0152382Y0075964D01*
X0151431Y0077127D02*
X0150632Y0077127D01*
X0150663Y0078326D02*
X0151400Y0078326D01*
X0151400Y0079524D02*
X0150663Y0079524D01*
X0150663Y0081921D02*
X0151400Y0081921D01*
X0151400Y0083120D02*
X0150663Y0083120D01*
X0150358Y0084318D02*
X0151705Y0084318D01*
X0155353Y0084318D02*
X0156553Y0084318D01*
X0156553Y0083120D02*
X0155353Y0083120D01*
X0155353Y0081921D02*
X0156553Y0081921D01*
X0156553Y0079808D02*
X0160505Y0079808D01*
X0160505Y0077244D01*
X0160396Y0076838D01*
X0160186Y0076473D01*
X0159888Y0076175D01*
X0159523Y0075964D01*
X0159116Y0075855D01*
X0156553Y0075855D01*
X0156553Y0079808D01*
X0156553Y0079524D02*
X0155353Y0079524D01*
X0155353Y0078326D02*
X0156553Y0078326D01*
X0156553Y0077127D02*
X0155353Y0077127D01*
X0155353Y0075929D02*
X0156553Y0075929D01*
X0159390Y0075929D02*
X0162358Y0075929D01*
X0161274Y0077127D02*
X0160474Y0077127D01*
X0160505Y0078326D02*
X0161243Y0078326D01*
X0161243Y0079524D02*
X0160505Y0079524D01*
X0160505Y0081921D02*
X0161243Y0081921D01*
X0161243Y0083120D02*
X0160505Y0083120D01*
X0160200Y0084318D02*
X0161548Y0084318D01*
X0162069Y0090311D02*
X0159679Y0090311D01*
X0160105Y0091509D02*
X0161643Y0091509D01*
X0161643Y0092708D02*
X0160105Y0092708D01*
X0160105Y0093906D02*
X0161643Y0093906D01*
X0161643Y0095105D02*
X0160105Y0095105D01*
X0160105Y0096303D02*
X0161643Y0096303D01*
X0161643Y0097502D02*
X0160105Y0097502D01*
X0160015Y0099899D02*
X0161733Y0099899D01*
X0161446Y0101097D02*
X0160302Y0101097D01*
X0160302Y0102296D02*
X0161446Y0102296D01*
X0161446Y0103494D02*
X0160302Y0103494D01*
X0160302Y0104693D02*
X0161446Y0104693D01*
X0161446Y0105891D02*
X0160302Y0105891D01*
X0159725Y0107090D02*
X0162023Y0107090D01*
X0161446Y0108288D02*
X0160302Y0108288D01*
X0160302Y0109487D02*
X0161446Y0109487D01*
X0161446Y0110685D02*
X0160302Y0110685D01*
X0160302Y0111884D02*
X0161446Y0111884D01*
X0161446Y0113082D02*
X0160302Y0113082D01*
X0159800Y0114281D02*
X0161948Y0114281D01*
X0163995Y0115479D02*
X0154600Y0115479D01*
X0154600Y0116678D02*
X0163995Y0116678D01*
X0163578Y0117876D02*
X0154600Y0117876D01*
X0154289Y0119075D02*
X0157869Y0119075D01*
X0159731Y0119075D02*
X0162379Y0119075D01*
X0161181Y0120273D02*
X0161161Y0120273D01*
X0158800Y0121600D02*
X0158800Y0122800D01*
X0158295Y0123305D01*
X0158295Y0136395D01*
X0158800Y0136900D01*
X0158800Y0152800D01*
X0156317Y0153832D02*
X0032900Y0153832D01*
X0032900Y0155030D02*
X0157228Y0155030D01*
X0156111Y0152633D02*
X0032900Y0152633D01*
X0032900Y0151435D02*
X0151232Y0151435D01*
X0150319Y0150236D02*
X0032900Y0150236D01*
X0032900Y0149038D02*
X0150111Y0149038D01*
X0150453Y0147839D02*
X0032900Y0147839D01*
X0032900Y0146641D02*
X0151000Y0146641D01*
X0151000Y0145442D02*
X0032900Y0145442D01*
X0032900Y0144244D02*
X0151000Y0144244D01*
X0151000Y0143045D02*
X0032900Y0143045D01*
X0032900Y0141847D02*
X0101814Y0141847D01*
X0101873Y0141905D02*
X0101575Y0141608D01*
X0101364Y0141243D01*
X0101255Y0140836D01*
X0101255Y0139375D01*
X0106805Y0139375D01*
X0106805Y0142225D01*
X0102644Y0142225D01*
X0102238Y0142116D01*
X0101873Y0141905D01*
X0101255Y0140648D02*
X0072455Y0140648D01*
X0072455Y0141122D02*
X0071752Y0141825D01*
X0062758Y0141825D01*
X0062055Y0141122D01*
X0062055Y0137528D01*
X0062758Y0136825D01*
X0062055Y0136122D01*
X0062055Y0132528D01*
X0062758Y0131825D01*
X0062055Y0131122D01*
X0062055Y0127528D01*
X0062758Y0126825D01*
X0062658Y0126725D01*
X0049708Y0126725D01*
X0048826Y0126360D01*
X0048291Y0125825D01*
X0044089Y0125825D01*
X0042619Y0125216D01*
X0041494Y0124091D01*
X0040885Y0122621D01*
X0040885Y0121030D01*
X0041494Y0119559D01*
X0042619Y0118434D01*
X0044089Y0117825D01*
X0051281Y0117825D01*
X0052751Y0118434D01*
X0053876Y0119559D01*
X0054485Y0121030D01*
X0054485Y0121925D01*
X0062658Y0121925D01*
X0062758Y0121825D01*
X0071752Y0121825D01*
X0072455Y0122528D01*
X0072455Y0126122D01*
X0071752Y0126825D01*
X0069655Y0126825D01*
X0069655Y0126825D01*
X0071752Y0126825D01*
X0072455Y0127528D01*
X0072455Y0131122D01*
X0071752Y0131825D01*
X0069655Y0131825D01*
X0069655Y0131825D01*
X0071752Y0131825D01*
X0072455Y0132528D01*
X0072455Y0136122D01*
X0071752Y0136825D01*
X0069655Y0136825D01*
X0069655Y0136825D01*
X0071752Y0136825D01*
X0072455Y0137528D01*
X0072455Y0141122D01*
X0072455Y0139450D02*
X0101255Y0139450D01*
X0101255Y0138251D02*
X0072455Y0138251D01*
X0071980Y0137053D02*
X0101569Y0137053D01*
X0101655Y0135854D02*
X0072455Y0135854D01*
X0072455Y0134656D02*
X0101655Y0134656D01*
X0101655Y0133457D02*
X0072455Y0133457D01*
X0072186Y0132259D02*
X0101925Y0132259D01*
X0102358Y0131825D02*
X0104455Y0131825D01*
X0104455Y0131825D01*
X0102358Y0131825D01*
X0101655Y0131060D02*
X0072455Y0131060D01*
X0072455Y0129862D02*
X0101655Y0129862D01*
X0101655Y0128663D02*
X0072455Y0128663D01*
X0072391Y0127465D02*
X0101719Y0127465D01*
X0102358Y0126825D02*
X0104455Y0126825D01*
X0102358Y0126825D01*
X0101799Y0126266D02*
X0072311Y0126266D01*
X0072455Y0125068D02*
X0101655Y0125068D01*
X0101655Y0123869D02*
X0072455Y0123869D01*
X0072455Y0122670D02*
X0101655Y0122670D01*
X0102358Y0121825D02*
X0104455Y0121825D01*
X0104455Y0121825D01*
X0102358Y0121825D01*
X0102005Y0121472D02*
X0072105Y0121472D01*
X0072455Y0120273D02*
X0101655Y0120273D01*
X0101655Y0119075D02*
X0072455Y0119075D01*
X0072455Y0117876D02*
X0101655Y0117876D01*
X0102211Y0116678D02*
X0071899Y0116678D01*
X0072455Y0115479D02*
X0101655Y0115479D01*
X0101655Y0114281D02*
X0072455Y0114281D01*
X0072455Y0113082D02*
X0101655Y0113082D01*
X0102299Y0111884D02*
X0071811Y0111884D01*
X0072455Y0110685D02*
X0101655Y0110685D01*
X0101655Y0109487D02*
X0072455Y0109487D01*
X0072455Y0108288D02*
X0101655Y0108288D01*
X0102093Y0107090D02*
X0072017Y0107090D01*
X0072455Y0105891D02*
X0101655Y0105891D01*
X0102358Y0106825D02*
X0104455Y0106825D01*
X0104455Y0106825D01*
X0102358Y0106825D01*
X0101655Y0104693D02*
X0072455Y0104693D01*
X0072455Y0103494D02*
X0101655Y0103494D01*
X0101887Y0102296D02*
X0072223Y0102296D01*
X0072785Y0101097D02*
X0101655Y0101097D01*
X0102358Y0101825D02*
X0104455Y0101825D01*
X0104455Y0101825D01*
X0102358Y0101825D01*
X0101655Y0099899D02*
X0072855Y0099899D01*
X0072855Y0098700D02*
X0101655Y0098700D01*
X0101682Y0097502D02*
X0072771Y0097502D01*
X0073491Y0096303D02*
X0101399Y0096303D01*
X0101255Y0095105D02*
X0074689Y0095105D01*
X0075888Y0093906D02*
X0101255Y0093906D01*
X0101255Y0094275D02*
X0101255Y0092815D01*
X0101364Y0092408D01*
X0101575Y0092043D01*
X0101873Y0091745D01*
X0102238Y0091534D01*
X0102644Y0091425D01*
X0106805Y0091425D01*
X0106805Y0094275D01*
X0101255Y0094275D01*
X0101284Y0092708D02*
X0077086Y0092708D01*
X0078285Y0091509D02*
X0102331Y0091509D01*
X0106805Y0091509D02*
X0106905Y0091509D01*
X0106905Y0092708D02*
X0106805Y0092708D01*
X0106805Y0093906D02*
X0106905Y0093906D01*
X0111379Y0091509D02*
X0132115Y0091509D01*
X0132115Y0092708D02*
X0112426Y0092708D01*
X0112455Y0093906D02*
X0132115Y0093906D01*
X0132115Y0095105D02*
X0112455Y0095105D01*
X0112311Y0096303D02*
X0132115Y0096303D01*
X0132115Y0097502D02*
X0112029Y0097502D01*
X0112055Y0098700D02*
X0134468Y0098700D01*
X0132206Y0099899D02*
X0112055Y0099899D01*
X0112055Y0101097D02*
X0131918Y0101097D01*
X0131918Y0102296D02*
X0111823Y0102296D01*
X0112055Y0103494D02*
X0131918Y0103494D01*
X0131918Y0104693D02*
X0112055Y0104693D01*
X0112055Y0105891D02*
X0131918Y0105891D01*
X0132495Y0107090D02*
X0116567Y0107090D01*
X0117967Y0108288D02*
X0131918Y0108288D01*
X0131918Y0109487D02*
X0118289Y0109487D01*
X0118061Y0110685D02*
X0131918Y0110685D01*
X0131918Y0111884D02*
X0117113Y0111884D01*
X0115600Y0109600D02*
X0115325Y0109325D01*
X0106855Y0109325D01*
X0104455Y0111825D02*
X0102358Y0111825D01*
X0104455Y0111825D01*
X0104455Y0111825D01*
X0111411Y0111884D02*
X0114087Y0111884D01*
X0112055Y0113082D02*
X0131918Y0113082D01*
X0131441Y0114281D02*
X0112055Y0114281D01*
X0112055Y0115479D02*
X0130243Y0115479D01*
X0129044Y0116678D02*
X0111499Y0116678D01*
X0111705Y0121472D02*
X0134468Y0121472D01*
X0134468Y0122670D02*
X0112055Y0122670D01*
X0112055Y0123869D02*
X0134468Y0123869D01*
X0134468Y0125068D02*
X0112055Y0125068D01*
X0111911Y0126266D02*
X0134468Y0126266D01*
X0134468Y0127465D02*
X0111991Y0127465D01*
X0112055Y0128663D02*
X0134468Y0128663D01*
X0134468Y0129862D02*
X0112055Y0129862D01*
X0112055Y0131060D02*
X0135414Y0131060D01*
X0136613Y0132259D02*
X0111786Y0132259D01*
X0112055Y0133457D02*
X0137812Y0133457D01*
X0139010Y0134656D02*
X0112055Y0134656D01*
X0112055Y0135854D02*
X0140209Y0135854D01*
X0140795Y0137053D02*
X0112141Y0137053D01*
X0112455Y0138251D02*
X0140795Y0138251D01*
X0140795Y0139450D02*
X0112455Y0139450D01*
X0112455Y0140648D02*
X0140795Y0140648D01*
X0143295Y0136395D02*
X0136268Y0129368D01*
X0136268Y0112000D01*
X0128943Y0119325D01*
X0106855Y0119325D01*
X0104455Y0126825D02*
X0104455Y0126825D01*
X0106805Y0139450D02*
X0106905Y0139450D01*
X0106905Y0140648D02*
X0106805Y0140648D01*
X0106805Y0141847D02*
X0106905Y0141847D01*
X0111896Y0141847D02*
X0151000Y0141847D01*
X0150795Y0140648D02*
X0150795Y0140648D01*
X0150795Y0139450D02*
X0150795Y0139450D01*
X0150795Y0138251D02*
X0150795Y0138251D01*
X0150795Y0137053D02*
X0150795Y0137053D01*
X0150795Y0135854D02*
X0150795Y0135854D01*
X0150795Y0134656D02*
X0150795Y0134656D01*
X0150795Y0133457D02*
X0150795Y0133457D01*
X0150795Y0132259D02*
X0150795Y0132259D01*
X0150095Y0131060D02*
X0151495Y0131060D01*
X0151495Y0129862D02*
X0150095Y0129862D01*
X0150095Y0128663D02*
X0151495Y0128663D01*
X0151495Y0127465D02*
X0150095Y0127465D01*
X0150095Y0126266D02*
X0151495Y0126266D01*
X0151495Y0125068D02*
X0149213Y0125068D01*
X0148015Y0123869D02*
X0151495Y0123869D01*
X0151495Y0122670D02*
X0147400Y0122670D01*
X0147400Y0121472D02*
X0150069Y0121472D01*
X0149134Y0120273D02*
X0147400Y0120273D01*
X0147400Y0119075D02*
X0148911Y0119075D01*
X0149238Y0117876D02*
X0147400Y0117876D01*
X0147400Y0116678D02*
X0150662Y0116678D01*
X0151000Y0115479D02*
X0147400Y0115479D01*
X0145600Y0116800D02*
X0145600Y0111233D01*
X0146110Y0110723D01*
X0141761Y0110685D02*
X0140617Y0110685D01*
X0140617Y0109487D02*
X0141761Y0109487D01*
X0141761Y0108288D02*
X0140617Y0108288D01*
X0140040Y0107090D02*
X0142338Y0107090D01*
X0141761Y0105891D02*
X0140617Y0105891D01*
X0140617Y0104693D02*
X0141761Y0104693D01*
X0141761Y0103494D02*
X0140617Y0103494D01*
X0140617Y0102296D02*
X0141761Y0102296D01*
X0141761Y0101097D02*
X0140617Y0101097D01*
X0140330Y0099899D02*
X0142048Y0099899D01*
X0141957Y0097502D02*
X0140420Y0097502D01*
X0140420Y0096303D02*
X0141957Y0096303D01*
X0141957Y0095105D02*
X0140420Y0095105D01*
X0140420Y0093906D02*
X0141957Y0093906D01*
X0141957Y0092708D02*
X0140420Y0092708D01*
X0140420Y0091509D02*
X0141957Y0091509D01*
X0142384Y0090311D02*
X0139994Y0090311D01*
X0136868Y0084318D02*
X0135668Y0084318D01*
X0135668Y0083120D02*
X0136868Y0083120D01*
X0136868Y0081921D02*
X0135668Y0081921D01*
X0135668Y0080723D02*
X0094926Y0080723D01*
X0094954Y0080619D02*
X0094845Y0081025D01*
X0094635Y0081390D01*
X0094337Y0081688D01*
X0093972Y0081899D01*
X0093565Y0082008D01*
X0091395Y0082008D01*
X0091395Y0078055D01*
X0094954Y0078055D01*
X0094954Y0080619D01*
X0094954Y0079524D02*
X0131715Y0079524D01*
X0131715Y0079808D02*
X0131715Y0077244D01*
X0131824Y0076838D01*
X0132035Y0076473D01*
X0132333Y0076175D01*
X0132697Y0075964D01*
X0133104Y0075855D01*
X0135668Y0075855D01*
X0135668Y0079808D01*
X0131715Y0079808D01*
X0131715Y0078326D02*
X0094954Y0078326D01*
X0094954Y0075929D02*
X0132830Y0075929D01*
X0131746Y0077127D02*
X0091395Y0077127D01*
X0091395Y0075929D02*
X0090195Y0075929D01*
X0090195Y0074730D02*
X0091395Y0074730D01*
X0091395Y0073532D02*
X0090195Y0073532D01*
X0086949Y0073532D02*
X0086600Y0073532D01*
X0090195Y0078326D02*
X0091395Y0078326D01*
X0091395Y0079524D02*
X0090195Y0079524D01*
X0090195Y0080723D02*
X0091395Y0080723D01*
X0091395Y0081921D02*
X0090195Y0081921D01*
X0087702Y0081921D02*
X0083200Y0081921D01*
X0083200Y0083120D02*
X0131715Y0083120D01*
X0131715Y0081921D02*
X0093889Y0081921D01*
X0083200Y0084318D02*
X0132020Y0084318D01*
X0132542Y0090311D02*
X0079483Y0090311D01*
X0076291Y0086715D02*
X0055197Y0086715D01*
X0053999Y0087914D02*
X0075092Y0087914D01*
X0073894Y0089112D02*
X0052800Y0089112D01*
X0051602Y0090311D02*
X0072695Y0090311D01*
X0071497Y0091509D02*
X0050403Y0091509D01*
X0049205Y0092708D02*
X0062055Y0092708D01*
X0062055Y0093906D02*
X0048006Y0093906D01*
X0046808Y0095105D02*
X0062055Y0095105D01*
X0062236Y0096303D02*
X0045609Y0096303D01*
X0044411Y0097502D02*
X0061739Y0097502D01*
X0061655Y0098700D02*
X0043212Y0098700D01*
X0042014Y0099899D02*
X0061655Y0099899D01*
X0061725Y0101097D02*
X0040815Y0101097D01*
X0039617Y0102296D02*
X0062287Y0102296D01*
X0062055Y0103494D02*
X0038418Y0103494D01*
X0037219Y0104693D02*
X0062055Y0104693D01*
X0062055Y0105891D02*
X0036021Y0105891D01*
X0034822Y0107090D02*
X0062493Y0107090D01*
X0062758Y0106825D02*
X0064855Y0106825D01*
X0062758Y0106825D01*
X0062055Y0108288D02*
X0052399Y0108288D01*
X0053686Y0114281D02*
X0062055Y0114281D01*
X0062055Y0115479D02*
X0052115Y0115479D01*
X0051404Y0117876D02*
X0062055Y0117876D01*
X0062055Y0119075D02*
X0053392Y0119075D01*
X0054172Y0120273D02*
X0062055Y0120273D01*
X0062405Y0121472D02*
X0054485Y0121472D01*
X0048732Y0126266D02*
X0032900Y0126266D01*
X0032900Y0125068D02*
X0042470Y0125068D01*
X0041402Y0123869D02*
X0032900Y0123869D01*
X0032900Y0122670D02*
X0040906Y0122670D01*
X0040885Y0121472D02*
X0032900Y0121472D01*
X0032900Y0120273D02*
X0041198Y0120273D01*
X0041978Y0119075D02*
X0032900Y0119075D01*
X0032900Y0117876D02*
X0043966Y0117876D01*
X0043255Y0115479D02*
X0032900Y0115479D01*
X0032900Y0114281D02*
X0041684Y0114281D01*
X0041076Y0113082D02*
X0032900Y0113082D01*
X0032900Y0111884D02*
X0040885Y0111884D01*
X0041028Y0110685D02*
X0032900Y0110685D01*
X0032900Y0109487D02*
X0041567Y0109487D01*
X0042971Y0108288D02*
X0033624Y0108288D01*
X0032900Y0109012D02*
X0032900Y0203378D01*
X0118612Y0289091D01*
X0212978Y0289091D01*
X0298691Y0203378D01*
X0298691Y0109012D01*
X0212978Y0023300D01*
X0118612Y0023300D01*
X0032900Y0109012D01*
X0032900Y0116678D02*
X0062611Y0116678D01*
X0062758Y0116825D02*
X0064855Y0116825D01*
X0064855Y0116825D01*
X0062758Y0116825D01*
X0062758Y0126825D02*
X0064855Y0126825D01*
X0064855Y0126825D01*
X0062758Y0126825D01*
X0062119Y0127465D02*
X0032900Y0127465D01*
X0032900Y0128663D02*
X0062055Y0128663D01*
X0062055Y0129862D02*
X0032900Y0129862D01*
X0032900Y0131060D02*
X0062055Y0131060D01*
X0062758Y0131825D02*
X0064855Y0131825D01*
X0064855Y0131825D01*
X0062758Y0131825D01*
X0062325Y0132259D02*
X0032900Y0132259D01*
X0032900Y0133457D02*
X0062055Y0133457D01*
X0062055Y0134656D02*
X0032900Y0134656D01*
X0032900Y0135854D02*
X0062055Y0135854D01*
X0062758Y0136825D02*
X0064855Y0136825D01*
X0064855Y0136825D01*
X0062758Y0136825D01*
X0062531Y0137053D02*
X0032900Y0137053D01*
X0032900Y0138251D02*
X0062055Y0138251D01*
X0062055Y0139450D02*
X0032900Y0139450D01*
X0032900Y0140648D02*
X0062055Y0140648D01*
X0078241Y0162765D02*
X0077565Y0163441D01*
X0070441Y0170565D01*
X0062758Y0170565D01*
X0062055Y0171268D01*
X0062055Y0174862D01*
X0062530Y0175337D01*
X0062273Y0175485D01*
X0061975Y0175783D01*
X0061764Y0176148D01*
X0061655Y0176555D01*
X0061655Y0178015D01*
X0067205Y0178015D01*
X0067205Y0178115D01*
X0061655Y0178115D01*
X0061655Y0179576D01*
X0061764Y0179983D01*
X0061975Y0180348D01*
X0062273Y0180646D01*
X0062530Y0180794D01*
X0062055Y0181268D01*
X0062055Y0184862D01*
X0062758Y0185565D01*
X0064855Y0185565D01*
X0064855Y0185565D01*
X0062758Y0185565D01*
X0062055Y0186268D01*
X0062055Y0188165D01*
X0053742Y0188165D01*
X0052751Y0187174D01*
X0051281Y0186565D01*
X0044089Y0186565D01*
X0042619Y0187174D01*
X0041494Y0188300D01*
X0040885Y0189770D01*
X0040885Y0191361D01*
X0041494Y0192831D01*
X0042619Y0193956D01*
X0044089Y0194565D01*
X0051281Y0194565D01*
X0052751Y0193956D01*
X0053742Y0192965D01*
X0062055Y0192965D01*
X0062055Y0194862D01*
X0062758Y0195565D01*
X0064855Y0195565D01*
X0064855Y0195565D01*
X0062758Y0195565D01*
X0062055Y0196268D01*
X0062055Y0199862D01*
X0062758Y0200565D01*
X0071752Y0200565D01*
X0072455Y0199862D01*
X0072455Y0196268D01*
X0071752Y0195565D01*
X0072455Y0194862D01*
X0072455Y0191268D01*
X0071752Y0190565D01*
X0069655Y0190565D01*
X0069655Y0190565D01*
X0071752Y0190565D01*
X0072455Y0189862D01*
X0072455Y0186268D01*
X0071752Y0185565D01*
X0069655Y0185565D01*
X0069655Y0185565D01*
X0071752Y0185565D01*
X0072455Y0184862D01*
X0072455Y0181268D01*
X0071981Y0180794D01*
X0072238Y0180646D01*
X0072535Y0180348D01*
X0072746Y0179983D01*
X0072855Y0179576D01*
X0072855Y0178115D01*
X0067305Y0178115D01*
X0067305Y0178015D01*
X0072855Y0178015D01*
X0072855Y0176555D01*
X0072746Y0176148D01*
X0072535Y0175783D01*
X0072238Y0175485D01*
X0072040Y0175371D01*
X0072694Y0175100D01*
X0080305Y0167489D01*
X0081335Y0167489D01*
X0082323Y0167080D01*
X0083080Y0166323D01*
X0083489Y0165335D01*
X0083489Y0164265D01*
X0083080Y0163277D01*
X0082323Y0162520D01*
X0081335Y0162111D01*
X0080265Y0162111D01*
X0079567Y0162400D01*
X0079123Y0162400D01*
X0078241Y0162765D01*
X0077586Y0163420D02*
X0032900Y0163420D01*
X0032900Y0164618D02*
X0076388Y0164618D01*
X0075189Y0165817D02*
X0032900Y0165817D01*
X0032900Y0167015D02*
X0073990Y0167015D01*
X0072792Y0168214D02*
X0032900Y0168214D01*
X0032900Y0169412D02*
X0071593Y0169412D01*
X0073588Y0174206D02*
X0101255Y0174206D01*
X0101255Y0174576D02*
X0101255Y0173115D01*
X0106805Y0173115D01*
X0106805Y0173015D01*
X0106905Y0173015D01*
X0106905Y0170165D01*
X0111066Y0170165D01*
X0111473Y0170274D01*
X0111838Y0170485D01*
X0112135Y0170783D01*
X0112346Y0171148D01*
X0112455Y0171555D01*
X0112455Y0173015D01*
X0106905Y0173015D01*
X0106905Y0173115D01*
X0112455Y0173115D01*
X0112455Y0174576D01*
X0112346Y0174983D01*
X0112135Y0175348D01*
X0111838Y0175646D01*
X0111581Y0175794D01*
X0112055Y0176268D01*
X0112055Y0179862D01*
X0111352Y0180565D01*
X0109255Y0180565D01*
X0109255Y0180565D01*
X0111352Y0180565D01*
X0112055Y0181268D01*
X0112055Y0184862D01*
X0111352Y0185565D01*
X0109255Y0185565D01*
X0109255Y0185565D01*
X0111352Y0185565D01*
X0111587Y0185800D01*
X0112397Y0185800D01*
X0112877Y0185320D01*
X0113865Y0184911D01*
X0114935Y0184911D01*
X0115923Y0185320D01*
X0116680Y0186077D01*
X0117089Y0187065D01*
X0117089Y0187743D01*
X0118600Y0189254D01*
X0118600Y0205106D01*
X0118673Y0205033D01*
X0125573Y0205033D01*
X0126276Y0205736D01*
X0126276Y0206992D01*
X0127285Y0206992D01*
X0127285Y0206566D01*
X0127000Y0206281D01*
X0127000Y0205203D01*
X0126520Y0204723D01*
X0126111Y0203735D01*
X0126111Y0202665D01*
X0126520Y0201677D01*
X0127277Y0200920D01*
X0128265Y0200511D01*
X0129335Y0200511D01*
X0130323Y0200920D01*
X0130629Y0201226D01*
X0131654Y0200200D01*
X0149654Y0200200D01*
X0156495Y0193359D01*
X0156495Y0181192D01*
X0155795Y0180492D01*
X0155095Y0181192D01*
X0155095Y0182515D01*
X0155489Y0183465D01*
X0155489Y0184535D01*
X0155080Y0185523D01*
X0154323Y0186280D01*
X0153335Y0186689D01*
X0152265Y0186689D01*
X0151277Y0186280D01*
X0150520Y0185523D01*
X0150111Y0184535D01*
X0150111Y0183465D01*
X0150520Y0182477D01*
X0151277Y0181720D01*
X0151495Y0181630D01*
X0151495Y0181192D01*
X0150795Y0180492D01*
X0150095Y0181192D01*
X0150095Y0182050D01*
X0148289Y0183857D01*
X0148289Y0184535D01*
X0147880Y0185523D01*
X0147123Y0186280D01*
X0146135Y0186689D01*
X0145065Y0186689D01*
X0144077Y0186280D01*
X0143320Y0185523D01*
X0142911Y0184535D01*
X0142911Y0183465D01*
X0143320Y0182477D01*
X0144077Y0181720D01*
X0144379Y0181595D01*
X0143345Y0181595D01*
X0143345Y0176045D01*
X0143245Y0176045D01*
X0143245Y0175945D01*
X0140395Y0175945D01*
X0140395Y0171785D01*
X0140504Y0171378D01*
X0140715Y0171013D01*
X0141013Y0170715D01*
X0141378Y0170504D01*
X0141785Y0170395D01*
X0143245Y0170395D01*
X0143245Y0175945D01*
X0143345Y0175945D01*
X0143345Y0170395D01*
X0144806Y0170395D01*
X0145213Y0170504D01*
X0145578Y0170715D01*
X0145876Y0171013D01*
X0146024Y0171270D01*
X0146498Y0170795D01*
X0150092Y0170795D01*
X0150795Y0171498D01*
X0150795Y0180492D01*
X0150795Y0171498D01*
X0151498Y0170795D01*
X0155092Y0170795D01*
X0155795Y0171498D01*
X0155795Y0180492D01*
X0155795Y0171498D01*
X0156498Y0170795D01*
X0160092Y0170795D01*
X0160795Y0171498D01*
X0160795Y0180492D01*
X0160095Y0181192D01*
X0160095Y0194850D01*
X0152200Y0202746D01*
X0151146Y0203800D01*
X0133146Y0203800D01*
X0133013Y0203933D01*
X0133013Y0204611D01*
X0135281Y0204611D01*
X0135984Y0205314D01*
X0135984Y0211426D01*
X0135300Y0212110D01*
X0135984Y0212794D01*
X0135984Y0218906D01*
X0135281Y0219609D01*
X0133435Y0219609D01*
X0133435Y0220350D01*
X0134796Y0220350D01*
X0135499Y0221053D01*
X0135499Y0227165D01*
X0134796Y0227868D01*
X0128684Y0227868D01*
X0127981Y0227165D01*
X0127981Y0221053D01*
X0128684Y0220350D01*
X0129835Y0220350D01*
X0129835Y0219609D01*
X0127988Y0219609D01*
X0127285Y0218906D01*
X0127285Y0212794D01*
X0127969Y0212110D01*
X0127285Y0211426D01*
X0127285Y0210592D01*
X0126276Y0210592D01*
X0126276Y0211848D01*
X0125592Y0212532D01*
X0126276Y0213216D01*
X0126276Y0219329D01*
X0125573Y0220031D01*
X0118673Y0220031D01*
X0117970Y0219329D01*
X0117970Y0218072D01*
X0117127Y0218072D01*
X0116054Y0217000D01*
X0115000Y0215946D01*
X0115000Y0190746D01*
X0114543Y0190289D01*
X0113865Y0190289D01*
X0112877Y0189880D01*
X0112397Y0189400D01*
X0112055Y0189400D01*
X0112055Y0189862D01*
X0111352Y0190565D01*
X0109255Y0190565D01*
X0109255Y0190565D01*
X0111352Y0190565D01*
X0112055Y0191268D01*
X0112055Y0194862D01*
X0111352Y0195565D01*
X0102358Y0195565D01*
X0101655Y0194862D01*
X0101655Y0191268D01*
X0102358Y0190565D01*
X0101655Y0189862D01*
X0101655Y0186268D01*
X0102358Y0185565D01*
X0101655Y0184862D01*
X0101655Y0181268D01*
X0102358Y0180565D01*
X0101655Y0179862D01*
X0101655Y0176268D01*
X0102129Y0175794D01*
X0101873Y0175646D01*
X0101575Y0175348D01*
X0101364Y0174983D01*
X0101255Y0174576D01*
X0101632Y0175405D02*
X0072099Y0175405D01*
X0072855Y0176603D02*
X0101655Y0176603D01*
X0101655Y0177802D02*
X0072855Y0177802D01*
X0072855Y0179001D02*
X0101655Y0179001D01*
X0101992Y0180199D02*
X0072621Y0180199D01*
X0072455Y0181398D02*
X0101655Y0181398D01*
X0102358Y0180565D02*
X0104455Y0180565D01*
X0104455Y0180565D01*
X0102358Y0180565D01*
X0101655Y0182596D02*
X0072455Y0182596D01*
X0072455Y0183795D02*
X0101655Y0183795D01*
X0101786Y0184993D02*
X0072324Y0184993D01*
X0072378Y0186192D02*
X0101732Y0186192D01*
X0102358Y0185565D02*
X0104455Y0185565D01*
X0102358Y0185565D01*
X0101655Y0187390D02*
X0072455Y0187390D01*
X0072455Y0188589D02*
X0101655Y0188589D01*
X0101655Y0189787D02*
X0072455Y0189787D01*
X0072172Y0190986D02*
X0101938Y0190986D01*
X0102358Y0190565D02*
X0104455Y0190565D01*
X0104455Y0190565D01*
X0102358Y0190565D01*
X0101655Y0192184D02*
X0072455Y0192184D01*
X0072455Y0193383D02*
X0101655Y0193383D01*
X0101655Y0194581D02*
X0072455Y0194581D01*
X0071752Y0195565D02*
X0069655Y0195565D01*
X0069655Y0195565D01*
X0071752Y0195565D01*
X0071966Y0195780D02*
X0102144Y0195780D01*
X0102358Y0195565D02*
X0111352Y0195565D01*
X0112055Y0196268D01*
X0112055Y0199862D01*
X0111352Y0200565D01*
X0109255Y0200565D01*
X0109255Y0200565D01*
X0111352Y0200565D01*
X0112055Y0201268D01*
X0112055Y0204862D01*
X0111352Y0205565D01*
X0109255Y0205565D01*
X0109255Y0205565D01*
X0111352Y0205565D01*
X0112055Y0206268D01*
X0112055Y0209862D01*
X0111352Y0210565D01*
X0109255Y0210565D01*
X0109255Y0210565D01*
X0111352Y0210565D01*
X0112055Y0211268D01*
X0112055Y0214862D01*
X0111581Y0215337D01*
X0111838Y0215485D01*
X0112135Y0215783D01*
X0112346Y0216148D01*
X0112455Y0216555D01*
X0112455Y0218015D01*
X0106905Y0218015D01*
X0106905Y0218115D01*
X0112455Y0218115D01*
X0112455Y0219576D01*
X0112346Y0219983D01*
X0112135Y0220348D01*
X0111838Y0220646D01*
X0111473Y0220856D01*
X0111066Y0220965D01*
X0106905Y0220965D01*
X0106905Y0218115D01*
X0106805Y0218115D01*
X0106805Y0218015D01*
X0101255Y0218015D01*
X0101255Y0216555D01*
X0101364Y0216148D01*
X0101575Y0215783D01*
X0101873Y0215485D01*
X0102130Y0215337D01*
X0101655Y0214862D01*
X0101655Y0211268D01*
X0102358Y0210565D01*
X0101655Y0209862D01*
X0101655Y0207400D01*
X0100803Y0207400D01*
X0100323Y0207880D01*
X0099335Y0208289D01*
X0098265Y0208289D01*
X0097277Y0207880D01*
X0096520Y0207123D01*
X0096111Y0206135D01*
X0096111Y0205065D01*
X0096520Y0204077D01*
X0097277Y0203320D01*
X0098265Y0202911D01*
X0099335Y0202911D01*
X0100323Y0203320D01*
X0100803Y0203800D01*
X0101655Y0203800D01*
X0101655Y0201268D01*
X0102358Y0200565D01*
X0101655Y0199862D01*
X0101655Y0196268D01*
X0102358Y0195565D01*
X0101655Y0196978D02*
X0072455Y0196978D01*
X0072455Y0198177D02*
X0101655Y0198177D01*
X0101655Y0199375D02*
X0072455Y0199375D01*
X0071752Y0200565D02*
X0072455Y0201268D01*
X0072455Y0204862D01*
X0071752Y0205565D01*
X0069655Y0205565D01*
X0069655Y0205565D01*
X0071752Y0205565D01*
X0072455Y0206268D01*
X0072455Y0209862D01*
X0071752Y0210565D01*
X0069655Y0210565D01*
X0069655Y0210565D01*
X0071752Y0210565D01*
X0072455Y0211268D01*
X0072455Y0214862D01*
X0071752Y0215565D01*
X0069655Y0215565D01*
X0069655Y0215565D01*
X0071752Y0215565D01*
X0072455Y0216268D01*
X0072455Y0219862D01*
X0071752Y0220565D01*
X0062758Y0220565D01*
X0062055Y0219862D01*
X0062055Y0216268D01*
X0062758Y0215565D01*
X0062055Y0214862D01*
X0062055Y0211268D01*
X0062758Y0210565D01*
X0062055Y0209862D01*
X0062055Y0206268D01*
X0062758Y0205565D01*
X0062658Y0205465D01*
X0049708Y0205465D01*
X0048826Y0205100D01*
X0048291Y0204565D01*
X0044089Y0204565D01*
X0042619Y0203956D01*
X0041494Y0202831D01*
X0040885Y0201361D01*
X0040885Y0199770D01*
X0041494Y0198300D01*
X0042619Y0197174D01*
X0044089Y0196565D01*
X0051281Y0196565D01*
X0052751Y0197174D01*
X0053876Y0198300D01*
X0054485Y0199770D01*
X0054485Y0200665D01*
X0062658Y0200665D01*
X0062758Y0200565D01*
X0071752Y0200565D01*
X0071761Y0200574D02*
X0102350Y0200574D01*
X0102358Y0200565D02*
X0104455Y0200565D01*
X0102358Y0200565D01*
X0101655Y0201772D02*
X0072455Y0201772D01*
X0072455Y0202971D02*
X0098121Y0202971D01*
X0099479Y0202971D02*
X0101655Y0202971D01*
X0104455Y0200565D02*
X0104455Y0200565D01*
X0104390Y0205600D02*
X0098800Y0205600D01*
X0096290Y0206566D02*
X0072455Y0206566D01*
X0072455Y0207765D02*
X0097162Y0207765D01*
X0096111Y0205368D02*
X0071950Y0205368D01*
X0072455Y0204169D02*
X0096482Y0204169D01*
X0100438Y0207765D02*
X0101655Y0207765D01*
X0101655Y0208963D02*
X0072455Y0208963D01*
X0072156Y0210162D02*
X0101955Y0210162D01*
X0102358Y0210565D02*
X0104455Y0210565D01*
X0104455Y0210565D01*
X0102358Y0210565D01*
X0101655Y0211360D02*
X0072455Y0211360D01*
X0072455Y0212559D02*
X0101655Y0212559D01*
X0101655Y0213757D02*
X0072455Y0213757D01*
X0072362Y0214956D02*
X0101749Y0214956D01*
X0101362Y0216154D02*
X0072341Y0216154D01*
X0072455Y0217353D02*
X0101255Y0217353D01*
X0101255Y0218115D02*
X0106805Y0218115D01*
X0106805Y0220965D01*
X0102644Y0220965D01*
X0102238Y0220856D01*
X0101873Y0220646D01*
X0101575Y0220348D01*
X0101364Y0219983D01*
X0101255Y0219576D01*
X0101255Y0218115D01*
X0101255Y0218551D02*
X0072455Y0218551D01*
X0072455Y0219750D02*
X0101302Y0219750D01*
X0102581Y0220948D02*
X0050470Y0220948D01*
X0049272Y0219750D02*
X0062055Y0219750D01*
X0062055Y0218551D02*
X0048073Y0218551D01*
X0046875Y0217353D02*
X0062055Y0217353D01*
X0062169Y0216154D02*
X0045676Y0216154D01*
X0044478Y0214956D02*
X0062149Y0214956D01*
X0062758Y0215565D02*
X0064855Y0215565D01*
X0064855Y0215565D01*
X0062758Y0215565D01*
X0062055Y0213757D02*
X0043279Y0213757D01*
X0042081Y0212559D02*
X0062055Y0212559D01*
X0062055Y0211360D02*
X0040882Y0211360D01*
X0039684Y0210162D02*
X0062355Y0210162D01*
X0062758Y0210565D02*
X0064855Y0210565D01*
X0064855Y0210565D01*
X0062758Y0210565D01*
X0062055Y0208963D02*
X0038485Y0208963D01*
X0037287Y0207765D02*
X0062055Y0207765D01*
X0062055Y0206566D02*
X0036088Y0206566D01*
X0034890Y0205368D02*
X0049472Y0205368D01*
X0043133Y0204169D02*
X0033691Y0204169D01*
X0032900Y0202971D02*
X0041634Y0202971D01*
X0041055Y0201772D02*
X0032900Y0201772D01*
X0032900Y0200574D02*
X0040885Y0200574D01*
X0041048Y0199375D02*
X0032900Y0199375D01*
X0032900Y0198177D02*
X0041617Y0198177D01*
X0043093Y0196978D02*
X0032900Y0196978D01*
X0032900Y0195780D02*
X0062544Y0195780D01*
X0062055Y0196978D02*
X0052277Y0196978D01*
X0053753Y0198177D02*
X0062055Y0198177D01*
X0062055Y0199375D02*
X0054322Y0199375D01*
X0054485Y0200574D02*
X0062750Y0200574D01*
X0062055Y0194581D02*
X0032900Y0194581D01*
X0032900Y0193383D02*
X0042045Y0193383D01*
X0041226Y0192184D02*
X0032900Y0192184D01*
X0032900Y0190986D02*
X0040885Y0190986D01*
X0040885Y0189787D02*
X0032900Y0189787D01*
X0032900Y0188589D02*
X0041374Y0188589D01*
X0042403Y0187390D02*
X0032900Y0187390D01*
X0032900Y0186192D02*
X0062132Y0186192D01*
X0062186Y0184993D02*
X0032900Y0184993D01*
X0032900Y0183795D02*
X0062055Y0183795D01*
X0062055Y0182596D02*
X0032900Y0182596D01*
X0032900Y0181398D02*
X0062055Y0181398D01*
X0061889Y0180199D02*
X0032900Y0180199D01*
X0032900Y0179001D02*
X0061655Y0179001D01*
X0061655Y0177802D02*
X0032900Y0177802D01*
X0032900Y0176603D02*
X0061655Y0176603D01*
X0062411Y0175405D02*
X0032900Y0175405D01*
X0032900Y0174206D02*
X0062055Y0174206D01*
X0062055Y0173008D02*
X0032900Y0173008D01*
X0032900Y0171809D02*
X0062055Y0171809D01*
X0062712Y0170611D02*
X0032900Y0170611D01*
X0032900Y0162221D02*
X0079999Y0162221D01*
X0081601Y0162221D02*
X0200613Y0162221D01*
X0200613Y0162705D02*
X0200613Y0160535D01*
X0204565Y0160535D01*
X0204565Y0164094D01*
X0202002Y0164094D01*
X0201595Y0163985D01*
X0201230Y0163775D01*
X0200932Y0163477D01*
X0200722Y0163112D01*
X0200613Y0162705D01*
X0200899Y0163420D02*
X0083139Y0163420D01*
X0083489Y0164618D02*
X0298691Y0164618D01*
X0298691Y0163420D02*
X0219274Y0163420D01*
X0219561Y0162221D02*
X0298691Y0162221D01*
X0298691Y0161023D02*
X0219561Y0161023D01*
X0219561Y0158626D02*
X0230417Y0158626D01*
X0230417Y0159824D02*
X0215608Y0159824D01*
X0215608Y0161023D02*
X0214408Y0161023D01*
X0214408Y0160535D02*
X0214408Y0164094D01*
X0211844Y0164094D01*
X0211438Y0163985D01*
X0211073Y0163775D01*
X0210775Y0163477D01*
X0210564Y0163112D01*
X0210455Y0162705D01*
X0210455Y0160535D01*
X0214408Y0160535D01*
X0214408Y0159824D02*
X0205765Y0159824D01*
X0205765Y0161023D02*
X0204565Y0161023D01*
X0204565Y0162221D02*
X0205765Y0162221D01*
X0205765Y0163420D02*
X0204565Y0163420D01*
X0204565Y0159824D02*
X0032900Y0159824D01*
X0032900Y0158626D02*
X0200613Y0158626D01*
X0200613Y0157427D02*
X0032900Y0157427D01*
X0032900Y0156229D02*
X0201097Y0156229D01*
X0201013Y0155030D02*
X0160372Y0155030D01*
X0161283Y0153832D02*
X0201013Y0153832D01*
X0201013Y0152633D02*
X0161489Y0152633D01*
X0161145Y0151435D02*
X0201013Y0151435D01*
X0208000Y0147839D02*
X0252839Y0147839D01*
X0252839Y0146641D02*
X0208000Y0146641D01*
X0207635Y0145442D02*
X0252839Y0145442D01*
X0252723Y0144280D02*
X0251735Y0144689D01*
X0250665Y0144689D01*
X0249677Y0144280D01*
X0248920Y0143523D01*
X0248511Y0142535D01*
X0248511Y0141465D01*
X0248920Y0140477D01*
X0249677Y0139720D01*
X0250374Y0139431D01*
X0250965Y0138841D01*
X0250965Y0138841D01*
X0251641Y0138165D01*
X0252515Y0137291D01*
X0253397Y0136925D01*
X0259387Y0136925D01*
X0259353Y0136905D01*
X0259055Y0136608D01*
X0258844Y0136243D01*
X0258735Y0135836D01*
X0258735Y0134375D01*
X0264285Y0134375D01*
X0264285Y0134275D01*
X0258735Y0134275D01*
X0258735Y0132815D01*
X0258844Y0132408D01*
X0259055Y0132043D01*
X0259353Y0131745D01*
X0259610Y0131597D01*
X0259135Y0131122D01*
X0259135Y0127528D01*
X0259838Y0126825D01*
X0259135Y0126122D01*
X0259135Y0122528D01*
X0259838Y0121825D01*
X0259135Y0121122D01*
X0259135Y0117528D01*
X0259838Y0116825D01*
X0259135Y0116122D01*
X0259135Y0112528D01*
X0259838Y0111825D01*
X0259135Y0111122D01*
X0259135Y0107528D01*
X0259838Y0106825D01*
X0259135Y0106122D01*
X0259135Y0102528D01*
X0259838Y0101825D01*
X0259135Y0101122D01*
X0259135Y0097528D01*
X0259838Y0096825D01*
X0259135Y0096122D01*
X0259135Y0092528D01*
X0259838Y0091825D01*
X0268832Y0091825D01*
X0269535Y0092528D01*
X0269535Y0096122D01*
X0268832Y0096825D01*
X0266735Y0096825D01*
X0268832Y0096825D01*
X0269535Y0097528D01*
X0269535Y0101122D01*
X0268832Y0101825D01*
X0266735Y0101825D01*
X0268832Y0101825D01*
X0269535Y0102528D01*
X0269535Y0106122D01*
X0268832Y0106825D01*
X0266735Y0106825D01*
X0268832Y0106825D01*
X0268932Y0106925D01*
X0281883Y0106925D01*
X0282765Y0107291D01*
X0283300Y0107825D01*
X0287501Y0107825D01*
X0288971Y0108434D01*
X0290097Y0109559D01*
X0290705Y0111030D01*
X0290705Y0112621D01*
X0290097Y0114091D01*
X0288971Y0115216D01*
X0287501Y0115825D01*
X0280310Y0115825D01*
X0278840Y0115216D01*
X0277714Y0114091D01*
X0277106Y0112621D01*
X0277106Y0111725D01*
X0268932Y0111725D01*
X0268832Y0111825D01*
X0259838Y0111825D01*
X0268832Y0111825D01*
X0269535Y0112528D01*
X0269535Y0116122D01*
X0268832Y0116825D01*
X0266735Y0116825D01*
X0268832Y0116825D01*
X0269535Y0117528D01*
X0269535Y0121122D01*
X0269058Y0121600D01*
X0277106Y0121600D01*
X0277106Y0121030D01*
X0277714Y0119559D01*
X0278840Y0118434D01*
X0280310Y0117825D01*
X0287501Y0117825D01*
X0288971Y0118434D01*
X0290097Y0119559D01*
X0290705Y0121030D01*
X0290705Y0122621D01*
X0290097Y0124091D01*
X0288971Y0125216D01*
X0287501Y0125825D01*
X0283300Y0125825D01*
X0283090Y0126035D01*
X0282208Y0126400D01*
X0269258Y0126400D01*
X0268832Y0126825D01*
X0266735Y0126825D01*
X0268832Y0126825D01*
X0269535Y0127528D01*
X0269535Y0131122D01*
X0269061Y0131597D01*
X0269318Y0131745D01*
X0269616Y0132043D01*
X0269826Y0132408D01*
X0269935Y0132815D01*
X0269935Y0134275D01*
X0264386Y0134275D01*
X0264386Y0134375D01*
X0269935Y0134375D01*
X0269935Y0135836D01*
X0269826Y0136243D01*
X0269616Y0136608D01*
X0269318Y0136905D01*
X0269061Y0137054D01*
X0269535Y0137528D01*
X0269535Y0141122D01*
X0268832Y0141825D01*
X0259838Y0141825D01*
X0259738Y0141725D01*
X0257541Y0141725D01*
X0257639Y0141962D01*
X0257639Y0149669D01*
X0259280Y0149669D01*
X0259983Y0150372D01*
X0259983Y0160028D01*
X0259280Y0160731D01*
X0251199Y0160731D01*
X0250496Y0160028D01*
X0250496Y0150372D01*
X0251199Y0149669D01*
X0252839Y0149669D01*
X0252839Y0144163D01*
X0252723Y0144280D01*
X0252759Y0144244D02*
X0252839Y0144244D01*
X0249641Y0144244D02*
X0206438Y0144244D01*
X0205239Y0143045D02*
X0248722Y0143045D01*
X0248511Y0141847D02*
X0229777Y0141847D01*
X0230335Y0140648D02*
X0248849Y0140648D01*
X0250330Y0139450D02*
X0230335Y0139450D01*
X0230335Y0138251D02*
X0251555Y0138251D01*
X0251641Y0138165D02*
X0251641Y0138165D01*
X0253090Y0137053D02*
X0230021Y0137053D01*
X0229935Y0135854D02*
X0258740Y0135854D01*
X0258735Y0134656D02*
X0229935Y0134656D01*
X0229935Y0133457D02*
X0258735Y0133457D01*
X0258931Y0132259D02*
X0229666Y0132259D01*
X0229935Y0131060D02*
X0259135Y0131060D01*
X0259135Y0129862D02*
X0229935Y0129862D01*
X0229935Y0128663D02*
X0259135Y0128663D01*
X0259199Y0127465D02*
X0229872Y0127465D01*
X0229792Y0126266D02*
X0259279Y0126266D01*
X0259838Y0126825D02*
X0261935Y0126825D01*
X0261935Y0126825D01*
X0259838Y0126825D01*
X0259135Y0125068D02*
X0229935Y0125068D01*
X0229935Y0123869D02*
X0259135Y0123869D01*
X0259135Y0122670D02*
X0229935Y0122670D01*
X0229586Y0121472D02*
X0259485Y0121472D01*
X0259838Y0121825D02*
X0261935Y0121825D01*
X0261935Y0121825D01*
X0259838Y0121825D01*
X0259135Y0120273D02*
X0229935Y0120273D01*
X0229935Y0119075D02*
X0259135Y0119075D01*
X0259135Y0117876D02*
X0229935Y0117876D01*
X0229380Y0116678D02*
X0259691Y0116678D01*
X0259838Y0116825D02*
X0261935Y0116825D01*
X0261935Y0116825D01*
X0259838Y0116825D01*
X0259135Y0115479D02*
X0229935Y0115479D01*
X0229935Y0114281D02*
X0259135Y0114281D01*
X0259135Y0113082D02*
X0229935Y0113082D01*
X0229291Y0111884D02*
X0259780Y0111884D01*
X0259135Y0110685D02*
X0229935Y0110685D01*
X0229935Y0109487D02*
X0259135Y0109487D01*
X0259135Y0108288D02*
X0229935Y0108288D01*
X0229497Y0107090D02*
X0259574Y0107090D01*
X0259838Y0106825D02*
X0261935Y0106825D01*
X0259838Y0106825D01*
X0259135Y0105891D02*
X0229935Y0105891D01*
X0229935Y0104693D02*
X0259135Y0104693D01*
X0259135Y0103494D02*
X0229935Y0103494D01*
X0229703Y0102296D02*
X0259368Y0102296D01*
X0259838Y0101825D02*
X0261935Y0101825D01*
X0259838Y0101825D01*
X0259135Y0101097D02*
X0229935Y0101097D01*
X0229935Y0099899D02*
X0259135Y0099899D01*
X0259135Y0098700D02*
X0229935Y0098700D01*
X0229909Y0097502D02*
X0259162Y0097502D01*
X0259838Y0096825D02*
X0261935Y0096825D01*
X0259838Y0096825D01*
X0259316Y0096303D02*
X0230191Y0096303D01*
X0230335Y0095105D02*
X0259135Y0095105D01*
X0259135Y0093906D02*
X0230335Y0093906D01*
X0230307Y0092708D02*
X0259135Y0092708D01*
X0261935Y0096825D02*
X0261935Y0096825D01*
X0266735Y0096825D02*
X0266735Y0096825D01*
X0269354Y0096303D02*
X0285981Y0096303D01*
X0284783Y0095105D02*
X0269535Y0095105D01*
X0269535Y0093906D02*
X0283584Y0093906D01*
X0282386Y0092708D02*
X0269535Y0092708D01*
X0269509Y0097502D02*
X0287180Y0097502D01*
X0288378Y0098700D02*
X0269535Y0098700D01*
X0269535Y0099899D02*
X0289577Y0099899D01*
X0290776Y0101097D02*
X0269535Y0101097D01*
X0269303Y0102296D02*
X0291974Y0102296D01*
X0293173Y0103494D02*
X0269535Y0103494D01*
X0269535Y0104693D02*
X0294371Y0104693D01*
X0295570Y0105891D02*
X0269535Y0105891D01*
X0266735Y0106825D02*
X0266735Y0106825D01*
X0261935Y0106825D02*
X0261935Y0106825D01*
X0261935Y0101825D02*
X0261935Y0101825D01*
X0266735Y0101825D02*
X0266735Y0101825D01*
X0268891Y0111884D02*
X0277106Y0111884D01*
X0277297Y0113082D02*
X0269535Y0113082D01*
X0269535Y0114281D02*
X0277904Y0114281D01*
X0279475Y0115479D02*
X0269535Y0115479D01*
X0268980Y0116678D02*
X0298691Y0116678D01*
X0298691Y0117876D02*
X0287625Y0117876D01*
X0289612Y0119075D02*
X0298691Y0119075D01*
X0298691Y0120273D02*
X0290392Y0120273D01*
X0290705Y0121472D02*
X0298691Y0121472D01*
X0298691Y0122670D02*
X0290685Y0122670D01*
X0290189Y0123869D02*
X0298691Y0123869D01*
X0298691Y0125068D02*
X0289120Y0125068D01*
X0282532Y0126266D02*
X0298691Y0126266D01*
X0298691Y0127465D02*
X0269472Y0127465D01*
X0269535Y0128663D02*
X0298691Y0128663D01*
X0298691Y0129862D02*
X0269535Y0129862D01*
X0269535Y0131060D02*
X0298691Y0131060D01*
X0298691Y0132259D02*
X0269740Y0132259D01*
X0269935Y0133457D02*
X0298691Y0133457D01*
X0298691Y0134656D02*
X0269935Y0134656D01*
X0269931Y0135854D02*
X0298691Y0135854D01*
X0298691Y0137053D02*
X0269063Y0137053D01*
X0269535Y0138251D02*
X0298691Y0138251D01*
X0298691Y0139450D02*
X0269535Y0139450D01*
X0269535Y0140648D02*
X0298691Y0140648D01*
X0298691Y0141847D02*
X0257592Y0141847D01*
X0257639Y0143045D02*
X0298691Y0143045D01*
X0298691Y0144244D02*
X0257639Y0144244D01*
X0257639Y0145442D02*
X0298691Y0145442D01*
X0298691Y0146641D02*
X0257639Y0146641D01*
X0257639Y0147839D02*
X0298691Y0147839D01*
X0298691Y0149038D02*
X0257639Y0149038D01*
X0259847Y0150236D02*
X0298691Y0150236D01*
X0298691Y0151435D02*
X0259983Y0151435D01*
X0259983Y0152633D02*
X0298691Y0152633D01*
X0298691Y0153832D02*
X0259983Y0153832D01*
X0259983Y0155030D02*
X0298691Y0155030D01*
X0298691Y0156229D02*
X0259983Y0156229D01*
X0259983Y0157427D02*
X0298691Y0157427D01*
X0298691Y0158626D02*
X0259983Y0158626D01*
X0259983Y0159824D02*
X0298691Y0159824D01*
X0298691Y0165817D02*
X0083289Y0165817D01*
X0082387Y0167015D02*
X0298691Y0167015D01*
X0298691Y0168214D02*
X0079580Y0168214D01*
X0078382Y0169412D02*
X0298691Y0169412D01*
X0298691Y0170611D02*
X0268878Y0170611D01*
X0268832Y0170565D02*
X0269535Y0171268D01*
X0269535Y0174862D01*
X0268832Y0175565D01*
X0269535Y0176268D01*
X0269535Y0179862D01*
X0268832Y0180565D01*
X0269535Y0181268D01*
X0269535Y0184862D01*
X0268832Y0185565D01*
X0268932Y0185665D01*
X0281883Y0185665D01*
X0282765Y0186031D01*
X0283300Y0186565D01*
X0287501Y0186565D01*
X0288971Y0187174D01*
X0290097Y0188300D01*
X0290705Y0189770D01*
X0290705Y0191361D01*
X0290097Y0192831D01*
X0288971Y0193956D01*
X0287501Y0194565D01*
X0280310Y0194565D01*
X0278840Y0193956D01*
X0277714Y0192831D01*
X0277106Y0191361D01*
X0277106Y0190465D01*
X0268932Y0190465D01*
X0268832Y0190565D01*
X0259838Y0190565D01*
X0259135Y0189862D01*
X0259135Y0186268D01*
X0259838Y0185565D01*
X0259135Y0184862D01*
X0259135Y0181268D01*
X0259838Y0180565D01*
X0259135Y0179862D01*
X0259135Y0176268D01*
X0259838Y0175565D01*
X0259135Y0174862D01*
X0259135Y0171268D01*
X0259838Y0170565D01*
X0268832Y0170565D01*
X0269535Y0171809D02*
X0298691Y0171809D01*
X0298691Y0173008D02*
X0269535Y0173008D01*
X0269535Y0174206D02*
X0298691Y0174206D01*
X0298691Y0175405D02*
X0268993Y0175405D01*
X0268832Y0175565D02*
X0266735Y0175565D01*
X0268832Y0175565D01*
X0269535Y0176603D02*
X0298691Y0176603D01*
X0298691Y0177802D02*
X0269535Y0177802D01*
X0269535Y0179001D02*
X0298691Y0179001D01*
X0298691Y0180199D02*
X0269199Y0180199D01*
X0268832Y0180565D02*
X0266735Y0180565D01*
X0266735Y0180565D01*
X0268832Y0180565D01*
X0269535Y0181398D02*
X0298691Y0181398D01*
X0298691Y0182596D02*
X0269535Y0182596D01*
X0269535Y0183795D02*
X0298691Y0183795D01*
X0298691Y0184993D02*
X0269405Y0184993D01*
X0268832Y0185565D02*
X0266735Y0185565D01*
X0266735Y0185565D01*
X0268832Y0185565D01*
X0268832Y0190565D02*
X0269535Y0191268D01*
X0269535Y0194862D01*
X0268832Y0195565D01*
X0269535Y0196268D01*
X0269535Y0198165D01*
X0277849Y0198165D01*
X0278840Y0197174D01*
X0280310Y0196565D01*
X0287501Y0196565D01*
X0288971Y0197174D01*
X0290097Y0198300D01*
X0290705Y0199770D01*
X0290705Y0201361D01*
X0290097Y0202831D01*
X0288971Y0203956D01*
X0287501Y0204565D01*
X0280310Y0204565D01*
X0278840Y0203956D01*
X0277849Y0202965D01*
X0269535Y0202965D01*
X0269535Y0204862D01*
X0268832Y0205565D01*
X0269535Y0206268D01*
X0269535Y0209862D01*
X0269061Y0210337D01*
X0269318Y0210485D01*
X0269616Y0210783D01*
X0269826Y0211148D01*
X0269935Y0211555D01*
X0269935Y0213015D01*
X0264386Y0213015D01*
X0264386Y0213115D01*
X0269935Y0213115D01*
X0269935Y0214576D01*
X0269826Y0214983D01*
X0269616Y0215348D01*
X0269318Y0215646D01*
X0269061Y0215794D01*
X0269535Y0216268D01*
X0269535Y0219862D01*
X0268832Y0220565D01*
X0259838Y0220565D01*
X0259738Y0220465D01*
X0257729Y0220465D01*
X0253600Y0224594D01*
X0253600Y0232488D01*
X0253580Y0232535D01*
X0255813Y0232535D01*
X0256695Y0232901D01*
X0256826Y0233031D01*
X0257523Y0233320D01*
X0258280Y0234077D01*
X0258689Y0235065D01*
X0258689Y0236135D01*
X0258280Y0237123D01*
X0257523Y0237880D01*
X0256535Y0238289D01*
X0255465Y0238289D01*
X0254477Y0237880D01*
X0253933Y0237335D01*
X0252035Y0237335D01*
X0252035Y0238385D01*
X0251332Y0239088D01*
X0245219Y0239088D01*
X0244769Y0238638D01*
X0244635Y0238871D01*
X0244337Y0239168D01*
X0243972Y0239379D01*
X0243565Y0239488D01*
X0241395Y0239488D01*
X0241395Y0235535D01*
X0240195Y0235535D01*
X0240195Y0234335D01*
X0241395Y0234335D01*
X0241395Y0230383D01*
X0243565Y0230383D01*
X0243972Y0230492D01*
X0244337Y0230702D01*
X0244635Y0231000D01*
X0244769Y0231233D01*
X0245219Y0230783D01*
X0248800Y0230783D01*
X0248800Y0223123D01*
X0249165Y0222241D01*
X0249841Y0221565D01*
X0255375Y0216031D01*
X0256257Y0215665D01*
X0259387Y0215665D01*
X0259353Y0215646D01*
X0259055Y0215348D01*
X0258844Y0214983D01*
X0258735Y0214576D01*
X0258735Y0213115D01*
X0264285Y0213115D01*
X0264285Y0213015D01*
X0258735Y0213015D01*
X0258735Y0211555D01*
X0258844Y0211148D01*
X0259055Y0210783D01*
X0259353Y0210485D01*
X0259610Y0210337D01*
X0259135Y0209862D01*
X0259135Y0206268D01*
X0259838Y0205565D01*
X0259135Y0204862D01*
X0259135Y0201268D01*
X0259838Y0200565D01*
X0259135Y0199862D01*
X0259135Y0196268D01*
X0259838Y0195565D01*
X0259135Y0194862D01*
X0259135Y0191268D01*
X0259838Y0190565D01*
X0268832Y0190565D01*
X0269253Y0190986D02*
X0277106Y0190986D01*
X0277446Y0192184D02*
X0269535Y0192184D01*
X0269535Y0193383D02*
X0278266Y0193383D01*
X0279313Y0196978D02*
X0269535Y0196978D01*
X0269047Y0195780D02*
X0298691Y0195780D01*
X0298691Y0196978D02*
X0288498Y0196978D01*
X0289974Y0198177D02*
X0298691Y0198177D01*
X0298691Y0199375D02*
X0290542Y0199375D01*
X0290705Y0200574D02*
X0298691Y0200574D01*
X0298691Y0201772D02*
X0290535Y0201772D01*
X0289957Y0202971D02*
X0298691Y0202971D01*
X0297900Y0204169D02*
X0288457Y0204169D01*
X0291907Y0210162D02*
X0269236Y0210162D01*
X0269535Y0208963D02*
X0293105Y0208963D01*
X0294304Y0207765D02*
X0269535Y0207765D01*
X0269535Y0206566D02*
X0295502Y0206566D01*
X0296701Y0205368D02*
X0269030Y0205368D01*
X0268832Y0205565D02*
X0266735Y0205565D01*
X0268832Y0205565D01*
X0269535Y0204169D02*
X0279354Y0204169D01*
X0277854Y0202971D02*
X0269535Y0202971D01*
X0266735Y0205565D02*
X0266735Y0205565D01*
X0261935Y0205565D02*
X0259838Y0205565D01*
X0261935Y0205565D01*
X0261935Y0205565D01*
X0259641Y0205368D02*
X0229430Y0205368D01*
X0229232Y0205565D02*
X0227135Y0205565D01*
X0229232Y0205565D01*
X0229935Y0206268D01*
X0229935Y0209862D01*
X0229232Y0210565D01*
X0229935Y0211268D01*
X0229935Y0214862D01*
X0229461Y0215337D01*
X0229718Y0215485D01*
X0230016Y0215783D01*
X0230226Y0216148D01*
X0230335Y0216555D01*
X0230335Y0218015D01*
X0224786Y0218015D01*
X0224786Y0218115D01*
X0230335Y0218115D01*
X0230335Y0219576D01*
X0230226Y0219983D01*
X0230016Y0220348D01*
X0229718Y0220646D01*
X0229353Y0220856D01*
X0228946Y0220965D01*
X0224785Y0220965D01*
X0224785Y0218115D01*
X0224685Y0218115D01*
X0224685Y0218015D01*
X0219135Y0218015D01*
X0219135Y0216555D01*
X0219244Y0216148D01*
X0219455Y0215783D01*
X0219753Y0215485D01*
X0220010Y0215337D01*
X0219535Y0214862D01*
X0219535Y0211268D01*
X0220238Y0210565D01*
X0219535Y0209862D01*
X0219535Y0206268D01*
X0220238Y0205565D01*
X0219535Y0204862D01*
X0219535Y0201268D01*
X0220238Y0200565D01*
X0219538Y0199865D01*
X0218704Y0199865D01*
X0218680Y0199923D01*
X0217923Y0200680D01*
X0216935Y0201089D01*
X0215865Y0201089D01*
X0214877Y0200680D01*
X0214120Y0199923D01*
X0213711Y0198935D01*
X0213711Y0197865D01*
X0214120Y0196877D01*
X0214877Y0196120D01*
X0215865Y0195711D01*
X0216935Y0195711D01*
X0217923Y0196120D01*
X0218068Y0196265D01*
X0219538Y0196265D01*
X0220238Y0195565D01*
X0219535Y0194862D01*
X0219535Y0191268D01*
X0220238Y0190565D01*
X0219535Y0189862D01*
X0219535Y0186268D01*
X0220238Y0185565D01*
X0219535Y0184862D01*
X0219535Y0181268D01*
X0220238Y0180565D01*
X0219538Y0179865D01*
X0218120Y0179865D01*
X0216543Y0178289D01*
X0215865Y0178289D01*
X0214877Y0177880D01*
X0214120Y0177123D01*
X0213711Y0176135D01*
X0213711Y0175065D01*
X0214120Y0174077D01*
X0214877Y0173320D01*
X0215865Y0172911D01*
X0216935Y0172911D01*
X0217923Y0173320D01*
X0218680Y0174077D01*
X0219089Y0175065D01*
X0219089Y0175743D01*
X0219575Y0176229D01*
X0220010Y0175794D01*
X0219753Y0175646D01*
X0219455Y0175348D01*
X0219244Y0174983D01*
X0219135Y0174576D01*
X0219135Y0173115D01*
X0224685Y0173115D01*
X0224685Y0173015D01*
X0219135Y0173015D01*
X0219135Y0171555D01*
X0219244Y0171148D01*
X0219455Y0170783D01*
X0219753Y0170485D01*
X0220118Y0170274D01*
X0220525Y0170165D01*
X0224685Y0170165D01*
X0224685Y0173015D01*
X0224785Y0173015D01*
X0224785Y0170165D01*
X0228946Y0170165D01*
X0229353Y0170274D01*
X0229718Y0170485D01*
X0230016Y0170783D01*
X0230226Y0171148D01*
X0230335Y0171555D01*
X0230335Y0173015D01*
X0224786Y0173015D01*
X0224786Y0173115D01*
X0230335Y0173115D01*
X0230335Y0174576D01*
X0230226Y0174983D01*
X0230016Y0175348D01*
X0229718Y0175646D01*
X0229461Y0175794D01*
X0229935Y0176268D01*
X0229935Y0179862D01*
X0229232Y0180565D01*
X0229935Y0181268D01*
X0229935Y0184862D01*
X0229232Y0185565D01*
X0229935Y0186268D01*
X0229935Y0189862D01*
X0229232Y0190565D01*
X0229935Y0191268D01*
X0229935Y0194862D01*
X0229232Y0195565D01*
X0220238Y0195565D01*
X0229232Y0195565D01*
X0229935Y0196268D01*
X0229935Y0199862D01*
X0229232Y0200565D01*
X0229935Y0201268D01*
X0229935Y0204862D01*
X0229232Y0205565D01*
X0229935Y0206566D02*
X0259135Y0206566D01*
X0259135Y0207765D02*
X0229935Y0207765D01*
X0229935Y0208963D02*
X0259135Y0208963D01*
X0259435Y0210162D02*
X0229636Y0210162D01*
X0229232Y0210565D02*
X0227135Y0210565D01*
X0229232Y0210565D01*
X0229935Y0211360D02*
X0258788Y0211360D01*
X0258735Y0212559D02*
X0229935Y0212559D01*
X0229935Y0213757D02*
X0258735Y0213757D01*
X0258837Y0214956D02*
X0229842Y0214956D01*
X0230228Y0216154D02*
X0255252Y0216154D01*
X0254053Y0217353D02*
X0230335Y0217353D01*
X0230335Y0218551D02*
X0252854Y0218551D01*
X0251656Y0219750D02*
X0230289Y0219750D01*
X0229009Y0220948D02*
X0250457Y0220948D01*
X0249259Y0222147D02*
X0212222Y0222147D01*
X0212135Y0222111D02*
X0213123Y0222520D01*
X0213880Y0223277D01*
X0214289Y0224265D01*
X0214289Y0225335D01*
X0213880Y0226323D01*
X0213123Y0227080D01*
X0212135Y0227489D01*
X0211065Y0227489D01*
X0210077Y0227080D01*
X0209320Y0226323D01*
X0208911Y0225335D01*
X0208911Y0224657D01*
X0208165Y0223911D01*
X0208165Y0219865D01*
X0206516Y0219865D01*
X0205813Y0219162D01*
X0205813Y0213049D01*
X0206497Y0212365D01*
X0205813Y0211681D01*
X0205813Y0210425D01*
X0204472Y0210425D01*
X0204472Y0211681D01*
X0203788Y0212365D01*
X0204472Y0213049D01*
X0204472Y0219162D01*
X0203769Y0219865D01*
X0201650Y0219865D01*
X0201650Y0220350D01*
X0202906Y0220350D01*
X0203609Y0221053D01*
X0203609Y0227165D01*
X0202906Y0227868D01*
X0196794Y0227868D01*
X0196091Y0227165D01*
X0196091Y0221053D01*
X0196794Y0220350D01*
X0198050Y0220350D01*
X0198050Y0219865D01*
X0196476Y0219865D01*
X0195773Y0219162D01*
X0195773Y0213049D01*
X0196457Y0212365D01*
X0195773Y0211681D01*
X0195773Y0205569D01*
X0196476Y0204866D01*
X0198323Y0204866D01*
X0198323Y0203268D01*
X0197654Y0202600D01*
X0185654Y0202600D01*
X0184600Y0201546D01*
X0181495Y0198441D01*
X0181495Y0181192D01*
X0180795Y0180492D01*
X0180095Y0181192D01*
X0180095Y0204866D01*
X0183888Y0204866D01*
X0184591Y0205569D01*
X0184591Y0206825D01*
X0185931Y0206825D01*
X0185931Y0205569D01*
X0186634Y0204866D01*
X0193927Y0204866D01*
X0194630Y0205569D01*
X0194630Y0211681D01*
X0193946Y0212365D01*
X0194630Y0213049D01*
X0194630Y0219162D01*
X0193927Y0219865D01*
X0192595Y0219865D01*
X0192595Y0220350D01*
X0193851Y0220350D01*
X0194554Y0221053D01*
X0194554Y0227165D01*
X0193851Y0227868D01*
X0187739Y0227868D01*
X0187036Y0227165D01*
X0187036Y0221053D01*
X0187739Y0220350D01*
X0188995Y0220350D01*
X0188995Y0219865D01*
X0186634Y0219865D01*
X0185931Y0219162D01*
X0185931Y0213049D01*
X0186615Y0212365D01*
X0185931Y0211681D01*
X0185931Y0210425D01*
X0184591Y0210425D01*
X0184591Y0211681D01*
X0183906Y0212365D01*
X0184591Y0213049D01*
X0184591Y0219162D01*
X0183888Y0219865D01*
X0182200Y0219865D01*
X0182200Y0223997D01*
X0182680Y0224477D01*
X0183089Y0225465D01*
X0183089Y0226535D01*
X0182680Y0227523D01*
X0181923Y0228280D01*
X0180935Y0228689D01*
X0179865Y0228689D01*
X0178877Y0228280D01*
X0178120Y0227523D01*
X0177711Y0226535D01*
X0177711Y0225465D01*
X0178120Y0224477D01*
X0178600Y0223997D01*
X0178600Y0219865D01*
X0176988Y0219865D01*
X0176285Y0219162D01*
X0176285Y0213049D01*
X0176969Y0212365D01*
X0176603Y0212000D01*
X0175923Y0212680D01*
X0174935Y0213089D01*
X0173865Y0213089D01*
X0172877Y0212680D01*
X0172120Y0211923D01*
X0171711Y0210935D01*
X0171711Y0209865D01*
X0172120Y0208877D01*
X0172877Y0208120D01*
X0173865Y0207711D01*
X0174935Y0207711D01*
X0175507Y0207948D01*
X0176285Y0207169D01*
X0176285Y0205569D01*
X0176495Y0205359D01*
X0176495Y0186907D01*
X0175923Y0187480D01*
X0174935Y0187889D01*
X0173865Y0187889D01*
X0172877Y0187480D01*
X0172120Y0186723D01*
X0171711Y0185735D01*
X0171711Y0185057D01*
X0171495Y0184841D01*
X0171495Y0181192D01*
X0170795Y0180492D01*
X0170095Y0181192D01*
X0170095Y0184850D01*
X0169889Y0185057D01*
X0169889Y0185735D01*
X0169480Y0186723D01*
X0168723Y0187480D01*
X0167735Y0187889D01*
X0166665Y0187889D01*
X0165677Y0187480D01*
X0165095Y0186898D01*
X0165095Y0195850D01*
X0154618Y0206328D01*
X0154873Y0206328D01*
X0156257Y0207711D01*
X0156935Y0207711D01*
X0157923Y0208120D01*
X0158680Y0208877D01*
X0159089Y0209865D01*
X0159089Y0210935D01*
X0158680Y0211923D01*
X0157923Y0212680D01*
X0156935Y0213089D01*
X0155865Y0213089D01*
X0154877Y0212680D01*
X0154203Y0212006D01*
X0153677Y0212532D01*
X0154361Y0213216D01*
X0154361Y0219329D01*
X0153658Y0220031D01*
X0152008Y0220031D01*
X0152008Y0220205D01*
X0152680Y0220877D01*
X0153089Y0221865D01*
X0153089Y0222935D01*
X0152680Y0223923D01*
X0151923Y0224680D01*
X0150935Y0225089D01*
X0149865Y0225089D01*
X0148877Y0224680D01*
X0148120Y0223923D01*
X0147711Y0222935D01*
X0147711Y0221865D01*
X0148120Y0220877D01*
X0148408Y0220589D01*
X0148408Y0220031D01*
X0146758Y0220031D01*
X0146055Y0219329D01*
X0146055Y0213216D01*
X0146739Y0212532D01*
X0146055Y0211848D01*
X0146055Y0209928D01*
X0145827Y0209928D01*
X0145827Y0211184D01*
X0145143Y0211868D01*
X0145827Y0212552D01*
X0145827Y0218664D01*
X0145124Y0219367D01*
X0142595Y0219367D01*
X0142595Y0220350D01*
X0143851Y0220350D01*
X0144554Y0221053D01*
X0144554Y0227165D01*
X0143851Y0227868D01*
X0137739Y0227868D01*
X0137036Y0227165D01*
X0137036Y0221053D01*
X0137739Y0220350D01*
X0138995Y0220350D01*
X0138995Y0219367D01*
X0137830Y0219367D01*
X0137128Y0218664D01*
X0137128Y0212552D01*
X0137812Y0211868D01*
X0137128Y0211184D01*
X0137128Y0205071D01*
X0137830Y0204369D01*
X0145124Y0204369D01*
X0145827Y0205071D01*
X0145827Y0206328D01*
X0146055Y0206328D01*
X0146055Y0205736D01*
X0146758Y0205033D01*
X0150821Y0205033D01*
X0161495Y0194359D01*
X0161495Y0181192D01*
X0160795Y0180492D01*
X0160795Y0171498D01*
X0161498Y0170795D01*
X0165092Y0170795D01*
X0165795Y0171498D01*
X0165795Y0180492D01*
X0165095Y0181192D01*
X0165095Y0183502D01*
X0165677Y0182920D01*
X0166495Y0182581D01*
X0166495Y0181192D01*
X0165795Y0180492D01*
X0165795Y0171498D01*
X0166498Y0170795D01*
X0170092Y0170795D01*
X0170795Y0171498D01*
X0170795Y0180492D01*
X0170795Y0171498D01*
X0171498Y0170795D01*
X0175092Y0170795D01*
X0175795Y0171498D01*
X0175795Y0180492D01*
X0175095Y0181192D01*
X0175095Y0182577D01*
X0175923Y0182920D01*
X0176495Y0183493D01*
X0176495Y0181192D01*
X0175795Y0180492D01*
X0175795Y0171498D01*
X0176498Y0170795D01*
X0180092Y0170795D01*
X0180795Y0171498D01*
X0180795Y0180492D01*
X0180795Y0171498D01*
X0181498Y0170795D01*
X0185092Y0170795D01*
X0185567Y0171270D01*
X0185715Y0171013D01*
X0186013Y0170715D01*
X0186378Y0170504D01*
X0186785Y0170395D01*
X0188245Y0170395D01*
X0188245Y0175945D01*
X0188345Y0175945D01*
X0188345Y0170395D01*
X0189806Y0170395D01*
X0190213Y0170504D01*
X0190578Y0170715D01*
X0190876Y0171013D01*
X0191086Y0171378D01*
X0191195Y0171785D01*
X0191195Y0175945D01*
X0188345Y0175945D01*
X0188345Y0176045D01*
X0188245Y0176045D01*
X0188245Y0181595D01*
X0186785Y0181595D01*
X0186378Y0181486D01*
X0186013Y0181276D01*
X0185715Y0180978D01*
X0185567Y0180721D01*
X0185095Y0181192D01*
X0185095Y0196950D01*
X0187146Y0199000D01*
X0198138Y0199000D01*
X0198520Y0198077D01*
X0199277Y0197320D01*
X0200265Y0196911D01*
X0201335Y0196911D01*
X0202323Y0197320D01*
X0203080Y0198077D01*
X0203489Y0199065D01*
X0203489Y0200135D01*
X0203080Y0201123D01*
X0202323Y0201880D01*
X0201923Y0202045D01*
X0201923Y0204866D01*
X0203769Y0204866D01*
X0204472Y0205569D01*
X0204472Y0206825D01*
X0205813Y0206825D01*
X0205813Y0205569D01*
X0206516Y0204866D01*
X0213415Y0204866D01*
X0214118Y0205569D01*
X0214118Y0211681D01*
X0213434Y0212365D01*
X0214118Y0213049D01*
X0214118Y0219162D01*
X0213415Y0219865D01*
X0211765Y0219865D01*
X0211765Y0222111D01*
X0212135Y0222111D01*
X0211765Y0220948D02*
X0220462Y0220948D01*
X0220525Y0220965D02*
X0220118Y0220856D01*
X0219753Y0220646D01*
X0219455Y0220348D01*
X0219244Y0219983D01*
X0219135Y0219576D01*
X0219135Y0218115D01*
X0224685Y0218115D01*
X0224685Y0220965D01*
X0220525Y0220965D01*
X0219182Y0219750D02*
X0213530Y0219750D01*
X0214118Y0218551D02*
X0219135Y0218551D01*
X0219135Y0217353D02*
X0214118Y0217353D01*
X0214118Y0216154D02*
X0219243Y0216154D01*
X0219629Y0214956D02*
X0214118Y0214956D01*
X0214118Y0213757D02*
X0219535Y0213757D01*
X0219535Y0212559D02*
X0213628Y0212559D01*
X0214118Y0211360D02*
X0219535Y0211360D01*
X0220238Y0210565D02*
X0222335Y0210565D01*
X0220238Y0210565D01*
X0219835Y0210162D02*
X0214118Y0210162D01*
X0214118Y0208963D02*
X0219535Y0208963D01*
X0219535Y0207765D02*
X0214118Y0207765D01*
X0214118Y0206566D02*
X0219535Y0206566D01*
X0220238Y0205565D02*
X0222335Y0205565D01*
X0220238Y0205565D01*
X0220041Y0205368D02*
X0213917Y0205368D01*
X0209965Y0208625D02*
X0200748Y0208625D01*
X0200123Y0208000D01*
X0200123Y0208625D01*
X0200123Y0200277D01*
X0200800Y0199600D01*
X0198400Y0200800D02*
X0200123Y0202523D01*
X0200123Y0208000D01*
X0201923Y0204169D02*
X0219535Y0204169D01*
X0219535Y0202971D02*
X0201923Y0202971D01*
X0202431Y0201772D02*
X0219535Y0201772D01*
X0220230Y0200574D02*
X0218029Y0200574D01*
X0220238Y0200565D02*
X0222335Y0200565D01*
X0222335Y0200565D01*
X0220238Y0200565D01*
X0216735Y0198065D02*
X0216400Y0198400D01*
X0216735Y0198065D02*
X0224735Y0198065D01*
X0227135Y0200565D02*
X0229232Y0200565D01*
X0227135Y0200565D01*
X0227135Y0200565D01*
X0229241Y0200574D02*
X0259830Y0200574D01*
X0259838Y0200565D02*
X0261935Y0200565D01*
X0259838Y0200565D01*
X0259135Y0199375D02*
X0229935Y0199375D01*
X0229935Y0198177D02*
X0259135Y0198177D01*
X0259135Y0196978D02*
X0229935Y0196978D01*
X0229447Y0195780D02*
X0259624Y0195780D01*
X0259838Y0195565D02*
X0261935Y0195565D01*
X0259838Y0195565D01*
X0259135Y0194581D02*
X0229935Y0194581D01*
X0229935Y0193383D02*
X0259135Y0193383D01*
X0259135Y0192184D02*
X0229935Y0192184D01*
X0229653Y0190986D02*
X0259418Y0190986D01*
X0259135Y0189787D02*
X0229935Y0189787D01*
X0229232Y0190565D02*
X0227135Y0190565D01*
X0229232Y0190565D01*
X0227135Y0190565D02*
X0227135Y0190565D01*
X0229935Y0188589D02*
X0259135Y0188589D01*
X0259135Y0187390D02*
X0229935Y0187390D01*
X0229859Y0186192D02*
X0259212Y0186192D01*
X0259838Y0185565D02*
X0261935Y0185565D01*
X0259838Y0185565D01*
X0259266Y0184993D02*
X0229805Y0184993D01*
X0229232Y0185565D02*
X0227135Y0185565D01*
X0227135Y0185565D01*
X0229232Y0185565D01*
X0229935Y0183795D02*
X0259135Y0183795D01*
X0259135Y0182596D02*
X0229935Y0182596D01*
X0229935Y0181398D02*
X0259135Y0181398D01*
X0259838Y0180565D02*
X0261935Y0180565D01*
X0259838Y0180565D01*
X0259472Y0180199D02*
X0229599Y0180199D01*
X0229232Y0180565D02*
X0227135Y0180565D01*
X0227135Y0180565D01*
X0229232Y0180565D01*
X0229935Y0179001D02*
X0259135Y0179001D01*
X0259135Y0177802D02*
X0229935Y0177802D01*
X0229935Y0176603D02*
X0259135Y0176603D01*
X0259838Y0175565D02*
X0261935Y0175565D01*
X0259838Y0175565D01*
X0259678Y0175405D02*
X0229959Y0175405D01*
X0230335Y0174206D02*
X0259135Y0174206D01*
X0259135Y0173008D02*
X0230335Y0173008D01*
X0230335Y0171809D02*
X0259135Y0171809D01*
X0259793Y0170611D02*
X0229844Y0170611D01*
X0224785Y0170611D02*
X0224685Y0170611D01*
X0224685Y0171809D02*
X0224785Y0171809D01*
X0224785Y0173008D02*
X0224685Y0173008D01*
X0224735Y0178065D02*
X0218865Y0178065D01*
X0216400Y0175600D01*
X0213905Y0176603D02*
X0191195Y0176603D01*
X0191195Y0176045D02*
X0191195Y0180206D01*
X0191086Y0180613D01*
X0190876Y0180978D01*
X0190578Y0181276D01*
X0190213Y0181486D01*
X0189806Y0181595D01*
X0188345Y0181595D01*
X0188345Y0176045D01*
X0191195Y0176045D01*
X0191195Y0175405D02*
X0213711Y0175405D01*
X0214067Y0174206D02*
X0191195Y0174206D01*
X0191195Y0173008D02*
X0215631Y0173008D01*
X0217169Y0173008D02*
X0219135Y0173008D01*
X0219135Y0174206D02*
X0218733Y0174206D01*
X0219089Y0175405D02*
X0219512Y0175405D01*
X0219135Y0171809D02*
X0191195Y0171809D01*
X0190398Y0170611D02*
X0219627Y0170611D01*
X0215608Y0163420D02*
X0214408Y0163420D01*
X0214408Y0162221D02*
X0215608Y0162221D01*
X0210742Y0163420D02*
X0209431Y0163420D01*
X0209718Y0162221D02*
X0210455Y0162221D01*
X0210455Y0161023D02*
X0209718Y0161023D01*
X0209718Y0158626D02*
X0210455Y0158626D01*
X0210455Y0157427D02*
X0209718Y0157427D01*
X0209233Y0156229D02*
X0210940Y0156229D01*
X0210855Y0155030D02*
X0209318Y0155030D01*
X0208957Y0149038D02*
X0211216Y0149038D01*
X0218799Y0149038D02*
X0252839Y0149038D01*
X0250632Y0150236D02*
X0239768Y0150236D01*
X0239904Y0151435D02*
X0250496Y0151435D01*
X0250496Y0152633D02*
X0239904Y0152633D01*
X0239904Y0153832D02*
X0250496Y0153832D01*
X0250496Y0155030D02*
X0239904Y0155030D01*
X0239904Y0156229D02*
X0250496Y0156229D01*
X0250496Y0157427D02*
X0239904Y0157427D01*
X0239904Y0158626D02*
X0250496Y0158626D01*
X0250496Y0159824D02*
X0239904Y0159824D01*
X0230417Y0152633D02*
X0224427Y0152633D01*
X0223229Y0151435D02*
X0230417Y0151435D01*
X0230553Y0150236D02*
X0221770Y0150236D01*
X0220036Y0155030D02*
X0219161Y0155030D01*
X0219076Y0156229D02*
X0221235Y0156229D01*
X0221565Y0156559D02*
X0221565Y0156559D01*
X0222706Y0157427D02*
X0219561Y0157427D01*
X0220525Y0142225D02*
X0220118Y0142116D01*
X0219753Y0141905D01*
X0219455Y0141608D01*
X0219244Y0141243D01*
X0219135Y0140836D01*
X0219135Y0139375D01*
X0224685Y0139375D01*
X0224685Y0142225D01*
X0220525Y0142225D01*
X0219694Y0141847D02*
X0204041Y0141847D01*
X0202842Y0140648D02*
X0219135Y0140648D01*
X0219135Y0139450D02*
X0201644Y0139450D01*
X0200445Y0138251D02*
X0219135Y0138251D01*
X0219449Y0137053D02*
X0199247Y0137053D01*
X0198048Y0135854D02*
X0219535Y0135854D01*
X0219535Y0134656D02*
X0196850Y0134656D01*
X0194856Y0139450D02*
X0190795Y0139450D01*
X0190795Y0140648D02*
X0196054Y0140648D01*
X0192689Y0128663D02*
X0219535Y0128663D01*
X0219599Y0127465D02*
X0192357Y0127465D01*
X0192168Y0126266D02*
X0219679Y0126266D01*
X0220238Y0126825D02*
X0222335Y0126825D01*
X0222335Y0126825D01*
X0220238Y0126825D01*
X0219535Y0125068D02*
X0193366Y0125068D01*
X0194565Y0123869D02*
X0219535Y0123869D01*
X0227135Y0121825D02*
X0227135Y0121825D01*
X0227135Y0126825D02*
X0227135Y0126825D01*
X0227135Y0131825D02*
X0227135Y0131825D01*
X0222335Y0131825D02*
X0222335Y0131825D01*
X0224685Y0139450D02*
X0224785Y0139450D01*
X0224785Y0140648D02*
X0224685Y0140648D01*
X0224685Y0141847D02*
X0224785Y0141847D01*
X0200613Y0161023D02*
X0032900Y0161023D01*
X0052967Y0187390D02*
X0062055Y0187390D01*
X0065420Y0190565D02*
X0067255Y0188731D01*
X0067255Y0188065D01*
X0067255Y0192400D02*
X0067255Y0193065D01*
X0062055Y0193383D02*
X0053325Y0193383D01*
X0062758Y0205565D02*
X0064855Y0205565D01*
X0064855Y0205565D01*
X0062758Y0205565D01*
X0051669Y0222147D02*
X0127981Y0222147D01*
X0127981Y0223345D02*
X0052867Y0223345D01*
X0054066Y0224544D02*
X0127981Y0224544D01*
X0127981Y0225742D02*
X0055264Y0225742D01*
X0056463Y0226941D02*
X0127981Y0226941D01*
X0131635Y0224003D02*
X0131635Y0215850D01*
X0133435Y0219750D02*
X0138995Y0219750D01*
X0137140Y0220948D02*
X0135395Y0220948D01*
X0135499Y0222147D02*
X0137036Y0222147D01*
X0137036Y0223345D02*
X0135499Y0223345D01*
X0135499Y0224544D02*
X0137036Y0224544D01*
X0137036Y0225742D02*
X0135499Y0225742D01*
X0135499Y0226941D02*
X0137036Y0226941D01*
X0131740Y0224109D02*
X0131635Y0224003D01*
X0128085Y0220948D02*
X0111129Y0220948D01*
X0112409Y0219750D02*
X0118391Y0219750D01*
X0117970Y0218551D02*
X0112455Y0218551D01*
X0112455Y0217353D02*
X0116407Y0217353D01*
X0115209Y0216154D02*
X0112348Y0216154D01*
X0111962Y0214956D02*
X0115000Y0214956D01*
X0115000Y0213757D02*
X0112055Y0213757D01*
X0112055Y0212559D02*
X0115000Y0212559D01*
X0115000Y0211360D02*
X0112055Y0211360D01*
X0111756Y0210162D02*
X0115000Y0210162D01*
X0115000Y0208963D02*
X0112055Y0208963D01*
X0112055Y0207765D02*
X0115000Y0207765D01*
X0115000Y0206566D02*
X0112055Y0206566D01*
X0111550Y0205368D02*
X0115000Y0205368D01*
X0115000Y0204169D02*
X0112055Y0204169D01*
X0112055Y0202971D02*
X0115000Y0202971D01*
X0115000Y0201772D02*
X0112055Y0201772D01*
X0111361Y0200574D02*
X0115000Y0200574D01*
X0115000Y0199375D02*
X0112055Y0199375D01*
X0112055Y0198177D02*
X0115000Y0198177D01*
X0115000Y0196978D02*
X0112055Y0196978D01*
X0111566Y0195780D02*
X0115000Y0195780D01*
X0115000Y0194581D02*
X0112055Y0194581D01*
X0112055Y0193383D02*
X0115000Y0193383D01*
X0115000Y0192184D02*
X0112055Y0192184D01*
X0111772Y0190986D02*
X0115000Y0190986D01*
X0116800Y0190000D02*
X0114400Y0187600D01*
X0106855Y0187600D01*
X0104455Y0185565D02*
X0104455Y0185565D01*
X0111924Y0184993D02*
X0113667Y0184993D01*
X0115133Y0184993D02*
X0143101Y0184993D01*
X0142911Y0183795D02*
X0112055Y0183795D01*
X0112055Y0182596D02*
X0143271Y0182596D01*
X0143245Y0181595D02*
X0141785Y0181595D01*
X0141378Y0181486D01*
X0141013Y0181276D01*
X0140715Y0180978D01*
X0140504Y0180613D01*
X0140395Y0180206D01*
X0140395Y0176045D01*
X0143245Y0176045D01*
X0143245Y0181595D01*
X0143245Y0181398D02*
X0143345Y0181398D01*
X0143345Y0180199D02*
X0143245Y0180199D01*
X0143245Y0179001D02*
X0143345Y0179001D01*
X0143345Y0177802D02*
X0143245Y0177802D01*
X0143245Y0176603D02*
X0143345Y0176603D01*
X0143345Y0175405D02*
X0143245Y0175405D01*
X0143245Y0174206D02*
X0143345Y0174206D01*
X0143345Y0173008D02*
X0143245Y0173008D01*
X0143245Y0171809D02*
X0143345Y0171809D01*
X0143345Y0170611D02*
X0143245Y0170611D01*
X0141193Y0170611D02*
X0111963Y0170611D01*
X0112455Y0171809D02*
X0140395Y0171809D01*
X0140395Y0173008D02*
X0112455Y0173008D01*
X0112455Y0174206D02*
X0140395Y0174206D01*
X0140395Y0175405D02*
X0112078Y0175405D01*
X0112055Y0176603D02*
X0140395Y0176603D01*
X0140395Y0177802D02*
X0112055Y0177802D01*
X0112055Y0179001D02*
X0140395Y0179001D01*
X0140395Y0180199D02*
X0111718Y0180199D01*
X0112055Y0181398D02*
X0141224Y0181398D01*
X0145600Y0184000D02*
X0148295Y0181305D01*
X0148295Y0175995D01*
X0148000Y0176291D01*
X0150795Y0176603D02*
X0150795Y0176603D01*
X0150795Y0175405D02*
X0150795Y0175405D01*
X0150795Y0174206D02*
X0150795Y0174206D01*
X0150795Y0173008D02*
X0150795Y0173008D01*
X0150795Y0171809D02*
X0150795Y0171809D01*
X0153295Y0175995D02*
X0153295Y0183505D01*
X0152800Y0184000D01*
X0150301Y0184993D02*
X0148099Y0184993D01*
X0148351Y0183795D02*
X0150111Y0183795D01*
X0150471Y0182596D02*
X0149550Y0182596D01*
X0150095Y0181398D02*
X0151495Y0181398D01*
X0150795Y0180199D02*
X0150795Y0180199D01*
X0150795Y0179001D02*
X0150795Y0179001D01*
X0150795Y0177802D02*
X0150795Y0177802D01*
X0155795Y0177802D02*
X0155795Y0177802D01*
X0155795Y0176603D02*
X0155795Y0176603D01*
X0155795Y0175405D02*
X0155795Y0175405D01*
X0155795Y0174206D02*
X0155795Y0174206D01*
X0155795Y0173008D02*
X0155795Y0173008D01*
X0155795Y0171809D02*
X0155795Y0171809D01*
X0158295Y0175995D02*
X0158295Y0194105D01*
X0150400Y0202000D01*
X0132400Y0202000D01*
X0131200Y0203200D01*
X0131213Y0203213D01*
X0131213Y0208792D01*
X0131635Y0208370D01*
X0128800Y0205535D01*
X0128800Y0203200D01*
X0126291Y0204169D02*
X0118600Y0204169D01*
X0118600Y0202971D02*
X0126111Y0202971D01*
X0126481Y0201772D02*
X0118600Y0201772D01*
X0118600Y0200574D02*
X0128114Y0200574D01*
X0129486Y0200574D02*
X0131281Y0200574D01*
X0133013Y0204169D02*
X0151685Y0204169D01*
X0151975Y0202971D02*
X0152884Y0202971D01*
X0153173Y0201772D02*
X0154082Y0201772D01*
X0154372Y0200574D02*
X0155281Y0200574D01*
X0155570Y0199375D02*
X0156479Y0199375D01*
X0156769Y0198177D02*
X0157678Y0198177D01*
X0157967Y0196978D02*
X0158876Y0196978D01*
X0159166Y0195780D02*
X0160075Y0195780D01*
X0160095Y0194581D02*
X0161273Y0194581D01*
X0161495Y0193383D02*
X0160095Y0193383D01*
X0160095Y0192184D02*
X0161495Y0192184D01*
X0161495Y0190986D02*
X0160095Y0190986D01*
X0160095Y0189787D02*
X0161495Y0189787D01*
X0161495Y0188589D02*
X0160095Y0188589D01*
X0160095Y0187390D02*
X0161495Y0187390D01*
X0161495Y0186192D02*
X0160095Y0186192D01*
X0160095Y0184993D02*
X0161495Y0184993D01*
X0161495Y0183795D02*
X0160095Y0183795D01*
X0160095Y0182596D02*
X0161495Y0182596D01*
X0161495Y0181398D02*
X0160095Y0181398D01*
X0160795Y0180199D02*
X0160795Y0180199D01*
X0160795Y0179001D02*
X0160795Y0179001D01*
X0160795Y0177802D02*
X0160795Y0177802D01*
X0160795Y0176603D02*
X0160795Y0176603D01*
X0160795Y0175405D02*
X0160795Y0175405D01*
X0160795Y0174206D02*
X0160795Y0174206D01*
X0160795Y0173008D02*
X0160795Y0173008D01*
X0160795Y0171809D02*
X0160795Y0171809D01*
X0163295Y0175995D02*
X0163295Y0195105D01*
X0149908Y0208492D01*
X0150208Y0208792D01*
X0149908Y0208492D02*
X0149543Y0208128D01*
X0141477Y0208128D01*
X0154128Y0208128D01*
X0156400Y0210400D01*
X0158913Y0211360D02*
X0171887Y0211360D01*
X0171711Y0210162D02*
X0159089Y0210162D01*
X0158715Y0208963D02*
X0172085Y0208963D01*
X0173735Y0207765D02*
X0157065Y0207765D01*
X0155112Y0206566D02*
X0176285Y0206566D01*
X0176486Y0205368D02*
X0155578Y0205368D01*
X0156776Y0204169D02*
X0176495Y0204169D01*
X0176495Y0202971D02*
X0157975Y0202971D01*
X0159173Y0201772D02*
X0176495Y0201772D01*
X0176495Y0200574D02*
X0160372Y0200574D01*
X0161570Y0199375D02*
X0176495Y0199375D01*
X0176495Y0198177D02*
X0162769Y0198177D01*
X0163967Y0196978D02*
X0176495Y0196978D01*
X0176495Y0195780D02*
X0165095Y0195780D01*
X0165095Y0194581D02*
X0176495Y0194581D01*
X0176495Y0193383D02*
X0165095Y0193383D01*
X0165095Y0192184D02*
X0176495Y0192184D01*
X0176495Y0190986D02*
X0165095Y0190986D01*
X0165095Y0189787D02*
X0176495Y0189787D01*
X0176495Y0188589D02*
X0165095Y0188589D01*
X0165095Y0187390D02*
X0165587Y0187390D01*
X0167200Y0185200D02*
X0168295Y0184105D01*
X0168295Y0175995D01*
X0165795Y0175405D02*
X0165795Y0175405D01*
X0165795Y0176603D02*
X0165795Y0176603D01*
X0165795Y0177802D02*
X0165795Y0177802D01*
X0165795Y0179001D02*
X0165795Y0179001D01*
X0165795Y0180199D02*
X0165795Y0180199D01*
X0165095Y0181398D02*
X0166495Y0181398D01*
X0166460Y0182596D02*
X0165095Y0182596D01*
X0170095Y0182596D02*
X0171495Y0182596D01*
X0171495Y0181398D02*
X0170095Y0181398D01*
X0170795Y0180199D02*
X0170795Y0180199D01*
X0170795Y0179001D02*
X0170795Y0179001D01*
X0170795Y0177802D02*
X0170795Y0177802D01*
X0170795Y0176603D02*
X0170795Y0176603D01*
X0170795Y0175405D02*
X0170795Y0175405D01*
X0170795Y0174206D02*
X0170795Y0174206D01*
X0170795Y0173008D02*
X0170795Y0173008D01*
X0170795Y0171809D02*
X0170795Y0171809D01*
X0173295Y0175995D02*
X0173295Y0184095D01*
X0174400Y0185200D01*
X0171900Y0186192D02*
X0169700Y0186192D01*
X0169952Y0184993D02*
X0171647Y0184993D01*
X0171495Y0183795D02*
X0170095Y0183795D01*
X0168813Y0187390D02*
X0172787Y0187390D01*
X0176013Y0187390D02*
X0176495Y0187390D01*
X0180095Y0187390D02*
X0181495Y0187390D01*
X0181495Y0186192D02*
X0180095Y0186192D01*
X0180095Y0184993D02*
X0181495Y0184993D01*
X0181495Y0183795D02*
X0180095Y0183795D01*
X0180095Y0182596D02*
X0181495Y0182596D01*
X0181495Y0181398D02*
X0180095Y0181398D01*
X0180795Y0180199D02*
X0180795Y0180199D01*
X0180795Y0179001D02*
X0180795Y0179001D01*
X0180795Y0177802D02*
X0180795Y0177802D01*
X0180795Y0176603D02*
X0180795Y0176603D01*
X0180795Y0175405D02*
X0180795Y0175405D01*
X0180795Y0174206D02*
X0180795Y0174206D01*
X0180795Y0173008D02*
X0180795Y0173008D01*
X0180795Y0171809D02*
X0180795Y0171809D01*
X0178295Y0175995D02*
X0178295Y0206483D01*
X0180438Y0208625D01*
X0190280Y0208625D01*
X0177375Y0208625D01*
X0175600Y0210400D01*
X0174400Y0210400D01*
X0172756Y0212559D02*
X0158044Y0212559D01*
X0154756Y0212559D02*
X0153703Y0212559D01*
X0154361Y0213757D02*
X0176285Y0213757D01*
X0176285Y0214956D02*
X0154361Y0214956D01*
X0154361Y0216154D02*
X0176285Y0216154D01*
X0176285Y0217353D02*
X0154361Y0217353D01*
X0154361Y0218551D02*
X0176285Y0218551D01*
X0176873Y0219750D02*
X0153939Y0219750D01*
X0152709Y0220948D02*
X0178600Y0220948D01*
X0178600Y0222147D02*
X0153089Y0222147D01*
X0152919Y0223345D02*
X0178600Y0223345D01*
X0178093Y0224544D02*
X0152059Y0224544D01*
X0150400Y0222400D02*
X0150208Y0222208D01*
X0150208Y0216272D01*
X0146713Y0212559D02*
X0145827Y0212559D01*
X0145827Y0213757D02*
X0146055Y0213757D01*
X0146055Y0214956D02*
X0145827Y0214956D01*
X0145827Y0216154D02*
X0146055Y0216154D01*
X0146055Y0217353D02*
X0145827Y0217353D01*
X0145827Y0218551D02*
X0146055Y0218551D01*
X0146476Y0219750D02*
X0142595Y0219750D01*
X0144450Y0220948D02*
X0148091Y0220948D01*
X0147711Y0222147D02*
X0144554Y0222147D01*
X0144554Y0223345D02*
X0147881Y0223345D01*
X0148741Y0224544D02*
X0144554Y0224544D01*
X0144554Y0225742D02*
X0177711Y0225742D01*
X0177879Y0226941D02*
X0144554Y0226941D01*
X0140795Y0224109D02*
X0140795Y0216290D01*
X0141477Y0215608D01*
X0137128Y0216154D02*
X0135984Y0216154D01*
X0135984Y0214956D02*
X0137128Y0214956D01*
X0137128Y0213757D02*
X0135984Y0213757D01*
X0135749Y0212559D02*
X0137128Y0212559D01*
X0137304Y0211360D02*
X0135984Y0211360D01*
X0135984Y0210162D02*
X0137128Y0210162D01*
X0137128Y0208963D02*
X0135984Y0208963D01*
X0135984Y0207765D02*
X0137128Y0207765D01*
X0137128Y0206566D02*
X0135984Y0206566D01*
X0135984Y0205368D02*
X0137128Y0205368D01*
X0131213Y0208792D02*
X0122123Y0208792D01*
X0126276Y0206566D02*
X0127285Y0206566D01*
X0127000Y0205368D02*
X0125907Y0205368D01*
X0126276Y0211360D02*
X0127285Y0211360D01*
X0127520Y0212559D02*
X0125618Y0212559D01*
X0126276Y0213757D02*
X0127285Y0213757D01*
X0127285Y0214956D02*
X0126276Y0214956D01*
X0126276Y0216154D02*
X0127285Y0216154D01*
X0127285Y0217353D02*
X0126276Y0217353D01*
X0126276Y0218551D02*
X0127285Y0218551D01*
X0125854Y0219750D02*
X0129835Y0219750D01*
X0135984Y0218551D02*
X0137128Y0218551D01*
X0137128Y0217353D02*
X0135984Y0217353D01*
X0145650Y0211360D02*
X0146055Y0211360D01*
X0146055Y0210162D02*
X0145827Y0210162D01*
X0145827Y0205368D02*
X0146423Y0205368D01*
X0150479Y0199375D02*
X0118600Y0199375D01*
X0118600Y0198177D02*
X0151678Y0198177D01*
X0152876Y0196978D02*
X0118600Y0196978D01*
X0118600Y0195780D02*
X0154075Y0195780D01*
X0155273Y0194581D02*
X0118600Y0194581D01*
X0118600Y0193383D02*
X0156472Y0193383D01*
X0156495Y0192184D02*
X0118600Y0192184D01*
X0118600Y0190986D02*
X0156495Y0190986D01*
X0156495Y0189787D02*
X0118600Y0189787D01*
X0117934Y0188589D02*
X0156495Y0188589D01*
X0156495Y0187390D02*
X0117089Y0187390D01*
X0116727Y0186192D02*
X0143989Y0186192D01*
X0147211Y0186192D02*
X0151189Y0186192D01*
X0154411Y0186192D02*
X0156495Y0186192D01*
X0156495Y0184993D02*
X0155299Y0184993D01*
X0155489Y0183795D02*
X0156495Y0183795D01*
X0156495Y0182596D02*
X0155129Y0182596D01*
X0155095Y0181398D02*
X0156495Y0181398D01*
X0155795Y0180199D02*
X0155795Y0180199D01*
X0155795Y0179001D02*
X0155795Y0179001D01*
X0145398Y0170611D02*
X0186193Y0170611D01*
X0188245Y0170611D02*
X0188345Y0170611D01*
X0188345Y0171809D02*
X0188245Y0171809D01*
X0188245Y0173008D02*
X0188345Y0173008D01*
X0188345Y0174206D02*
X0188245Y0174206D01*
X0188245Y0175405D02*
X0188345Y0175405D01*
X0188295Y0175995D02*
X0188295Y0184695D01*
X0188800Y0185200D01*
X0185095Y0184993D02*
X0219666Y0184993D01*
X0220238Y0185565D02*
X0222335Y0185565D01*
X0222335Y0185565D01*
X0220238Y0185565D01*
X0219612Y0186192D02*
X0185095Y0186192D01*
X0185095Y0187390D02*
X0219535Y0187390D01*
X0219535Y0188589D02*
X0185095Y0188589D01*
X0185095Y0189787D02*
X0219535Y0189787D01*
X0220238Y0190565D02*
X0222335Y0190565D01*
X0222335Y0190565D01*
X0220238Y0190565D01*
X0219818Y0190986D02*
X0185095Y0190986D01*
X0185095Y0192184D02*
X0219535Y0192184D01*
X0219535Y0193383D02*
X0185095Y0193383D01*
X0185095Y0194581D02*
X0219535Y0194581D01*
X0220024Y0195780D02*
X0217101Y0195780D01*
X0215699Y0195780D02*
X0185095Y0195780D01*
X0185124Y0196978D02*
X0200103Y0196978D01*
X0201497Y0196978D02*
X0214078Y0196978D01*
X0213711Y0198177D02*
X0203121Y0198177D01*
X0203489Y0199375D02*
X0213893Y0199375D01*
X0214771Y0200574D02*
X0203307Y0200574D01*
X0204271Y0205368D02*
X0206014Y0205368D01*
X0205813Y0206566D02*
X0204472Y0206566D01*
X0204472Y0211360D02*
X0205813Y0211360D01*
X0206303Y0212559D02*
X0203982Y0212559D01*
X0204472Y0213757D02*
X0205813Y0213757D01*
X0205813Y0214956D02*
X0204472Y0214956D01*
X0204472Y0216154D02*
X0205813Y0216154D01*
X0205813Y0217353D02*
X0204472Y0217353D01*
X0204472Y0218551D02*
X0205813Y0218551D01*
X0206401Y0219750D02*
X0203884Y0219750D01*
X0203505Y0220948D02*
X0208165Y0220948D01*
X0208165Y0222147D02*
X0203609Y0222147D01*
X0203609Y0223345D02*
X0208165Y0223345D01*
X0208798Y0224544D02*
X0203609Y0224544D01*
X0203609Y0225742D02*
X0209080Y0225742D01*
X0209938Y0226941D02*
X0203609Y0226941D01*
X0199850Y0224109D02*
X0199850Y0216378D01*
X0200123Y0216106D01*
X0196362Y0219750D02*
X0194042Y0219750D01*
X0194450Y0220948D02*
X0196195Y0220948D01*
X0196091Y0222147D02*
X0194554Y0222147D01*
X0194554Y0223345D02*
X0196091Y0223345D01*
X0196091Y0224544D02*
X0194554Y0224544D01*
X0194554Y0225742D02*
X0196091Y0225742D01*
X0196091Y0226941D02*
X0194554Y0226941D01*
X0190795Y0224109D02*
X0190795Y0216620D01*
X0190280Y0216106D01*
X0194630Y0216154D02*
X0195773Y0216154D01*
X0195773Y0214956D02*
X0194630Y0214956D01*
X0194630Y0213757D02*
X0195773Y0213757D01*
X0196264Y0212559D02*
X0194139Y0212559D01*
X0194630Y0211360D02*
X0195773Y0211360D01*
X0195773Y0210162D02*
X0194630Y0210162D01*
X0194630Y0208963D02*
X0195773Y0208963D01*
X0195773Y0207765D02*
X0194630Y0207765D01*
X0194630Y0206566D02*
X0195773Y0206566D01*
X0195975Y0205368D02*
X0194429Y0205368D01*
X0198323Y0204169D02*
X0180095Y0204169D01*
X0180095Y0202971D02*
X0198025Y0202971D01*
X0198400Y0200800D02*
X0186400Y0200800D01*
X0183295Y0197695D01*
X0183295Y0175995D01*
X0188245Y0176603D02*
X0188345Y0176603D01*
X0188345Y0177802D02*
X0188245Y0177802D01*
X0188245Y0179001D02*
X0188345Y0179001D01*
X0188345Y0180199D02*
X0188245Y0180199D01*
X0188245Y0181398D02*
X0188345Y0181398D01*
X0190366Y0181398D02*
X0219535Y0181398D01*
X0220238Y0180565D02*
X0222335Y0180565D01*
X0220238Y0180565D01*
X0219872Y0180199D02*
X0191195Y0180199D01*
X0191195Y0179001D02*
X0217255Y0179001D01*
X0214799Y0177802D02*
X0191195Y0177802D01*
X0186224Y0181398D02*
X0185095Y0181398D01*
X0185095Y0182596D02*
X0219535Y0182596D01*
X0219535Y0183795D02*
X0185095Y0183795D01*
X0181495Y0188589D02*
X0180095Y0188589D01*
X0180095Y0189787D02*
X0181495Y0189787D01*
X0181495Y0190986D02*
X0180095Y0190986D01*
X0180095Y0192184D02*
X0181495Y0192184D01*
X0181495Y0193383D02*
X0180095Y0193383D01*
X0180095Y0194581D02*
X0181495Y0194581D01*
X0181495Y0195780D02*
X0180095Y0195780D01*
X0180095Y0196978D02*
X0181495Y0196978D01*
X0181495Y0198177D02*
X0180095Y0198177D01*
X0180095Y0199375D02*
X0182430Y0199375D01*
X0183628Y0200574D02*
X0180095Y0200574D01*
X0180095Y0201772D02*
X0184827Y0201772D01*
X0184389Y0205368D02*
X0186132Y0205368D01*
X0185931Y0206566D02*
X0184591Y0206566D01*
X0184591Y0211360D02*
X0185931Y0211360D01*
X0186421Y0212559D02*
X0184100Y0212559D01*
X0184591Y0213757D02*
X0185931Y0213757D01*
X0185931Y0214956D02*
X0184591Y0214956D01*
X0184591Y0216154D02*
X0185931Y0216154D01*
X0185931Y0217353D02*
X0184591Y0217353D01*
X0184591Y0218551D02*
X0185931Y0218551D01*
X0186519Y0219750D02*
X0184002Y0219750D01*
X0182200Y0220948D02*
X0187140Y0220948D01*
X0187036Y0222147D02*
X0182200Y0222147D01*
X0182200Y0223345D02*
X0187036Y0223345D01*
X0187036Y0224544D02*
X0182707Y0224544D01*
X0183089Y0225742D02*
X0187036Y0225742D01*
X0187036Y0226941D02*
X0182921Y0226941D01*
X0182063Y0228139D02*
X0248800Y0228139D01*
X0248800Y0226941D02*
X0213262Y0226941D01*
X0214120Y0225742D02*
X0248800Y0225742D01*
X0248800Y0224544D02*
X0214289Y0224544D01*
X0213908Y0223345D02*
X0248800Y0223345D01*
X0248800Y0229338D02*
X0058860Y0229338D01*
X0060058Y0230537D02*
X0087541Y0230537D01*
X0087619Y0230492D02*
X0088026Y0230383D01*
X0090195Y0230383D01*
X0090195Y0234335D01*
X0091395Y0234335D01*
X0091395Y0230383D01*
X0093565Y0230383D01*
X0093972Y0230492D01*
X0094337Y0230702D01*
X0094635Y0231000D01*
X0094845Y0231365D01*
X0094954Y0231772D01*
X0094954Y0234335D01*
X0091395Y0234335D01*
X0091395Y0235535D01*
X0094954Y0235535D01*
X0094954Y0238099D01*
X0094845Y0238506D01*
X0094635Y0238871D01*
X0094337Y0239168D01*
X0093972Y0239379D01*
X0093565Y0239488D01*
X0091395Y0239488D01*
X0091395Y0235535D01*
X0090195Y0235535D01*
X0090195Y0239488D01*
X0088026Y0239488D01*
X0087619Y0239379D01*
X0087254Y0239168D01*
X0086956Y0238871D01*
X0086821Y0238638D01*
X0086371Y0239088D01*
X0080259Y0239088D01*
X0079556Y0238385D01*
X0079556Y0237335D01*
X0076867Y0237335D01*
X0076323Y0237880D01*
X0075335Y0238289D01*
X0074265Y0238289D01*
X0073277Y0237880D01*
X0072520Y0237123D01*
X0072111Y0236135D01*
X0072111Y0235065D01*
X0072520Y0234077D01*
X0073277Y0233320D01*
X0073974Y0233031D01*
X0074105Y0232901D01*
X0074987Y0232535D01*
X0079556Y0232535D01*
X0079556Y0231486D01*
X0080259Y0230783D01*
X0086371Y0230783D01*
X0086821Y0231233D01*
X0086956Y0231000D01*
X0087254Y0230702D01*
X0087619Y0230492D01*
X0090195Y0230537D02*
X0091395Y0230537D01*
X0091395Y0231735D02*
X0090195Y0231735D01*
X0090195Y0232934D02*
X0091395Y0232934D01*
X0091395Y0234132D02*
X0090195Y0234132D01*
X0091395Y0235331D02*
X0125818Y0235331D01*
X0125865Y0235311D02*
X0126935Y0235311D01*
X0127923Y0235720D01*
X0128680Y0236477D01*
X0129089Y0237465D01*
X0129089Y0238535D01*
X0128680Y0239523D01*
X0128200Y0240003D01*
X0128200Y0248054D01*
X0129546Y0249400D01*
X0131147Y0249400D01*
X0131050Y0249304D01*
X0130840Y0248939D01*
X0130731Y0248532D01*
X0130731Y0246362D01*
X0135668Y0246362D01*
X0135668Y0245162D01*
X0136868Y0245162D01*
X0136868Y0246362D01*
X0141805Y0246362D01*
X0141805Y0248532D01*
X0141696Y0248939D01*
X0141485Y0249304D01*
X0141187Y0249602D01*
X0140822Y0249812D01*
X0140771Y0249826D01*
X0141400Y0250454D01*
X0147909Y0256964D01*
X0149757Y0256964D01*
X0150460Y0257667D01*
X0150460Y0258923D01*
X0151603Y0258923D01*
X0151603Y0257667D01*
X0152306Y0256964D01*
X0159599Y0256964D01*
X0160302Y0257667D01*
X0160302Y0263779D01*
X0159618Y0264463D01*
X0160302Y0265147D01*
X0160302Y0271259D01*
X0159599Y0271962D01*
X0158225Y0271962D01*
X0158225Y0279590D01*
X0159201Y0279994D01*
X0160579Y0281372D01*
X0161325Y0283173D01*
X0161325Y0285123D01*
X0160579Y0286924D01*
X0159201Y0288302D01*
X0157400Y0289048D01*
X0155451Y0289048D01*
X0153650Y0288302D01*
X0152271Y0286924D01*
X0151525Y0285123D01*
X0151525Y0283173D01*
X0152271Y0281372D01*
X0153650Y0279994D01*
X0154625Y0279590D01*
X0154625Y0271962D01*
X0152306Y0271962D01*
X0151603Y0271259D01*
X0151603Y0265147D01*
X0152287Y0264463D01*
X0151603Y0263779D01*
X0151603Y0262523D01*
X0150460Y0262523D01*
X0150460Y0263779D01*
X0149776Y0264463D01*
X0150460Y0265147D01*
X0150460Y0271259D01*
X0149757Y0271962D01*
X0148225Y0271962D01*
X0148225Y0279590D01*
X0149201Y0279994D01*
X0150579Y0281372D01*
X0151325Y0283173D01*
X0151325Y0285123D01*
X0150579Y0286924D01*
X0149201Y0288302D01*
X0147400Y0289048D01*
X0145451Y0289048D01*
X0143650Y0288302D01*
X0142271Y0286924D01*
X0141525Y0285123D01*
X0141525Y0283173D01*
X0142271Y0281372D01*
X0143650Y0279994D01*
X0144625Y0279590D01*
X0144625Y0271962D01*
X0142464Y0271962D01*
X0141761Y0271259D01*
X0141761Y0265147D01*
X0142445Y0264463D01*
X0141761Y0263779D01*
X0141761Y0257667D01*
X0142464Y0256964D01*
X0142818Y0256964D01*
X0138854Y0253000D01*
X0128403Y0253000D01*
X0128680Y0253277D01*
X0129089Y0254265D01*
X0129089Y0255335D01*
X0128680Y0256323D01*
X0128225Y0256778D01*
X0128225Y0256964D01*
X0130072Y0256964D01*
X0130775Y0257667D01*
X0130775Y0258923D01*
X0131918Y0258923D01*
X0131918Y0257667D01*
X0132621Y0256964D01*
X0139914Y0256964D01*
X0140617Y0257667D01*
X0140617Y0263779D01*
X0139933Y0264463D01*
X0140617Y0265147D01*
X0140617Y0271259D01*
X0139914Y0271962D01*
X0138225Y0271962D01*
X0138225Y0279590D01*
X0139201Y0279994D01*
X0140579Y0281372D01*
X0141325Y0283173D01*
X0141325Y0285123D01*
X0140579Y0286924D01*
X0139201Y0288302D01*
X0137400Y0289048D01*
X0135451Y0289048D01*
X0133650Y0288302D01*
X0132271Y0286924D01*
X0131525Y0285123D01*
X0131525Y0283173D01*
X0132271Y0281372D01*
X0133650Y0279994D01*
X0134625Y0279590D01*
X0134625Y0271962D01*
X0132621Y0271962D01*
X0131918Y0271259D01*
X0131918Y0265147D01*
X0132602Y0264463D01*
X0131918Y0263779D01*
X0131918Y0262523D01*
X0130775Y0262523D01*
X0130775Y0263779D01*
X0130091Y0264463D01*
X0130775Y0265147D01*
X0130775Y0271259D01*
X0130072Y0271962D01*
X0128225Y0271962D01*
X0128225Y0279590D01*
X0129201Y0279994D01*
X0130579Y0281372D01*
X0131325Y0283173D01*
X0131325Y0285123D01*
X0130579Y0286924D01*
X0129201Y0288302D01*
X0127400Y0289048D01*
X0125451Y0289048D01*
X0123650Y0288302D01*
X0122271Y0286924D01*
X0121525Y0285123D01*
X0121525Y0283173D01*
X0122271Y0281372D01*
X0123650Y0279994D01*
X0124625Y0279590D01*
X0124625Y0271962D01*
X0122779Y0271962D01*
X0122076Y0271259D01*
X0122076Y0265147D01*
X0122760Y0264463D01*
X0122076Y0263779D01*
X0122076Y0257667D01*
X0122779Y0256964D01*
X0124625Y0256964D01*
X0124625Y0256828D01*
X0124120Y0256323D01*
X0123711Y0255335D01*
X0123711Y0254265D01*
X0124120Y0253277D01*
X0124877Y0252520D01*
X0125865Y0252111D01*
X0126935Y0252111D01*
X0127329Y0252274D01*
X0125654Y0250600D01*
X0124600Y0249546D01*
X0124600Y0240003D01*
X0124120Y0239523D01*
X0123711Y0238535D01*
X0123711Y0237465D01*
X0124120Y0236477D01*
X0124877Y0235720D01*
X0125865Y0235311D01*
X0126982Y0235331D02*
X0240195Y0235331D01*
X0240195Y0235535D02*
X0236636Y0235535D01*
X0236636Y0238099D01*
X0236745Y0238506D01*
X0236956Y0238871D01*
X0237254Y0239168D01*
X0237619Y0239379D01*
X0238026Y0239488D01*
X0240195Y0239488D01*
X0240195Y0235535D01*
X0240195Y0236529D02*
X0241395Y0236529D01*
X0241395Y0237728D02*
X0240195Y0237728D01*
X0240195Y0238926D02*
X0241395Y0238926D01*
X0244579Y0238926D02*
X0245057Y0238926D01*
X0241395Y0234132D02*
X0240195Y0234132D01*
X0240195Y0234335D02*
X0240195Y0230383D01*
X0238026Y0230383D01*
X0237619Y0230492D01*
X0237254Y0230702D01*
X0236956Y0231000D01*
X0236745Y0231365D01*
X0236636Y0231772D01*
X0236636Y0234335D01*
X0240195Y0234335D01*
X0240195Y0232934D02*
X0241395Y0232934D01*
X0241395Y0231735D02*
X0240195Y0231735D01*
X0240195Y0230537D02*
X0241395Y0230537D01*
X0244049Y0230537D02*
X0248800Y0230537D01*
X0253600Y0230537D02*
X0271532Y0230537D01*
X0270334Y0231735D02*
X0253600Y0231735D01*
X0253600Y0229338D02*
X0272731Y0229338D01*
X0273929Y0228139D02*
X0253600Y0228139D01*
X0253600Y0226941D02*
X0275128Y0226941D01*
X0276326Y0225742D02*
X0253600Y0225742D01*
X0253650Y0224544D02*
X0277525Y0224544D01*
X0278723Y0223345D02*
X0254849Y0223345D01*
X0256047Y0222147D02*
X0279922Y0222147D01*
X0281120Y0220948D02*
X0257246Y0220948D01*
X0256728Y0232934D02*
X0269135Y0232934D01*
X0267937Y0234132D02*
X0258302Y0234132D01*
X0258689Y0235331D02*
X0266738Y0235331D01*
X0265540Y0236529D02*
X0258526Y0236529D01*
X0257675Y0237728D02*
X0264341Y0237728D01*
X0263143Y0238926D02*
X0251494Y0238926D01*
X0252035Y0237728D02*
X0254325Y0237728D01*
X0259547Y0242522D02*
X0200714Y0242522D01*
X0200751Y0242586D02*
X0200860Y0242992D01*
X0200860Y0245162D01*
X0195923Y0245162D01*
X0195923Y0246362D01*
X0200860Y0246362D01*
X0200860Y0248532D01*
X0200751Y0248939D01*
X0200540Y0249304D01*
X0200242Y0249602D01*
X0199877Y0249812D01*
X0199470Y0249921D01*
X0195923Y0249921D01*
X0195923Y0246362D01*
X0194723Y0246362D01*
X0194723Y0245162D01*
X0195923Y0245162D01*
X0195923Y0241603D01*
X0199470Y0241603D01*
X0199877Y0241712D01*
X0200242Y0241923D01*
X0200540Y0242221D01*
X0200751Y0242586D01*
X0200860Y0243720D02*
X0258349Y0243720D01*
X0257150Y0244919D02*
X0200860Y0244919D01*
X0200860Y0247316D02*
X0254753Y0247316D01*
X0253555Y0248514D02*
X0200860Y0248514D01*
X0200050Y0249713D02*
X0252356Y0249713D01*
X0251158Y0250911D02*
X0195335Y0250911D01*
X0196323Y0251320D01*
X0197080Y0252077D01*
X0197489Y0253065D01*
X0197489Y0254135D01*
X0197123Y0255019D01*
X0197123Y0256964D01*
X0198969Y0256964D01*
X0199672Y0257667D01*
X0199672Y0258923D01*
X0200816Y0258923D01*
X0200816Y0257667D01*
X0201519Y0256964D01*
X0208812Y0256964D01*
X0209515Y0257667D01*
X0209515Y0263779D01*
X0208831Y0264463D01*
X0209515Y0265147D01*
X0209515Y0271259D01*
X0208812Y0271962D01*
X0207438Y0271962D01*
X0207438Y0279590D01*
X0208413Y0279994D01*
X0209792Y0281372D01*
X0210538Y0283173D01*
X0210538Y0285123D01*
X0209792Y0286924D01*
X0208413Y0288302D01*
X0206612Y0289048D01*
X0204663Y0289048D01*
X0202862Y0288302D01*
X0201484Y0286924D01*
X0200738Y0285123D01*
X0200738Y0283173D01*
X0201484Y0281372D01*
X0202862Y0279994D01*
X0203838Y0279590D01*
X0203838Y0271962D01*
X0201519Y0271962D01*
X0200816Y0271259D01*
X0200816Y0265147D01*
X0201500Y0264463D01*
X0200816Y0263779D01*
X0200816Y0262523D01*
X0199672Y0262523D01*
X0199672Y0263779D01*
X0198988Y0264463D01*
X0199672Y0265147D01*
X0199672Y0271259D01*
X0198969Y0271962D01*
X0197438Y0271962D01*
X0197438Y0279590D01*
X0198413Y0279994D01*
X0199792Y0281372D01*
X0200538Y0283173D01*
X0200538Y0285123D01*
X0199792Y0286924D01*
X0198413Y0288302D01*
X0196612Y0289048D01*
X0194663Y0289048D01*
X0192862Y0288302D01*
X0191484Y0286924D01*
X0190738Y0285123D01*
X0190738Y0283173D01*
X0191484Y0281372D01*
X0192862Y0279994D01*
X0193838Y0279590D01*
X0193838Y0271962D01*
X0191676Y0271962D01*
X0190973Y0271259D01*
X0190973Y0265147D01*
X0191657Y0264463D01*
X0190973Y0263779D01*
X0190973Y0257667D01*
X0191676Y0256964D01*
X0193523Y0256964D01*
X0193523Y0255981D01*
X0193277Y0255880D01*
X0192520Y0255123D01*
X0192111Y0254135D01*
X0192111Y0253065D01*
X0192520Y0252077D01*
X0193277Y0251320D01*
X0194265Y0250911D01*
X0195335Y0250911D01*
X0194265Y0250911D02*
X0185735Y0250911D01*
X0186723Y0251320D01*
X0187480Y0252077D01*
X0187889Y0253065D01*
X0187889Y0254135D01*
X0187480Y0255123D01*
X0187000Y0255603D01*
X0187000Y0256964D01*
X0189127Y0256964D01*
X0189830Y0257667D01*
X0189830Y0263779D01*
X0189146Y0264463D01*
X0189830Y0265147D01*
X0189830Y0271259D01*
X0189127Y0271962D01*
X0187438Y0271962D01*
X0187438Y0279590D01*
X0188413Y0279994D01*
X0189792Y0281372D01*
X0190538Y0283173D01*
X0190538Y0285123D01*
X0189792Y0286924D01*
X0188413Y0288302D01*
X0186612Y0289048D01*
X0184663Y0289048D01*
X0182862Y0288302D01*
X0181484Y0286924D01*
X0180738Y0285123D01*
X0180738Y0283173D01*
X0181484Y0281372D01*
X0182862Y0279994D01*
X0183838Y0279590D01*
X0183838Y0271962D01*
X0181834Y0271962D01*
X0181131Y0271259D01*
X0181131Y0265147D01*
X0181815Y0264463D01*
X0181131Y0263779D01*
X0181131Y0262523D01*
X0179987Y0262523D01*
X0179987Y0263779D01*
X0179303Y0264463D01*
X0179987Y0265147D01*
X0179987Y0271259D01*
X0179284Y0271962D01*
X0177438Y0271962D01*
X0177438Y0279590D01*
X0178413Y0279994D01*
X0179792Y0281372D01*
X0180538Y0283173D01*
X0180538Y0285123D01*
X0179792Y0286924D01*
X0178413Y0288302D01*
X0176612Y0289048D01*
X0174663Y0289048D01*
X0172862Y0288302D01*
X0171484Y0286924D01*
X0170738Y0285123D01*
X0170738Y0283173D01*
X0171484Y0281372D01*
X0172862Y0279994D01*
X0173838Y0279590D01*
X0173838Y0271962D01*
X0171991Y0271962D01*
X0171288Y0271259D01*
X0171288Y0265147D01*
X0171972Y0264463D01*
X0171288Y0263779D01*
X0171288Y0262523D01*
X0170350Y0262523D01*
X0170350Y0263716D01*
X0169666Y0264400D01*
X0170350Y0265084D01*
X0170350Y0271196D01*
X0169647Y0271899D01*
X0167800Y0271899D01*
X0167800Y0275597D01*
X0168280Y0276077D01*
X0168689Y0277065D01*
X0168689Y0278135D01*
X0168280Y0279123D01*
X0167523Y0279880D01*
X0166535Y0280289D01*
X0165465Y0280289D01*
X0164477Y0279880D01*
X0163720Y0279123D01*
X0163311Y0278135D01*
X0163311Y0277065D01*
X0163720Y0276077D01*
X0164200Y0275597D01*
X0164200Y0271899D01*
X0162353Y0271899D01*
X0161650Y0271196D01*
X0161650Y0265084D01*
X0162334Y0264400D01*
X0161650Y0263716D01*
X0161650Y0257604D01*
X0162353Y0256901D01*
X0169647Y0256901D01*
X0170350Y0257604D01*
X0170350Y0258923D01*
X0171288Y0258923D01*
X0171288Y0257667D01*
X0171991Y0256964D01*
X0179284Y0256964D01*
X0179987Y0257667D01*
X0179987Y0258923D01*
X0181131Y0258923D01*
X0181131Y0257667D01*
X0181834Y0256964D01*
X0183400Y0256964D01*
X0183400Y0255603D01*
X0182920Y0255123D01*
X0182511Y0254135D01*
X0182511Y0253065D01*
X0182920Y0252077D01*
X0183677Y0251320D01*
X0184665Y0250911D01*
X0185735Y0250911D01*
X0184665Y0250911D02*
X0141857Y0250911D01*
X0140995Y0249713D02*
X0190596Y0249713D01*
X0190768Y0249812D02*
X0190403Y0249602D01*
X0190106Y0249304D01*
X0189895Y0248939D01*
X0189786Y0248532D01*
X0189786Y0246362D01*
X0194723Y0246362D01*
X0194723Y0249921D01*
X0191175Y0249921D01*
X0190768Y0249812D01*
X0189786Y0248514D02*
X0141805Y0248514D01*
X0141805Y0247316D02*
X0189786Y0247316D01*
X0189786Y0245162D02*
X0189786Y0242992D01*
X0189895Y0242586D01*
X0190106Y0242221D01*
X0190403Y0241923D01*
X0190768Y0241712D01*
X0191175Y0241603D01*
X0194723Y0241603D01*
X0194723Y0245162D01*
X0189786Y0245162D01*
X0189786Y0244919D02*
X0141805Y0244919D01*
X0141805Y0245162D02*
X0136868Y0245162D01*
X0136868Y0241603D01*
X0140415Y0241603D01*
X0140822Y0241712D01*
X0141187Y0241923D01*
X0141485Y0242221D01*
X0141696Y0242586D01*
X0141805Y0242992D01*
X0141805Y0245162D01*
X0141805Y0243720D02*
X0189786Y0243720D01*
X0189932Y0242522D02*
X0141659Y0242522D01*
X0136868Y0242522D02*
X0135668Y0242522D01*
X0135668Y0241603D02*
X0135668Y0245162D01*
X0130731Y0245162D01*
X0130731Y0242992D01*
X0130840Y0242586D01*
X0131050Y0242221D01*
X0131348Y0241923D01*
X0131713Y0241712D01*
X0132120Y0241603D01*
X0135668Y0241603D01*
X0135668Y0243720D02*
X0136868Y0243720D01*
X0136868Y0244919D02*
X0135668Y0244919D01*
X0136268Y0245762D02*
X0195323Y0245762D01*
X0208638Y0245762D01*
X0226000Y0228400D01*
X0226000Y0218065D01*
X0224785Y0218551D02*
X0224685Y0218551D01*
X0224685Y0219750D02*
X0224785Y0219750D01*
X0224785Y0220948D02*
X0224685Y0220948D01*
X0222335Y0210565D02*
X0222335Y0210565D01*
X0227135Y0210565D02*
X0227135Y0210565D01*
X0227135Y0205565D02*
X0227135Y0205565D01*
X0229935Y0204169D02*
X0259135Y0204169D01*
X0259135Y0202971D02*
X0229935Y0202971D01*
X0229935Y0201772D02*
X0259135Y0201772D01*
X0261935Y0200565D02*
X0261935Y0200565D01*
X0261935Y0195565D02*
X0261935Y0195565D01*
X0266735Y0195565D02*
X0268832Y0195565D01*
X0266735Y0195565D01*
X0266735Y0195565D01*
X0269535Y0194581D02*
X0298691Y0194581D01*
X0298691Y0193383D02*
X0289545Y0193383D01*
X0290365Y0192184D02*
X0298691Y0192184D01*
X0298691Y0190986D02*
X0290705Y0190986D01*
X0290705Y0189787D02*
X0298691Y0189787D01*
X0298691Y0188589D02*
X0290216Y0188589D01*
X0289187Y0187390D02*
X0298691Y0187390D01*
X0298691Y0186192D02*
X0282926Y0186192D01*
X0266735Y0175565D02*
X0266735Y0175565D01*
X0261935Y0175565D02*
X0261935Y0175565D01*
X0261935Y0180565D02*
X0261935Y0180565D01*
X0261935Y0185565D02*
X0261935Y0185565D01*
X0269883Y0211360D02*
X0290708Y0211360D01*
X0289510Y0212559D02*
X0269935Y0212559D01*
X0269935Y0213757D02*
X0288311Y0213757D01*
X0287113Y0214956D02*
X0269834Y0214956D01*
X0269421Y0216154D02*
X0285914Y0216154D01*
X0284716Y0217353D02*
X0269535Y0217353D01*
X0269535Y0218551D02*
X0283517Y0218551D01*
X0282319Y0219750D02*
X0269535Y0219750D01*
X0261944Y0240125D02*
X0128200Y0240125D01*
X0128200Y0241323D02*
X0260746Y0241323D01*
X0255952Y0246117D02*
X0195923Y0246117D01*
X0195923Y0244919D02*
X0194723Y0244919D01*
X0194723Y0246117D02*
X0136868Y0246117D01*
X0135668Y0246117D02*
X0128200Y0246117D01*
X0128200Y0244919D02*
X0130731Y0244919D01*
X0130731Y0243720D02*
X0128200Y0243720D01*
X0128200Y0242522D02*
X0130877Y0242522D01*
X0128927Y0238926D02*
X0237011Y0238926D01*
X0236636Y0237728D02*
X0129089Y0237728D01*
X0128701Y0236529D02*
X0236636Y0236529D01*
X0236636Y0234132D02*
X0094954Y0234132D01*
X0094954Y0232934D02*
X0236636Y0232934D01*
X0236646Y0231735D02*
X0094944Y0231735D01*
X0094049Y0230537D02*
X0237541Y0230537D01*
X0249959Y0252110D02*
X0197093Y0252110D01*
X0197489Y0253308D02*
X0248761Y0253308D01*
X0247562Y0254507D02*
X0197335Y0254507D01*
X0197123Y0255705D02*
X0246364Y0255705D01*
X0245165Y0256904D02*
X0197123Y0256904D01*
X0199672Y0258102D02*
X0200816Y0258102D01*
X0205165Y0260723D02*
X0195323Y0260723D01*
X0195323Y0254123D01*
X0194800Y0253600D01*
X0192265Y0254507D02*
X0187735Y0254507D01*
X0187889Y0253308D02*
X0192111Y0253308D01*
X0192507Y0252110D02*
X0187493Y0252110D01*
X0185200Y0253600D02*
X0185200Y0260443D01*
X0185480Y0260723D01*
X0175638Y0260723D01*
X0166063Y0260723D01*
X0166000Y0260660D01*
X0170350Y0262896D02*
X0171288Y0262896D01*
X0171604Y0264095D02*
X0169971Y0264095D01*
X0170350Y0265293D02*
X0171288Y0265293D01*
X0171288Y0266492D02*
X0170350Y0266492D01*
X0170350Y0267690D02*
X0171288Y0267690D01*
X0171288Y0268889D02*
X0170350Y0268889D01*
X0170350Y0270087D02*
X0171288Y0270087D01*
X0171315Y0271286D02*
X0170260Y0271286D01*
X0167800Y0272484D02*
X0173838Y0272484D01*
X0173838Y0273683D02*
X0167800Y0273683D01*
X0167800Y0274881D02*
X0173838Y0274881D01*
X0173838Y0276080D02*
X0168281Y0276080D01*
X0168689Y0277278D02*
X0173838Y0277278D01*
X0173838Y0278477D02*
X0168547Y0278477D01*
X0167727Y0279675D02*
X0173631Y0279675D01*
X0171982Y0280874D02*
X0160081Y0280874D01*
X0160869Y0282072D02*
X0171194Y0282072D01*
X0170738Y0283271D02*
X0161325Y0283271D01*
X0161325Y0284470D02*
X0170738Y0284470D01*
X0170964Y0285668D02*
X0161099Y0285668D01*
X0160603Y0286867D02*
X0171460Y0286867D01*
X0172625Y0288065D02*
X0159438Y0288065D01*
X0156425Y0284148D02*
X0156425Y0268676D01*
X0155953Y0268203D01*
X0160302Y0267690D02*
X0161650Y0267690D01*
X0161650Y0266492D02*
X0160302Y0266492D01*
X0160302Y0265293D02*
X0161650Y0265293D01*
X0162029Y0264095D02*
X0159986Y0264095D01*
X0160302Y0262896D02*
X0161650Y0262896D01*
X0161650Y0261698D02*
X0160302Y0261698D01*
X0160302Y0260499D02*
X0161650Y0260499D01*
X0161650Y0259301D02*
X0160302Y0259301D01*
X0160302Y0258102D02*
X0161650Y0258102D01*
X0162350Y0256904D02*
X0147849Y0256904D01*
X0146651Y0255705D02*
X0183400Y0255705D01*
X0183400Y0256904D02*
X0169650Y0256904D01*
X0170350Y0258102D02*
X0171288Y0258102D01*
X0179987Y0258102D02*
X0181131Y0258102D01*
X0182665Y0254507D02*
X0145452Y0254507D01*
X0144254Y0253308D02*
X0182511Y0253308D01*
X0182907Y0252110D02*
X0143055Y0252110D01*
X0139600Y0251200D02*
X0128800Y0251200D01*
X0126400Y0248800D01*
X0126400Y0238000D01*
X0123873Y0238926D02*
X0094579Y0238926D01*
X0094954Y0237728D02*
X0123711Y0237728D01*
X0124099Y0236529D02*
X0094954Y0236529D01*
X0091395Y0236529D02*
X0090195Y0236529D01*
X0090195Y0237728D02*
X0091395Y0237728D01*
X0091395Y0238926D02*
X0090195Y0238926D01*
X0087011Y0238926D02*
X0086533Y0238926D01*
X0080097Y0238926D02*
X0068448Y0238926D01*
X0069646Y0240125D02*
X0124600Y0240125D01*
X0124600Y0241323D02*
X0070845Y0241323D01*
X0072043Y0242522D02*
X0124600Y0242522D01*
X0124600Y0243720D02*
X0073242Y0243720D01*
X0074440Y0244919D02*
X0124600Y0244919D01*
X0124600Y0246117D02*
X0075639Y0246117D01*
X0076837Y0247316D02*
X0124600Y0247316D01*
X0124600Y0248514D02*
X0078036Y0248514D01*
X0079234Y0249713D02*
X0124767Y0249713D01*
X0125966Y0250911D02*
X0080433Y0250911D01*
X0081631Y0252110D02*
X0127164Y0252110D01*
X0128693Y0253308D02*
X0139163Y0253308D01*
X0140361Y0254507D02*
X0129089Y0254507D01*
X0128936Y0255705D02*
X0141560Y0255705D01*
X0142758Y0256904D02*
X0128225Y0256904D01*
X0126425Y0254825D02*
X0126425Y0260723D01*
X0136268Y0260723D01*
X0131918Y0262896D02*
X0130775Y0262896D01*
X0130459Y0264095D02*
X0132234Y0264095D01*
X0131918Y0265293D02*
X0130775Y0265293D01*
X0130775Y0266492D02*
X0131918Y0266492D01*
X0131918Y0267690D02*
X0130775Y0267690D01*
X0130775Y0268889D02*
X0131918Y0268889D01*
X0131918Y0270087D02*
X0130775Y0270087D01*
X0130748Y0271286D02*
X0131945Y0271286D01*
X0134625Y0272484D02*
X0128225Y0272484D01*
X0128225Y0273683D02*
X0134625Y0273683D01*
X0134625Y0274881D02*
X0128225Y0274881D01*
X0128225Y0276080D02*
X0134625Y0276080D01*
X0134625Y0277278D02*
X0128225Y0277278D01*
X0128225Y0278477D02*
X0134625Y0278477D01*
X0134419Y0279675D02*
X0128432Y0279675D01*
X0130081Y0280874D02*
X0132770Y0280874D01*
X0131981Y0282072D02*
X0130869Y0282072D01*
X0131325Y0283271D02*
X0131525Y0283271D01*
X0131525Y0284470D02*
X0131325Y0284470D01*
X0131099Y0285668D02*
X0131751Y0285668D01*
X0132248Y0286867D02*
X0130603Y0286867D01*
X0129438Y0288065D02*
X0133413Y0288065D01*
X0136425Y0284148D02*
X0136425Y0268361D01*
X0136268Y0268203D01*
X0140617Y0267690D02*
X0141761Y0267690D01*
X0141761Y0266492D02*
X0140617Y0266492D01*
X0140617Y0265293D02*
X0141761Y0265293D01*
X0142077Y0264095D02*
X0140301Y0264095D01*
X0140617Y0262896D02*
X0141761Y0262896D01*
X0141761Y0261698D02*
X0140617Y0261698D01*
X0140617Y0260499D02*
X0141761Y0260499D01*
X0141761Y0259301D02*
X0140617Y0259301D01*
X0140617Y0258102D02*
X0141761Y0258102D01*
X0146110Y0257710D02*
X0146110Y0260723D01*
X0155953Y0260723D01*
X0151603Y0262896D02*
X0150460Y0262896D01*
X0150144Y0264095D02*
X0151919Y0264095D01*
X0151603Y0265293D02*
X0150460Y0265293D01*
X0150460Y0266492D02*
X0151603Y0266492D01*
X0151603Y0267690D02*
X0150460Y0267690D01*
X0150460Y0268889D02*
X0151603Y0268889D01*
X0151603Y0270087D02*
X0150460Y0270087D01*
X0150433Y0271286D02*
X0151630Y0271286D01*
X0154625Y0272484D02*
X0148225Y0272484D01*
X0148225Y0273683D02*
X0154625Y0273683D01*
X0154625Y0274881D02*
X0148225Y0274881D01*
X0148225Y0276080D02*
X0154625Y0276080D01*
X0154625Y0277278D02*
X0148225Y0277278D01*
X0148225Y0278477D02*
X0154625Y0278477D01*
X0154419Y0279675D02*
X0148432Y0279675D01*
X0150081Y0280874D02*
X0152770Y0280874D01*
X0151981Y0282072D02*
X0150869Y0282072D01*
X0151325Y0283271D02*
X0151525Y0283271D01*
X0151525Y0284470D02*
X0151325Y0284470D01*
X0151099Y0285668D02*
X0151751Y0285668D01*
X0152248Y0286867D02*
X0150603Y0286867D01*
X0149438Y0288065D02*
X0153413Y0288065D01*
X0146425Y0284148D02*
X0146425Y0268518D01*
X0146110Y0268203D01*
X0141761Y0268889D02*
X0140617Y0268889D01*
X0140617Y0270087D02*
X0141761Y0270087D01*
X0141787Y0271286D02*
X0140591Y0271286D01*
X0138225Y0272484D02*
X0144625Y0272484D01*
X0144625Y0273683D02*
X0138225Y0273683D01*
X0138225Y0274881D02*
X0144625Y0274881D01*
X0144625Y0276080D02*
X0138225Y0276080D01*
X0138225Y0277278D02*
X0144625Y0277278D01*
X0144625Y0278477D02*
X0138225Y0278477D01*
X0138432Y0279675D02*
X0144419Y0279675D01*
X0142770Y0280874D02*
X0140081Y0280874D01*
X0140869Y0282072D02*
X0141981Y0282072D01*
X0141525Y0283271D02*
X0141325Y0283271D01*
X0141325Y0284470D02*
X0141525Y0284470D01*
X0141751Y0285668D02*
X0141099Y0285668D01*
X0140603Y0286867D02*
X0142248Y0286867D01*
X0143413Y0288065D02*
X0139438Y0288065D01*
X0126425Y0284148D02*
X0126425Y0268203D01*
X0122076Y0267690D02*
X0097212Y0267690D01*
X0096014Y0266492D02*
X0122076Y0266492D01*
X0122076Y0265293D02*
X0094815Y0265293D01*
X0093617Y0264095D02*
X0122391Y0264095D01*
X0122076Y0262896D02*
X0092418Y0262896D01*
X0091220Y0261698D02*
X0122076Y0261698D01*
X0122076Y0260499D02*
X0090021Y0260499D01*
X0088823Y0259301D02*
X0122076Y0259301D01*
X0122076Y0258102D02*
X0087624Y0258102D01*
X0086426Y0256904D02*
X0124625Y0256904D01*
X0123864Y0255705D02*
X0085227Y0255705D01*
X0084028Y0254507D02*
X0123711Y0254507D01*
X0124107Y0253308D02*
X0082830Y0253308D01*
X0079556Y0237728D02*
X0076475Y0237728D01*
X0073125Y0237728D02*
X0067249Y0237728D01*
X0066051Y0236529D02*
X0072274Y0236529D01*
X0072111Y0235331D02*
X0064852Y0235331D01*
X0063654Y0234132D02*
X0072498Y0234132D01*
X0074072Y0232934D02*
X0062455Y0232934D01*
X0061257Y0231735D02*
X0079556Y0231735D01*
X0057661Y0228139D02*
X0178737Y0228139D01*
X0180400Y0226000D02*
X0180400Y0216143D01*
X0180438Y0216106D01*
X0176776Y0212559D02*
X0176044Y0212559D01*
X0175690Y0207765D02*
X0175065Y0207765D01*
X0186322Y0198177D02*
X0198479Y0198177D01*
X0209965Y0216106D02*
X0209965Y0223165D01*
X0211600Y0224800D01*
X0195773Y0218551D02*
X0194630Y0218551D01*
X0194630Y0217353D02*
X0195773Y0217353D01*
X0195923Y0242522D02*
X0194723Y0242522D01*
X0194723Y0243720D02*
X0195923Y0243720D01*
X0195923Y0247316D02*
X0194723Y0247316D01*
X0194723Y0248514D02*
X0195923Y0248514D01*
X0195923Y0249713D02*
X0194723Y0249713D01*
X0193102Y0255705D02*
X0187000Y0255705D01*
X0187000Y0256904D02*
X0193523Y0256904D01*
X0190973Y0258102D02*
X0189830Y0258102D01*
X0189830Y0259301D02*
X0190973Y0259301D01*
X0190973Y0260499D02*
X0189830Y0260499D01*
X0189830Y0261698D02*
X0190973Y0261698D01*
X0190973Y0262896D02*
X0189830Y0262896D01*
X0189514Y0264095D02*
X0191289Y0264095D01*
X0190973Y0265293D02*
X0189830Y0265293D01*
X0189830Y0266492D02*
X0190973Y0266492D01*
X0190973Y0267690D02*
X0189830Y0267690D01*
X0189830Y0268889D02*
X0190973Y0268889D01*
X0190973Y0270087D02*
X0189830Y0270087D01*
X0189803Y0271286D02*
X0191000Y0271286D01*
X0193838Y0272484D02*
X0187438Y0272484D01*
X0187438Y0273683D02*
X0193838Y0273683D01*
X0193838Y0274881D02*
X0187438Y0274881D01*
X0187438Y0276080D02*
X0193838Y0276080D01*
X0193838Y0277278D02*
X0187438Y0277278D01*
X0187438Y0278477D02*
X0193838Y0278477D01*
X0193631Y0279675D02*
X0187644Y0279675D01*
X0189293Y0280874D02*
X0191982Y0280874D01*
X0191194Y0282072D02*
X0190082Y0282072D01*
X0190538Y0283271D02*
X0190738Y0283271D01*
X0190738Y0284470D02*
X0190538Y0284470D01*
X0190312Y0285668D02*
X0190964Y0285668D01*
X0191460Y0286867D02*
X0189815Y0286867D01*
X0188650Y0288065D02*
X0192625Y0288065D01*
X0195638Y0284148D02*
X0195638Y0268518D01*
X0195323Y0268203D01*
X0199357Y0264095D02*
X0201132Y0264095D01*
X0200816Y0265293D02*
X0199672Y0265293D01*
X0199672Y0266492D02*
X0200816Y0266492D01*
X0200816Y0267690D02*
X0199672Y0267690D01*
X0199672Y0268889D02*
X0200816Y0268889D01*
X0200816Y0270087D02*
X0199672Y0270087D01*
X0199646Y0271286D02*
X0200842Y0271286D01*
X0203838Y0272484D02*
X0197438Y0272484D01*
X0197438Y0273683D02*
X0203838Y0273683D01*
X0203838Y0274881D02*
X0197438Y0274881D01*
X0197438Y0276080D02*
X0203838Y0276080D01*
X0203838Y0277278D02*
X0197438Y0277278D01*
X0197438Y0278477D02*
X0203838Y0278477D01*
X0203631Y0279675D02*
X0197644Y0279675D01*
X0199293Y0280874D02*
X0201982Y0280874D01*
X0201194Y0282072D02*
X0200082Y0282072D01*
X0200538Y0283271D02*
X0200738Y0283271D01*
X0200738Y0284470D02*
X0200538Y0284470D01*
X0200312Y0285668D02*
X0200964Y0285668D01*
X0201460Y0286867D02*
X0199815Y0286867D01*
X0198650Y0288065D02*
X0202625Y0288065D01*
X0208650Y0288065D02*
X0214004Y0288065D01*
X0215202Y0286867D02*
X0209815Y0286867D01*
X0210312Y0285668D02*
X0216401Y0285668D01*
X0217599Y0284470D02*
X0210538Y0284470D01*
X0210538Y0283271D02*
X0218798Y0283271D01*
X0219996Y0282072D02*
X0210082Y0282072D01*
X0209293Y0280874D02*
X0221195Y0280874D01*
X0222393Y0279675D02*
X0207644Y0279675D01*
X0207438Y0278477D02*
X0223592Y0278477D01*
X0224790Y0277278D02*
X0207438Y0277278D01*
X0207438Y0276080D02*
X0225989Y0276080D01*
X0227187Y0274881D02*
X0207438Y0274881D01*
X0207438Y0273683D02*
X0228386Y0273683D01*
X0229584Y0272484D02*
X0207438Y0272484D01*
X0209488Y0271286D02*
X0230783Y0271286D01*
X0231981Y0270087D02*
X0209515Y0270087D01*
X0209515Y0268889D02*
X0233180Y0268889D01*
X0234378Y0267690D02*
X0209515Y0267690D01*
X0209515Y0266492D02*
X0235577Y0266492D01*
X0236775Y0265293D02*
X0209515Y0265293D01*
X0209199Y0264095D02*
X0237974Y0264095D01*
X0239172Y0262896D02*
X0209515Y0262896D01*
X0209515Y0261698D02*
X0240371Y0261698D01*
X0241569Y0260499D02*
X0209515Y0260499D01*
X0209515Y0259301D02*
X0242768Y0259301D01*
X0243967Y0258102D02*
X0209515Y0258102D01*
X0200816Y0262896D02*
X0199672Y0262896D01*
X0205165Y0268203D02*
X0205638Y0268676D01*
X0205638Y0284148D01*
X0185638Y0284148D02*
X0185638Y0268361D01*
X0185480Y0268203D01*
X0181131Y0267690D02*
X0179987Y0267690D01*
X0179987Y0266492D02*
X0181131Y0266492D01*
X0181131Y0265293D02*
X0179987Y0265293D01*
X0179672Y0264095D02*
X0181447Y0264095D01*
X0181131Y0262896D02*
X0179987Y0262896D01*
X0175638Y0268203D02*
X0175638Y0284148D01*
X0177644Y0279675D02*
X0183631Y0279675D01*
X0183838Y0278477D02*
X0177438Y0278477D01*
X0177438Y0277278D02*
X0183838Y0277278D01*
X0183838Y0276080D02*
X0177438Y0276080D01*
X0177438Y0274881D02*
X0183838Y0274881D01*
X0183838Y0273683D02*
X0177438Y0273683D01*
X0177438Y0272484D02*
X0183838Y0272484D01*
X0181157Y0271286D02*
X0179961Y0271286D01*
X0179987Y0270087D02*
X0181131Y0270087D01*
X0181131Y0268889D02*
X0179987Y0268889D01*
X0179293Y0280874D02*
X0181982Y0280874D01*
X0181194Y0282072D02*
X0180082Y0282072D01*
X0180538Y0283271D02*
X0180738Y0283271D01*
X0180738Y0284470D02*
X0180538Y0284470D01*
X0180312Y0285668D02*
X0180964Y0285668D01*
X0181460Y0286867D02*
X0179815Y0286867D01*
X0178650Y0288065D02*
X0182625Y0288065D01*
X0166000Y0277600D02*
X0166000Y0268140D01*
X0161650Y0268889D02*
X0160302Y0268889D01*
X0160302Y0270087D02*
X0161650Y0270087D01*
X0161740Y0271286D02*
X0160276Y0271286D01*
X0158225Y0272484D02*
X0164200Y0272484D01*
X0164200Y0273683D02*
X0158225Y0273683D01*
X0158225Y0274881D02*
X0164200Y0274881D01*
X0163719Y0276080D02*
X0158225Y0276080D01*
X0158225Y0277278D02*
X0163311Y0277278D01*
X0163453Y0278477D02*
X0158225Y0278477D01*
X0158432Y0279675D02*
X0164273Y0279675D01*
X0151603Y0258102D02*
X0150460Y0258102D01*
X0146110Y0257710D02*
X0139600Y0251200D01*
X0131918Y0258102D02*
X0130775Y0258102D01*
X0126425Y0254825D02*
X0126400Y0254800D01*
X0128660Y0248514D02*
X0130731Y0248514D01*
X0130731Y0247316D02*
X0128200Y0247316D01*
X0122076Y0268889D02*
X0098411Y0268889D01*
X0099609Y0270087D02*
X0122076Y0270087D01*
X0122102Y0271286D02*
X0100808Y0271286D01*
X0102006Y0272484D02*
X0124625Y0272484D01*
X0124625Y0273683D02*
X0103205Y0273683D01*
X0104403Y0274881D02*
X0124625Y0274881D01*
X0124625Y0276080D02*
X0105602Y0276080D01*
X0106800Y0277278D02*
X0124625Y0277278D01*
X0124625Y0278477D02*
X0107999Y0278477D01*
X0109197Y0279675D02*
X0124419Y0279675D01*
X0122770Y0280874D02*
X0110396Y0280874D01*
X0111594Y0282072D02*
X0121981Y0282072D01*
X0121525Y0283271D02*
X0112793Y0283271D01*
X0113991Y0284470D02*
X0121525Y0284470D01*
X0121751Y0285668D02*
X0115190Y0285668D01*
X0116388Y0286867D02*
X0122248Y0286867D01*
X0123413Y0288065D02*
X0117587Y0288065D01*
X0106905Y0220948D02*
X0106805Y0220948D01*
X0106805Y0219750D02*
X0106905Y0219750D01*
X0106905Y0218551D02*
X0106805Y0218551D01*
X0106855Y0208065D02*
X0104390Y0205600D01*
X0116800Y0215200D02*
X0116800Y0190000D01*
X0112784Y0189787D02*
X0112055Y0189787D01*
X0106905Y0173008D02*
X0106805Y0173008D01*
X0106805Y0173015D02*
X0106805Y0170165D01*
X0102644Y0170165D01*
X0102238Y0170274D01*
X0101873Y0170485D01*
X0101575Y0170783D01*
X0101364Y0171148D01*
X0101255Y0171555D01*
X0101255Y0173015D01*
X0106805Y0173015D01*
X0106805Y0171809D02*
X0106905Y0171809D01*
X0106905Y0170611D02*
X0106805Y0170611D01*
X0101747Y0170611D02*
X0077183Y0170611D01*
X0075985Y0171809D02*
X0101255Y0171809D01*
X0101255Y0173008D02*
X0074786Y0173008D01*
X0116800Y0215200D02*
X0117872Y0216272D01*
X0122123Y0216272D01*
X0165795Y0174206D02*
X0165795Y0174206D01*
X0165795Y0173008D02*
X0165795Y0173008D01*
X0165795Y0171809D02*
X0165795Y0171809D01*
X0175795Y0171809D02*
X0175795Y0171809D01*
X0175795Y0173008D02*
X0175795Y0173008D01*
X0175795Y0174206D02*
X0175795Y0174206D01*
X0175795Y0175405D02*
X0175795Y0175405D01*
X0175795Y0176603D02*
X0175795Y0176603D01*
X0175795Y0177802D02*
X0175795Y0177802D01*
X0175795Y0179001D02*
X0175795Y0179001D01*
X0175795Y0180199D02*
X0175795Y0180199D01*
X0175095Y0181398D02*
X0176495Y0181398D01*
X0176495Y0182596D02*
X0175140Y0182596D01*
X0174033Y0150236D02*
X0168767Y0150236D01*
X0169681Y0149038D02*
X0173119Y0149038D01*
X0172911Y0147839D02*
X0169906Y0147839D01*
X0171105Y0146641D02*
X0173252Y0146641D01*
X0172303Y0145442D02*
X0174748Y0145442D01*
X0173502Y0144244D02*
X0176495Y0144244D01*
X0176495Y0143045D02*
X0174700Y0143045D01*
X0175095Y0141847D02*
X0176495Y0141847D01*
X0175795Y0140648D02*
X0175795Y0140648D01*
X0175795Y0139450D02*
X0175795Y0139450D01*
X0175795Y0138251D02*
X0175795Y0138251D01*
X0175795Y0137053D02*
X0175795Y0137053D01*
X0175795Y0135854D02*
X0175795Y0135854D01*
X0175795Y0134656D02*
X0175795Y0134656D01*
X0175795Y0133457D02*
X0175795Y0133457D01*
X0175795Y0132259D02*
X0175795Y0132259D01*
X0176200Y0131060D02*
X0175095Y0131060D01*
X0175095Y0129862D02*
X0176793Y0129862D01*
X0175883Y0128663D02*
X0177991Y0128663D01*
X0178600Y0128054D02*
X0178600Y0128054D01*
X0179190Y0127465D02*
X0177081Y0127465D01*
X0176800Y0125200D02*
X0173295Y0128705D01*
X0173295Y0136395D01*
X0173295Y0141905D01*
X0167200Y0148000D01*
X0164719Y0149038D02*
X0160600Y0149038D01*
X0160600Y0150236D02*
X0165633Y0150236D01*
X0164511Y0147839D02*
X0160600Y0147839D01*
X0160600Y0146641D02*
X0164852Y0146641D01*
X0166348Y0145442D02*
X0160600Y0145442D01*
X0160600Y0144244D02*
X0168411Y0144244D01*
X0169609Y0143045D02*
X0160600Y0143045D01*
X0160600Y0141847D02*
X0170808Y0141847D01*
X0170795Y0140892D02*
X0170795Y0131898D01*
X0170095Y0131198D01*
X0170095Y0128653D01*
X0178847Y0119902D01*
X0179699Y0119902D01*
X0180077Y0120280D01*
X0181065Y0120689D01*
X0182135Y0120689D01*
X0183123Y0120280D01*
X0183880Y0119523D01*
X0184289Y0118535D01*
X0184289Y0117465D01*
X0183880Y0116477D01*
X0183123Y0115720D01*
X0183056Y0115693D01*
X0184267Y0114482D01*
X0189018Y0114482D01*
X0181966Y0121534D01*
X0181288Y0121534D01*
X0180300Y0121943D01*
X0179543Y0122700D01*
X0179253Y0123400D01*
X0176054Y0123400D01*
X0172550Y0126905D01*
X0171495Y0127959D01*
X0171495Y0131198D01*
X0170795Y0131898D01*
X0170795Y0140892D01*
X0170795Y0140648D02*
X0170795Y0140648D01*
X0170795Y0139450D02*
X0170795Y0139450D01*
X0170795Y0138251D02*
X0170795Y0138251D01*
X0170795Y0137053D02*
X0170795Y0137053D01*
X0170795Y0135854D02*
X0170795Y0135854D01*
X0170795Y0134656D02*
X0170795Y0134656D01*
X0170795Y0133457D02*
X0170795Y0133457D01*
X0170795Y0132259D02*
X0170795Y0132259D01*
X0170095Y0131060D02*
X0171495Y0131060D01*
X0171495Y0129862D02*
X0170095Y0129862D01*
X0170095Y0128663D02*
X0171495Y0128663D01*
X0171284Y0127465D02*
X0171990Y0127465D01*
X0172483Y0126266D02*
X0173188Y0126266D01*
X0173681Y0125068D02*
X0174387Y0125068D01*
X0174880Y0123869D02*
X0175585Y0123869D01*
X0176078Y0122670D02*
X0179572Y0122670D01*
X0180071Y0120273D02*
X0178475Y0120273D01*
X0177277Y0121472D02*
X0182028Y0121472D01*
X0183129Y0120273D02*
X0183227Y0120273D01*
X0184065Y0119075D02*
X0184425Y0119075D01*
X0184289Y0117876D02*
X0185624Y0117876D01*
X0186822Y0116678D02*
X0183963Y0116678D01*
X0183269Y0115479D02*
X0188021Y0115479D01*
X0189830Y0113082D02*
X0190418Y0113082D01*
X0190973Y0111884D02*
X0189830Y0111884D01*
X0189830Y0110685D02*
X0190973Y0110685D01*
X0190973Y0109487D02*
X0189830Y0109487D01*
X0189830Y0108288D02*
X0190973Y0108288D01*
X0191550Y0107090D02*
X0189253Y0107090D01*
X0189830Y0105891D02*
X0190973Y0105891D01*
X0190973Y0104693D02*
X0189830Y0104693D01*
X0189830Y0103494D02*
X0190973Y0103494D01*
X0190973Y0102296D02*
X0189830Y0102296D01*
X0189830Y0101097D02*
X0190973Y0101097D01*
X0191261Y0099899D02*
X0189542Y0099899D01*
X0189633Y0097502D02*
X0191170Y0097502D01*
X0191170Y0096303D02*
X0189633Y0096303D01*
X0189633Y0095105D02*
X0191170Y0095105D01*
X0191170Y0093906D02*
X0189633Y0093906D01*
X0189633Y0092708D02*
X0191170Y0092708D01*
X0191170Y0091509D02*
X0189633Y0091509D01*
X0189206Y0090311D02*
X0191597Y0090311D01*
X0191075Y0084318D02*
X0189728Y0084318D01*
X0190033Y0083120D02*
X0190770Y0083120D01*
X0190770Y0081921D02*
X0190033Y0081921D01*
X0190033Y0079524D02*
X0190770Y0079524D01*
X0190770Y0078326D02*
X0190033Y0078326D01*
X0190002Y0077127D02*
X0190802Y0077127D01*
X0191885Y0075929D02*
X0188918Y0075929D01*
X0186080Y0075929D02*
X0184880Y0075929D01*
X0184880Y0077127D02*
X0186080Y0077127D01*
X0186080Y0078326D02*
X0184880Y0078326D01*
X0184880Y0079524D02*
X0186080Y0079524D01*
X0186080Y0083120D02*
X0184880Y0083120D01*
X0184880Y0084318D02*
X0186080Y0084318D01*
X0181233Y0084318D02*
X0179885Y0084318D01*
X0180191Y0083120D02*
X0180928Y0083120D01*
X0180928Y0081921D02*
X0180191Y0081921D01*
X0180191Y0079524D02*
X0180928Y0079524D01*
X0180928Y0078326D02*
X0180191Y0078326D01*
X0180159Y0077127D02*
X0180959Y0077127D01*
X0182043Y0075929D02*
X0179075Y0075929D01*
X0176238Y0075929D02*
X0175038Y0075929D01*
X0175038Y0077127D02*
X0176238Y0077127D01*
X0176238Y0078326D02*
X0175038Y0078326D01*
X0175038Y0079524D02*
X0176238Y0079524D01*
X0176238Y0083120D02*
X0175038Y0083120D01*
X0175038Y0084318D02*
X0176238Y0084318D01*
X0171390Y0084318D02*
X0170043Y0084318D01*
X0170348Y0083120D02*
X0171085Y0083120D01*
X0171085Y0081921D02*
X0170348Y0081921D01*
X0170348Y0079524D02*
X0171085Y0079524D01*
X0171085Y0078326D02*
X0170348Y0078326D01*
X0170317Y0077127D02*
X0171116Y0077127D01*
X0172200Y0075929D02*
X0169233Y0075929D01*
X0166395Y0075929D02*
X0165195Y0075929D01*
X0165195Y0077127D02*
X0166395Y0077127D01*
X0166395Y0078326D02*
X0165195Y0078326D01*
X0165195Y0079524D02*
X0166395Y0079524D01*
X0166395Y0083120D02*
X0165195Y0083120D01*
X0165195Y0084318D02*
X0166395Y0084318D01*
X0169521Y0090311D02*
X0171912Y0090311D01*
X0171485Y0091509D02*
X0169948Y0091509D01*
X0169948Y0092708D02*
X0171485Y0092708D01*
X0171485Y0093906D02*
X0169948Y0093906D01*
X0169948Y0095105D02*
X0171485Y0095105D01*
X0171485Y0096303D02*
X0169948Y0096303D01*
X0169948Y0097502D02*
X0171485Y0097502D01*
X0171576Y0099899D02*
X0169857Y0099899D01*
X0170145Y0101097D02*
X0171288Y0101097D01*
X0171288Y0102296D02*
X0170145Y0102296D01*
X0170145Y0103494D02*
X0171288Y0103494D01*
X0171288Y0104693D02*
X0170145Y0104693D01*
X0170145Y0105891D02*
X0171288Y0105891D01*
X0171865Y0107090D02*
X0169568Y0107090D01*
X0170145Y0108288D02*
X0171288Y0108288D01*
X0171288Y0109487D02*
X0170145Y0109487D01*
X0170145Y0110685D02*
X0171288Y0110685D01*
X0171288Y0111884D02*
X0170145Y0111884D01*
X0170145Y0113082D02*
X0171288Y0113082D01*
X0171790Y0114281D02*
X0169643Y0114281D01*
X0167595Y0115479D02*
X0172600Y0115479D01*
X0171062Y0116678D02*
X0167595Y0116678D01*
X0167595Y0117876D02*
X0169638Y0117876D01*
X0169311Y0119075D02*
X0167471Y0119075D01*
X0166541Y0120005D02*
X0166541Y0120005D01*
X0166272Y0120273D02*
X0168381Y0120273D01*
X0168400Y0122800D02*
X0167200Y0122800D01*
X0163295Y0126705D01*
X0163295Y0136395D01*
X0160795Y0135854D02*
X0160795Y0135854D01*
X0160795Y0134656D02*
X0160795Y0134656D01*
X0160795Y0133457D02*
X0160795Y0133457D01*
X0160795Y0132259D02*
X0160795Y0132259D01*
X0160095Y0131060D02*
X0161495Y0131060D01*
X0161495Y0129862D02*
X0160095Y0129862D01*
X0160095Y0128663D02*
X0161495Y0128663D01*
X0161495Y0127465D02*
X0160095Y0127465D01*
X0160280Y0126266D02*
X0161495Y0126266D01*
X0161478Y0125068D02*
X0162387Y0125068D01*
X0162677Y0123869D02*
X0163585Y0123869D01*
X0163875Y0122670D02*
X0164784Y0122670D01*
X0165074Y0121472D02*
X0165982Y0121472D01*
X0168400Y0122800D02*
X0172000Y0119200D01*
X0174400Y0116800D01*
X0174400Y0111961D01*
X0175638Y0110723D01*
X0179987Y0110685D02*
X0181131Y0110685D01*
X0181131Y0109487D02*
X0179987Y0109487D01*
X0179987Y0108288D02*
X0181131Y0108288D01*
X0181708Y0107090D02*
X0179411Y0107090D01*
X0179987Y0105891D02*
X0181131Y0105891D01*
X0181131Y0104693D02*
X0179987Y0104693D01*
X0179987Y0103494D02*
X0181131Y0103494D01*
X0181131Y0102296D02*
X0179987Y0102296D01*
X0179987Y0101097D02*
X0181131Y0101097D01*
X0181418Y0099899D02*
X0179700Y0099899D01*
X0179791Y0097502D02*
X0181328Y0097502D01*
X0181328Y0096303D02*
X0179791Y0096303D01*
X0179791Y0095105D02*
X0181328Y0095105D01*
X0181328Y0093906D02*
X0179791Y0093906D01*
X0179791Y0092708D02*
X0181328Y0092708D01*
X0181328Y0091509D02*
X0179791Y0091509D01*
X0179364Y0090311D02*
X0181754Y0090311D01*
X0185480Y0094187D02*
X0185480Y0103243D01*
X0183680Y0098700D02*
X0177438Y0098700D01*
X0173838Y0098700D02*
X0167595Y0098700D01*
X0163995Y0098700D02*
X0157753Y0098700D01*
X0154153Y0098700D02*
X0147910Y0098700D01*
X0150172Y0099899D02*
X0151891Y0099899D01*
X0151603Y0101097D02*
X0150460Y0101097D01*
X0150460Y0102296D02*
X0151603Y0102296D01*
X0151603Y0103494D02*
X0150460Y0103494D01*
X0150460Y0104693D02*
X0151603Y0104693D01*
X0151603Y0105891D02*
X0150460Y0105891D01*
X0149883Y0107090D02*
X0152180Y0107090D01*
X0151603Y0108288D02*
X0150460Y0108288D01*
X0150460Y0109487D02*
X0151603Y0109487D01*
X0151603Y0110685D02*
X0150460Y0110685D01*
X0150460Y0111884D02*
X0151603Y0111884D01*
X0151048Y0113082D02*
X0150460Y0113082D01*
X0149958Y0114281D02*
X0151000Y0114281D01*
X0152800Y0113876D02*
X0152800Y0118000D01*
X0151600Y0119200D01*
X0153295Y0120895D01*
X0153295Y0136395D01*
X0152800Y0136891D01*
X0152800Y0149200D01*
X0155281Y0150236D02*
X0157000Y0150236D01*
X0157000Y0149038D02*
X0155489Y0149038D01*
X0155147Y0147839D02*
X0157000Y0147839D01*
X0157000Y0146641D02*
X0154600Y0146641D01*
X0154600Y0145442D02*
X0157000Y0145442D01*
X0157000Y0144244D02*
X0154600Y0144244D01*
X0154600Y0143045D02*
X0157000Y0143045D01*
X0157000Y0141847D02*
X0154600Y0141847D01*
X0155795Y0140648D02*
X0155795Y0140648D01*
X0155795Y0139450D02*
X0155795Y0139450D01*
X0155795Y0138251D02*
X0155795Y0138251D01*
X0155795Y0137053D02*
X0155795Y0137053D01*
X0155795Y0135854D02*
X0155795Y0135854D01*
X0155795Y0134656D02*
X0155795Y0134656D01*
X0155795Y0133457D02*
X0155795Y0133457D01*
X0155795Y0132259D02*
X0155795Y0132259D01*
X0155095Y0131060D02*
X0156495Y0131060D01*
X0156495Y0129862D02*
X0155095Y0129862D01*
X0155095Y0128663D02*
X0156495Y0128663D01*
X0156495Y0127465D02*
X0155095Y0127465D01*
X0155095Y0126266D02*
X0156495Y0126266D01*
X0156495Y0125068D02*
X0155095Y0125068D01*
X0155095Y0123869D02*
X0156495Y0123869D01*
X0156333Y0122670D02*
X0155095Y0122670D01*
X0155095Y0121472D02*
X0156111Y0121472D01*
X0156439Y0120273D02*
X0155095Y0120273D01*
X0153295Y0121105D02*
X0153295Y0136395D01*
X0158295Y0136395D02*
X0158295Y0125705D01*
X0165795Y0118205D01*
X0165795Y0110723D01*
X0165795Y0103243D02*
X0165795Y0094187D01*
X0155953Y0094187D02*
X0155953Y0103243D01*
X0151800Y0097502D02*
X0150263Y0097502D01*
X0150263Y0096303D02*
X0151800Y0096303D01*
X0151800Y0095105D02*
X0150263Y0095105D01*
X0150263Y0093906D02*
X0151800Y0093906D01*
X0151800Y0092708D02*
X0150263Y0092708D01*
X0150263Y0091509D02*
X0151800Y0091509D01*
X0152227Y0090311D02*
X0149836Y0090311D01*
X0146110Y0094187D02*
X0146110Y0103243D01*
X0144310Y0098700D02*
X0138068Y0098700D01*
X0136268Y0094187D02*
X0136268Y0103243D01*
X0136268Y0110723D02*
X0136268Y0112000D01*
X0138068Y0115479D02*
X0143800Y0115479D01*
X0142263Y0114281D02*
X0140115Y0114281D01*
X0140617Y0113082D02*
X0141761Y0113082D01*
X0141761Y0111884D02*
X0140617Y0111884D01*
X0142262Y0116678D02*
X0138068Y0116678D01*
X0138068Y0117876D02*
X0140838Y0117876D01*
X0140511Y0119075D02*
X0138068Y0119075D01*
X0138068Y0120273D02*
X0140734Y0120273D01*
X0141669Y0121472D02*
X0138068Y0121472D01*
X0138068Y0122670D02*
X0143800Y0122670D01*
X0143800Y0123869D02*
X0138068Y0123869D01*
X0138068Y0125068D02*
X0144122Y0125068D01*
X0144854Y0125800D02*
X0144854Y0125800D01*
X0145320Y0126266D02*
X0138068Y0126266D01*
X0138068Y0127465D02*
X0146495Y0127465D01*
X0146495Y0128663D02*
X0138109Y0128663D01*
X0139307Y0129862D02*
X0146495Y0129862D01*
X0146495Y0131060D02*
X0140506Y0131060D01*
X0145795Y0132259D02*
X0145795Y0132259D01*
X0145795Y0133457D02*
X0145795Y0133457D01*
X0145795Y0134656D02*
X0145795Y0134656D01*
X0145795Y0135854D02*
X0145795Y0135854D01*
X0145795Y0137053D02*
X0145795Y0137053D01*
X0145795Y0138251D02*
X0145795Y0138251D01*
X0145795Y0139450D02*
X0145795Y0139450D01*
X0145795Y0140648D02*
X0145795Y0140648D01*
X0148295Y0136395D02*
X0148295Y0126695D01*
X0145600Y0124000D01*
X0145600Y0116800D01*
X0143200Y0119200D01*
X0134468Y0119075D02*
X0131738Y0119075D01*
X0130540Y0120273D02*
X0134468Y0120273D01*
X0134468Y0117876D02*
X0132937Y0117876D01*
X0134135Y0116678D02*
X0134468Y0116678D01*
X0152800Y0113876D02*
X0155953Y0110723D01*
X0167946Y0124600D02*
X0165095Y0127450D01*
X0165095Y0131198D01*
X0165795Y0131898D01*
X0165795Y0140892D01*
X0165795Y0131898D01*
X0166495Y0131198D01*
X0166495Y0127162D01*
X0167550Y0126108D01*
X0169058Y0124600D01*
X0167946Y0124600D01*
X0167478Y0125068D02*
X0168590Y0125068D01*
X0167392Y0126266D02*
X0166280Y0126266D01*
X0166495Y0127465D02*
X0165095Y0127465D01*
X0165095Y0128663D02*
X0166495Y0128663D01*
X0166495Y0129862D02*
X0165095Y0129862D01*
X0165095Y0131060D02*
X0166495Y0131060D01*
X0165795Y0132259D02*
X0165795Y0132259D01*
X0165795Y0133457D02*
X0165795Y0133457D01*
X0165795Y0134656D02*
X0165795Y0134656D01*
X0165795Y0135854D02*
X0165795Y0135854D01*
X0165795Y0137053D02*
X0165795Y0137053D01*
X0165795Y0138251D02*
X0165795Y0138251D01*
X0165795Y0139450D02*
X0165795Y0139450D01*
X0165795Y0140648D02*
X0165795Y0140648D01*
X0168295Y0136395D02*
X0168295Y0127908D01*
X0178102Y0118102D01*
X0181498Y0118102D01*
X0181600Y0118000D01*
X0179200Y0117003D02*
X0185480Y0110723D01*
X0178102Y0118102D01*
X0179987Y0113082D02*
X0180575Y0113082D01*
X0181131Y0111884D02*
X0179987Y0111884D01*
X0175638Y0103243D02*
X0175638Y0094187D01*
X0187280Y0098700D02*
X0193523Y0098700D01*
X0197123Y0098700D02*
X0203365Y0098700D01*
X0206965Y0098700D02*
X0219535Y0098700D01*
X0222335Y0101825D02*
X0222335Y0101825D01*
X0227135Y0101825D02*
X0227135Y0101825D01*
X0227135Y0106825D02*
X0227135Y0106825D01*
X0227135Y0111825D02*
X0227135Y0111825D01*
X0205165Y0103243D02*
X0205165Y0094187D01*
X0195323Y0094187D02*
X0195323Y0103243D01*
X0195323Y0110723D02*
X0181823Y0124223D01*
X0180846Y0125200D01*
X0176800Y0125200D01*
X0180685Y0131060D02*
X0181108Y0131060D01*
X0199672Y0113082D02*
X0200260Y0113082D01*
X0200816Y0111884D02*
X0199672Y0111884D01*
X0195923Y0084318D02*
X0194723Y0084318D01*
X0194723Y0083120D02*
X0195923Y0083120D01*
X0173110Y0054355D02*
X0087557Y0054355D01*
X0080030Y0073532D02*
X0068381Y0073532D01*
X0067182Y0074730D02*
X0079556Y0074730D01*
X0079556Y0075929D02*
X0065984Y0075929D01*
X0064785Y0077127D02*
X0079556Y0077127D01*
X0079050Y0078326D02*
X0063587Y0078326D01*
X0062388Y0079524D02*
X0078400Y0079524D01*
X0078400Y0080723D02*
X0061190Y0080723D01*
X0059991Y0081921D02*
X0078400Y0081921D01*
X0078400Y0083120D02*
X0058793Y0083120D01*
X0057594Y0084318D02*
X0078400Y0084318D01*
X0077489Y0085517D02*
X0056396Y0085517D01*
X0069579Y0072333D02*
X0262011Y0072333D01*
X0282280Y0107090D02*
X0296768Y0107090D01*
X0297967Y0108288D02*
X0288619Y0108288D01*
X0290024Y0109487D02*
X0298691Y0109487D01*
X0298691Y0110685D02*
X0290563Y0110685D01*
X0290705Y0111884D02*
X0298691Y0111884D01*
X0298691Y0113082D02*
X0290514Y0113082D01*
X0289907Y0114281D02*
X0298691Y0114281D01*
X0298691Y0115479D02*
X0288336Y0115479D01*
X0280186Y0117876D02*
X0269535Y0117876D01*
X0269535Y0119075D02*
X0278199Y0119075D01*
X0277419Y0120273D02*
X0269535Y0120273D01*
X0269186Y0121472D02*
X0277106Y0121472D01*
X0266735Y0116825D02*
X0266735Y0116825D01*
X0266735Y0126825D02*
X0266735Y0126825D01*
X0222335Y0180565D02*
X0222335Y0180565D01*
X0222335Y0205565D02*
X0222335Y0205565D01*
X0160795Y0140648D02*
X0160795Y0140648D01*
X0160795Y0139450D02*
X0160795Y0139450D01*
X0160795Y0138251D02*
X0160795Y0138251D01*
X0160795Y0137053D02*
X0160795Y0137053D01*
X0156455Y0151435D02*
X0154368Y0151435D01*
X0114633Y0107090D02*
X0111617Y0107090D01*
X0135668Y0079524D02*
X0136868Y0079524D01*
X0136868Y0078326D02*
X0135668Y0078326D01*
X0135668Y0077127D02*
X0136868Y0077127D01*
X0136868Y0075929D02*
X0135668Y0075929D01*
X0112726Y0029187D02*
X0218865Y0029187D01*
X0217666Y0027988D02*
X0113924Y0027988D01*
X0115123Y0026790D02*
X0216468Y0026790D01*
X0215269Y0025591D02*
X0116321Y0025591D01*
X0117520Y0024393D02*
X0214071Y0024393D01*
X0198365Y0042370D02*
X0192079Y0042370D01*
X0192198Y0043569D02*
X0198365Y0043569D01*
X0198798Y0044767D02*
X0192198Y0044767D01*
X0064855Y0106825D02*
X0064855Y0106825D01*
M02*
