G75*
%MOIN*%
%OFA0B0*%
%FSLAX25Y25*%
%IPPOS*%
%LPD*%
%AMOC8*
5,1,8,0,0,1.08239X$1,22.5*
%
%ADD10R,0.02600X0.08000*%
%ADD11R,0.08000X0.02600*%
%ADD12C,0.05600*%
%ADD13R,0.05118X0.05906*%
%ADD14R,0.05906X0.05118*%
%ADD15R,0.06299X0.05118*%
%ADD16R,0.05118X0.05118*%
%ADD17R,0.07874X0.05118*%
%ADD18C,0.07400*%
%ADD19R,0.16929X0.09843*%
%ADD20R,0.05906X0.05906*%
%ADD21R,0.07087X0.08661*%
%ADD22C,0.02400*%
%ADD23C,0.02978*%
%ADD24C,0.05000*%
%ADD25C,0.01200*%
D10*
X0162495Y0150795D03*
X0167495Y0150795D03*
X0172495Y0150795D03*
X0177495Y0150795D03*
X0182495Y0150795D03*
X0187495Y0150795D03*
X0192495Y0150795D03*
X0197495Y0150795D03*
X0202495Y0150795D03*
X0207495Y0150795D03*
X0207495Y0190395D03*
X0202495Y0190395D03*
X0197495Y0190395D03*
X0192495Y0190395D03*
X0187495Y0190395D03*
X0182495Y0190395D03*
X0177495Y0190395D03*
X0172495Y0190395D03*
X0167495Y0190395D03*
X0162495Y0190395D03*
D11*
X0126055Y0192465D03*
X0126055Y0187465D03*
X0126055Y0197465D03*
X0126055Y0202465D03*
X0126055Y0207465D03*
X0126055Y0212465D03*
X0126055Y0217465D03*
X0126055Y0222465D03*
X0126055Y0227465D03*
X0126055Y0232465D03*
X0086455Y0232465D03*
X0086455Y0227465D03*
X0086455Y0222465D03*
X0086455Y0217465D03*
X0086455Y0212465D03*
X0086455Y0207465D03*
X0086455Y0202465D03*
X0086455Y0197465D03*
X0086455Y0192465D03*
X0086455Y0187465D03*
X0086455Y0153725D03*
X0086455Y0148725D03*
X0086455Y0143725D03*
X0086455Y0138725D03*
X0086455Y0133725D03*
X0086455Y0128725D03*
X0086455Y0123725D03*
X0086455Y0118725D03*
X0086455Y0113725D03*
X0086455Y0108725D03*
X0126055Y0108725D03*
X0126055Y0113725D03*
X0126055Y0118725D03*
X0126055Y0123725D03*
X0126055Y0128725D03*
X0126055Y0133725D03*
X0126055Y0138725D03*
X0126055Y0143725D03*
X0126055Y0148725D03*
X0126055Y0153725D03*
X0243935Y0153725D03*
X0243935Y0148725D03*
X0243935Y0143725D03*
X0243935Y0138725D03*
X0243935Y0133725D03*
X0243935Y0128725D03*
X0243935Y0123725D03*
X0243935Y0118725D03*
X0243935Y0113725D03*
X0243935Y0108725D03*
X0283535Y0108725D03*
X0283535Y0113725D03*
X0283535Y0118725D03*
X0283535Y0123725D03*
X0283535Y0128725D03*
X0283535Y0133725D03*
X0283535Y0138725D03*
X0283535Y0143725D03*
X0283535Y0148725D03*
X0283535Y0153725D03*
X0283535Y0187465D03*
X0283535Y0192465D03*
X0283535Y0197465D03*
X0283535Y0202465D03*
X0283535Y0207465D03*
X0283535Y0212465D03*
X0283535Y0217465D03*
X0283535Y0222465D03*
X0283535Y0227465D03*
X0283535Y0232465D03*
X0243935Y0232465D03*
X0243935Y0227465D03*
X0243935Y0222465D03*
X0243935Y0217465D03*
X0243935Y0212465D03*
X0243935Y0207465D03*
X0243935Y0202465D03*
X0243935Y0197465D03*
X0243935Y0192465D03*
X0243935Y0187465D03*
D12*
X0300306Y0204965D02*
X0305906Y0204965D01*
X0305906Y0214965D02*
X0300306Y0214965D01*
X0300306Y0136225D02*
X0305906Y0136225D01*
X0305906Y0126225D02*
X0300306Y0126225D01*
X0227165Y0067328D02*
X0221565Y0067328D01*
X0221565Y0057328D02*
X0227165Y0057328D01*
X0069685Y0126225D02*
X0064085Y0126225D01*
X0064085Y0136225D02*
X0069685Y0136225D01*
X0069685Y0204965D02*
X0064085Y0204965D01*
X0064085Y0214965D02*
X0069685Y0214965D01*
D13*
X0102515Y0249335D03*
X0109995Y0249335D03*
X0109995Y0091855D03*
X0102515Y0091855D03*
X0259995Y0091855D03*
X0267476Y0091855D03*
X0267476Y0249335D03*
X0259995Y0249335D03*
D14*
X0229165Y0230506D03*
X0229165Y0223025D03*
X0199638Y0223025D03*
X0199638Y0230506D03*
X0169408Y0230672D03*
X0169408Y0223192D03*
X0141323Y0223192D03*
X0141323Y0230672D03*
X0224365Y0174335D03*
X0224365Y0166855D03*
X0234208Y0166855D03*
X0234208Y0174335D03*
D15*
X0224365Y0125123D03*
X0224365Y0117643D03*
X0214523Y0117643D03*
X0214523Y0125123D03*
X0204680Y0125123D03*
X0204680Y0117643D03*
X0194838Y0117643D03*
X0194838Y0125123D03*
X0184995Y0125123D03*
X0184995Y0117643D03*
X0175153Y0117643D03*
X0175153Y0125123D03*
X0165310Y0125123D03*
X0165310Y0117643D03*
X0155468Y0117643D03*
X0155468Y0125123D03*
X0160677Y0222528D03*
X0160677Y0230008D03*
X0150835Y0230250D03*
X0150835Y0222770D03*
X0155468Y0275123D03*
X0155468Y0282603D03*
X0165310Y0282603D03*
X0165310Y0275123D03*
X0175153Y0275123D03*
X0175153Y0282603D03*
X0185200Y0282540D03*
X0185200Y0275060D03*
X0194838Y0275123D03*
X0194838Y0282603D03*
X0204680Y0282603D03*
X0204680Y0275123D03*
X0214523Y0275123D03*
X0214523Y0282603D03*
X0224365Y0282603D03*
X0224365Y0275123D03*
X0219323Y0230506D03*
X0219323Y0223025D03*
X0209480Y0223025D03*
X0209480Y0230506D03*
X0145625Y0275123D03*
X0145625Y0282603D03*
D16*
X0150940Y0238509D03*
X0159995Y0238509D03*
X0209995Y0238509D03*
X0219050Y0238509D03*
D17*
X0214523Y0260162D03*
X0155468Y0260162D03*
D18*
X0155625Y0298548D03*
X0145625Y0298548D03*
X0165625Y0298548D03*
X0175625Y0298548D03*
X0194838Y0298548D03*
X0204838Y0298548D03*
X0214838Y0298548D03*
X0224838Y0298548D03*
D19*
X0201334Y0062328D03*
X0168657Y0062328D03*
D20*
X0165310Y0094808D03*
X0155468Y0094808D03*
X0155468Y0108587D03*
X0165310Y0108587D03*
X0175153Y0108587D03*
X0184995Y0108587D03*
X0194838Y0108587D03*
X0204680Y0108587D03*
X0214523Y0108587D03*
X0224365Y0108587D03*
X0224365Y0094808D03*
X0214523Y0094808D03*
X0204680Y0094808D03*
X0194838Y0094808D03*
X0184995Y0094808D03*
X0175153Y0094808D03*
D21*
X0254361Y0169600D03*
X0274439Y0169600D03*
D22*
X0274439Y0156839D01*
X0272200Y0154600D01*
X0270400Y0156400D01*
X0272200Y0154600D02*
X0273075Y0153725D01*
X0283535Y0153725D01*
X0283535Y0148725D02*
X0262475Y0148725D01*
X0260800Y0150400D01*
X0260800Y0156400D01*
X0258125Y0153725D01*
X0243935Y0153725D01*
X0243935Y0148725D02*
X0243935Y0143725D01*
X0243935Y0138725D01*
X0243935Y0133725D01*
X0243935Y0128725D02*
X0243935Y0123725D01*
X0243935Y0118725D01*
X0243935Y0113725D01*
X0243935Y0108725D02*
X0244000Y0108725D01*
X0258075Y0108725D01*
X0259600Y0107200D01*
X0260800Y0107200D01*
X0259995Y0106395D01*
X0259995Y0091855D01*
X0267476Y0091855D02*
X0272800Y0097180D01*
X0272800Y0100000D01*
X0283535Y0108725D02*
X0283535Y0113725D01*
X0283535Y0118725D01*
X0283535Y0123725D01*
X0300606Y0123725D01*
X0303106Y0126225D01*
X0303106Y0136225D02*
X0300931Y0138400D01*
X0283861Y0138400D01*
X0283535Y0138725D01*
X0283535Y0143725D01*
X0283535Y0138725D02*
X0283535Y0133725D01*
X0283535Y0128725D01*
X0254361Y0169600D02*
X0242800Y0169600D01*
X0240055Y0166855D01*
X0234208Y0166855D01*
X0224800Y0166855D01*
X0224800Y0161200D01*
X0214395Y0150795D01*
X0207495Y0150795D01*
X0202495Y0150795D02*
X0202495Y0168831D01*
X0208000Y0174335D01*
X0207495Y0174840D01*
X0207495Y0190395D01*
X0208000Y0174335D02*
X0224365Y0174335D01*
X0234208Y0174335D01*
X0237935Y0174335D01*
X0244000Y0180400D01*
X0257200Y0180400D01*
X0258400Y0181600D01*
X0255865Y0187465D02*
X0257200Y0188800D01*
X0258400Y0188800D01*
X0255865Y0187465D02*
X0243935Y0187465D01*
X0243935Y0192465D02*
X0243935Y0197465D01*
X0243935Y0202465D01*
X0243935Y0207465D01*
X0243935Y0212465D02*
X0243935Y0217465D01*
X0243935Y0222465D01*
X0243935Y0227465D01*
X0243935Y0232465D02*
X0245200Y0232465D01*
X0257665Y0232465D01*
X0258400Y0233200D01*
X0258400Y0232000D01*
X0262935Y0227465D01*
X0283535Y0227465D01*
X0283535Y0222465D02*
X0283535Y0217465D01*
X0283535Y0214000D01*
X0284501Y0214965D01*
X0303106Y0214965D01*
X0303106Y0204965D02*
X0300606Y0202465D01*
X0283535Y0202465D01*
X0283535Y0197465D01*
X0283535Y0192465D01*
X0283535Y0187465D01*
X0283535Y0207465D02*
X0283535Y0212465D01*
X0283535Y0214000D01*
X0283535Y0232465D02*
X0275935Y0232465D01*
X0270400Y0238000D01*
X0270400Y0246411D01*
X0267476Y0249335D01*
X0274535Y0249335D01*
X0275200Y0250000D01*
X0259995Y0249335D02*
X0258131Y0251200D01*
X0253600Y0251200D01*
X0259600Y0234400D02*
X0258400Y0233200D01*
X0259600Y0234400D02*
X0260800Y0234400D01*
X0208000Y0174335D02*
X0166065Y0174335D01*
X0162495Y0177905D01*
X0162495Y0190395D01*
X0126055Y0192465D02*
X0126055Y0197465D01*
X0126055Y0202000D01*
X0126055Y0202465D01*
X0126055Y0207465D01*
X0126055Y0212465D02*
X0126055Y0217465D01*
X0126055Y0222465D01*
X0126055Y0227465D01*
X0126055Y0232465D02*
X0116335Y0232465D01*
X0110800Y0238000D01*
X0110800Y0249335D01*
X0116135Y0249335D01*
X0118000Y0251200D01*
X0110800Y0249335D02*
X0109995Y0249335D01*
X0102515Y0249335D02*
X0094665Y0249335D01*
X0094000Y0250000D01*
X0086455Y0232465D02*
X0086455Y0227465D01*
X0086455Y0222465D01*
X0086455Y0218320D01*
X0085600Y0217465D01*
X0069385Y0217465D01*
X0066885Y0214965D01*
X0066885Y0204965D02*
X0084620Y0204965D01*
X0086455Y0206800D01*
X0086455Y0212465D01*
X0086455Y0217465D02*
X0085600Y0217465D01*
X0086455Y0206800D02*
X0086455Y0197465D01*
X0086455Y0192465D02*
X0108465Y0192465D01*
X0110200Y0194200D01*
X0110200Y0190600D01*
X0113335Y0187465D01*
X0126055Y0187465D01*
X0110800Y0194800D02*
X0110200Y0194200D01*
X0100000Y0179200D02*
X0098800Y0179200D01*
X0090535Y0187465D01*
X0086455Y0187465D01*
X0113200Y0162400D02*
X0113200Y0160000D01*
X0119475Y0153725D01*
X0126055Y0153725D01*
X0126055Y0148725D02*
X0126055Y0143725D01*
X0126055Y0138725D01*
X0126055Y0133725D01*
X0126055Y0128725D02*
X0126055Y0123725D01*
X0126055Y0118725D01*
X0126055Y0113725D01*
X0126055Y0108725D02*
X0114075Y0108725D01*
X0110200Y0112600D01*
X0109995Y0112395D01*
X0109995Y0091855D01*
X0102515Y0091855D02*
X0100000Y0094370D01*
X0100000Y0100000D01*
X0091275Y0108725D01*
X0086455Y0108725D01*
X0086980Y0113200D02*
X0109600Y0113200D01*
X0110200Y0112600D01*
X0109600Y0113200D02*
X0110800Y0113200D01*
X0086980Y0113200D02*
X0086455Y0113725D01*
X0086455Y0118725D02*
X0086455Y0123725D01*
X0083955Y0126225D01*
X0066885Y0126225D01*
X0066885Y0136225D02*
X0069385Y0138725D01*
X0086455Y0138725D01*
X0086455Y0143725D01*
X0086455Y0148725D01*
X0086455Y0153725D01*
X0086455Y0133725D02*
X0086455Y0128725D01*
X0086455Y0123725D01*
X0224365Y0166855D02*
X0224800Y0166855D01*
D23*
X0214000Y0170800D03*
X0194800Y0162400D03*
X0186400Y0162400D03*
X0178000Y0167200D03*
X0172000Y0163600D03*
X0156400Y0170800D03*
X0167200Y0198400D03*
X0172000Y0200800D03*
X0186400Y0199600D03*
X0193600Y0199600D03*
X0208000Y0199600D03*
X0220000Y0214000D03*
X0235600Y0212800D03*
X0235600Y0190000D03*
X0258400Y0188800D03*
X0258400Y0181600D03*
X0260800Y0156400D03*
X0270400Y0156400D03*
X0236800Y0133600D03*
X0236800Y0124000D03*
X0233200Y0102400D03*
X0260800Y0107200D03*
X0272800Y0100000D03*
X0209200Y0143200D03*
X0201023Y0138623D03*
X0200800Y0132400D03*
X0191200Y0133600D03*
X0178000Y0136000D03*
X0170800Y0133600D03*
X0162400Y0133600D03*
X0134800Y0124000D03*
X0146800Y0102400D03*
X0128800Y0065200D03*
X0100000Y0100000D03*
X0110800Y0113200D03*
X0113200Y0162400D03*
X0100000Y0179200D03*
X0110800Y0194800D03*
X0133600Y0202000D03*
X0148000Y0217600D03*
X0169600Y0236800D03*
X0175600Y0224800D03*
X0193600Y0224800D03*
X0199600Y0240400D03*
X0181600Y0266800D03*
X0204400Y0268000D03*
X0214000Y0268000D03*
X0233200Y0278800D03*
X0253600Y0251200D03*
X0260800Y0234400D03*
X0275200Y0250000D03*
X0230800Y0239200D03*
X0185200Y0292000D03*
X0145600Y0269200D03*
X0137200Y0278800D03*
X0145600Y0252400D03*
X0118000Y0251200D03*
X0094000Y0250000D03*
X0118000Y0220000D03*
X0056800Y0169600D03*
X0313600Y0170800D03*
D24*
X0224365Y0067328D02*
X0206334Y0067328D01*
X0201334Y0062328D01*
X0220000Y0048400D02*
X0170800Y0048400D01*
X0169600Y0049600D01*
X0169600Y0061384D01*
X0168657Y0062328D01*
X0220000Y0048400D02*
X0224365Y0052765D01*
X0224365Y0057328D01*
D25*
X0098756Y0090329D02*
X0085184Y0090329D01*
X0083985Y0091527D02*
X0098756Y0091527D01*
X0098756Y0092220D02*
X0098756Y0088405D01*
X0099459Y0087702D01*
X0105571Y0087702D01*
X0106021Y0088153D01*
X0106156Y0087920D01*
X0106454Y0087622D01*
X0106819Y0087411D01*
X0107226Y0087302D01*
X0109395Y0087302D01*
X0109395Y0091255D01*
X0110595Y0091255D01*
X0110595Y0087302D01*
X0112765Y0087302D01*
X0113172Y0087411D01*
X0113537Y0087622D01*
X0113835Y0087920D01*
X0114045Y0088285D01*
X0114154Y0088692D01*
X0114154Y0091255D01*
X0110595Y0091255D01*
X0110595Y0092455D01*
X0109395Y0092455D01*
X0109395Y0096408D01*
X0107226Y0096408D01*
X0106819Y0096299D01*
X0106454Y0096088D01*
X0106156Y0095790D01*
X0106021Y0095557D01*
X0105571Y0096008D01*
X0102400Y0096008D01*
X0102400Y0098767D01*
X0102689Y0099465D01*
X0102689Y0100535D01*
X0102280Y0101523D01*
X0101523Y0102280D01*
X0100826Y0102569D01*
X0092634Y0110760D01*
X0091752Y0111125D01*
X0091403Y0111125D01*
X0091438Y0111145D01*
X0091735Y0111443D01*
X0091946Y0111808D01*
X0092055Y0112215D01*
X0092055Y0113675D01*
X0086505Y0113675D01*
X0086505Y0113775D01*
X0092055Y0113775D01*
X0092055Y0115236D01*
X0091946Y0115643D01*
X0091735Y0116008D01*
X0091438Y0116305D01*
X0091181Y0116454D01*
X0091655Y0116928D01*
X0091655Y0120522D01*
X0090952Y0121225D01*
X0088855Y0121225D01*
X0088855Y0121225D01*
X0090952Y0121225D01*
X0091655Y0121928D01*
X0091655Y0125522D01*
X0090952Y0126225D01*
X0088855Y0126225D01*
X0088855Y0126225D01*
X0090952Y0126225D01*
X0091655Y0126928D01*
X0091655Y0130522D01*
X0090952Y0131225D01*
X0088855Y0131225D01*
X0088855Y0131225D01*
X0090952Y0131225D01*
X0091655Y0131928D01*
X0091655Y0135522D01*
X0090952Y0136225D01*
X0081958Y0136225D01*
X0081255Y0135522D01*
X0081255Y0131928D01*
X0081958Y0131225D01*
X0081255Y0130522D01*
X0081255Y0128625D01*
X0072942Y0128625D01*
X0071951Y0129616D01*
X0070481Y0130225D01*
X0063289Y0130225D01*
X0061819Y0129616D01*
X0060694Y0128491D01*
X0060085Y0127021D01*
X0060085Y0125430D01*
X0060694Y0123959D01*
X0061819Y0122834D01*
X0063289Y0122225D01*
X0070481Y0122225D01*
X0071951Y0122834D01*
X0072942Y0123825D01*
X0081255Y0123825D01*
X0081255Y0121928D01*
X0081958Y0121225D01*
X0081255Y0120522D01*
X0081255Y0116928D01*
X0081730Y0116454D01*
X0081473Y0116305D01*
X0081175Y0116008D01*
X0080964Y0115643D01*
X0080855Y0115236D01*
X0080855Y0113775D01*
X0086405Y0113775D01*
X0086405Y0113675D01*
X0080855Y0113675D01*
X0080855Y0112215D01*
X0080964Y0111808D01*
X0081175Y0111443D01*
X0081473Y0111145D01*
X0081730Y0110997D01*
X0081255Y0110522D01*
X0081255Y0106928D01*
X0081958Y0106225D01*
X0090381Y0106225D01*
X0097431Y0099174D01*
X0097600Y0098767D01*
X0097600Y0093893D01*
X0097965Y0093011D01*
X0098641Y0092335D01*
X0098756Y0092220D01*
X0098250Y0092726D02*
X0082787Y0092726D01*
X0081588Y0093924D02*
X0097600Y0093924D01*
X0097600Y0095123D02*
X0080390Y0095123D01*
X0079191Y0096321D02*
X0097600Y0096321D01*
X0097600Y0097520D02*
X0077993Y0097520D01*
X0076794Y0098718D02*
X0097600Y0098718D01*
X0096689Y0099917D02*
X0075596Y0099917D01*
X0074397Y0101115D02*
X0095491Y0101115D01*
X0094292Y0102314D02*
X0073199Y0102314D01*
X0072000Y0103512D02*
X0093094Y0103512D01*
X0091895Y0104711D02*
X0070802Y0104711D01*
X0069603Y0105909D02*
X0090697Y0105909D01*
X0093889Y0109505D02*
X0120455Y0109505D01*
X0120455Y0108775D02*
X0126005Y0108775D01*
X0126005Y0108675D01*
X0126105Y0108675D01*
X0126105Y0105825D01*
X0130266Y0105825D01*
X0130673Y0105934D01*
X0131038Y0106145D01*
X0131335Y0106443D01*
X0131546Y0106808D01*
X0131655Y0107215D01*
X0131655Y0108675D01*
X0126105Y0108675D01*
X0126105Y0108775D01*
X0131655Y0108775D01*
X0131655Y0110236D01*
X0131546Y0110643D01*
X0131335Y0111008D01*
X0131038Y0111305D01*
X0130781Y0111454D01*
X0131255Y0111928D01*
X0131255Y0115522D01*
X0130552Y0116225D01*
X0128455Y0116225D01*
X0128455Y0116225D01*
X0130552Y0116225D01*
X0131255Y0116928D01*
X0131255Y0120522D01*
X0130552Y0121225D01*
X0128455Y0121225D01*
X0128455Y0121225D01*
X0130552Y0121225D01*
X0131252Y0121925D01*
X0133072Y0121925D01*
X0133277Y0121720D01*
X0134265Y0121311D01*
X0135335Y0121311D01*
X0136323Y0121720D01*
X0137080Y0122477D01*
X0137489Y0123465D01*
X0137489Y0124535D01*
X0137080Y0125523D01*
X0136323Y0126280D01*
X0135335Y0126689D01*
X0134265Y0126689D01*
X0133277Y0126280D01*
X0132522Y0125525D01*
X0131252Y0125525D01*
X0130552Y0126225D01*
X0128455Y0126225D01*
X0128455Y0126225D01*
X0130552Y0126225D01*
X0131255Y0126928D01*
X0131255Y0130522D01*
X0130552Y0131225D01*
X0121558Y0131225D01*
X0120855Y0130522D01*
X0120855Y0126928D01*
X0121558Y0126225D01*
X0120855Y0125522D01*
X0120855Y0121928D01*
X0121558Y0121225D01*
X0120855Y0120522D01*
X0120855Y0116928D01*
X0121558Y0116225D01*
X0120855Y0115522D01*
X0120855Y0111928D01*
X0121329Y0111454D01*
X0121073Y0111305D01*
X0120775Y0111008D01*
X0120564Y0110643D01*
X0120455Y0110236D01*
X0120455Y0108775D01*
X0120455Y0108675D02*
X0120455Y0107215D01*
X0120564Y0106808D01*
X0120775Y0106443D01*
X0121073Y0106145D01*
X0121438Y0105934D01*
X0121844Y0105825D01*
X0126005Y0105825D01*
X0126005Y0108675D01*
X0120455Y0108675D01*
X0120455Y0108306D02*
X0095088Y0108306D01*
X0096286Y0107108D02*
X0120484Y0107108D01*
X0121531Y0105909D02*
X0097485Y0105909D01*
X0098683Y0104711D02*
X0151742Y0104711D01*
X0152018Y0104435D02*
X0158918Y0104435D01*
X0159620Y0105138D01*
X0159620Y0112037D01*
X0158918Y0112740D01*
X0157268Y0112740D01*
X0157268Y0113883D01*
X0159114Y0113883D01*
X0159817Y0114586D01*
X0159817Y0120699D01*
X0159133Y0121383D01*
X0159817Y0122067D01*
X0159817Y0128179D01*
X0159114Y0128882D01*
X0157268Y0128882D01*
X0157268Y0143022D01*
X0160270Y0146024D01*
X0160698Y0145595D01*
X0164292Y0145595D01*
X0164995Y0146298D01*
X0164995Y0155292D01*
X0164292Y0155995D01*
X0160698Y0155995D01*
X0159995Y0155292D01*
X0159995Y0150841D01*
X0154722Y0145568D01*
X0153668Y0144513D01*
X0153668Y0130746D01*
X0148888Y0135525D01*
X0131252Y0135525D01*
X0130552Y0136225D01*
X0128455Y0136225D01*
X0128455Y0136225D01*
X0130552Y0136225D01*
X0131255Y0136928D01*
X0131255Y0140522D01*
X0130552Y0141225D01*
X0128455Y0141225D01*
X0128455Y0141225D01*
X0130552Y0141225D01*
X0131255Y0141928D01*
X0131255Y0145522D01*
X0130552Y0146225D01*
X0128455Y0146225D01*
X0128455Y0146225D01*
X0130552Y0146225D01*
X0131255Y0146928D01*
X0131255Y0150522D01*
X0130781Y0150997D01*
X0131038Y0151145D01*
X0131335Y0151443D01*
X0131546Y0151808D01*
X0131655Y0152215D01*
X0131655Y0153675D01*
X0126105Y0153675D01*
X0126105Y0153775D01*
X0131655Y0153775D01*
X0131655Y0155236D01*
X0131546Y0155643D01*
X0131335Y0156008D01*
X0131038Y0156305D01*
X0130673Y0156516D01*
X0130266Y0156625D01*
X0126105Y0156625D01*
X0126105Y0153775D01*
X0126005Y0153775D01*
X0126005Y0153675D01*
X0120455Y0153675D01*
X0120455Y0152215D01*
X0120564Y0151808D01*
X0120775Y0151443D01*
X0121073Y0151145D01*
X0121329Y0150997D01*
X0120855Y0150522D01*
X0120855Y0146928D01*
X0121558Y0146225D01*
X0120855Y0145522D01*
X0120855Y0141928D01*
X0121558Y0141225D01*
X0120855Y0140522D01*
X0120855Y0136928D01*
X0121558Y0136225D01*
X0120855Y0135522D01*
X0120855Y0131928D01*
X0121558Y0131225D01*
X0130552Y0131225D01*
X0131252Y0131925D01*
X0147397Y0131925D01*
X0151131Y0128191D01*
X0151118Y0128179D01*
X0151118Y0122067D01*
X0151802Y0121383D01*
X0151118Y0120699D01*
X0151118Y0114586D01*
X0151821Y0113883D01*
X0153668Y0113883D01*
X0153668Y0112740D01*
X0152018Y0112740D01*
X0151315Y0112037D01*
X0151315Y0105138D01*
X0152018Y0104435D01*
X0151315Y0105909D02*
X0130579Y0105909D01*
X0131626Y0107108D02*
X0151315Y0107108D01*
X0151315Y0108306D02*
X0131655Y0108306D01*
X0131655Y0109505D02*
X0151315Y0109505D01*
X0151315Y0110703D02*
X0131511Y0110703D01*
X0131229Y0111902D02*
X0151315Y0111902D01*
X0151406Y0114299D02*
X0131255Y0114299D01*
X0131255Y0115497D02*
X0151118Y0115497D01*
X0151118Y0116696D02*
X0131023Y0116696D01*
X0131255Y0117894D02*
X0151118Y0117894D01*
X0151118Y0119093D02*
X0131255Y0119093D01*
X0131255Y0120291D02*
X0151118Y0120291D01*
X0151695Y0121490D02*
X0135767Y0121490D01*
X0137167Y0122688D02*
X0151118Y0122688D01*
X0151118Y0123887D02*
X0137489Y0123887D01*
X0137261Y0125085D02*
X0151118Y0125085D01*
X0151118Y0126284D02*
X0136313Y0126284D01*
X0134800Y0124000D02*
X0134525Y0123725D01*
X0126055Y0123725D01*
X0123655Y0121225D02*
X0121558Y0121225D01*
X0123655Y0121225D01*
X0123655Y0121225D01*
X0121293Y0121490D02*
X0091217Y0121490D01*
X0091655Y0122688D02*
X0120855Y0122688D01*
X0120855Y0123887D02*
X0091655Y0123887D01*
X0091655Y0125085D02*
X0120855Y0125085D01*
X0121558Y0126225D02*
X0123655Y0126225D01*
X0123655Y0126225D01*
X0121558Y0126225D01*
X0121499Y0126284D02*
X0091011Y0126284D01*
X0091655Y0127482D02*
X0120855Y0127482D01*
X0120855Y0128681D02*
X0091655Y0128681D01*
X0091655Y0129879D02*
X0120855Y0129879D01*
X0121411Y0131078D02*
X0091099Y0131078D01*
X0091655Y0132276D02*
X0120855Y0132276D01*
X0120855Y0133475D02*
X0091655Y0133475D01*
X0091655Y0134673D02*
X0120855Y0134673D01*
X0121205Y0135872D02*
X0091305Y0135872D01*
X0090952Y0136225D02*
X0091655Y0136928D01*
X0091655Y0140522D01*
X0090952Y0141225D01*
X0088855Y0141225D01*
X0088855Y0141225D01*
X0090952Y0141225D01*
X0091655Y0141928D01*
X0091655Y0145522D01*
X0090952Y0146225D01*
X0088855Y0146225D01*
X0088855Y0146225D01*
X0090952Y0146225D01*
X0091655Y0146928D01*
X0091655Y0150522D01*
X0090952Y0151225D01*
X0088855Y0151225D01*
X0088855Y0151225D01*
X0090952Y0151225D01*
X0091655Y0151928D01*
X0091655Y0155522D01*
X0090952Y0156225D01*
X0081958Y0156225D01*
X0081255Y0155522D01*
X0081255Y0151928D01*
X0081958Y0151225D01*
X0081255Y0150522D01*
X0081255Y0146928D01*
X0081958Y0146225D01*
X0081255Y0145522D01*
X0081255Y0141928D01*
X0081958Y0141225D01*
X0081858Y0141125D01*
X0068908Y0141125D01*
X0068026Y0140760D01*
X0067491Y0140225D01*
X0063289Y0140225D01*
X0061819Y0139616D01*
X0060694Y0138491D01*
X0060085Y0137021D01*
X0060085Y0135430D01*
X0060694Y0133959D01*
X0061819Y0132834D01*
X0063289Y0132225D01*
X0070481Y0132225D01*
X0071951Y0132834D01*
X0073076Y0133959D01*
X0073685Y0135430D01*
X0073685Y0136325D01*
X0081858Y0136325D01*
X0081958Y0136225D01*
X0090952Y0136225D01*
X0091655Y0137070D02*
X0120855Y0137070D01*
X0121558Y0136225D02*
X0123655Y0136225D01*
X0123655Y0136225D01*
X0121558Y0136225D01*
X0120855Y0138269D02*
X0091655Y0138269D01*
X0091655Y0139468D02*
X0120855Y0139468D01*
X0120999Y0140666D02*
X0091511Y0140666D01*
X0091591Y0141865D02*
X0120919Y0141865D01*
X0121558Y0141225D02*
X0123655Y0141225D01*
X0121558Y0141225D01*
X0120855Y0143063D02*
X0091655Y0143063D01*
X0091655Y0144262D02*
X0120855Y0144262D01*
X0120855Y0145460D02*
X0091655Y0145460D01*
X0091386Y0146659D02*
X0121125Y0146659D01*
X0121558Y0146225D02*
X0123655Y0146225D01*
X0123655Y0146225D01*
X0121558Y0146225D01*
X0120855Y0147857D02*
X0091655Y0147857D01*
X0091655Y0149056D02*
X0120855Y0149056D01*
X0120855Y0150254D02*
X0091655Y0150254D01*
X0091180Y0151453D02*
X0120769Y0151453D01*
X0120455Y0152651D02*
X0091655Y0152651D01*
X0091655Y0153850D02*
X0120455Y0153850D01*
X0120455Y0153775D02*
X0126005Y0153775D01*
X0126005Y0156625D01*
X0121844Y0156625D01*
X0121438Y0156516D01*
X0121073Y0156305D01*
X0120775Y0156008D01*
X0120564Y0155643D01*
X0120455Y0155236D01*
X0120455Y0153775D01*
X0120455Y0155048D02*
X0091655Y0155048D01*
X0084055Y0151225D02*
X0084055Y0151225D01*
X0081958Y0151225D01*
X0084055Y0151225D01*
X0081731Y0151453D02*
X0052100Y0151453D01*
X0052100Y0152651D02*
X0081255Y0152651D01*
X0081255Y0153850D02*
X0052100Y0153850D01*
X0052100Y0155048D02*
X0081255Y0155048D01*
X0081255Y0150254D02*
X0052100Y0150254D01*
X0052100Y0149056D02*
X0081255Y0149056D01*
X0081255Y0147857D02*
X0052100Y0147857D01*
X0052100Y0146659D02*
X0081525Y0146659D01*
X0081958Y0146225D02*
X0084055Y0146225D01*
X0084055Y0146225D01*
X0081958Y0146225D01*
X0081255Y0145460D02*
X0052100Y0145460D01*
X0052100Y0144262D02*
X0081255Y0144262D01*
X0081255Y0143063D02*
X0052100Y0143063D01*
X0052100Y0141865D02*
X0081319Y0141865D01*
X0081958Y0141225D02*
X0084055Y0141225D01*
X0081958Y0141225D01*
X0084055Y0141225D02*
X0084055Y0141225D01*
X0081605Y0135872D02*
X0073685Y0135872D01*
X0073372Y0134673D02*
X0081255Y0134673D01*
X0081255Y0133475D02*
X0072592Y0133475D01*
X0070604Y0132276D02*
X0081255Y0132276D01*
X0081958Y0131225D02*
X0084055Y0131225D01*
X0084055Y0131225D01*
X0081958Y0131225D01*
X0081811Y0131078D02*
X0052100Y0131078D01*
X0052100Y0132276D02*
X0063166Y0132276D01*
X0061178Y0133475D02*
X0052100Y0133475D01*
X0052100Y0134673D02*
X0060398Y0134673D01*
X0060085Y0135872D02*
X0052100Y0135872D01*
X0052100Y0137070D02*
X0060106Y0137070D01*
X0060602Y0138269D02*
X0052100Y0138269D01*
X0052100Y0139468D02*
X0061670Y0139468D01*
X0067932Y0140666D02*
X0052100Y0140666D01*
X0052100Y0129879D02*
X0062455Y0129879D01*
X0060884Y0128681D02*
X0052100Y0128681D01*
X0052100Y0127482D02*
X0060276Y0127482D01*
X0060085Y0126284D02*
X0052100Y0126284D01*
X0052100Y0125085D02*
X0060228Y0125085D01*
X0060767Y0123887D02*
X0052100Y0123887D01*
X0052100Y0123412D02*
X0052100Y0217778D01*
X0137812Y0303491D01*
X0232178Y0303491D01*
X0317891Y0217778D01*
X0317891Y0123412D01*
X0232178Y0037700D01*
X0137812Y0037700D01*
X0052100Y0123412D01*
X0052824Y0122688D02*
X0062171Y0122688D01*
X0057618Y0117894D02*
X0081255Y0117894D01*
X0081255Y0119093D02*
X0056419Y0119093D01*
X0055221Y0120291D02*
X0081255Y0120291D01*
X0081958Y0121225D02*
X0084055Y0121225D01*
X0084055Y0121225D01*
X0081958Y0121225D01*
X0081693Y0121490D02*
X0054022Y0121490D01*
X0058817Y0116696D02*
X0081487Y0116696D01*
X0080925Y0115497D02*
X0060015Y0115497D01*
X0061214Y0114299D02*
X0080855Y0114299D01*
X0080855Y0113100D02*
X0062412Y0113100D01*
X0063611Y0111902D02*
X0080939Y0111902D01*
X0081436Y0110703D02*
X0064809Y0110703D01*
X0066008Y0109505D02*
X0081255Y0109505D01*
X0081255Y0108306D02*
X0067206Y0108306D01*
X0068405Y0107108D02*
X0081255Y0107108D01*
X0091423Y0116696D02*
X0121087Y0116696D01*
X0121558Y0116225D02*
X0123655Y0116225D01*
X0121558Y0116225D01*
X0120855Y0115497D02*
X0091985Y0115497D01*
X0092055Y0114299D02*
X0120855Y0114299D01*
X0120855Y0113100D02*
X0092055Y0113100D01*
X0091971Y0111902D02*
X0120882Y0111902D01*
X0120599Y0110703D02*
X0092691Y0110703D01*
X0099882Y0103512D02*
X0297990Y0103512D01*
X0296792Y0102314D02*
X0274241Y0102314D01*
X0274323Y0102280D02*
X0273335Y0102689D01*
X0272265Y0102689D01*
X0271277Y0102280D01*
X0270520Y0101523D01*
X0270111Y0100535D01*
X0270111Y0099465D01*
X0270400Y0098767D01*
X0270400Y0098174D01*
X0268234Y0096008D01*
X0264419Y0096008D01*
X0263969Y0095557D01*
X0263835Y0095790D01*
X0263537Y0096088D01*
X0263172Y0096299D01*
X0262765Y0096408D01*
X0260595Y0096408D01*
X0260595Y0092455D01*
X0259395Y0092455D01*
X0259395Y0091255D01*
X0255836Y0091255D01*
X0255836Y0088692D01*
X0255945Y0088285D01*
X0256156Y0087920D01*
X0256454Y0087622D01*
X0256819Y0087411D01*
X0257226Y0087302D01*
X0259395Y0087302D01*
X0259395Y0091255D01*
X0260595Y0091255D01*
X0260595Y0087302D01*
X0262765Y0087302D01*
X0263172Y0087411D01*
X0263537Y0087622D01*
X0263835Y0087920D01*
X0263969Y0088153D01*
X0264419Y0087702D01*
X0270532Y0087702D01*
X0271235Y0088405D01*
X0271235Y0092220D01*
X0274159Y0095145D01*
X0274835Y0095820D01*
X0275200Y0096702D01*
X0275200Y0098767D01*
X0275489Y0099465D01*
X0275489Y0100535D01*
X0275080Y0101523D01*
X0274323Y0102280D01*
X0275249Y0101115D02*
X0295593Y0101115D01*
X0294395Y0099917D02*
X0275489Y0099917D01*
X0275200Y0098718D02*
X0293196Y0098718D01*
X0291998Y0097520D02*
X0275200Y0097520D01*
X0275042Y0096321D02*
X0290799Y0096321D01*
X0289601Y0095123D02*
X0274137Y0095123D01*
X0272939Y0093924D02*
X0288402Y0093924D01*
X0287204Y0092726D02*
X0271740Y0092726D01*
X0271235Y0091527D02*
X0286005Y0091527D01*
X0284807Y0090329D02*
X0271235Y0090329D01*
X0271235Y0089130D02*
X0283608Y0089130D01*
X0282410Y0087932D02*
X0270761Y0087932D01*
X0264190Y0087932D02*
X0263841Y0087932D01*
X0260595Y0087932D02*
X0259395Y0087932D01*
X0259395Y0089130D02*
X0260595Y0089130D01*
X0260595Y0090329D02*
X0259395Y0090329D01*
X0259395Y0091527D02*
X0228887Y0091527D01*
X0228918Y0091644D02*
X0228918Y0094208D01*
X0224965Y0094208D01*
X0224965Y0090255D01*
X0227529Y0090255D01*
X0227936Y0090364D01*
X0228301Y0090575D01*
X0228598Y0090873D01*
X0228809Y0091238D01*
X0228918Y0091644D01*
X0228918Y0092726D02*
X0255836Y0092726D01*
X0255836Y0092455D02*
X0259395Y0092455D01*
X0259395Y0096408D01*
X0257226Y0096408D01*
X0256819Y0096299D01*
X0256454Y0096088D01*
X0256156Y0095790D01*
X0255945Y0095425D01*
X0255836Y0095019D01*
X0255836Y0092455D01*
X0255836Y0093924D02*
X0228918Y0093924D01*
X0228918Y0095408D02*
X0228918Y0097971D01*
X0228809Y0098378D01*
X0228598Y0098743D01*
X0228301Y0099041D01*
X0227936Y0099252D01*
X0227529Y0099361D01*
X0224965Y0099361D01*
X0224965Y0095408D01*
X0223765Y0095408D01*
X0223765Y0094208D01*
X0219813Y0094208D01*
X0219813Y0091644D01*
X0219922Y0091238D01*
X0220132Y0090873D01*
X0220430Y0090575D01*
X0220795Y0090364D01*
X0221202Y0090255D01*
X0223765Y0090255D01*
X0223765Y0094208D01*
X0224965Y0094208D01*
X0224965Y0095408D01*
X0228918Y0095408D01*
X0228918Y0096321D02*
X0256902Y0096321D01*
X0255864Y0095123D02*
X0224965Y0095123D01*
X0224365Y0094808D02*
X0236408Y0094808D01*
X0244000Y0102400D01*
X0244000Y0108725D01*
X0243986Y0108675D02*
X0243986Y0108775D01*
X0249535Y0108775D01*
X0249535Y0110236D01*
X0249426Y0110643D01*
X0249216Y0111008D01*
X0248918Y0111305D01*
X0248661Y0111454D01*
X0249135Y0111928D01*
X0249135Y0115522D01*
X0248432Y0116225D01*
X0246335Y0116225D01*
X0248432Y0116225D01*
X0249135Y0116928D01*
X0249135Y0120522D01*
X0248432Y0121225D01*
X0246335Y0121225D01*
X0248432Y0121225D01*
X0249135Y0121928D01*
X0249135Y0125522D01*
X0248432Y0126225D01*
X0246335Y0126225D01*
X0248432Y0126225D01*
X0249135Y0126928D01*
X0249135Y0130522D01*
X0248432Y0131225D01*
X0239438Y0131225D01*
X0238735Y0130522D01*
X0238735Y0126928D01*
X0239438Y0126225D01*
X0239013Y0125800D01*
X0238803Y0125800D01*
X0238323Y0126280D01*
X0237335Y0126689D01*
X0236265Y0126689D01*
X0235277Y0126280D01*
X0234520Y0125523D01*
X0234111Y0124535D01*
X0234111Y0123465D01*
X0234520Y0122477D01*
X0235277Y0121720D01*
X0236265Y0121311D01*
X0237335Y0121311D01*
X0238323Y0121720D01*
X0238735Y0122133D01*
X0238735Y0121928D01*
X0239438Y0121225D01*
X0238735Y0120522D01*
X0238735Y0116928D01*
X0239438Y0116225D01*
X0238735Y0115522D01*
X0238735Y0111928D01*
X0239210Y0111454D01*
X0238953Y0111305D01*
X0238655Y0111008D01*
X0238444Y0110643D01*
X0238335Y0110236D01*
X0238335Y0108775D01*
X0243885Y0108775D01*
X0243885Y0108675D01*
X0238335Y0108675D01*
X0238335Y0107215D01*
X0238444Y0106808D01*
X0238655Y0106443D01*
X0238953Y0106145D01*
X0239318Y0105934D01*
X0239725Y0105825D01*
X0243885Y0105825D01*
X0243885Y0108675D01*
X0243985Y0108675D01*
X0243985Y0105825D01*
X0248146Y0105825D01*
X0248553Y0105934D01*
X0248918Y0106145D01*
X0249216Y0106443D01*
X0249426Y0106808D01*
X0249535Y0107215D01*
X0249535Y0108675D01*
X0243986Y0108675D01*
X0243985Y0108306D02*
X0243885Y0108306D01*
X0243885Y0107108D02*
X0243985Y0107108D01*
X0243985Y0105909D02*
X0243885Y0105909D01*
X0248460Y0105909D02*
X0300387Y0105909D01*
X0299189Y0104711D02*
X0228091Y0104711D01*
X0227815Y0104435D02*
X0228518Y0105138D01*
X0228518Y0112037D01*
X0227815Y0112740D01*
X0226165Y0112740D01*
X0226165Y0113883D01*
X0228012Y0113883D01*
X0228715Y0114586D01*
X0228715Y0120699D01*
X0228031Y0121383D01*
X0228715Y0122067D01*
X0228715Y0128179D01*
X0228012Y0128882D01*
X0223152Y0128882D01*
X0210918Y0141115D01*
X0211480Y0141677D01*
X0211889Y0142665D01*
X0211889Y0143735D01*
X0211480Y0144723D01*
X0210723Y0145480D01*
X0209735Y0145889D01*
X0209586Y0145889D01*
X0209995Y0146298D01*
X0209995Y0148395D01*
X0214873Y0148395D01*
X0215755Y0148761D01*
X0226159Y0159165D01*
X0226835Y0159841D01*
X0227200Y0160723D01*
X0227200Y0163096D01*
X0227815Y0163096D01*
X0228518Y0163799D01*
X0228518Y0164455D01*
X0230055Y0164455D01*
X0230055Y0163799D01*
X0230758Y0163096D01*
X0237658Y0163096D01*
X0238361Y0163799D01*
X0238361Y0164455D01*
X0240533Y0164455D01*
X0241415Y0164820D01*
X0243794Y0167200D01*
X0249617Y0167200D01*
X0249617Y0164772D01*
X0250320Y0164069D01*
X0258401Y0164069D01*
X0259104Y0164772D01*
X0259104Y0174428D01*
X0258401Y0175131D01*
X0250320Y0175131D01*
X0249617Y0174428D01*
X0249617Y0172000D01*
X0242323Y0172000D01*
X0241441Y0171635D01*
X0240765Y0170959D01*
X0239061Y0169255D01*
X0238361Y0169255D01*
X0238361Y0169911D01*
X0237910Y0170362D01*
X0238143Y0170496D01*
X0238441Y0170794D01*
X0238652Y0171159D01*
X0238761Y0171566D01*
X0238761Y0173735D01*
X0234808Y0173735D01*
X0234808Y0174935D01*
X0238761Y0174935D01*
X0238761Y0177105D01*
X0238652Y0177512D01*
X0238441Y0177877D01*
X0238143Y0178175D01*
X0237778Y0178385D01*
X0237371Y0178494D01*
X0234808Y0178494D01*
X0234808Y0174935D01*
X0233608Y0174935D01*
X0233608Y0173735D01*
X0229655Y0173735D01*
X0229655Y0171566D01*
X0229764Y0171159D01*
X0229975Y0170794D01*
X0230273Y0170496D01*
X0230506Y0170362D01*
X0230055Y0169911D01*
X0230055Y0169255D01*
X0228518Y0169255D01*
X0228518Y0169911D01*
X0228068Y0170362D01*
X0228301Y0170496D01*
X0228598Y0170794D01*
X0228809Y0171159D01*
X0228918Y0171566D01*
X0228918Y0173735D01*
X0224965Y0173735D01*
X0224965Y0174935D01*
X0228918Y0174935D01*
X0228918Y0177105D01*
X0228809Y0177512D01*
X0228598Y0177877D01*
X0228301Y0178175D01*
X0227936Y0178385D01*
X0227529Y0178494D01*
X0224965Y0178494D01*
X0224965Y0174935D01*
X0223765Y0174935D01*
X0223765Y0173735D01*
X0219813Y0173735D01*
X0219813Y0171566D01*
X0219922Y0171159D01*
X0220132Y0170794D01*
X0220430Y0170496D01*
X0220663Y0170362D01*
X0220213Y0169911D01*
X0220213Y0163799D01*
X0220916Y0163096D01*
X0222400Y0163096D01*
X0222400Y0162194D01*
X0213401Y0153195D01*
X0209995Y0153195D01*
X0209995Y0155292D01*
X0209292Y0155995D01*
X0205698Y0155995D01*
X0205224Y0155521D01*
X0205076Y0155778D01*
X0204778Y0156076D01*
X0204413Y0156286D01*
X0204006Y0156395D01*
X0202545Y0156395D01*
X0202545Y0150845D01*
X0202445Y0150845D01*
X0202445Y0156395D01*
X0200985Y0156395D01*
X0200578Y0156286D01*
X0200213Y0156076D01*
X0199915Y0155778D01*
X0199767Y0155521D01*
X0199295Y0155992D01*
X0199295Y0160450D01*
X0197489Y0162257D01*
X0197489Y0162935D01*
X0197080Y0163923D01*
X0196323Y0164680D01*
X0195335Y0165089D01*
X0194265Y0165089D01*
X0193277Y0164680D01*
X0192520Y0163923D01*
X0192111Y0162935D01*
X0192111Y0161865D01*
X0192520Y0160877D01*
X0193277Y0160120D01*
X0194265Y0159711D01*
X0194943Y0159711D01*
X0195695Y0158959D01*
X0195695Y0155992D01*
X0194995Y0155292D01*
X0194295Y0155992D01*
X0194295Y0157050D01*
X0189089Y0162257D01*
X0189089Y0162935D01*
X0188680Y0163923D01*
X0187923Y0164680D01*
X0186935Y0165089D01*
X0185865Y0165089D01*
X0184877Y0164680D01*
X0184120Y0163923D01*
X0183711Y0162935D01*
X0183711Y0161865D01*
X0184120Y0160877D01*
X0184877Y0160120D01*
X0185865Y0159711D01*
X0186543Y0159711D01*
X0190479Y0155776D01*
X0189995Y0155292D01*
X0189292Y0155995D01*
X0185698Y0155995D01*
X0184995Y0155292D01*
X0184292Y0155995D01*
X0180698Y0155995D01*
X0179995Y0155292D01*
X0179800Y0155488D01*
X0179800Y0165197D01*
X0180280Y0165677D01*
X0180689Y0166665D01*
X0180689Y0167735D01*
X0180280Y0168723D01*
X0179523Y0169480D01*
X0178535Y0169889D01*
X0177465Y0169889D01*
X0176477Y0169480D01*
X0175720Y0168723D01*
X0175311Y0167735D01*
X0175311Y0166665D01*
X0175720Y0165677D01*
X0176200Y0165197D01*
X0176200Y0155995D01*
X0175698Y0155995D01*
X0174995Y0155292D01*
X0174292Y0155995D01*
X0173800Y0155995D01*
X0173800Y0161597D01*
X0174280Y0162077D01*
X0174689Y0163065D01*
X0174689Y0164135D01*
X0174280Y0165123D01*
X0173523Y0165880D01*
X0172535Y0166289D01*
X0171465Y0166289D01*
X0170477Y0165880D01*
X0169720Y0165123D01*
X0169311Y0164135D01*
X0169311Y0163065D01*
X0169720Y0162077D01*
X0170200Y0161597D01*
X0170200Y0155497D01*
X0169995Y0155292D01*
X0169292Y0155995D01*
X0165698Y0155995D01*
X0164995Y0155292D01*
X0164995Y0146298D01*
X0165695Y0145598D01*
X0165695Y0141841D01*
X0164054Y0140200D01*
X0163000Y0139146D01*
X0163000Y0136262D01*
X0162935Y0136289D01*
X0161865Y0136289D01*
X0160877Y0135880D01*
X0160120Y0135123D01*
X0159711Y0134135D01*
X0159711Y0133065D01*
X0160120Y0132077D01*
X0160877Y0131320D01*
X0161865Y0130911D01*
X0162543Y0130911D01*
X0163000Y0130454D01*
X0163000Y0128882D01*
X0161664Y0128882D01*
X0160961Y0128179D01*
X0160961Y0122067D01*
X0161645Y0121383D01*
X0160961Y0120699D01*
X0160961Y0114586D01*
X0161664Y0113883D01*
X0163510Y0113883D01*
X0163510Y0112740D01*
X0161860Y0112740D01*
X0161157Y0112037D01*
X0161157Y0105138D01*
X0161860Y0104435D01*
X0168760Y0104435D01*
X0169463Y0105138D01*
X0169463Y0112037D01*
X0168760Y0112740D01*
X0167110Y0112740D01*
X0167110Y0113883D01*
X0168957Y0113883D01*
X0169660Y0114586D01*
X0169660Y0120699D01*
X0168976Y0121383D01*
X0169660Y0122067D01*
X0169660Y0128179D01*
X0168957Y0128882D01*
X0166600Y0128882D01*
X0166600Y0137654D01*
X0169295Y0140350D01*
X0169295Y0145598D01*
X0169995Y0146298D01*
X0169995Y0155292D01*
X0169995Y0146298D01*
X0170695Y0145598D01*
X0170695Y0136289D01*
X0170265Y0136289D01*
X0169277Y0135880D01*
X0168520Y0135123D01*
X0168111Y0134135D01*
X0168111Y0133065D01*
X0168520Y0132077D01*
X0169277Y0131320D01*
X0170200Y0130938D01*
X0170200Y0127530D01*
X0170803Y0126927D01*
X0170803Y0122067D01*
X0171487Y0121383D01*
X0170803Y0120699D01*
X0170803Y0114586D01*
X0171506Y0113883D01*
X0173353Y0113883D01*
X0173353Y0112740D01*
X0171703Y0112740D01*
X0171000Y0112037D01*
X0171000Y0105138D01*
X0171703Y0104435D01*
X0178603Y0104435D01*
X0179305Y0105138D01*
X0179305Y0112037D01*
X0178603Y0112740D01*
X0176953Y0112740D01*
X0176953Y0113883D01*
X0178799Y0113883D01*
X0179502Y0114586D01*
X0179502Y0120699D01*
X0178818Y0121383D01*
X0179502Y0122067D01*
X0179502Y0128179D01*
X0178799Y0128882D01*
X0173939Y0128882D01*
X0173800Y0129021D01*
X0173800Y0133146D01*
X0173489Y0133457D01*
X0173489Y0133743D01*
X0174295Y0134550D01*
X0174295Y0145598D01*
X0174995Y0146298D01*
X0174995Y0155292D01*
X0174995Y0146298D01*
X0175695Y0145598D01*
X0175695Y0137463D01*
X0175311Y0136535D01*
X0175311Y0135465D01*
X0175720Y0134477D01*
X0176477Y0133720D01*
X0177465Y0133311D01*
X0178535Y0133311D01*
X0179523Y0133720D01*
X0180280Y0134477D01*
X0180367Y0134688D01*
X0183195Y0131859D01*
X0183195Y0128882D01*
X0181349Y0128882D01*
X0180646Y0128179D01*
X0180646Y0122067D01*
X0181330Y0121383D01*
X0180646Y0120699D01*
X0180646Y0114586D01*
X0181349Y0113883D01*
X0183195Y0113883D01*
X0183195Y0112740D01*
X0181545Y0112740D01*
X0180843Y0112037D01*
X0180843Y0105138D01*
X0181545Y0104435D01*
X0188445Y0104435D01*
X0189148Y0105138D01*
X0189148Y0112037D01*
X0188445Y0112740D01*
X0186795Y0112740D01*
X0186795Y0113883D01*
X0188642Y0113883D01*
X0189345Y0114586D01*
X0189345Y0120699D01*
X0188661Y0121383D01*
X0189345Y0122067D01*
X0189345Y0128179D01*
X0188642Y0128882D01*
X0186795Y0128882D01*
X0186795Y0133350D01*
X0185741Y0134405D01*
X0179295Y0140850D01*
X0179295Y0145598D01*
X0179995Y0146298D01*
X0179995Y0155292D01*
X0179995Y0146298D01*
X0180695Y0145598D01*
X0180695Y0140359D01*
X0181750Y0139305D01*
X0185654Y0135400D01*
X0186854Y0135400D01*
X0188511Y0133743D01*
X0188511Y0133065D01*
X0188920Y0132077D01*
X0189677Y0131320D01*
X0190665Y0130911D01*
X0191343Y0130911D01*
X0191800Y0130454D01*
X0191800Y0128882D01*
X0191191Y0128882D01*
X0190488Y0128179D01*
X0190488Y0122067D01*
X0191172Y0121383D01*
X0190488Y0120699D01*
X0190488Y0114586D01*
X0191191Y0113883D01*
X0193038Y0113883D01*
X0193038Y0112740D01*
X0191388Y0112740D01*
X0190685Y0112037D01*
X0190685Y0105138D01*
X0191388Y0104435D01*
X0198288Y0104435D01*
X0198991Y0105138D01*
X0198991Y0112037D01*
X0198288Y0112740D01*
X0196638Y0112740D01*
X0196638Y0113883D01*
X0198484Y0113883D01*
X0199187Y0114586D01*
X0199187Y0120699D01*
X0198503Y0121383D01*
X0199187Y0122067D01*
X0199187Y0128070D01*
X0200331Y0126927D01*
X0200331Y0122067D01*
X0201015Y0121383D01*
X0200331Y0120699D01*
X0200331Y0114586D01*
X0201034Y0113883D01*
X0202880Y0113883D01*
X0202880Y0112740D01*
X0201230Y0112740D01*
X0200528Y0112037D01*
X0200528Y0105138D01*
X0201230Y0104435D01*
X0208130Y0104435D01*
X0208833Y0105138D01*
X0208833Y0112037D01*
X0208130Y0112740D01*
X0206480Y0112740D01*
X0206480Y0113883D01*
X0208327Y0113883D01*
X0209030Y0114586D01*
X0209030Y0120699D01*
X0208346Y0121383D01*
X0209030Y0122067D01*
X0209030Y0128070D01*
X0210173Y0126927D01*
X0210173Y0122067D01*
X0210857Y0121383D01*
X0210173Y0120699D01*
X0210173Y0114586D01*
X0210876Y0113883D01*
X0212723Y0113883D01*
X0212723Y0112740D01*
X0211073Y0112740D01*
X0210370Y0112037D01*
X0210370Y0105138D01*
X0211073Y0104435D01*
X0217973Y0104435D01*
X0218676Y0105138D01*
X0218676Y0112037D01*
X0217973Y0112740D01*
X0216323Y0112740D01*
X0216323Y0113883D01*
X0218169Y0113883D01*
X0218872Y0114586D01*
X0218872Y0120699D01*
X0218188Y0121383D01*
X0218872Y0122067D01*
X0218872Y0128070D01*
X0220016Y0126927D01*
X0220016Y0122067D01*
X0220700Y0121383D01*
X0220016Y0120699D01*
X0220016Y0114586D01*
X0220719Y0113883D01*
X0222565Y0113883D01*
X0222565Y0112740D01*
X0220916Y0112740D01*
X0220213Y0112037D01*
X0220213Y0105138D01*
X0220916Y0104435D01*
X0227815Y0104435D01*
X0228518Y0105909D02*
X0239411Y0105909D01*
X0238364Y0107108D02*
X0228518Y0107108D01*
X0228518Y0108306D02*
X0238335Y0108306D01*
X0238335Y0109505D02*
X0228518Y0109505D01*
X0228518Y0110703D02*
X0238479Y0110703D01*
X0238762Y0111902D02*
X0228518Y0111902D01*
X0228427Y0114299D02*
X0238735Y0114299D01*
X0238735Y0115497D02*
X0228715Y0115497D01*
X0228715Y0116696D02*
X0238968Y0116696D01*
X0239438Y0116225D02*
X0241535Y0116225D01*
X0239438Y0116225D01*
X0238735Y0117894D02*
X0228715Y0117894D01*
X0228715Y0119093D02*
X0238735Y0119093D01*
X0238735Y0120291D02*
X0228715Y0120291D01*
X0228138Y0121490D02*
X0235833Y0121490D01*
X0234433Y0122688D02*
X0228715Y0122688D01*
X0228715Y0123887D02*
X0234111Y0123887D01*
X0234339Y0125085D02*
X0228715Y0125085D01*
X0228715Y0126284D02*
X0235287Y0126284D01*
X0236800Y0124000D02*
X0243661Y0124000D01*
X0243935Y0123725D01*
X0241535Y0121225D02*
X0241535Y0121225D01*
X0239438Y0121225D01*
X0241535Y0121225D01*
X0239174Y0121490D02*
X0237767Y0121490D01*
X0238313Y0126284D02*
X0239380Y0126284D01*
X0239438Y0126225D02*
X0241535Y0126225D01*
X0241535Y0126225D01*
X0239438Y0126225D01*
X0238735Y0127482D02*
X0228715Y0127482D01*
X0228213Y0128681D02*
X0238735Y0128681D01*
X0238735Y0129879D02*
X0222154Y0129879D01*
X0220956Y0131078D02*
X0235862Y0131078D01*
X0236265Y0130911D02*
X0237335Y0130911D01*
X0238323Y0131320D01*
X0238803Y0131800D01*
X0238864Y0131800D01*
X0239438Y0131225D01*
X0248432Y0131225D01*
X0249135Y0131928D01*
X0249135Y0135522D01*
X0248432Y0136225D01*
X0246335Y0136225D01*
X0248432Y0136225D01*
X0249135Y0136928D01*
X0249135Y0140522D01*
X0248432Y0141225D01*
X0246335Y0141225D01*
X0248432Y0141225D01*
X0249135Y0141928D01*
X0249135Y0145522D01*
X0248432Y0146225D01*
X0246335Y0146225D01*
X0248432Y0146225D01*
X0249135Y0146928D01*
X0249135Y0150522D01*
X0248661Y0150997D01*
X0248918Y0151145D01*
X0249216Y0151443D01*
X0249426Y0151808D01*
X0249535Y0152215D01*
X0249535Y0153675D01*
X0243986Y0153675D01*
X0243986Y0153775D01*
X0249535Y0153775D01*
X0249535Y0155236D01*
X0249426Y0155643D01*
X0249216Y0156008D01*
X0248918Y0156305D01*
X0248553Y0156516D01*
X0248146Y0156625D01*
X0243985Y0156625D01*
X0243985Y0153775D01*
X0243885Y0153775D01*
X0243885Y0153675D01*
X0238335Y0153675D01*
X0238335Y0152215D01*
X0238444Y0151808D01*
X0238655Y0151443D01*
X0238953Y0151145D01*
X0239210Y0150997D01*
X0238735Y0150522D01*
X0238735Y0146928D01*
X0239438Y0146225D01*
X0238735Y0145522D01*
X0238735Y0141928D01*
X0239438Y0141225D01*
X0238735Y0140522D01*
X0238735Y0136928D01*
X0239438Y0136225D01*
X0238735Y0135522D01*
X0238735Y0135467D01*
X0238323Y0135880D01*
X0237335Y0136289D01*
X0236265Y0136289D01*
X0235277Y0135880D01*
X0234520Y0135123D01*
X0234111Y0134135D01*
X0234111Y0133065D01*
X0234520Y0132077D01*
X0235277Y0131320D01*
X0236265Y0130911D01*
X0237738Y0131078D02*
X0239291Y0131078D01*
X0236800Y0133600D02*
X0243810Y0133600D01*
X0243935Y0133725D01*
X0241535Y0136225D02*
X0239438Y0136225D01*
X0241535Y0136225D01*
X0241535Y0136225D01*
X0239085Y0135872D02*
X0238331Y0135872D01*
X0238735Y0137070D02*
X0214963Y0137070D01*
X0216162Y0135872D02*
X0235269Y0135872D01*
X0234334Y0134673D02*
X0217360Y0134673D01*
X0218559Y0133475D02*
X0234111Y0133475D01*
X0234438Y0132276D02*
X0219757Y0132276D01*
X0217063Y0129879D02*
X0212312Y0129879D01*
X0213309Y0128882D02*
X0203712Y0138479D01*
X0203712Y0139158D01*
X0203302Y0140146D01*
X0202546Y0140902D01*
X0201558Y0141312D01*
X0200879Y0141312D01*
X0200791Y0141400D01*
X0196746Y0141400D01*
X0194295Y0143850D01*
X0194295Y0145598D01*
X0194995Y0146298D01*
X0194995Y0155292D01*
X0194995Y0146298D01*
X0195400Y0145893D01*
X0195400Y0144854D01*
X0196454Y0143800D01*
X0197800Y0142454D01*
X0198854Y0141400D01*
X0205543Y0141400D01*
X0218061Y0128882D01*
X0213309Y0128882D01*
X0211113Y0131078D02*
X0215865Y0131078D01*
X0214666Y0132276D02*
X0209915Y0132276D01*
X0208716Y0133475D02*
X0213468Y0133475D01*
X0212269Y0134673D02*
X0207518Y0134673D01*
X0206319Y0135872D02*
X0211071Y0135872D01*
X0209872Y0137070D02*
X0205121Y0137070D01*
X0203922Y0138269D02*
X0208674Y0138269D01*
X0207475Y0139468D02*
X0203583Y0139468D01*
X0202782Y0140666D02*
X0206277Y0140666D01*
X0206288Y0143200D02*
X0209200Y0143200D01*
X0211671Y0144262D02*
X0238735Y0144262D01*
X0238735Y0145460D02*
X0210743Y0145460D01*
X0209995Y0146659D02*
X0239005Y0146659D01*
X0239438Y0146225D02*
X0241535Y0146225D01*
X0239438Y0146225D01*
X0238735Y0147857D02*
X0209995Y0147857D01*
X0207956Y0145595D02*
X0205698Y0145595D01*
X0205224Y0146070D01*
X0205076Y0145813D01*
X0204778Y0145515D01*
X0204413Y0145304D01*
X0204006Y0145195D01*
X0202545Y0145195D01*
X0202545Y0150745D01*
X0202445Y0150745D01*
X0202445Y0145195D01*
X0200985Y0145195D01*
X0200578Y0145304D01*
X0200213Y0145515D01*
X0199915Y0145813D01*
X0199767Y0146070D01*
X0199521Y0145824D01*
X0200346Y0145000D01*
X0205543Y0145000D01*
X0207197Y0145000D01*
X0207677Y0145480D01*
X0207956Y0145595D01*
X0207657Y0145460D02*
X0204683Y0145460D01*
X0202545Y0145460D02*
X0202445Y0145460D01*
X0202445Y0146659D02*
X0202545Y0146659D01*
X0202545Y0147857D02*
X0202445Y0147857D01*
X0202445Y0149056D02*
X0202545Y0149056D01*
X0202545Y0150254D02*
X0202445Y0150254D01*
X0202445Y0151453D02*
X0202545Y0151453D01*
X0202545Y0152651D02*
X0202445Y0152651D01*
X0202445Y0153850D02*
X0202545Y0153850D01*
X0202545Y0155048D02*
X0202445Y0155048D01*
X0202445Y0156247D02*
X0202545Y0156247D01*
X0204481Y0156247D02*
X0216453Y0156247D01*
X0217651Y0157445D02*
X0199295Y0157445D01*
X0199295Y0156247D02*
X0200509Y0156247D01*
X0199295Y0158644D02*
X0218850Y0158644D01*
X0220048Y0159842D02*
X0199295Y0159842D01*
X0198705Y0161041D02*
X0221247Y0161041D01*
X0222400Y0162239D02*
X0197506Y0162239D01*
X0197281Y0163438D02*
X0220574Y0163438D01*
X0220213Y0164636D02*
X0196367Y0164636D01*
X0194800Y0162400D02*
X0197495Y0159705D01*
X0197495Y0150795D01*
X0197200Y0150500D01*
X0197200Y0145600D01*
X0199600Y0143200D01*
X0206288Y0143200D01*
X0224365Y0125123D01*
X0220593Y0121490D02*
X0218296Y0121490D01*
X0218872Y0122688D02*
X0220016Y0122688D01*
X0220016Y0123887D02*
X0218872Y0123887D01*
X0218872Y0125085D02*
X0220016Y0125085D01*
X0220016Y0126284D02*
X0218872Y0126284D01*
X0218872Y0127482D02*
X0219460Y0127482D01*
X0214523Y0125123D02*
X0201023Y0138623D01*
X0200046Y0139600D01*
X0196000Y0139600D01*
X0192495Y0143105D01*
X0192495Y0150795D01*
X0192495Y0156305D01*
X0186400Y0162400D01*
X0183919Y0163438D02*
X0179800Y0163438D01*
X0179800Y0164636D02*
X0184833Y0164636D01*
X0183711Y0162239D02*
X0179800Y0162239D01*
X0179800Y0161041D02*
X0184052Y0161041D01*
X0185548Y0159842D02*
X0179800Y0159842D01*
X0179800Y0158644D02*
X0187611Y0158644D01*
X0188809Y0157445D02*
X0179800Y0157445D01*
X0179800Y0156247D02*
X0190008Y0156247D01*
X0189995Y0155292D02*
X0189995Y0146298D01*
X0189295Y0145598D01*
X0189295Y0143053D01*
X0198047Y0134302D01*
X0198899Y0134302D01*
X0199277Y0134680D01*
X0200265Y0135089D01*
X0201335Y0135089D01*
X0202323Y0134680D01*
X0203080Y0133923D01*
X0203489Y0132935D01*
X0203489Y0131865D01*
X0203080Y0130877D01*
X0202323Y0130120D01*
X0202256Y0130093D01*
X0203467Y0128882D01*
X0208218Y0128882D01*
X0201166Y0135934D01*
X0200488Y0135934D01*
X0199500Y0136343D01*
X0198743Y0137100D01*
X0198453Y0137800D01*
X0195254Y0137800D01*
X0191750Y0141305D01*
X0190695Y0142359D01*
X0190695Y0145598D01*
X0189995Y0146298D01*
X0189995Y0155292D01*
X0189995Y0155048D02*
X0189995Y0155048D01*
X0189995Y0153850D02*
X0189995Y0153850D01*
X0189995Y0152651D02*
X0189995Y0152651D01*
X0189995Y0151453D02*
X0189995Y0151453D01*
X0189995Y0150254D02*
X0189995Y0150254D01*
X0189995Y0149056D02*
X0189995Y0149056D01*
X0189995Y0147857D02*
X0189995Y0147857D01*
X0189995Y0146659D02*
X0189995Y0146659D01*
X0189295Y0145460D02*
X0190695Y0145460D01*
X0190695Y0144262D02*
X0189295Y0144262D01*
X0189295Y0143063D02*
X0190695Y0143063D01*
X0190484Y0141865D02*
X0191190Y0141865D01*
X0191683Y0140666D02*
X0192388Y0140666D01*
X0192881Y0139468D02*
X0193587Y0139468D01*
X0194080Y0138269D02*
X0194785Y0138269D01*
X0195278Y0137070D02*
X0198772Y0137070D01*
X0199271Y0134673D02*
X0197675Y0134673D01*
X0196477Y0135872D02*
X0201228Y0135872D01*
X0202329Y0134673D02*
X0202427Y0134673D01*
X0203265Y0133475D02*
X0203625Y0133475D01*
X0203489Y0132276D02*
X0204824Y0132276D01*
X0206022Y0131078D02*
X0203163Y0131078D01*
X0202469Y0129879D02*
X0207221Y0129879D01*
X0209030Y0127482D02*
X0209618Y0127482D01*
X0210173Y0126284D02*
X0209030Y0126284D01*
X0209030Y0125085D02*
X0210173Y0125085D01*
X0210173Y0123887D02*
X0209030Y0123887D01*
X0209030Y0122688D02*
X0210173Y0122688D01*
X0210750Y0121490D02*
X0208453Y0121490D01*
X0209030Y0120291D02*
X0210173Y0120291D01*
X0210173Y0119093D02*
X0209030Y0119093D01*
X0209030Y0117894D02*
X0210173Y0117894D01*
X0210173Y0116696D02*
X0209030Y0116696D01*
X0209030Y0115497D02*
X0210173Y0115497D01*
X0210461Y0114299D02*
X0208742Y0114299D01*
X0208833Y0111902D02*
X0210370Y0111902D01*
X0210370Y0110703D02*
X0208833Y0110703D01*
X0208833Y0109505D02*
X0210370Y0109505D01*
X0210370Y0108306D02*
X0208833Y0108306D01*
X0208833Y0107108D02*
X0210370Y0107108D01*
X0210370Y0105909D02*
X0208833Y0105909D01*
X0208406Y0104711D02*
X0210797Y0104711D01*
X0214523Y0108587D02*
X0214523Y0117643D01*
X0218872Y0117894D02*
X0220016Y0117894D01*
X0220016Y0116696D02*
X0218872Y0116696D01*
X0218872Y0115497D02*
X0220016Y0115497D01*
X0220303Y0114299D02*
X0218585Y0114299D01*
X0218676Y0111902D02*
X0220213Y0111902D01*
X0220213Y0110703D02*
X0218676Y0110703D01*
X0218676Y0109505D02*
X0220213Y0109505D01*
X0220213Y0108306D02*
X0218676Y0108306D01*
X0218676Y0107108D02*
X0220213Y0107108D01*
X0220213Y0105909D02*
X0218676Y0105909D01*
X0218249Y0104711D02*
X0220640Y0104711D01*
X0224365Y0108587D02*
X0224365Y0117643D01*
X0222565Y0113100D02*
X0216323Y0113100D01*
X0212723Y0113100D02*
X0206480Y0113100D01*
X0202880Y0113100D02*
X0196638Y0113100D01*
X0198900Y0114299D02*
X0200618Y0114299D01*
X0200331Y0115497D02*
X0199187Y0115497D01*
X0199187Y0116696D02*
X0200331Y0116696D01*
X0200331Y0117894D02*
X0199187Y0117894D01*
X0199187Y0119093D02*
X0200331Y0119093D01*
X0200331Y0120291D02*
X0199187Y0120291D01*
X0198611Y0121490D02*
X0200908Y0121490D01*
X0200331Y0122688D02*
X0199187Y0122688D01*
X0199187Y0123887D02*
X0200331Y0123887D01*
X0200331Y0125085D02*
X0199187Y0125085D01*
X0199187Y0126284D02*
X0200331Y0126284D01*
X0199775Y0127482D02*
X0199187Y0127482D01*
X0198400Y0131403D02*
X0204680Y0125123D01*
X0197302Y0132502D01*
X0200698Y0132502D01*
X0200800Y0132400D01*
X0197302Y0132502D02*
X0187495Y0142308D01*
X0187495Y0150795D01*
X0184995Y0150254D02*
X0184995Y0150254D01*
X0184995Y0149056D02*
X0184995Y0149056D01*
X0184995Y0147857D02*
X0184995Y0147857D01*
X0184995Y0146659D02*
X0184995Y0146659D01*
X0184995Y0146298D02*
X0184995Y0155292D01*
X0184995Y0146298D01*
X0184295Y0145598D01*
X0184295Y0141850D01*
X0187146Y0139000D01*
X0188258Y0139000D01*
X0186750Y0140508D01*
X0185695Y0141562D01*
X0185695Y0145598D01*
X0184995Y0146298D01*
X0184295Y0145460D02*
X0185695Y0145460D01*
X0185695Y0144262D02*
X0184295Y0144262D01*
X0184295Y0143063D02*
X0185695Y0143063D01*
X0185695Y0141865D02*
X0184295Y0141865D01*
X0185480Y0140666D02*
X0186592Y0140666D01*
X0186678Y0139468D02*
X0187790Y0139468D01*
X0187600Y0137200D02*
X0186400Y0137200D01*
X0182495Y0141105D01*
X0182495Y0150795D01*
X0179995Y0150254D02*
X0179995Y0150254D01*
X0179995Y0149056D02*
X0179995Y0149056D01*
X0179995Y0147857D02*
X0179995Y0147857D01*
X0179995Y0146659D02*
X0179995Y0146659D01*
X0179295Y0145460D02*
X0180695Y0145460D01*
X0180695Y0144262D02*
X0179295Y0144262D01*
X0179295Y0143063D02*
X0180695Y0143063D01*
X0180695Y0141865D02*
X0179295Y0141865D01*
X0179480Y0140666D02*
X0180695Y0140666D01*
X0180678Y0139468D02*
X0181587Y0139468D01*
X0181877Y0138269D02*
X0182785Y0138269D01*
X0183075Y0137070D02*
X0183984Y0137070D01*
X0184274Y0135872D02*
X0185182Y0135872D01*
X0185472Y0134673D02*
X0187581Y0134673D01*
X0186671Y0133475D02*
X0188511Y0133475D01*
X0188838Y0132276D02*
X0186795Y0132276D01*
X0186795Y0131078D02*
X0190262Y0131078D01*
X0191800Y0129879D02*
X0186795Y0129879D01*
X0188843Y0128681D02*
X0190990Y0128681D01*
X0190488Y0127482D02*
X0189345Y0127482D01*
X0189345Y0126284D02*
X0190488Y0126284D01*
X0190488Y0125085D02*
X0189345Y0125085D01*
X0189345Y0123887D02*
X0190488Y0123887D01*
X0190488Y0122688D02*
X0189345Y0122688D01*
X0188768Y0121490D02*
X0191065Y0121490D01*
X0190488Y0120291D02*
X0189345Y0120291D01*
X0189345Y0119093D02*
X0190488Y0119093D01*
X0190488Y0117894D02*
X0189345Y0117894D01*
X0189345Y0116696D02*
X0190488Y0116696D01*
X0190488Y0115497D02*
X0189345Y0115497D01*
X0189057Y0114299D02*
X0190776Y0114299D01*
X0190685Y0111902D02*
X0189148Y0111902D01*
X0189148Y0110703D02*
X0190685Y0110703D01*
X0190685Y0109505D02*
X0189148Y0109505D01*
X0189148Y0108306D02*
X0190685Y0108306D01*
X0190685Y0107108D02*
X0189148Y0107108D01*
X0189148Y0105909D02*
X0190685Y0105909D01*
X0191112Y0104711D02*
X0188721Y0104711D01*
X0184995Y0108587D02*
X0184995Y0117643D01*
X0180646Y0117894D02*
X0179502Y0117894D01*
X0179502Y0116696D02*
X0180646Y0116696D01*
X0180646Y0115497D02*
X0179502Y0115497D01*
X0179215Y0114299D02*
X0180933Y0114299D01*
X0180843Y0111902D02*
X0179305Y0111902D01*
X0179305Y0110703D02*
X0180843Y0110703D01*
X0180843Y0109505D02*
X0179305Y0109505D01*
X0179305Y0108306D02*
X0180843Y0108306D01*
X0180843Y0107108D02*
X0179305Y0107108D01*
X0179305Y0105909D02*
X0180843Y0105909D01*
X0181269Y0104711D02*
X0178879Y0104711D01*
X0175153Y0108587D02*
X0175153Y0117643D01*
X0170803Y0117894D02*
X0169660Y0117894D01*
X0169660Y0116696D02*
X0170803Y0116696D01*
X0170803Y0115497D02*
X0169660Y0115497D01*
X0169372Y0114299D02*
X0171091Y0114299D01*
X0171000Y0111902D02*
X0169463Y0111902D01*
X0169463Y0110703D02*
X0171000Y0110703D01*
X0171000Y0109505D02*
X0169463Y0109505D01*
X0169463Y0108306D02*
X0171000Y0108306D01*
X0171000Y0107108D02*
X0169463Y0107108D01*
X0169463Y0105909D02*
X0171000Y0105909D01*
X0171427Y0104711D02*
X0169036Y0104711D01*
X0165310Y0108587D02*
X0165310Y0117643D01*
X0160961Y0117894D02*
X0159817Y0117894D01*
X0159817Y0116696D02*
X0160961Y0116696D01*
X0160961Y0115497D02*
X0159817Y0115497D01*
X0159530Y0114299D02*
X0161248Y0114299D01*
X0161157Y0111902D02*
X0159620Y0111902D01*
X0159620Y0110703D02*
X0161157Y0110703D01*
X0161157Y0109505D02*
X0159620Y0109505D01*
X0159620Y0108306D02*
X0161157Y0108306D01*
X0161157Y0107108D02*
X0159620Y0107108D01*
X0159620Y0105909D02*
X0161157Y0105909D01*
X0161584Y0104711D02*
X0159194Y0104711D01*
X0155468Y0108587D02*
X0155468Y0117643D01*
X0159817Y0119093D02*
X0160961Y0119093D01*
X0160961Y0120291D02*
X0159817Y0120291D01*
X0159240Y0121490D02*
X0161538Y0121490D01*
X0160961Y0122688D02*
X0159817Y0122688D01*
X0159817Y0123887D02*
X0160961Y0123887D01*
X0160961Y0125085D02*
X0159817Y0125085D01*
X0159817Y0126284D02*
X0160961Y0126284D01*
X0160961Y0127482D02*
X0159817Y0127482D01*
X0159315Y0128681D02*
X0161463Y0128681D01*
X0163000Y0129879D02*
X0157268Y0129879D01*
X0157268Y0131078D02*
X0161462Y0131078D01*
X0160038Y0132276D02*
X0157268Y0132276D01*
X0157268Y0133475D02*
X0159711Y0133475D01*
X0159934Y0134673D02*
X0157268Y0134673D01*
X0157268Y0135872D02*
X0160869Y0135872D01*
X0163000Y0137070D02*
X0157268Y0137070D01*
X0157268Y0138269D02*
X0163000Y0138269D01*
X0163322Y0139468D02*
X0157268Y0139468D01*
X0157268Y0140666D02*
X0164520Y0140666D01*
X0164054Y0140200D02*
X0164054Y0140200D01*
X0164800Y0138400D02*
X0164800Y0131200D01*
X0162400Y0133600D01*
X0164800Y0131200D02*
X0164800Y0125633D01*
X0165310Y0125123D01*
X0169660Y0125085D02*
X0170803Y0125085D01*
X0170803Y0123887D02*
X0169660Y0123887D01*
X0169660Y0122688D02*
X0170803Y0122688D01*
X0171380Y0121490D02*
X0169083Y0121490D01*
X0169660Y0120291D02*
X0170803Y0120291D01*
X0170803Y0119093D02*
X0169660Y0119093D01*
X0167110Y0113100D02*
X0173353Y0113100D01*
X0176953Y0113100D02*
X0183195Y0113100D01*
X0186795Y0113100D02*
X0193038Y0113100D01*
X0194838Y0108587D02*
X0194838Y0117643D01*
X0198991Y0111902D02*
X0200528Y0111902D01*
X0200528Y0110703D02*
X0198991Y0110703D01*
X0198991Y0109505D02*
X0200528Y0109505D01*
X0200528Y0108306D02*
X0198991Y0108306D01*
X0198991Y0107108D02*
X0200528Y0107108D01*
X0200528Y0105909D02*
X0198991Y0105909D01*
X0198564Y0104711D02*
X0200954Y0104711D01*
X0204680Y0108587D02*
X0204680Y0117643D01*
X0194838Y0125123D02*
X0193600Y0126361D01*
X0193600Y0131200D01*
X0191200Y0133600D01*
X0187600Y0137200D01*
X0185741Y0134405D02*
X0185741Y0134405D01*
X0184995Y0132605D02*
X0177495Y0140105D01*
X0177495Y0150795D01*
X0178000Y0151300D01*
X0178000Y0167200D01*
X0175517Y0168232D02*
X0052100Y0168232D01*
X0052100Y0169430D02*
X0176428Y0169430D01*
X0175311Y0167033D02*
X0052100Y0167033D01*
X0052100Y0165835D02*
X0170432Y0165835D01*
X0169519Y0164636D02*
X0052100Y0164636D01*
X0052100Y0163438D02*
X0169311Y0163438D01*
X0169653Y0162239D02*
X0052100Y0162239D01*
X0052100Y0161041D02*
X0170200Y0161041D01*
X0170200Y0159842D02*
X0052100Y0159842D01*
X0052100Y0158644D02*
X0170200Y0158644D01*
X0170200Y0157445D02*
X0052100Y0157445D01*
X0052100Y0156247D02*
X0121014Y0156247D01*
X0126005Y0156247D02*
X0126105Y0156247D01*
X0126105Y0155048D02*
X0126005Y0155048D01*
X0126005Y0153850D02*
X0126105Y0153850D01*
X0131096Y0156247D02*
X0170200Y0156247D01*
X0169995Y0155048D02*
X0169995Y0155048D01*
X0169995Y0153850D02*
X0169995Y0153850D01*
X0169995Y0152651D02*
X0169995Y0152651D01*
X0169995Y0151453D02*
X0169995Y0151453D01*
X0169995Y0150254D02*
X0169995Y0150254D01*
X0169995Y0149056D02*
X0169995Y0149056D01*
X0169995Y0147857D02*
X0169995Y0147857D01*
X0169995Y0146659D02*
X0169995Y0146659D01*
X0169295Y0145460D02*
X0170695Y0145460D01*
X0170695Y0144262D02*
X0169295Y0144262D01*
X0169295Y0143063D02*
X0170695Y0143063D01*
X0170695Y0141865D02*
X0169295Y0141865D01*
X0169295Y0140666D02*
X0170695Y0140666D01*
X0170695Y0139468D02*
X0168413Y0139468D01*
X0167215Y0138269D02*
X0170695Y0138269D01*
X0170695Y0137070D02*
X0166600Y0137070D01*
X0166600Y0135872D02*
X0169269Y0135872D01*
X0168334Y0134673D02*
X0166600Y0134673D01*
X0166600Y0133475D02*
X0168111Y0133475D01*
X0168438Y0132276D02*
X0166600Y0132276D01*
X0166600Y0131078D02*
X0169862Y0131078D01*
X0170200Y0129879D02*
X0166600Y0129879D01*
X0169158Y0128681D02*
X0170200Y0128681D01*
X0170248Y0127482D02*
X0169660Y0127482D01*
X0169660Y0126284D02*
X0170803Y0126284D01*
X0172000Y0128276D02*
X0172000Y0132400D01*
X0170800Y0133600D01*
X0172495Y0135295D01*
X0172495Y0150795D01*
X0172000Y0151291D01*
X0172000Y0163600D01*
X0174481Y0164636D02*
X0176200Y0164636D01*
X0176200Y0163438D02*
X0174689Y0163438D01*
X0174347Y0162239D02*
X0176200Y0162239D01*
X0176200Y0161041D02*
X0173800Y0161041D01*
X0173800Y0159842D02*
X0176200Y0159842D01*
X0176200Y0158644D02*
X0173800Y0158644D01*
X0173800Y0157445D02*
X0176200Y0157445D01*
X0176200Y0156247D02*
X0173800Y0156247D01*
X0174995Y0155048D02*
X0174995Y0155048D01*
X0174995Y0153850D02*
X0174995Y0153850D01*
X0174995Y0152651D02*
X0174995Y0152651D01*
X0174995Y0151453D02*
X0174995Y0151453D01*
X0174995Y0150254D02*
X0174995Y0150254D01*
X0174995Y0149056D02*
X0174995Y0149056D01*
X0174995Y0147857D02*
X0174995Y0147857D01*
X0174995Y0146659D02*
X0174995Y0146659D01*
X0174295Y0145460D02*
X0175695Y0145460D01*
X0175695Y0144262D02*
X0174295Y0144262D01*
X0174295Y0143063D02*
X0175695Y0143063D01*
X0175695Y0141865D02*
X0174295Y0141865D01*
X0174295Y0140666D02*
X0175695Y0140666D01*
X0175695Y0139468D02*
X0174295Y0139468D01*
X0174295Y0138269D02*
X0175695Y0138269D01*
X0175533Y0137070D02*
X0174295Y0137070D01*
X0174295Y0135872D02*
X0175311Y0135872D01*
X0175639Y0134673D02*
X0174295Y0134673D01*
X0173489Y0133475D02*
X0177069Y0133475D01*
X0178931Y0133475D02*
X0181579Y0133475D01*
X0180381Y0134673D02*
X0180361Y0134673D01*
X0178000Y0136000D02*
X0178000Y0137200D01*
X0177495Y0137705D01*
X0177495Y0150795D01*
X0179995Y0151453D02*
X0179995Y0151453D01*
X0179995Y0152651D02*
X0179995Y0152651D01*
X0179995Y0153850D02*
X0179995Y0153850D01*
X0179995Y0155048D02*
X0179995Y0155048D01*
X0184995Y0155048D02*
X0184995Y0155048D01*
X0184995Y0153850D02*
X0184995Y0153850D01*
X0184995Y0152651D02*
X0184995Y0152651D01*
X0184995Y0151453D02*
X0184995Y0151453D01*
X0192702Y0158644D02*
X0195695Y0158644D01*
X0195695Y0157445D02*
X0193900Y0157445D01*
X0194295Y0156247D02*
X0195695Y0156247D01*
X0194995Y0155048D02*
X0194995Y0155048D01*
X0194995Y0153850D02*
X0194995Y0153850D01*
X0194995Y0152651D02*
X0194995Y0152651D01*
X0194995Y0151453D02*
X0194995Y0151453D01*
X0194995Y0150254D02*
X0194995Y0150254D01*
X0194995Y0149056D02*
X0194995Y0149056D01*
X0194995Y0147857D02*
X0194995Y0147857D01*
X0194995Y0146659D02*
X0194995Y0146659D01*
X0195400Y0145460D02*
X0194295Y0145460D01*
X0194295Y0144262D02*
X0195993Y0144262D01*
X0195083Y0143063D02*
X0197191Y0143063D01*
X0197800Y0142454D02*
X0197800Y0142454D01*
X0198390Y0141865D02*
X0196281Y0141865D01*
X0199885Y0145460D02*
X0200308Y0145460D01*
X0209995Y0153850D02*
X0214056Y0153850D01*
X0215254Y0155048D02*
X0209995Y0155048D01*
X0216050Y0149056D02*
X0238735Y0149056D01*
X0238735Y0150254D02*
X0217248Y0150254D01*
X0218447Y0151453D02*
X0238649Y0151453D01*
X0238335Y0152651D02*
X0219645Y0152651D01*
X0220844Y0153850D02*
X0238335Y0153850D01*
X0238335Y0153775D02*
X0243885Y0153775D01*
X0243885Y0156625D01*
X0239725Y0156625D01*
X0239318Y0156516D01*
X0238953Y0156305D01*
X0238655Y0156008D01*
X0238444Y0155643D01*
X0238335Y0155236D01*
X0238335Y0153775D01*
X0238335Y0155048D02*
X0222042Y0155048D01*
X0223241Y0156247D02*
X0238894Y0156247D01*
X0243885Y0156247D02*
X0243985Y0156247D01*
X0243985Y0155048D02*
X0243885Y0155048D01*
X0243885Y0153850D02*
X0243985Y0153850D01*
X0248977Y0156247D02*
X0267711Y0156247D01*
X0267711Y0155865D02*
X0268120Y0154877D01*
X0268877Y0154120D01*
X0269574Y0153831D01*
X0270165Y0153241D01*
X0270165Y0153241D01*
X0270841Y0152565D01*
X0271715Y0151691D01*
X0272597Y0151325D01*
X0278587Y0151325D01*
X0278553Y0151305D01*
X0278255Y0151008D01*
X0278044Y0150643D01*
X0277935Y0150236D01*
X0277935Y0148775D01*
X0283485Y0148775D01*
X0283485Y0148675D01*
X0277935Y0148675D01*
X0277935Y0147215D01*
X0278044Y0146808D01*
X0278255Y0146443D01*
X0278553Y0146145D01*
X0278810Y0145997D01*
X0278335Y0145522D01*
X0278335Y0141928D01*
X0279038Y0141225D01*
X0278335Y0140522D01*
X0278335Y0136928D01*
X0279038Y0136225D01*
X0278335Y0135522D01*
X0278335Y0131928D01*
X0279038Y0131225D01*
X0278335Y0130522D01*
X0278335Y0126928D01*
X0279038Y0126225D01*
X0278335Y0125522D01*
X0278335Y0121928D01*
X0279038Y0121225D01*
X0278335Y0120522D01*
X0278335Y0116928D01*
X0279038Y0116225D01*
X0278335Y0115522D01*
X0278335Y0111928D01*
X0279038Y0111225D01*
X0278335Y0110522D01*
X0278335Y0106928D01*
X0279038Y0106225D01*
X0288032Y0106225D01*
X0288735Y0106928D01*
X0288735Y0110522D01*
X0288032Y0111225D01*
X0285935Y0111225D01*
X0288032Y0111225D01*
X0288735Y0111928D01*
X0288735Y0115522D01*
X0288032Y0116225D01*
X0285935Y0116225D01*
X0288032Y0116225D01*
X0288735Y0116928D01*
X0288735Y0120522D01*
X0288032Y0121225D01*
X0285935Y0121225D01*
X0288032Y0121225D01*
X0288132Y0121325D01*
X0301083Y0121325D01*
X0301965Y0121691D01*
X0302500Y0122225D01*
X0306701Y0122225D01*
X0308171Y0122834D01*
X0309297Y0123959D01*
X0309905Y0125430D01*
X0309905Y0127021D01*
X0309297Y0128491D01*
X0308171Y0129616D01*
X0306701Y0130225D01*
X0299510Y0130225D01*
X0298040Y0129616D01*
X0296914Y0128491D01*
X0296306Y0127021D01*
X0296306Y0126125D01*
X0288132Y0126125D01*
X0288032Y0126225D01*
X0279038Y0126225D01*
X0288032Y0126225D01*
X0288735Y0126928D01*
X0288735Y0130522D01*
X0288032Y0131225D01*
X0285935Y0131225D01*
X0288032Y0131225D01*
X0288735Y0131928D01*
X0288735Y0135522D01*
X0288258Y0136000D01*
X0296306Y0136000D01*
X0296306Y0135430D01*
X0296914Y0133959D01*
X0298040Y0132834D01*
X0299510Y0132225D01*
X0306701Y0132225D01*
X0308171Y0132834D01*
X0309297Y0133959D01*
X0309905Y0135430D01*
X0309905Y0137021D01*
X0309297Y0138491D01*
X0308171Y0139616D01*
X0306701Y0140225D01*
X0302500Y0140225D01*
X0302290Y0140435D01*
X0301408Y0140800D01*
X0288458Y0140800D01*
X0288032Y0141225D01*
X0285935Y0141225D01*
X0288032Y0141225D01*
X0288735Y0141928D01*
X0288735Y0145522D01*
X0288261Y0145997D01*
X0288518Y0146145D01*
X0288816Y0146443D01*
X0289026Y0146808D01*
X0289135Y0147215D01*
X0289135Y0148675D01*
X0283586Y0148675D01*
X0283586Y0148775D01*
X0289135Y0148775D01*
X0289135Y0150236D01*
X0289026Y0150643D01*
X0288816Y0151008D01*
X0288518Y0151305D01*
X0288261Y0151454D01*
X0288735Y0151928D01*
X0288735Y0155522D01*
X0288032Y0156225D01*
X0279038Y0156225D01*
X0278938Y0156125D01*
X0276741Y0156125D01*
X0276839Y0156362D01*
X0276839Y0164069D01*
X0278480Y0164069D01*
X0279183Y0164772D01*
X0279183Y0174428D01*
X0278480Y0175131D01*
X0270399Y0175131D01*
X0269696Y0174428D01*
X0269696Y0164772D01*
X0270399Y0164069D01*
X0272039Y0164069D01*
X0272039Y0158563D01*
X0271923Y0158680D01*
X0270935Y0159089D01*
X0269865Y0159089D01*
X0268877Y0158680D01*
X0268120Y0157923D01*
X0267711Y0156935D01*
X0267711Y0155865D01*
X0268049Y0155048D02*
X0249535Y0155048D01*
X0249535Y0153850D02*
X0269530Y0153850D01*
X0270755Y0152651D02*
X0249535Y0152651D01*
X0249221Y0151453D02*
X0272290Y0151453D01*
X0270841Y0152565D02*
X0270841Y0152565D01*
X0267922Y0157445D02*
X0224439Y0157445D01*
X0225638Y0158644D02*
X0268841Y0158644D01*
X0271959Y0158644D02*
X0272039Y0158644D01*
X0272039Y0159842D02*
X0226835Y0159842D01*
X0227200Y0161041D02*
X0272039Y0161041D01*
X0272039Y0162239D02*
X0227200Y0162239D01*
X0228157Y0163438D02*
X0230416Y0163438D01*
X0230055Y0169430D02*
X0228518Y0169430D01*
X0228433Y0170629D02*
X0230140Y0170629D01*
X0229655Y0171827D02*
X0228918Y0171827D01*
X0228918Y0173026D02*
X0229655Y0173026D01*
X0229655Y0174935D02*
X0233608Y0174935D01*
X0233608Y0178494D01*
X0231044Y0178494D01*
X0230638Y0178385D01*
X0230273Y0178175D01*
X0229975Y0177877D01*
X0229764Y0177512D01*
X0229655Y0177105D01*
X0229655Y0174935D01*
X0229655Y0175423D02*
X0228918Y0175423D01*
X0228918Y0176621D02*
X0229655Y0176621D01*
X0229942Y0177820D02*
X0228631Y0177820D01*
X0224965Y0177820D02*
X0223765Y0177820D01*
X0223765Y0178494D02*
X0221202Y0178494D01*
X0220795Y0178385D01*
X0220430Y0178175D01*
X0220132Y0177877D01*
X0219922Y0177512D01*
X0219813Y0177105D01*
X0219813Y0174935D01*
X0223765Y0174935D01*
X0223765Y0178494D01*
X0223765Y0176621D02*
X0224965Y0176621D01*
X0224965Y0175423D02*
X0223765Y0175423D01*
X0223765Y0174224D02*
X0052100Y0174224D01*
X0052100Y0173026D02*
X0219813Y0173026D01*
X0219813Y0171827D02*
X0052100Y0171827D01*
X0052100Y0170629D02*
X0220297Y0170629D01*
X0220213Y0169430D02*
X0179572Y0169430D01*
X0180483Y0168232D02*
X0220213Y0168232D01*
X0220213Y0167033D02*
X0180689Y0167033D01*
X0180345Y0165835D02*
X0220213Y0165835D01*
X0224965Y0174224D02*
X0233608Y0174224D01*
X0233608Y0175423D02*
X0234808Y0175423D01*
X0234808Y0176621D02*
X0233608Y0176621D01*
X0233608Y0177820D02*
X0234808Y0177820D01*
X0234808Y0174224D02*
X0249617Y0174224D01*
X0249617Y0173026D02*
X0238761Y0173026D01*
X0238761Y0171827D02*
X0241906Y0171827D01*
X0240765Y0170959D02*
X0240765Y0170959D01*
X0240435Y0170629D02*
X0238276Y0170629D01*
X0238361Y0169430D02*
X0239236Y0169430D01*
X0242429Y0165835D02*
X0249617Y0165835D01*
X0249617Y0167033D02*
X0243627Y0167033D01*
X0240970Y0164636D02*
X0249753Y0164636D01*
X0258968Y0164636D02*
X0269832Y0164636D01*
X0269696Y0165835D02*
X0259104Y0165835D01*
X0259104Y0167033D02*
X0269696Y0167033D01*
X0269696Y0168232D02*
X0259104Y0168232D01*
X0259104Y0169430D02*
X0269696Y0169430D01*
X0269696Y0170629D02*
X0259104Y0170629D01*
X0259104Y0171827D02*
X0269696Y0171827D01*
X0269696Y0173026D02*
X0259104Y0173026D01*
X0259104Y0174224D02*
X0269696Y0174224D01*
X0279047Y0164636D02*
X0317891Y0164636D01*
X0317891Y0163438D02*
X0276839Y0163438D01*
X0276839Y0162239D02*
X0317891Y0162239D01*
X0317891Y0161041D02*
X0276839Y0161041D01*
X0276839Y0159842D02*
X0317891Y0159842D01*
X0317891Y0158644D02*
X0276839Y0158644D01*
X0276839Y0157445D02*
X0317891Y0157445D01*
X0317891Y0156247D02*
X0276792Y0156247D01*
X0277940Y0150254D02*
X0249135Y0150254D01*
X0249135Y0149056D02*
X0277935Y0149056D01*
X0277935Y0147857D02*
X0249135Y0147857D01*
X0248866Y0146659D02*
X0278131Y0146659D01*
X0278335Y0145460D02*
X0249135Y0145460D01*
X0249135Y0144262D02*
X0278335Y0144262D01*
X0278335Y0143063D02*
X0249135Y0143063D01*
X0249072Y0141865D02*
X0278399Y0141865D01*
X0279038Y0141225D02*
X0281135Y0141225D01*
X0279038Y0141225D01*
X0278479Y0140666D02*
X0248992Y0140666D01*
X0249135Y0139468D02*
X0278335Y0139468D01*
X0278335Y0138269D02*
X0249135Y0138269D01*
X0249135Y0137070D02*
X0278335Y0137070D01*
X0279038Y0136225D02*
X0281135Y0136225D01*
X0281135Y0136225D01*
X0279038Y0136225D01*
X0278685Y0135872D02*
X0248786Y0135872D01*
X0249135Y0134673D02*
X0278335Y0134673D01*
X0278335Y0133475D02*
X0249135Y0133475D01*
X0249135Y0132276D02*
X0278335Y0132276D01*
X0279038Y0131225D02*
X0281135Y0131225D01*
X0279038Y0131225D01*
X0278891Y0131078D02*
X0248580Y0131078D01*
X0249135Y0129879D02*
X0278335Y0129879D01*
X0278335Y0128681D02*
X0249135Y0128681D01*
X0249135Y0127482D02*
X0278335Y0127482D01*
X0278980Y0126284D02*
X0248491Y0126284D01*
X0249135Y0125085D02*
X0278335Y0125085D01*
X0278335Y0123887D02*
X0249135Y0123887D01*
X0249135Y0122688D02*
X0278335Y0122688D01*
X0278774Y0121490D02*
X0248697Y0121490D01*
X0249135Y0120291D02*
X0278335Y0120291D01*
X0279038Y0121225D02*
X0281135Y0121225D01*
X0281135Y0121225D01*
X0279038Y0121225D01*
X0278335Y0119093D02*
X0249135Y0119093D01*
X0249135Y0117894D02*
X0278335Y0117894D01*
X0278568Y0116696D02*
X0248903Y0116696D01*
X0249135Y0115497D02*
X0278335Y0115497D01*
X0279038Y0116225D02*
X0281135Y0116225D01*
X0281135Y0116225D01*
X0279038Y0116225D01*
X0278335Y0114299D02*
X0249135Y0114299D01*
X0249135Y0113100D02*
X0278335Y0113100D01*
X0278362Y0111902D02*
X0249109Y0111902D01*
X0249391Y0110703D02*
X0278516Y0110703D01*
X0279038Y0111225D02*
X0281135Y0111225D01*
X0281135Y0111225D01*
X0279038Y0111225D01*
X0278335Y0109505D02*
X0249535Y0109505D01*
X0249535Y0108306D02*
X0278335Y0108306D01*
X0278335Y0107108D02*
X0249507Y0107108D01*
X0246335Y0116225D02*
X0246335Y0116225D01*
X0246335Y0121225D02*
X0246335Y0121225D01*
X0246335Y0126225D02*
X0246335Y0126225D01*
X0246335Y0136225D02*
X0246335Y0136225D01*
X0246335Y0141225D02*
X0246335Y0141225D01*
X0246335Y0146225D02*
X0246335Y0146225D01*
X0241535Y0146225D02*
X0241535Y0146225D01*
X0238735Y0143063D02*
X0211889Y0143063D01*
X0211557Y0141865D02*
X0238799Y0141865D01*
X0239438Y0141225D02*
X0241535Y0141225D01*
X0239438Y0141225D01*
X0238879Y0140666D02*
X0211368Y0140666D01*
X0212566Y0139468D02*
X0238735Y0139468D01*
X0238735Y0138269D02*
X0213765Y0138269D01*
X0218872Y0120291D02*
X0220016Y0120291D01*
X0220016Y0119093D02*
X0218872Y0119093D01*
X0226165Y0113100D02*
X0238735Y0113100D01*
X0241535Y0116225D02*
X0241535Y0116225D01*
X0228613Y0098718D02*
X0270400Y0098718D01*
X0270111Y0099917D02*
X0102689Y0099917D01*
X0102449Y0101115D02*
X0270351Y0101115D01*
X0271359Y0102314D02*
X0101441Y0102314D01*
X0102400Y0098718D02*
X0151220Y0098718D01*
X0151235Y0098743D02*
X0151024Y0098378D01*
X0150915Y0097971D01*
X0150915Y0095408D01*
X0154868Y0095408D01*
X0154868Y0099361D01*
X0152304Y0099361D01*
X0151897Y0099252D01*
X0151533Y0099041D01*
X0151235Y0098743D01*
X0150915Y0097520D02*
X0102400Y0097520D01*
X0102400Y0096321D02*
X0106902Y0096321D01*
X0109395Y0096321D02*
X0110595Y0096321D01*
X0110595Y0096408D02*
X0110595Y0092455D01*
X0114154Y0092455D01*
X0114154Y0095019D01*
X0114045Y0095425D01*
X0113835Y0095790D01*
X0113537Y0096088D01*
X0113172Y0096299D01*
X0112765Y0096408D01*
X0110595Y0096408D01*
X0110595Y0095123D02*
X0109395Y0095123D01*
X0109395Y0093924D02*
X0110595Y0093924D01*
X0110595Y0092726D02*
X0109395Y0092726D01*
X0110595Y0091527D02*
X0150946Y0091527D01*
X0150915Y0091644D02*
X0151024Y0091238D01*
X0151235Y0090873D01*
X0151533Y0090575D01*
X0151897Y0090364D01*
X0152304Y0090255D01*
X0154868Y0090255D01*
X0154868Y0094208D01*
X0156068Y0094208D01*
X0156068Y0095408D01*
X0160020Y0095408D01*
X0160020Y0097971D01*
X0159911Y0098378D01*
X0159701Y0098743D01*
X0159403Y0099041D01*
X0159038Y0099252D01*
X0158631Y0099361D01*
X0156068Y0099361D01*
X0156068Y0095408D01*
X0154868Y0095408D01*
X0154868Y0094208D01*
X0150915Y0094208D01*
X0150915Y0091644D01*
X0150915Y0092726D02*
X0114154Y0092726D01*
X0114154Y0093924D02*
X0150915Y0093924D01*
X0150915Y0096321D02*
X0113089Y0096321D01*
X0114126Y0095123D02*
X0154868Y0095123D01*
X0155468Y0094808D02*
X0165310Y0094808D01*
X0175153Y0094808D01*
X0184995Y0094808D01*
X0194838Y0094808D01*
X0204680Y0094808D01*
X0214523Y0094808D01*
X0224365Y0094808D01*
X0223765Y0095123D02*
X0215123Y0095123D01*
X0215123Y0095408D02*
X0219076Y0095408D01*
X0219076Y0097971D01*
X0218967Y0098378D01*
X0218756Y0098743D01*
X0218458Y0099041D01*
X0218093Y0099252D01*
X0217686Y0099361D01*
X0215123Y0099361D01*
X0215123Y0095408D01*
X0215123Y0094208D01*
X0219076Y0094208D01*
X0219076Y0091644D01*
X0218967Y0091238D01*
X0218756Y0090873D01*
X0218458Y0090575D01*
X0218093Y0090364D01*
X0217686Y0090255D01*
X0215123Y0090255D01*
X0215123Y0094208D01*
X0213923Y0094208D01*
X0213923Y0090255D01*
X0211359Y0090255D01*
X0210952Y0090364D01*
X0210588Y0090575D01*
X0210290Y0090873D01*
X0210079Y0091238D01*
X0209970Y0091644D01*
X0209970Y0094208D01*
X0213923Y0094208D01*
X0213923Y0095408D01*
X0213923Y0099361D01*
X0211359Y0099361D01*
X0210952Y0099252D01*
X0210588Y0099041D01*
X0210290Y0098743D01*
X0210079Y0098378D01*
X0209970Y0097971D01*
X0209970Y0095408D01*
X0213923Y0095408D01*
X0215123Y0095408D01*
X0215123Y0096321D02*
X0213923Y0096321D01*
X0213923Y0095123D02*
X0205280Y0095123D01*
X0205280Y0095408D02*
X0209233Y0095408D01*
X0209233Y0097971D01*
X0209124Y0098378D01*
X0208913Y0098743D01*
X0208615Y0099041D01*
X0208251Y0099252D01*
X0207844Y0099361D01*
X0205280Y0099361D01*
X0205280Y0095408D01*
X0204080Y0095408D01*
X0204080Y0094208D01*
X0200128Y0094208D01*
X0200128Y0091644D01*
X0200237Y0091238D01*
X0200447Y0090873D01*
X0200745Y0090575D01*
X0201110Y0090364D01*
X0201517Y0090255D01*
X0204080Y0090255D01*
X0204080Y0094208D01*
X0205280Y0094208D01*
X0205280Y0090255D01*
X0207844Y0090255D01*
X0208251Y0090364D01*
X0208615Y0090575D01*
X0208913Y0090873D01*
X0209124Y0091238D01*
X0209233Y0091644D01*
X0209233Y0094208D01*
X0205280Y0094208D01*
X0205280Y0095408D01*
X0205280Y0096321D02*
X0204080Y0096321D01*
X0204080Y0095408D02*
X0204080Y0099361D01*
X0201517Y0099361D01*
X0201110Y0099252D01*
X0200745Y0099041D01*
X0200447Y0098743D01*
X0200237Y0098378D01*
X0200128Y0097971D01*
X0200128Y0095408D01*
X0204080Y0095408D01*
X0204080Y0095123D02*
X0195438Y0095123D01*
X0195438Y0095408D02*
X0199391Y0095408D01*
X0199391Y0097971D01*
X0199282Y0098378D01*
X0199071Y0098743D01*
X0198773Y0099041D01*
X0198408Y0099252D01*
X0198001Y0099361D01*
X0195438Y0099361D01*
X0195438Y0095408D01*
X0195438Y0094208D01*
X0199391Y0094208D01*
X0199391Y0091644D01*
X0199282Y0091238D01*
X0199071Y0090873D01*
X0198773Y0090575D01*
X0198408Y0090364D01*
X0198001Y0090255D01*
X0195438Y0090255D01*
X0195438Y0094208D01*
X0194238Y0094208D01*
X0194238Y0090255D01*
X0191674Y0090255D01*
X0191267Y0090364D01*
X0190903Y0090575D01*
X0190605Y0090873D01*
X0190394Y0091238D01*
X0190285Y0091644D01*
X0190285Y0094208D01*
X0194238Y0094208D01*
X0194238Y0095408D01*
X0194238Y0099361D01*
X0191674Y0099361D01*
X0191267Y0099252D01*
X0190903Y0099041D01*
X0190605Y0098743D01*
X0190394Y0098378D01*
X0190285Y0097971D01*
X0190285Y0095408D01*
X0194238Y0095408D01*
X0195438Y0095408D01*
X0195438Y0096321D02*
X0194238Y0096321D01*
X0194238Y0095123D02*
X0185595Y0095123D01*
X0185595Y0095408D02*
X0189548Y0095408D01*
X0189548Y0097971D01*
X0189439Y0098378D01*
X0189228Y0098743D01*
X0188930Y0099041D01*
X0188566Y0099252D01*
X0188159Y0099361D01*
X0185595Y0099361D01*
X0185595Y0095408D01*
X0184395Y0095408D01*
X0184395Y0094208D01*
X0180443Y0094208D01*
X0180443Y0091644D01*
X0180552Y0091238D01*
X0180762Y0090873D01*
X0181060Y0090575D01*
X0181425Y0090364D01*
X0181832Y0090255D01*
X0184395Y0090255D01*
X0184395Y0094208D01*
X0185595Y0094208D01*
X0185595Y0090255D01*
X0188159Y0090255D01*
X0188566Y0090364D01*
X0188930Y0090575D01*
X0189228Y0090873D01*
X0189439Y0091238D01*
X0189548Y0091644D01*
X0189548Y0094208D01*
X0185595Y0094208D01*
X0185595Y0095408D01*
X0185595Y0096321D02*
X0184395Y0096321D01*
X0184395Y0095408D02*
X0184395Y0099361D01*
X0181832Y0099361D01*
X0181425Y0099252D01*
X0181060Y0099041D01*
X0180762Y0098743D01*
X0180552Y0098378D01*
X0180443Y0097971D01*
X0180443Y0095408D01*
X0184395Y0095408D01*
X0184395Y0095123D02*
X0175753Y0095123D01*
X0175753Y0095408D02*
X0179705Y0095408D01*
X0179705Y0097971D01*
X0179596Y0098378D01*
X0179386Y0098743D01*
X0179088Y0099041D01*
X0178723Y0099252D01*
X0178316Y0099361D01*
X0175753Y0099361D01*
X0175753Y0095408D01*
X0175753Y0094208D01*
X0179705Y0094208D01*
X0179705Y0091644D01*
X0179596Y0091238D01*
X0179386Y0090873D01*
X0179088Y0090575D01*
X0178723Y0090364D01*
X0178316Y0090255D01*
X0175753Y0090255D01*
X0175753Y0094208D01*
X0174553Y0094208D01*
X0174553Y0090255D01*
X0171989Y0090255D01*
X0171582Y0090364D01*
X0171218Y0090575D01*
X0170920Y0090873D01*
X0170709Y0091238D01*
X0170600Y0091644D01*
X0170600Y0094208D01*
X0174553Y0094208D01*
X0174553Y0095408D01*
X0174553Y0099361D01*
X0171989Y0099361D01*
X0171582Y0099252D01*
X0171218Y0099041D01*
X0170920Y0098743D01*
X0170709Y0098378D01*
X0170600Y0097971D01*
X0170600Y0095408D01*
X0174553Y0095408D01*
X0175753Y0095408D01*
X0175753Y0096321D02*
X0174553Y0096321D01*
X0174553Y0095123D02*
X0165910Y0095123D01*
X0165910Y0095408D02*
X0169863Y0095408D01*
X0169863Y0097971D01*
X0169754Y0098378D01*
X0169543Y0098743D01*
X0169245Y0099041D01*
X0168881Y0099252D01*
X0168474Y0099361D01*
X0165910Y0099361D01*
X0165910Y0095408D01*
X0164710Y0095408D01*
X0164710Y0094208D01*
X0160757Y0094208D01*
X0160757Y0091644D01*
X0160867Y0091238D01*
X0161077Y0090873D01*
X0161375Y0090575D01*
X0161740Y0090364D01*
X0162147Y0090255D01*
X0164710Y0090255D01*
X0164710Y0094208D01*
X0165910Y0094208D01*
X0165910Y0090255D01*
X0168474Y0090255D01*
X0168881Y0090364D01*
X0169245Y0090575D01*
X0169543Y0090873D01*
X0169754Y0091238D01*
X0169863Y0091644D01*
X0169863Y0094208D01*
X0165910Y0094208D01*
X0165910Y0095408D01*
X0165910Y0096321D02*
X0164710Y0096321D01*
X0164710Y0095408D02*
X0164710Y0099361D01*
X0162147Y0099361D01*
X0161740Y0099252D01*
X0161375Y0099041D01*
X0161077Y0098743D01*
X0160867Y0098378D01*
X0160757Y0097971D01*
X0160757Y0095408D01*
X0164710Y0095408D01*
X0164710Y0095123D02*
X0156068Y0095123D01*
X0156068Y0094208D02*
X0160020Y0094208D01*
X0160020Y0091644D01*
X0159911Y0091238D01*
X0159701Y0090873D01*
X0159403Y0090575D01*
X0159038Y0090364D01*
X0158631Y0090255D01*
X0156068Y0090255D01*
X0156068Y0094208D01*
X0156068Y0093924D02*
X0154868Y0093924D01*
X0154868Y0092726D02*
X0156068Y0092726D01*
X0156068Y0091527D02*
X0154868Y0091527D01*
X0154868Y0090329D02*
X0156068Y0090329D01*
X0158905Y0090329D02*
X0161873Y0090329D01*
X0160789Y0091527D02*
X0159989Y0091527D01*
X0160020Y0092726D02*
X0160757Y0092726D01*
X0160757Y0093924D02*
X0160020Y0093924D01*
X0160020Y0096321D02*
X0160757Y0096321D01*
X0160757Y0097520D02*
X0160020Y0097520D01*
X0159715Y0098718D02*
X0161063Y0098718D01*
X0164710Y0098718D02*
X0165910Y0098718D01*
X0165910Y0097520D02*
X0164710Y0097520D01*
X0164710Y0093924D02*
X0165910Y0093924D01*
X0165910Y0092726D02*
X0164710Y0092726D01*
X0164710Y0091527D02*
X0165910Y0091527D01*
X0165910Y0090329D02*
X0164710Y0090329D01*
X0168748Y0090329D02*
X0171715Y0090329D01*
X0170631Y0091527D02*
X0169832Y0091527D01*
X0169863Y0092726D02*
X0170600Y0092726D01*
X0170600Y0093924D02*
X0169863Y0093924D01*
X0169863Y0096321D02*
X0170600Y0096321D01*
X0170600Y0097520D02*
X0169863Y0097520D01*
X0169558Y0098718D02*
X0170905Y0098718D01*
X0174553Y0098718D02*
X0175753Y0098718D01*
X0175753Y0097520D02*
X0174553Y0097520D01*
X0174553Y0093924D02*
X0175753Y0093924D01*
X0175753Y0092726D02*
X0174553Y0092726D01*
X0174553Y0091527D02*
X0175753Y0091527D01*
X0175753Y0090329D02*
X0174553Y0090329D01*
X0178590Y0090329D02*
X0181558Y0090329D01*
X0180474Y0091527D02*
X0179674Y0091527D01*
X0179705Y0092726D02*
X0180443Y0092726D01*
X0180443Y0093924D02*
X0179705Y0093924D01*
X0179705Y0096321D02*
X0180443Y0096321D01*
X0180443Y0097520D02*
X0179705Y0097520D01*
X0179400Y0098718D02*
X0180748Y0098718D01*
X0184395Y0098718D02*
X0185595Y0098718D01*
X0185595Y0097520D02*
X0184395Y0097520D01*
X0184395Y0093924D02*
X0185595Y0093924D01*
X0185595Y0092726D02*
X0184395Y0092726D01*
X0184395Y0091527D02*
X0185595Y0091527D01*
X0185595Y0090329D02*
X0184395Y0090329D01*
X0188433Y0090329D02*
X0191400Y0090329D01*
X0190316Y0091527D02*
X0189517Y0091527D01*
X0189548Y0092726D02*
X0190285Y0092726D01*
X0190285Y0093924D02*
X0189548Y0093924D01*
X0189548Y0096321D02*
X0190285Y0096321D01*
X0190285Y0097520D02*
X0189548Y0097520D01*
X0189243Y0098718D02*
X0190590Y0098718D01*
X0194238Y0098718D02*
X0195438Y0098718D01*
X0195438Y0097520D02*
X0194238Y0097520D01*
X0194238Y0093924D02*
X0195438Y0093924D01*
X0195438Y0092726D02*
X0194238Y0092726D01*
X0194238Y0091527D02*
X0195438Y0091527D01*
X0195438Y0090329D02*
X0194238Y0090329D01*
X0198275Y0090329D02*
X0201243Y0090329D01*
X0200159Y0091527D02*
X0199359Y0091527D01*
X0199391Y0092726D02*
X0200128Y0092726D01*
X0200128Y0093924D02*
X0199391Y0093924D01*
X0199391Y0096321D02*
X0200128Y0096321D01*
X0200128Y0097520D02*
X0199391Y0097520D01*
X0199085Y0098718D02*
X0200433Y0098718D01*
X0204080Y0098718D02*
X0205280Y0098718D01*
X0205280Y0097520D02*
X0204080Y0097520D01*
X0204080Y0093924D02*
X0205280Y0093924D01*
X0205280Y0092726D02*
X0204080Y0092726D01*
X0204080Y0091527D02*
X0205280Y0091527D01*
X0205280Y0090329D02*
X0204080Y0090329D01*
X0208118Y0090329D02*
X0211085Y0090329D01*
X0210002Y0091527D02*
X0209202Y0091527D01*
X0209233Y0092726D02*
X0209970Y0092726D01*
X0209970Y0093924D02*
X0209233Y0093924D01*
X0209233Y0096321D02*
X0209970Y0096321D01*
X0209970Y0097520D02*
X0209233Y0097520D01*
X0208928Y0098718D02*
X0210275Y0098718D01*
X0213923Y0098718D02*
X0215123Y0098718D01*
X0215123Y0097520D02*
X0213923Y0097520D01*
X0213923Y0093924D02*
X0215123Y0093924D01*
X0215123Y0092726D02*
X0213923Y0092726D01*
X0213923Y0091527D02*
X0215123Y0091527D01*
X0215123Y0090329D02*
X0213923Y0090329D01*
X0217960Y0090329D02*
X0220928Y0090329D01*
X0219844Y0091527D02*
X0219044Y0091527D01*
X0219076Y0092726D02*
X0219813Y0092726D01*
X0219813Y0093924D02*
X0219076Y0093924D01*
X0219813Y0095408D02*
X0219813Y0097971D01*
X0219922Y0098378D01*
X0220132Y0098743D01*
X0220430Y0099041D01*
X0220795Y0099252D01*
X0221202Y0099361D01*
X0223765Y0099361D01*
X0223765Y0095408D01*
X0219813Y0095408D01*
X0219813Y0096321D02*
X0219076Y0096321D01*
X0219076Y0097520D02*
X0219813Y0097520D01*
X0220118Y0098718D02*
X0218770Y0098718D01*
X0223765Y0098718D02*
X0224965Y0098718D01*
X0224965Y0097520D02*
X0223765Y0097520D01*
X0223765Y0096321D02*
X0224965Y0096321D01*
X0224965Y0093924D02*
X0223765Y0093924D01*
X0223765Y0092726D02*
X0224965Y0092726D01*
X0224965Y0091527D02*
X0223765Y0091527D01*
X0223765Y0090329D02*
X0224965Y0090329D01*
X0227803Y0090329D02*
X0255836Y0090329D01*
X0255836Y0089130D02*
X0114154Y0089130D01*
X0114154Y0090329D02*
X0152030Y0090329D01*
X0154868Y0096321D02*
X0156068Y0096321D01*
X0156068Y0097520D02*
X0154868Y0097520D01*
X0154868Y0098718D02*
X0156068Y0098718D01*
X0157268Y0113100D02*
X0163510Y0113100D01*
X0153668Y0113100D02*
X0131255Y0113100D01*
X0126105Y0108306D02*
X0126005Y0108306D01*
X0126005Y0107108D02*
X0126105Y0107108D01*
X0126105Y0105909D02*
X0126005Y0105909D01*
X0123655Y0116225D02*
X0123655Y0116225D01*
X0120855Y0117894D02*
X0091655Y0117894D01*
X0091655Y0119093D02*
X0120855Y0119093D01*
X0120855Y0120291D02*
X0091655Y0120291D01*
X0081255Y0122688D02*
X0071599Y0122688D01*
X0072886Y0128681D02*
X0081255Y0128681D01*
X0081255Y0129879D02*
X0071315Y0129879D01*
X0086382Y0089130D02*
X0098756Y0089130D01*
X0099230Y0087932D02*
X0087581Y0087932D01*
X0088779Y0086733D02*
X0281211Y0086733D01*
X0280013Y0085534D02*
X0089978Y0085534D01*
X0091176Y0084336D02*
X0278814Y0084336D01*
X0277616Y0083137D02*
X0092375Y0083137D01*
X0093573Y0081939D02*
X0276417Y0081939D01*
X0275219Y0080740D02*
X0094772Y0080740D01*
X0095970Y0079542D02*
X0274020Y0079542D01*
X0272822Y0078343D02*
X0097169Y0078343D01*
X0098367Y0077145D02*
X0271623Y0077145D01*
X0270425Y0075946D02*
X0099566Y0075946D01*
X0100764Y0074748D02*
X0269226Y0074748D01*
X0268028Y0073549D02*
X0101963Y0073549D01*
X0103161Y0072351D02*
X0266829Y0072351D01*
X0265631Y0071152D02*
X0229351Y0071152D01*
X0229471Y0071091D02*
X0228854Y0071405D01*
X0228196Y0071619D01*
X0227512Y0071728D01*
X0224665Y0071728D01*
X0224665Y0067628D01*
X0224065Y0067628D01*
X0224065Y0071728D01*
X0221219Y0071728D01*
X0220535Y0071619D01*
X0219876Y0071405D01*
X0219259Y0071091D01*
X0218699Y0070684D01*
X0218209Y0070194D01*
X0217802Y0069634D01*
X0217488Y0069017D01*
X0217274Y0068358D01*
X0217165Y0067674D01*
X0217165Y0067628D01*
X0224065Y0067628D01*
X0224065Y0067028D01*
X0217165Y0067028D01*
X0217165Y0066981D01*
X0217274Y0066297D01*
X0217488Y0065639D01*
X0217802Y0065021D01*
X0218209Y0064461D01*
X0218699Y0063971D01*
X0219259Y0063564D01*
X0219876Y0063250D01*
X0220535Y0063036D01*
X0221219Y0062928D01*
X0224065Y0062928D01*
X0224065Y0067027D01*
X0224665Y0067027D01*
X0224665Y0062928D01*
X0227512Y0062928D01*
X0228196Y0063036D01*
X0228854Y0063250D01*
X0229471Y0063564D01*
X0230032Y0063971D01*
X0230521Y0064461D01*
X0230929Y0065021D01*
X0231243Y0065639D01*
X0231457Y0066297D01*
X0231565Y0066981D01*
X0231565Y0067028D01*
X0224665Y0067028D01*
X0224665Y0067628D01*
X0231565Y0067628D01*
X0231565Y0067674D01*
X0231457Y0068358D01*
X0231243Y0069017D01*
X0230929Y0069634D01*
X0230521Y0070194D01*
X0230032Y0070684D01*
X0229471Y0071091D01*
X0230696Y0069954D02*
X0264432Y0069954D01*
X0263234Y0068755D02*
X0231328Y0068755D01*
X0231467Y0066358D02*
X0260837Y0066358D01*
X0262035Y0067557D02*
X0224665Y0067557D01*
X0224065Y0067557D02*
X0211372Y0067557D01*
X0211398Y0067459D02*
X0211289Y0067866D01*
X0211079Y0068231D01*
X0210781Y0068529D01*
X0210416Y0068740D01*
X0210009Y0068849D01*
X0201934Y0068849D01*
X0201934Y0062928D01*
X0200734Y0062928D01*
X0200734Y0068849D01*
X0192659Y0068849D01*
X0192252Y0068740D01*
X0191887Y0068529D01*
X0191589Y0068231D01*
X0191378Y0067866D01*
X0191269Y0067459D01*
X0191269Y0062928D01*
X0200734Y0062928D01*
X0200734Y0061728D01*
X0191269Y0061728D01*
X0191269Y0057196D01*
X0191378Y0056789D01*
X0191589Y0056424D01*
X0191887Y0056126D01*
X0192252Y0055915D01*
X0192659Y0055806D01*
X0200734Y0055806D01*
X0200734Y0061728D01*
X0201934Y0061728D01*
X0201934Y0062928D01*
X0211398Y0062928D01*
X0211398Y0067459D01*
X0211398Y0066358D02*
X0217264Y0066358D01*
X0217732Y0065160D02*
X0211398Y0065160D01*
X0211398Y0063961D02*
X0218713Y0063961D01*
X0219300Y0060719D02*
X0218174Y0059593D01*
X0217565Y0058123D01*
X0217565Y0056532D01*
X0218174Y0055062D01*
X0219300Y0053937D01*
X0220010Y0053642D01*
X0218467Y0052100D01*
X0173300Y0052100D01*
X0173300Y0056206D01*
X0177618Y0056206D01*
X0178321Y0056909D01*
X0178321Y0067746D01*
X0177618Y0068449D01*
X0159695Y0068449D01*
X0158992Y0067746D01*
X0158992Y0056909D01*
X0159695Y0056206D01*
X0165900Y0056206D01*
X0165900Y0048864D01*
X0166463Y0047504D01*
X0168704Y0045263D01*
X0170064Y0044700D01*
X0220736Y0044700D01*
X0222096Y0045263D01*
X0227502Y0050669D01*
X0228065Y0052029D01*
X0228065Y0053371D01*
X0229431Y0053937D01*
X0230556Y0055062D01*
X0231165Y0056532D01*
X0231165Y0058123D01*
X0230556Y0059593D01*
X0229431Y0060719D01*
X0227961Y0061328D01*
X0220770Y0061328D01*
X0219300Y0060719D01*
X0218947Y0060366D02*
X0211398Y0060366D01*
X0211398Y0061564D02*
X0256043Y0061564D01*
X0257241Y0062763D02*
X0201934Y0062763D01*
X0201934Y0061728D02*
X0211398Y0061728D01*
X0211398Y0057196D01*
X0211289Y0056789D01*
X0211079Y0056424D01*
X0210781Y0056126D01*
X0210416Y0055915D01*
X0210009Y0055806D01*
X0201934Y0055806D01*
X0201934Y0061728D01*
X0201934Y0061564D02*
X0200734Y0061564D01*
X0200734Y0060366D02*
X0201934Y0060366D01*
X0201934Y0059167D02*
X0200734Y0059167D01*
X0200734Y0057969D02*
X0201934Y0057969D01*
X0201934Y0056770D02*
X0200734Y0056770D01*
X0200734Y0062763D02*
X0178321Y0062763D01*
X0178321Y0063961D02*
X0191269Y0063961D01*
X0191269Y0065160D02*
X0178321Y0065160D01*
X0178321Y0066358D02*
X0191269Y0066358D01*
X0191295Y0067557D02*
X0178321Y0067557D01*
X0178321Y0061564D02*
X0191269Y0061564D01*
X0191269Y0060366D02*
X0178321Y0060366D01*
X0178321Y0059167D02*
X0191269Y0059167D01*
X0191269Y0057969D02*
X0178321Y0057969D01*
X0178182Y0056770D02*
X0191389Y0056770D01*
X0200734Y0063961D02*
X0201934Y0063961D01*
X0201934Y0065160D02*
X0200734Y0065160D01*
X0200734Y0066358D02*
X0201934Y0066358D01*
X0201934Y0067557D02*
X0200734Y0067557D01*
X0200734Y0068755D02*
X0201934Y0068755D01*
X0210358Y0068755D02*
X0217403Y0068755D01*
X0218035Y0069954D02*
X0105558Y0069954D01*
X0104360Y0071152D02*
X0219380Y0071152D01*
X0224065Y0071152D02*
X0224665Y0071152D01*
X0224665Y0069954D02*
X0224065Y0069954D01*
X0224065Y0068755D02*
X0224665Y0068755D01*
X0224665Y0066358D02*
X0224065Y0066358D01*
X0224065Y0065160D02*
X0224665Y0065160D01*
X0224665Y0063961D02*
X0224065Y0063961D01*
X0229784Y0060366D02*
X0254844Y0060366D01*
X0253645Y0059167D02*
X0230733Y0059167D01*
X0231165Y0057969D02*
X0252447Y0057969D01*
X0251248Y0056770D02*
X0231165Y0056770D01*
X0230768Y0055572D02*
X0250050Y0055572D01*
X0248851Y0054373D02*
X0229868Y0054373D01*
X0228065Y0053175D02*
X0247653Y0053175D01*
X0246454Y0051976D02*
X0228043Y0051976D01*
X0227547Y0050778D02*
X0245256Y0050778D01*
X0244057Y0049579D02*
X0226412Y0049579D01*
X0225213Y0048381D02*
X0242859Y0048381D01*
X0241660Y0047182D02*
X0224015Y0047182D01*
X0222816Y0045984D02*
X0240462Y0045984D01*
X0239263Y0044785D02*
X0220941Y0044785D01*
X0219542Y0053175D02*
X0173300Y0053175D01*
X0173300Y0054373D02*
X0218863Y0054373D01*
X0217963Y0055572D02*
X0173300Y0055572D01*
X0165900Y0055572D02*
X0119941Y0055572D01*
X0121139Y0054373D02*
X0165900Y0054373D01*
X0165900Y0053175D02*
X0122338Y0053175D01*
X0123536Y0051976D02*
X0165900Y0051976D01*
X0165900Y0050778D02*
X0124735Y0050778D01*
X0125933Y0049579D02*
X0165900Y0049579D01*
X0166100Y0048381D02*
X0127132Y0048381D01*
X0128330Y0047182D02*
X0166785Y0047182D01*
X0167984Y0045984D02*
X0129529Y0045984D01*
X0130727Y0044785D02*
X0169859Y0044785D01*
X0159131Y0056770D02*
X0118742Y0056770D01*
X0117544Y0057969D02*
X0158992Y0057969D01*
X0158992Y0059167D02*
X0116345Y0059167D01*
X0115147Y0060366D02*
X0158992Y0060366D01*
X0158992Y0061564D02*
X0113948Y0061564D01*
X0112750Y0062763D02*
X0158992Y0062763D01*
X0158992Y0063961D02*
X0111551Y0063961D01*
X0110352Y0065160D02*
X0158992Y0065160D01*
X0158992Y0066358D02*
X0109154Y0066358D01*
X0107955Y0067557D02*
X0158992Y0067557D01*
X0135521Y0039991D02*
X0234469Y0039991D01*
X0233271Y0038793D02*
X0136720Y0038793D01*
X0134323Y0041190D02*
X0235668Y0041190D01*
X0236866Y0042388D02*
X0133124Y0042388D01*
X0131926Y0043587D02*
X0238065Y0043587D01*
X0230018Y0063961D02*
X0258440Y0063961D01*
X0259638Y0065160D02*
X0230999Y0065160D01*
X0217998Y0059167D02*
X0211398Y0059167D01*
X0211398Y0057969D02*
X0217565Y0057969D01*
X0217565Y0056770D02*
X0211279Y0056770D01*
X0192310Y0068755D02*
X0106757Y0068755D01*
X0106149Y0087932D02*
X0105800Y0087932D01*
X0109395Y0087932D02*
X0110595Y0087932D01*
X0110595Y0089130D02*
X0109395Y0089130D01*
X0109395Y0090329D02*
X0110595Y0090329D01*
X0113841Y0087932D02*
X0256149Y0087932D01*
X0259395Y0092726D02*
X0260595Y0092726D01*
X0260595Y0093924D02*
X0259395Y0093924D01*
X0259395Y0095123D02*
X0260595Y0095123D01*
X0260595Y0096321D02*
X0259395Y0096321D01*
X0263089Y0096321D02*
X0268547Y0096321D01*
X0269746Y0097520D02*
X0228918Y0097520D01*
X0241535Y0141225D02*
X0241535Y0141225D01*
X0237999Y0163438D02*
X0272039Y0163438D01*
X0279183Y0165835D02*
X0317891Y0165835D01*
X0317891Y0167033D02*
X0279183Y0167033D01*
X0279183Y0168232D02*
X0317891Y0168232D01*
X0317891Y0169430D02*
X0279183Y0169430D01*
X0279183Y0170629D02*
X0317891Y0170629D01*
X0317891Y0171827D02*
X0279183Y0171827D01*
X0279183Y0173026D02*
X0317891Y0173026D01*
X0317891Y0174224D02*
X0279183Y0174224D01*
X0279038Y0184965D02*
X0288032Y0184965D01*
X0288735Y0185668D01*
X0288735Y0189262D01*
X0288032Y0189965D01*
X0288735Y0190668D01*
X0288735Y0194262D01*
X0288032Y0194965D01*
X0288735Y0195668D01*
X0288735Y0199262D01*
X0288032Y0199965D01*
X0288132Y0200065D01*
X0301083Y0200065D01*
X0301965Y0200431D01*
X0302500Y0200965D01*
X0306701Y0200965D01*
X0308171Y0201574D01*
X0309297Y0202700D01*
X0309905Y0204170D01*
X0309905Y0205761D01*
X0309297Y0207231D01*
X0308171Y0208356D01*
X0306701Y0208965D01*
X0299510Y0208965D01*
X0298040Y0208356D01*
X0296914Y0207231D01*
X0296306Y0205761D01*
X0296306Y0204865D01*
X0288132Y0204865D01*
X0288032Y0204965D01*
X0288735Y0205668D01*
X0288735Y0209262D01*
X0288032Y0209965D01*
X0288735Y0210668D01*
X0288735Y0212565D01*
X0297049Y0212565D01*
X0298040Y0211574D01*
X0299510Y0210965D01*
X0306701Y0210965D01*
X0308171Y0211574D01*
X0309297Y0212700D01*
X0309905Y0214170D01*
X0309905Y0215761D01*
X0309297Y0217231D01*
X0308171Y0218356D01*
X0306701Y0218965D01*
X0299510Y0218965D01*
X0298040Y0218356D01*
X0297049Y0217365D01*
X0288735Y0217365D01*
X0288735Y0219262D01*
X0288032Y0219965D01*
X0288735Y0220668D01*
X0288735Y0224262D01*
X0288261Y0224737D01*
X0288518Y0224885D01*
X0288816Y0225183D01*
X0289026Y0225548D01*
X0289135Y0225955D01*
X0289135Y0227415D01*
X0283586Y0227415D01*
X0283586Y0227515D01*
X0289135Y0227515D01*
X0289135Y0228976D01*
X0289026Y0229383D01*
X0288816Y0229748D01*
X0288518Y0230046D01*
X0288261Y0230194D01*
X0288735Y0230668D01*
X0288735Y0234262D01*
X0288032Y0234965D01*
X0279038Y0234965D01*
X0278938Y0234865D01*
X0276929Y0234865D01*
X0272800Y0238994D01*
X0272800Y0246888D01*
X0272780Y0246935D01*
X0275013Y0246935D01*
X0275895Y0247301D01*
X0276026Y0247431D01*
X0276723Y0247720D01*
X0277480Y0248477D01*
X0277889Y0249465D01*
X0277889Y0250535D01*
X0277480Y0251523D01*
X0276723Y0252280D01*
X0275735Y0252689D01*
X0274665Y0252689D01*
X0273677Y0252280D01*
X0273133Y0251735D01*
X0271235Y0251735D01*
X0271235Y0252785D01*
X0270532Y0253488D01*
X0264419Y0253488D01*
X0263969Y0253038D01*
X0263835Y0253271D01*
X0263537Y0253568D01*
X0263172Y0253779D01*
X0262765Y0253888D01*
X0260595Y0253888D01*
X0260595Y0249935D01*
X0259395Y0249935D01*
X0259395Y0248735D01*
X0260595Y0248735D01*
X0260595Y0244783D01*
X0262765Y0244783D01*
X0263172Y0244892D01*
X0263537Y0245102D01*
X0263835Y0245400D01*
X0263969Y0245633D01*
X0264419Y0245183D01*
X0268000Y0245183D01*
X0268000Y0237523D01*
X0268365Y0236641D01*
X0269041Y0235965D01*
X0274575Y0230431D01*
X0275457Y0230065D01*
X0278587Y0230065D01*
X0278553Y0230046D01*
X0278255Y0229748D01*
X0278044Y0229383D01*
X0277935Y0228976D01*
X0277935Y0227515D01*
X0283485Y0227515D01*
X0283485Y0227415D01*
X0277935Y0227415D01*
X0277935Y0225955D01*
X0278044Y0225548D01*
X0278255Y0225183D01*
X0278553Y0224885D01*
X0278810Y0224737D01*
X0278335Y0224262D01*
X0278335Y0220668D01*
X0279038Y0219965D01*
X0278335Y0219262D01*
X0278335Y0215668D01*
X0279038Y0214965D01*
X0278335Y0214262D01*
X0278335Y0210668D01*
X0279038Y0209965D01*
X0278335Y0209262D01*
X0278335Y0205668D01*
X0279038Y0204965D01*
X0288032Y0204965D01*
X0279038Y0204965D01*
X0278335Y0204262D01*
X0278335Y0200668D01*
X0279038Y0199965D01*
X0278335Y0199262D01*
X0278335Y0195668D01*
X0279038Y0194965D01*
X0278335Y0194262D01*
X0278335Y0190668D01*
X0279038Y0189965D01*
X0278335Y0189262D01*
X0278335Y0185668D01*
X0279038Y0184965D01*
X0278993Y0185011D02*
X0249044Y0185011D01*
X0248918Y0184885D02*
X0249216Y0185183D01*
X0249426Y0185548D01*
X0249535Y0185955D01*
X0249535Y0187415D01*
X0243986Y0187415D01*
X0243986Y0187515D01*
X0249535Y0187515D01*
X0249535Y0188976D01*
X0249426Y0189383D01*
X0249216Y0189748D01*
X0248918Y0190046D01*
X0248661Y0190194D01*
X0249135Y0190668D01*
X0249135Y0194262D01*
X0248432Y0194965D01*
X0249135Y0195668D01*
X0249135Y0199262D01*
X0248432Y0199965D01*
X0249135Y0200668D01*
X0249135Y0204262D01*
X0248432Y0204965D01*
X0249135Y0205668D01*
X0249135Y0209262D01*
X0248432Y0209965D01*
X0249135Y0210668D01*
X0249135Y0214262D01*
X0248432Y0214965D01*
X0249135Y0215668D01*
X0249135Y0219262D01*
X0248432Y0219965D01*
X0249135Y0220668D01*
X0249135Y0224262D01*
X0248432Y0224965D01*
X0249135Y0225668D01*
X0249135Y0229262D01*
X0248661Y0229737D01*
X0248918Y0229885D01*
X0249216Y0230183D01*
X0249426Y0230548D01*
X0249535Y0230955D01*
X0249535Y0232415D01*
X0243986Y0232415D01*
X0243986Y0232515D01*
X0249535Y0232515D01*
X0249535Y0233976D01*
X0249426Y0234383D01*
X0249216Y0234748D01*
X0248918Y0235046D01*
X0248553Y0235256D01*
X0248146Y0235365D01*
X0243985Y0235365D01*
X0243985Y0232515D01*
X0243885Y0232515D01*
X0243885Y0232415D01*
X0238335Y0232415D01*
X0238335Y0230955D01*
X0238444Y0230548D01*
X0238655Y0230183D01*
X0238953Y0229885D01*
X0239210Y0229737D01*
X0238735Y0229262D01*
X0238735Y0225668D01*
X0239438Y0224965D01*
X0238735Y0224262D01*
X0238735Y0220668D01*
X0239438Y0219965D01*
X0238735Y0219262D01*
X0238735Y0215668D01*
X0239438Y0214965D01*
X0238738Y0214265D01*
X0237904Y0214265D01*
X0237880Y0214323D01*
X0237123Y0215080D01*
X0236135Y0215489D01*
X0235065Y0215489D01*
X0234077Y0215080D01*
X0233320Y0214323D01*
X0232911Y0213335D01*
X0232911Y0212265D01*
X0233320Y0211277D01*
X0234077Y0210520D01*
X0235065Y0210111D01*
X0236135Y0210111D01*
X0237123Y0210520D01*
X0237268Y0210665D01*
X0238738Y0210665D01*
X0239438Y0209965D01*
X0248432Y0209965D01*
X0239438Y0209965D01*
X0238735Y0209262D01*
X0238735Y0205668D01*
X0239438Y0204965D01*
X0238735Y0204262D01*
X0238735Y0200668D01*
X0239438Y0199965D01*
X0238735Y0199262D01*
X0238735Y0195668D01*
X0239438Y0194965D01*
X0238738Y0194265D01*
X0237320Y0194265D01*
X0235743Y0192689D01*
X0235065Y0192689D01*
X0234077Y0192280D01*
X0233320Y0191523D01*
X0232911Y0190535D01*
X0232911Y0189465D01*
X0233320Y0188477D01*
X0234077Y0187720D01*
X0235065Y0187311D01*
X0236135Y0187311D01*
X0237123Y0187720D01*
X0237880Y0188477D01*
X0238289Y0189465D01*
X0238289Y0190143D01*
X0238775Y0190629D01*
X0239210Y0190194D01*
X0238953Y0190046D01*
X0238655Y0189748D01*
X0238444Y0189383D01*
X0238335Y0188976D01*
X0238335Y0187515D01*
X0243885Y0187515D01*
X0243885Y0187415D01*
X0238335Y0187415D01*
X0238335Y0185955D01*
X0238444Y0185548D01*
X0238655Y0185183D01*
X0238953Y0184885D01*
X0239318Y0184674D01*
X0239725Y0184565D01*
X0243885Y0184565D01*
X0243885Y0187415D01*
X0243985Y0187415D01*
X0243985Y0184565D01*
X0248146Y0184565D01*
X0248553Y0184674D01*
X0248918Y0184885D01*
X0249535Y0186209D02*
X0278335Y0186209D01*
X0278335Y0187408D02*
X0249535Y0187408D01*
X0249535Y0188606D02*
X0278335Y0188606D01*
X0278878Y0189805D02*
X0249159Y0189805D01*
X0249135Y0191003D02*
X0278335Y0191003D01*
X0278335Y0192202D02*
X0249135Y0192202D01*
X0249135Y0193401D02*
X0278335Y0193401D01*
X0278672Y0194599D02*
X0248799Y0194599D01*
X0248432Y0194965D02*
X0246335Y0194965D01*
X0246335Y0194965D01*
X0248432Y0194965D01*
X0249135Y0195798D02*
X0278335Y0195798D01*
X0279038Y0194965D02*
X0281135Y0194965D01*
X0279038Y0194965D01*
X0281135Y0194965D02*
X0281135Y0194965D01*
X0278335Y0196996D02*
X0249135Y0196996D01*
X0249135Y0198195D02*
X0278335Y0198195D01*
X0278466Y0199393D02*
X0249005Y0199393D01*
X0248432Y0199965D02*
X0246335Y0199965D01*
X0246335Y0199965D01*
X0248432Y0199965D01*
X0249059Y0200592D02*
X0278412Y0200592D01*
X0279038Y0199965D02*
X0281135Y0199965D01*
X0279038Y0199965D01*
X0278335Y0201790D02*
X0249135Y0201790D01*
X0249135Y0202989D02*
X0278335Y0202989D01*
X0278335Y0204187D02*
X0249135Y0204187D01*
X0248432Y0204965D02*
X0246335Y0204965D01*
X0248432Y0204965D01*
X0248853Y0205386D02*
X0278618Y0205386D01*
X0278335Y0206584D02*
X0249135Y0206584D01*
X0249135Y0207783D02*
X0278335Y0207783D01*
X0278335Y0208981D02*
X0249135Y0208981D01*
X0248647Y0210180D02*
X0278824Y0210180D01*
X0279038Y0209965D02*
X0281135Y0209965D01*
X0279038Y0209965D01*
X0278335Y0211378D02*
X0249135Y0211378D01*
X0249135Y0212577D02*
X0278335Y0212577D01*
X0278335Y0213775D02*
X0249135Y0213775D01*
X0248432Y0214965D02*
X0246335Y0214965D01*
X0248432Y0214965D01*
X0248441Y0214974D02*
X0279030Y0214974D01*
X0279038Y0214965D02*
X0281135Y0214965D01*
X0279038Y0214965D01*
X0278335Y0216172D02*
X0249135Y0216172D01*
X0249135Y0217371D02*
X0278335Y0217371D01*
X0278335Y0218569D02*
X0249135Y0218569D01*
X0248630Y0219768D02*
X0278841Y0219768D01*
X0279038Y0219965D02*
X0281135Y0219965D01*
X0281135Y0219965D01*
X0279038Y0219965D01*
X0278335Y0220966D02*
X0249135Y0220966D01*
X0249135Y0222165D02*
X0278335Y0222165D01*
X0278335Y0223363D02*
X0249135Y0223363D01*
X0248836Y0224562D02*
X0278635Y0224562D01*
X0277988Y0225760D02*
X0249135Y0225760D01*
X0248432Y0224965D02*
X0246335Y0224965D01*
X0246335Y0224965D01*
X0248432Y0224965D01*
X0249135Y0226959D02*
X0277935Y0226959D01*
X0277935Y0228157D02*
X0249135Y0228157D01*
X0249042Y0229356D02*
X0278037Y0229356D01*
X0274452Y0230554D02*
X0249428Y0230554D01*
X0249535Y0231753D02*
X0273253Y0231753D01*
X0272054Y0232951D02*
X0249535Y0232951D01*
X0249489Y0234150D02*
X0270856Y0234150D01*
X0269657Y0235348D02*
X0248209Y0235348D01*
X0245200Y0232465D02*
X0245200Y0242800D01*
X0227838Y0260162D01*
X0214523Y0260162D01*
X0155468Y0260162D01*
X0156068Y0260517D02*
X0213923Y0260517D01*
X0213923Y0260762D02*
X0213923Y0259562D01*
X0215123Y0259562D01*
X0215123Y0260762D01*
X0220060Y0260762D01*
X0220060Y0262932D01*
X0219951Y0263339D01*
X0219740Y0263704D01*
X0219442Y0264002D01*
X0219077Y0264212D01*
X0218670Y0264321D01*
X0215123Y0264321D01*
X0215123Y0260762D01*
X0213923Y0260762D01*
X0208986Y0260762D01*
X0208986Y0262932D01*
X0209095Y0263339D01*
X0209306Y0263704D01*
X0209603Y0264002D01*
X0209968Y0264212D01*
X0210375Y0264321D01*
X0213923Y0264321D01*
X0213923Y0260762D01*
X0213923Y0261716D02*
X0215123Y0261716D01*
X0215123Y0262914D02*
X0213923Y0262914D01*
X0213923Y0264113D02*
X0215123Y0264113D01*
X0214535Y0265311D02*
X0270358Y0265311D01*
X0271556Y0264113D02*
X0219250Y0264113D01*
X0220060Y0262914D02*
X0272755Y0262914D01*
X0273953Y0261716D02*
X0220060Y0261716D01*
X0220060Y0259562D02*
X0215123Y0259562D01*
X0215123Y0256003D01*
X0218670Y0256003D01*
X0219077Y0256112D01*
X0219442Y0256323D01*
X0219740Y0256621D01*
X0219951Y0256986D01*
X0220060Y0257392D01*
X0220060Y0259562D01*
X0220060Y0259319D02*
X0276350Y0259319D01*
X0275152Y0260517D02*
X0215123Y0260517D01*
X0215123Y0259319D02*
X0213923Y0259319D01*
X0213923Y0259562D02*
X0213923Y0256003D01*
X0210375Y0256003D01*
X0209968Y0256112D01*
X0209603Y0256323D01*
X0209306Y0256621D01*
X0209095Y0256986D01*
X0208986Y0257392D01*
X0208986Y0259562D01*
X0213923Y0259562D01*
X0213923Y0258120D02*
X0215123Y0258120D01*
X0215123Y0256922D02*
X0213923Y0256922D01*
X0219914Y0256922D02*
X0278747Y0256922D01*
X0277549Y0258120D02*
X0220060Y0258120D01*
X0215523Y0265720D02*
X0216280Y0266477D01*
X0216689Y0267465D01*
X0216689Y0268535D01*
X0216323Y0269419D01*
X0216323Y0271364D01*
X0218169Y0271364D01*
X0218872Y0272067D01*
X0218872Y0273323D01*
X0220016Y0273323D01*
X0220016Y0272067D01*
X0220719Y0271364D01*
X0228012Y0271364D01*
X0228715Y0272067D01*
X0228715Y0278179D01*
X0228031Y0278863D01*
X0228715Y0279547D01*
X0228715Y0285659D01*
X0228012Y0286362D01*
X0226638Y0286362D01*
X0226638Y0293990D01*
X0227613Y0294394D01*
X0228992Y0295772D01*
X0229738Y0297573D01*
X0229738Y0299523D01*
X0228992Y0301324D01*
X0227613Y0302702D01*
X0225812Y0303448D01*
X0223863Y0303448D01*
X0222062Y0302702D01*
X0220684Y0301324D01*
X0219938Y0299523D01*
X0219938Y0297573D01*
X0220684Y0295772D01*
X0222062Y0294394D01*
X0223038Y0293990D01*
X0223038Y0286362D01*
X0220719Y0286362D01*
X0220016Y0285659D01*
X0220016Y0279547D01*
X0220700Y0278863D01*
X0220016Y0278179D01*
X0220016Y0276923D01*
X0218872Y0276923D01*
X0218872Y0278179D01*
X0218188Y0278863D01*
X0218872Y0279547D01*
X0218872Y0285659D01*
X0218169Y0286362D01*
X0216638Y0286362D01*
X0216638Y0293990D01*
X0217613Y0294394D01*
X0218992Y0295772D01*
X0219738Y0297573D01*
X0219738Y0299523D01*
X0218992Y0301324D01*
X0217613Y0302702D01*
X0215812Y0303448D01*
X0213863Y0303448D01*
X0212062Y0302702D01*
X0210684Y0301324D01*
X0209938Y0299523D01*
X0209938Y0297573D01*
X0210684Y0295772D01*
X0212062Y0294394D01*
X0213038Y0293990D01*
X0213038Y0286362D01*
X0210876Y0286362D01*
X0210173Y0285659D01*
X0210173Y0279547D01*
X0210857Y0278863D01*
X0210173Y0278179D01*
X0210173Y0272067D01*
X0210876Y0271364D01*
X0212723Y0271364D01*
X0212723Y0270381D01*
X0212477Y0270280D01*
X0211720Y0269523D01*
X0211311Y0268535D01*
X0211311Y0267465D01*
X0211720Y0266477D01*
X0212477Y0265720D01*
X0213465Y0265311D01*
X0214535Y0265311D01*
X0215523Y0265720D01*
X0216293Y0266510D02*
X0269159Y0266510D01*
X0267961Y0267708D02*
X0216689Y0267708D01*
X0216535Y0268907D02*
X0266762Y0268907D01*
X0265564Y0270105D02*
X0216323Y0270105D01*
X0216323Y0271304D02*
X0264365Y0271304D01*
X0263167Y0272502D02*
X0228715Y0272502D01*
X0228715Y0273701D02*
X0261968Y0273701D01*
X0260769Y0274899D02*
X0228715Y0274899D01*
X0228715Y0276098D02*
X0259571Y0276098D01*
X0258372Y0277296D02*
X0228715Y0277296D01*
X0228399Y0278495D02*
X0257174Y0278495D01*
X0255975Y0279693D02*
X0228715Y0279693D01*
X0228715Y0280892D02*
X0254777Y0280892D01*
X0253578Y0282090D02*
X0228715Y0282090D01*
X0228715Y0283289D02*
X0252380Y0283289D01*
X0251181Y0284487D02*
X0228715Y0284487D01*
X0228688Y0285686D02*
X0249983Y0285686D01*
X0248784Y0286884D02*
X0226638Y0286884D01*
X0226638Y0288083D02*
X0247586Y0288083D01*
X0246387Y0289281D02*
X0226638Y0289281D01*
X0226638Y0290480D02*
X0245189Y0290480D01*
X0243990Y0291678D02*
X0226638Y0291678D01*
X0226638Y0292877D02*
X0242792Y0292877D01*
X0241593Y0294075D02*
X0226844Y0294075D01*
X0228493Y0295274D02*
X0240395Y0295274D01*
X0239196Y0296472D02*
X0229282Y0296472D01*
X0229738Y0297671D02*
X0237998Y0297671D01*
X0236799Y0298870D02*
X0229738Y0298870D01*
X0229512Y0300068D02*
X0235601Y0300068D01*
X0234402Y0301267D02*
X0229015Y0301267D01*
X0227850Y0302465D02*
X0233204Y0302465D01*
X0224838Y0298548D02*
X0224838Y0283076D01*
X0224365Y0282603D01*
X0223038Y0286884D02*
X0216638Y0286884D01*
X0216638Y0288083D02*
X0223038Y0288083D01*
X0223038Y0289281D02*
X0216638Y0289281D01*
X0216638Y0290480D02*
X0223038Y0290480D01*
X0223038Y0291678D02*
X0216638Y0291678D01*
X0216638Y0292877D02*
X0223038Y0292877D01*
X0222831Y0294075D02*
X0216844Y0294075D01*
X0218493Y0295274D02*
X0221182Y0295274D01*
X0220394Y0296472D02*
X0219282Y0296472D01*
X0219738Y0297671D02*
X0219938Y0297671D01*
X0219938Y0298870D02*
X0219738Y0298870D01*
X0219512Y0300068D02*
X0220164Y0300068D01*
X0220660Y0301267D02*
X0219015Y0301267D01*
X0217850Y0302465D02*
X0221825Y0302465D01*
X0214838Y0298548D02*
X0214838Y0282918D01*
X0214523Y0282603D01*
X0218872Y0282090D02*
X0220016Y0282090D01*
X0220016Y0280892D02*
X0218872Y0280892D01*
X0218872Y0279693D02*
X0220016Y0279693D01*
X0220332Y0278495D02*
X0218557Y0278495D01*
X0218872Y0277296D02*
X0220016Y0277296D01*
X0220016Y0272502D02*
X0218872Y0272502D01*
X0214523Y0275123D02*
X0214523Y0268523D01*
X0214000Y0268000D01*
X0211465Y0268907D02*
X0206935Y0268907D01*
X0207089Y0268535D02*
X0206680Y0269523D01*
X0206200Y0270003D01*
X0206200Y0271364D01*
X0208327Y0271364D01*
X0209030Y0272067D01*
X0209030Y0278179D01*
X0208346Y0278863D01*
X0209030Y0279547D01*
X0209030Y0285659D01*
X0208327Y0286362D01*
X0206638Y0286362D01*
X0206638Y0293990D01*
X0207613Y0294394D01*
X0208992Y0295772D01*
X0209738Y0297573D01*
X0209738Y0299523D01*
X0208992Y0301324D01*
X0207613Y0302702D01*
X0205812Y0303448D01*
X0203863Y0303448D01*
X0202062Y0302702D01*
X0200684Y0301324D01*
X0199938Y0299523D01*
X0199938Y0297573D01*
X0200684Y0295772D01*
X0202062Y0294394D01*
X0203038Y0293990D01*
X0203038Y0286362D01*
X0201034Y0286362D01*
X0200331Y0285659D01*
X0200331Y0279547D01*
X0201015Y0278863D01*
X0200331Y0278179D01*
X0200331Y0276923D01*
X0199187Y0276923D01*
X0199187Y0278179D01*
X0198503Y0278863D01*
X0199187Y0279547D01*
X0199187Y0285659D01*
X0198484Y0286362D01*
X0196638Y0286362D01*
X0196638Y0293990D01*
X0197613Y0294394D01*
X0198992Y0295772D01*
X0199738Y0297573D01*
X0199738Y0299523D01*
X0198992Y0301324D01*
X0197613Y0302702D01*
X0195812Y0303448D01*
X0193863Y0303448D01*
X0192062Y0302702D01*
X0190684Y0301324D01*
X0189938Y0299523D01*
X0189938Y0297573D01*
X0190684Y0295772D01*
X0192062Y0294394D01*
X0193038Y0293990D01*
X0193038Y0286362D01*
X0191191Y0286362D01*
X0190488Y0285659D01*
X0190488Y0279547D01*
X0191172Y0278863D01*
X0190488Y0278179D01*
X0190488Y0276923D01*
X0189550Y0276923D01*
X0189550Y0278116D01*
X0188866Y0278800D01*
X0189550Y0279484D01*
X0189550Y0285596D01*
X0188847Y0286299D01*
X0187000Y0286299D01*
X0187000Y0289997D01*
X0187480Y0290477D01*
X0187889Y0291465D01*
X0187889Y0292535D01*
X0187480Y0293523D01*
X0186723Y0294280D01*
X0185735Y0294689D01*
X0184665Y0294689D01*
X0183677Y0294280D01*
X0182920Y0293523D01*
X0182511Y0292535D01*
X0182511Y0291465D01*
X0182920Y0290477D01*
X0183400Y0289997D01*
X0183400Y0286299D01*
X0181553Y0286299D01*
X0180850Y0285596D01*
X0180850Y0279484D01*
X0181534Y0278800D01*
X0180850Y0278116D01*
X0180850Y0272004D01*
X0181553Y0271301D01*
X0188847Y0271301D01*
X0189550Y0272004D01*
X0189550Y0273323D01*
X0190488Y0273323D01*
X0190488Y0272067D01*
X0191191Y0271364D01*
X0198484Y0271364D01*
X0199187Y0272067D01*
X0199187Y0273323D01*
X0200331Y0273323D01*
X0200331Y0272067D01*
X0201034Y0271364D01*
X0202600Y0271364D01*
X0202600Y0270003D01*
X0202120Y0269523D01*
X0201711Y0268535D01*
X0201711Y0267465D01*
X0202120Y0266477D01*
X0202877Y0265720D01*
X0203865Y0265311D01*
X0204935Y0265311D01*
X0205923Y0265720D01*
X0206680Y0266477D01*
X0207089Y0267465D01*
X0207089Y0268535D01*
X0207089Y0267708D02*
X0211311Y0267708D01*
X0211707Y0266510D02*
X0206693Y0266510D01*
X0204935Y0265311D02*
X0213465Y0265311D01*
X0212302Y0270105D02*
X0206200Y0270105D01*
X0206200Y0271304D02*
X0212723Y0271304D01*
X0210173Y0272502D02*
X0209030Y0272502D01*
X0209030Y0273701D02*
X0210173Y0273701D01*
X0210173Y0274899D02*
X0209030Y0274899D01*
X0209030Y0276098D02*
X0210173Y0276098D01*
X0210173Y0277296D02*
X0209030Y0277296D01*
X0208714Y0278495D02*
X0210489Y0278495D01*
X0210173Y0279693D02*
X0209030Y0279693D01*
X0209030Y0280892D02*
X0210173Y0280892D01*
X0210173Y0282090D02*
X0209030Y0282090D01*
X0209030Y0283289D02*
X0210173Y0283289D01*
X0210173Y0284487D02*
X0209030Y0284487D01*
X0209003Y0285686D02*
X0210200Y0285686D01*
X0213038Y0286884D02*
X0206638Y0286884D01*
X0206638Y0288083D02*
X0213038Y0288083D01*
X0213038Y0289281D02*
X0206638Y0289281D01*
X0206638Y0290480D02*
X0213038Y0290480D01*
X0213038Y0291678D02*
X0206638Y0291678D01*
X0206638Y0292877D02*
X0213038Y0292877D01*
X0212831Y0294075D02*
X0206844Y0294075D01*
X0208493Y0295274D02*
X0211182Y0295274D01*
X0210394Y0296472D02*
X0209282Y0296472D01*
X0209738Y0297671D02*
X0209938Y0297671D01*
X0209938Y0298870D02*
X0209738Y0298870D01*
X0209512Y0300068D02*
X0210164Y0300068D01*
X0210660Y0301267D02*
X0209015Y0301267D01*
X0207850Y0302465D02*
X0211825Y0302465D01*
X0204838Y0298548D02*
X0204838Y0282761D01*
X0204680Y0282603D01*
X0200331Y0282090D02*
X0199187Y0282090D01*
X0199187Y0280892D02*
X0200331Y0280892D01*
X0200331Y0279693D02*
X0199187Y0279693D01*
X0198872Y0278495D02*
X0200647Y0278495D01*
X0200331Y0277296D02*
X0199187Y0277296D01*
X0199187Y0272502D02*
X0200331Y0272502D01*
X0202600Y0271304D02*
X0188850Y0271304D01*
X0189550Y0272502D02*
X0190488Y0272502D01*
X0190488Y0277296D02*
X0189550Y0277296D01*
X0189171Y0278495D02*
X0190804Y0278495D01*
X0190488Y0279693D02*
X0189550Y0279693D01*
X0189550Y0280892D02*
X0190488Y0280892D01*
X0190488Y0282090D02*
X0189550Y0282090D01*
X0189550Y0283289D02*
X0190488Y0283289D01*
X0190488Y0284487D02*
X0189550Y0284487D01*
X0189460Y0285686D02*
X0190515Y0285686D01*
X0193038Y0286884D02*
X0187000Y0286884D01*
X0187000Y0288083D02*
X0193038Y0288083D01*
X0193038Y0289281D02*
X0187000Y0289281D01*
X0187481Y0290480D02*
X0193038Y0290480D01*
X0193038Y0291678D02*
X0187889Y0291678D01*
X0187747Y0292877D02*
X0193038Y0292877D01*
X0192831Y0294075D02*
X0186927Y0294075D01*
X0185200Y0292000D02*
X0185200Y0282540D01*
X0180850Y0282090D02*
X0179502Y0282090D01*
X0179502Y0280892D02*
X0180850Y0280892D01*
X0180850Y0279693D02*
X0179502Y0279693D01*
X0179502Y0279547D02*
X0179502Y0285659D01*
X0178799Y0286362D01*
X0177425Y0286362D01*
X0177425Y0293990D01*
X0178401Y0294394D01*
X0179779Y0295772D01*
X0180525Y0297573D01*
X0180525Y0299523D01*
X0179779Y0301324D01*
X0178401Y0302702D01*
X0176600Y0303448D01*
X0174651Y0303448D01*
X0172850Y0302702D01*
X0171471Y0301324D01*
X0170725Y0299523D01*
X0170725Y0297573D01*
X0171471Y0295772D01*
X0172850Y0294394D01*
X0173825Y0293990D01*
X0173825Y0286362D01*
X0171506Y0286362D01*
X0170803Y0285659D01*
X0170803Y0279547D01*
X0171487Y0278863D01*
X0170803Y0278179D01*
X0170803Y0276923D01*
X0169660Y0276923D01*
X0169660Y0278179D01*
X0168976Y0278863D01*
X0169660Y0279547D01*
X0169660Y0285659D01*
X0168957Y0286362D01*
X0167425Y0286362D01*
X0167425Y0293990D01*
X0168401Y0294394D01*
X0169779Y0295772D01*
X0170525Y0297573D01*
X0170525Y0299523D01*
X0169779Y0301324D01*
X0168401Y0302702D01*
X0166600Y0303448D01*
X0164651Y0303448D01*
X0162850Y0302702D01*
X0161471Y0301324D01*
X0160725Y0299523D01*
X0160725Y0297573D01*
X0161471Y0295772D01*
X0162850Y0294394D01*
X0163825Y0293990D01*
X0163825Y0286362D01*
X0161664Y0286362D01*
X0160961Y0285659D01*
X0160961Y0279547D01*
X0161645Y0278863D01*
X0160961Y0278179D01*
X0160961Y0272067D01*
X0161664Y0271364D01*
X0162018Y0271364D01*
X0158054Y0267400D01*
X0147603Y0267400D01*
X0147880Y0267677D01*
X0148289Y0268665D01*
X0148289Y0269735D01*
X0147880Y0270723D01*
X0147425Y0271178D01*
X0147425Y0271364D01*
X0149272Y0271364D01*
X0149975Y0272067D01*
X0149975Y0273323D01*
X0151118Y0273323D01*
X0151118Y0272067D01*
X0151821Y0271364D01*
X0159114Y0271364D01*
X0159817Y0272067D01*
X0159817Y0278179D01*
X0159133Y0278863D01*
X0159817Y0279547D01*
X0159817Y0285659D01*
X0159114Y0286362D01*
X0157425Y0286362D01*
X0157425Y0293990D01*
X0158401Y0294394D01*
X0159779Y0295772D01*
X0160525Y0297573D01*
X0160525Y0299523D01*
X0159779Y0301324D01*
X0158401Y0302702D01*
X0156600Y0303448D01*
X0154651Y0303448D01*
X0152850Y0302702D01*
X0151471Y0301324D01*
X0150725Y0299523D01*
X0150725Y0297573D01*
X0151471Y0295772D01*
X0152850Y0294394D01*
X0153825Y0293990D01*
X0153825Y0286362D01*
X0151821Y0286362D01*
X0151118Y0285659D01*
X0151118Y0279547D01*
X0151802Y0278863D01*
X0151118Y0278179D01*
X0151118Y0276923D01*
X0149975Y0276923D01*
X0149975Y0278179D01*
X0149291Y0278863D01*
X0149975Y0279547D01*
X0149975Y0285659D01*
X0149272Y0286362D01*
X0147425Y0286362D01*
X0147425Y0293990D01*
X0148401Y0294394D01*
X0149779Y0295772D01*
X0150525Y0297573D01*
X0150525Y0299523D01*
X0149779Y0301324D01*
X0148401Y0302702D01*
X0146600Y0303448D01*
X0144651Y0303448D01*
X0142850Y0302702D01*
X0141471Y0301324D01*
X0140725Y0299523D01*
X0140725Y0297573D01*
X0141471Y0295772D01*
X0142850Y0294394D01*
X0143825Y0293990D01*
X0143825Y0286362D01*
X0141979Y0286362D01*
X0141276Y0285659D01*
X0141276Y0279547D01*
X0141960Y0278863D01*
X0141276Y0278179D01*
X0141276Y0272067D01*
X0141979Y0271364D01*
X0143825Y0271364D01*
X0143825Y0271228D01*
X0143320Y0270723D01*
X0142911Y0269735D01*
X0142911Y0268665D01*
X0143320Y0267677D01*
X0144077Y0266920D01*
X0145065Y0266511D01*
X0146135Y0266511D01*
X0146529Y0266674D01*
X0144854Y0265000D01*
X0143800Y0263946D01*
X0143800Y0254403D01*
X0143320Y0253923D01*
X0142911Y0252935D01*
X0142911Y0251865D01*
X0143320Y0250877D01*
X0144077Y0250120D01*
X0145065Y0249711D01*
X0146135Y0249711D01*
X0147123Y0250120D01*
X0147880Y0250877D01*
X0148289Y0251865D01*
X0148289Y0252935D01*
X0147880Y0253923D01*
X0147400Y0254403D01*
X0147400Y0262454D01*
X0148746Y0263800D01*
X0150347Y0263800D01*
X0150250Y0263704D01*
X0150040Y0263339D01*
X0149931Y0262932D01*
X0149931Y0260762D01*
X0154868Y0260762D01*
X0154868Y0259562D01*
X0156068Y0259562D01*
X0156068Y0260762D01*
X0161005Y0260762D01*
X0161005Y0262932D01*
X0160896Y0263339D01*
X0160685Y0263704D01*
X0160387Y0264002D01*
X0160022Y0264212D01*
X0159971Y0264226D01*
X0160600Y0264854D01*
X0167109Y0271364D01*
X0168957Y0271364D01*
X0169660Y0272067D01*
X0169660Y0273323D01*
X0170803Y0273323D01*
X0170803Y0272067D01*
X0171506Y0271364D01*
X0178799Y0271364D01*
X0179502Y0272067D01*
X0179502Y0278179D01*
X0178818Y0278863D01*
X0179502Y0279547D01*
X0179186Y0278495D02*
X0181229Y0278495D01*
X0180850Y0277296D02*
X0179502Y0277296D01*
X0179502Y0276098D02*
X0180850Y0276098D01*
X0180850Y0274899D02*
X0179502Y0274899D01*
X0179502Y0273701D02*
X0180850Y0273701D01*
X0180850Y0272502D02*
X0179502Y0272502D01*
X0181550Y0271304D02*
X0167049Y0271304D01*
X0165851Y0270105D02*
X0202600Y0270105D01*
X0201865Y0268907D02*
X0164652Y0268907D01*
X0163454Y0267708D02*
X0201711Y0267708D01*
X0202107Y0266510D02*
X0162255Y0266510D01*
X0161057Y0265311D02*
X0203865Y0265311D01*
X0204400Y0268000D02*
X0204400Y0274843D01*
X0204680Y0275123D01*
X0194838Y0275123D01*
X0185263Y0275123D01*
X0185200Y0275060D01*
X0180850Y0283289D02*
X0179502Y0283289D01*
X0179502Y0284487D02*
X0180850Y0284487D01*
X0180940Y0285686D02*
X0179476Y0285686D01*
X0177425Y0286884D02*
X0183400Y0286884D01*
X0183400Y0288083D02*
X0177425Y0288083D01*
X0177425Y0289281D02*
X0183400Y0289281D01*
X0182919Y0290480D02*
X0177425Y0290480D01*
X0177425Y0291678D02*
X0182511Y0291678D01*
X0182653Y0292877D02*
X0177425Y0292877D01*
X0177632Y0294075D02*
X0183473Y0294075D01*
X0180069Y0296472D02*
X0190394Y0296472D01*
X0189938Y0297671D02*
X0180525Y0297671D01*
X0180525Y0298870D02*
X0189938Y0298870D01*
X0190164Y0300068D02*
X0180299Y0300068D01*
X0179803Y0301267D02*
X0190660Y0301267D01*
X0191825Y0302465D02*
X0178638Y0302465D01*
X0175625Y0298548D02*
X0175625Y0283076D01*
X0175153Y0282603D01*
X0170803Y0282090D02*
X0169660Y0282090D01*
X0169660Y0280892D02*
X0170803Y0280892D01*
X0170803Y0279693D02*
X0169660Y0279693D01*
X0169344Y0278495D02*
X0171119Y0278495D01*
X0170803Y0277296D02*
X0169660Y0277296D01*
X0169660Y0272502D02*
X0170803Y0272502D01*
X0175153Y0275123D02*
X0165310Y0275123D01*
X0165310Y0272110D01*
X0158800Y0265600D01*
X0148000Y0265600D01*
X0145600Y0263200D01*
X0145600Y0252400D01*
X0143073Y0253326D02*
X0113779Y0253326D01*
X0113835Y0253271D02*
X0113537Y0253568D01*
X0113172Y0253779D01*
X0112765Y0253888D01*
X0110595Y0253888D01*
X0110595Y0249935D01*
X0114154Y0249935D01*
X0114154Y0252499D01*
X0114045Y0252906D01*
X0113835Y0253271D01*
X0114154Y0252128D02*
X0142911Y0252128D01*
X0143299Y0250929D02*
X0114154Y0250929D01*
X0114154Y0248735D02*
X0110595Y0248735D01*
X0110595Y0244783D01*
X0112765Y0244783D01*
X0113172Y0244892D01*
X0113537Y0245102D01*
X0113835Y0245400D01*
X0114045Y0245765D01*
X0114154Y0246172D01*
X0114154Y0248735D01*
X0114154Y0248532D02*
X0255836Y0248532D01*
X0255836Y0248735D02*
X0255836Y0246172D01*
X0255945Y0245765D01*
X0256156Y0245400D01*
X0256454Y0245102D01*
X0256819Y0244892D01*
X0257226Y0244783D01*
X0259395Y0244783D01*
X0259395Y0248735D01*
X0255836Y0248735D01*
X0255836Y0249935D02*
X0259395Y0249935D01*
X0259395Y0253888D01*
X0257226Y0253888D01*
X0256819Y0253779D01*
X0256454Y0253568D01*
X0256156Y0253271D01*
X0255945Y0252906D01*
X0255836Y0252499D01*
X0255836Y0249935D01*
X0255836Y0250929D02*
X0147901Y0250929D01*
X0148289Y0252128D02*
X0255836Y0252128D01*
X0256211Y0253326D02*
X0148127Y0253326D01*
X0147400Y0254525D02*
X0281144Y0254525D01*
X0279946Y0255723D02*
X0147400Y0255723D01*
X0147400Y0256922D02*
X0150077Y0256922D01*
X0150040Y0256986D02*
X0150250Y0256621D01*
X0150548Y0256323D01*
X0150913Y0256112D01*
X0151320Y0256003D01*
X0154868Y0256003D01*
X0154868Y0259562D01*
X0149931Y0259562D01*
X0149931Y0257392D01*
X0150040Y0256986D01*
X0149931Y0258120D02*
X0147400Y0258120D01*
X0147400Y0259319D02*
X0149931Y0259319D01*
X0149931Y0261716D02*
X0147400Y0261716D01*
X0147400Y0260517D02*
X0154868Y0260517D01*
X0154868Y0259319D02*
X0156068Y0259319D01*
X0156068Y0259562D02*
X0156068Y0256003D01*
X0159615Y0256003D01*
X0160022Y0256112D01*
X0160387Y0256323D01*
X0160685Y0256621D01*
X0160896Y0256986D01*
X0161005Y0257392D01*
X0161005Y0259562D01*
X0156068Y0259562D01*
X0156068Y0258120D02*
X0154868Y0258120D01*
X0154868Y0256922D02*
X0156068Y0256922D01*
X0160859Y0256922D02*
X0209132Y0256922D01*
X0208986Y0258120D02*
X0161005Y0258120D01*
X0161005Y0259319D02*
X0208986Y0259319D01*
X0208986Y0261716D02*
X0161005Y0261716D01*
X0161005Y0262914D02*
X0208986Y0262914D01*
X0209796Y0264113D02*
X0160195Y0264113D01*
X0158363Y0267708D02*
X0147893Y0267708D01*
X0148289Y0268907D02*
X0159561Y0268907D01*
X0160760Y0270105D02*
X0148136Y0270105D01*
X0147425Y0271304D02*
X0161958Y0271304D01*
X0160961Y0272502D02*
X0159817Y0272502D01*
X0159817Y0273701D02*
X0160961Y0273701D01*
X0160961Y0274899D02*
X0159817Y0274899D01*
X0159817Y0276098D02*
X0160961Y0276098D01*
X0160961Y0277296D02*
X0159817Y0277296D01*
X0159501Y0278495D02*
X0161277Y0278495D01*
X0160961Y0279693D02*
X0159817Y0279693D01*
X0159817Y0280892D02*
X0160961Y0280892D01*
X0160961Y0282090D02*
X0159817Y0282090D01*
X0159817Y0283289D02*
X0160961Y0283289D01*
X0160961Y0284487D02*
X0159817Y0284487D01*
X0159791Y0285686D02*
X0160987Y0285686D01*
X0163825Y0286884D02*
X0157425Y0286884D01*
X0157425Y0288083D02*
X0163825Y0288083D01*
X0163825Y0289281D02*
X0157425Y0289281D01*
X0157425Y0290480D02*
X0163825Y0290480D01*
X0163825Y0291678D02*
X0157425Y0291678D01*
X0157425Y0292877D02*
X0163825Y0292877D01*
X0163619Y0294075D02*
X0157632Y0294075D01*
X0159281Y0295274D02*
X0161970Y0295274D01*
X0161181Y0296472D02*
X0160069Y0296472D01*
X0160525Y0297671D02*
X0160725Y0297671D01*
X0160725Y0298870D02*
X0160525Y0298870D01*
X0160299Y0300068D02*
X0160951Y0300068D01*
X0161448Y0301267D02*
X0159803Y0301267D01*
X0158638Y0302465D02*
X0162613Y0302465D01*
X0165625Y0298548D02*
X0165625Y0282918D01*
X0165310Y0282603D01*
X0169660Y0283289D02*
X0170803Y0283289D01*
X0170803Y0284487D02*
X0169660Y0284487D01*
X0169633Y0285686D02*
X0170830Y0285686D01*
X0173825Y0286884D02*
X0167425Y0286884D01*
X0167425Y0288083D02*
X0173825Y0288083D01*
X0173825Y0289281D02*
X0167425Y0289281D01*
X0167425Y0290480D02*
X0173825Y0290480D01*
X0173825Y0291678D02*
X0167425Y0291678D01*
X0167425Y0292877D02*
X0173825Y0292877D01*
X0173619Y0294075D02*
X0167632Y0294075D01*
X0169281Y0295274D02*
X0171970Y0295274D01*
X0171181Y0296472D02*
X0170069Y0296472D01*
X0170525Y0297671D02*
X0170725Y0297671D01*
X0170725Y0298870D02*
X0170525Y0298870D01*
X0170299Y0300068D02*
X0170951Y0300068D01*
X0171448Y0301267D02*
X0169803Y0301267D01*
X0168638Y0302465D02*
X0172613Y0302465D01*
X0179281Y0295274D02*
X0191182Y0295274D01*
X0194838Y0298548D02*
X0194838Y0282603D01*
X0199187Y0283289D02*
X0200331Y0283289D01*
X0200331Y0284487D02*
X0199187Y0284487D01*
X0199161Y0285686D02*
X0200357Y0285686D01*
X0203038Y0286884D02*
X0196638Y0286884D01*
X0196638Y0288083D02*
X0203038Y0288083D01*
X0203038Y0289281D02*
X0196638Y0289281D01*
X0196638Y0290480D02*
X0203038Y0290480D01*
X0203038Y0291678D02*
X0196638Y0291678D01*
X0196638Y0292877D02*
X0203038Y0292877D01*
X0202831Y0294075D02*
X0196844Y0294075D01*
X0198493Y0295274D02*
X0201182Y0295274D01*
X0200394Y0296472D02*
X0199282Y0296472D01*
X0199738Y0297671D02*
X0199938Y0297671D01*
X0199938Y0298870D02*
X0199738Y0298870D01*
X0199512Y0300068D02*
X0200164Y0300068D01*
X0200660Y0301267D02*
X0199015Y0301267D01*
X0197850Y0302465D02*
X0201825Y0302465D01*
X0218846Y0285686D02*
X0220042Y0285686D01*
X0220016Y0284487D02*
X0218872Y0284487D01*
X0218872Y0283289D02*
X0220016Y0283289D01*
X0224365Y0275123D02*
X0214523Y0275123D01*
X0201123Y0242680D02*
X0200135Y0243089D01*
X0199065Y0243089D01*
X0198077Y0242680D01*
X0197320Y0241923D01*
X0196911Y0240935D01*
X0196911Y0239865D01*
X0197320Y0238877D01*
X0197800Y0238397D01*
X0197800Y0234265D01*
X0196188Y0234265D01*
X0195485Y0233562D01*
X0195485Y0227449D01*
X0196169Y0226765D01*
X0195803Y0226400D01*
X0195123Y0227080D01*
X0194135Y0227489D01*
X0193065Y0227489D01*
X0192077Y0227080D01*
X0191320Y0226323D01*
X0190911Y0225335D01*
X0190911Y0224265D01*
X0191320Y0223277D01*
X0192077Y0222520D01*
X0193065Y0222111D01*
X0194135Y0222111D01*
X0194707Y0222348D01*
X0195485Y0221569D01*
X0195485Y0219969D01*
X0195695Y0219759D01*
X0195695Y0201307D01*
X0195123Y0201880D01*
X0194135Y0202289D01*
X0193065Y0202289D01*
X0192077Y0201880D01*
X0191320Y0201123D01*
X0190911Y0200135D01*
X0190911Y0199457D01*
X0190695Y0199241D01*
X0190695Y0195592D01*
X0189995Y0194892D01*
X0189295Y0195592D01*
X0189295Y0199250D01*
X0189089Y0199457D01*
X0189089Y0200135D01*
X0188680Y0201123D01*
X0187923Y0201880D01*
X0186935Y0202289D01*
X0185865Y0202289D01*
X0184877Y0201880D01*
X0184295Y0201298D01*
X0184295Y0210250D01*
X0183241Y0211305D01*
X0173818Y0220728D01*
X0174073Y0220728D01*
X0175457Y0222111D01*
X0176135Y0222111D01*
X0177123Y0222520D01*
X0177880Y0223277D01*
X0178289Y0224265D01*
X0178289Y0225335D01*
X0177880Y0226323D01*
X0177123Y0227080D01*
X0176135Y0227489D01*
X0175065Y0227489D01*
X0174077Y0227080D01*
X0173403Y0226406D01*
X0172877Y0226932D01*
X0173561Y0227616D01*
X0173561Y0233729D01*
X0172858Y0234431D01*
X0171208Y0234431D01*
X0171208Y0234605D01*
X0171880Y0235277D01*
X0172289Y0236265D01*
X0172289Y0237335D01*
X0171880Y0238323D01*
X0171123Y0239080D01*
X0170135Y0239489D01*
X0169065Y0239489D01*
X0168077Y0239080D01*
X0167320Y0238323D01*
X0166911Y0237335D01*
X0166911Y0236265D01*
X0167320Y0235277D01*
X0167608Y0234989D01*
X0167608Y0234431D01*
X0165958Y0234431D01*
X0165255Y0233729D01*
X0165255Y0227616D01*
X0165939Y0226932D01*
X0165255Y0226248D01*
X0165255Y0224328D01*
X0165027Y0224328D01*
X0165027Y0225584D01*
X0164343Y0226268D01*
X0165027Y0226952D01*
X0165027Y0233064D01*
X0164324Y0233767D01*
X0161795Y0233767D01*
X0161795Y0234750D01*
X0163051Y0234750D01*
X0163754Y0235453D01*
X0163754Y0241565D01*
X0163051Y0242268D01*
X0156939Y0242268D01*
X0156236Y0241565D01*
X0156236Y0235453D01*
X0156939Y0234750D01*
X0158195Y0234750D01*
X0158195Y0233767D01*
X0157030Y0233767D01*
X0156328Y0233064D01*
X0156328Y0226952D01*
X0157012Y0226268D01*
X0156328Y0225584D01*
X0156328Y0219471D01*
X0157030Y0218769D01*
X0164324Y0218769D01*
X0165027Y0219471D01*
X0165027Y0220728D01*
X0165255Y0220728D01*
X0165255Y0220136D01*
X0165958Y0219433D01*
X0170021Y0219433D01*
X0180695Y0208759D01*
X0180695Y0195592D01*
X0179995Y0194892D01*
X0179295Y0195592D01*
X0179295Y0209250D01*
X0171400Y0217146D01*
X0170346Y0218200D01*
X0152346Y0218200D01*
X0152213Y0218333D01*
X0152213Y0219011D01*
X0154481Y0219011D01*
X0155184Y0219714D01*
X0155184Y0225826D01*
X0154500Y0226510D01*
X0155184Y0227194D01*
X0155184Y0233306D01*
X0154481Y0234009D01*
X0152635Y0234009D01*
X0152635Y0234750D01*
X0153996Y0234750D01*
X0154699Y0235453D01*
X0154699Y0241565D01*
X0153996Y0242268D01*
X0147884Y0242268D01*
X0147181Y0241565D01*
X0147181Y0235453D01*
X0147884Y0234750D01*
X0149035Y0234750D01*
X0149035Y0234009D01*
X0147188Y0234009D01*
X0146485Y0233306D01*
X0146485Y0227194D01*
X0147169Y0226510D01*
X0146485Y0225826D01*
X0146485Y0224992D01*
X0145476Y0224992D01*
X0145476Y0226248D01*
X0144792Y0226932D01*
X0145476Y0227616D01*
X0145476Y0233729D01*
X0144773Y0234431D01*
X0137873Y0234431D01*
X0137170Y0233729D01*
X0137170Y0232472D01*
X0136327Y0232472D01*
X0135254Y0231400D01*
X0134200Y0230346D01*
X0134200Y0205146D01*
X0133743Y0204689D01*
X0133065Y0204689D01*
X0132077Y0204280D01*
X0131597Y0203800D01*
X0131255Y0203800D01*
X0131255Y0204262D01*
X0130552Y0204965D01*
X0128455Y0204965D01*
X0128455Y0204965D01*
X0130552Y0204965D01*
X0131255Y0205668D01*
X0131255Y0209262D01*
X0130552Y0209965D01*
X0121558Y0209965D01*
X0120855Y0209262D01*
X0120855Y0205668D01*
X0121558Y0204965D01*
X0120855Y0204262D01*
X0120855Y0200668D01*
X0121558Y0199965D01*
X0120855Y0199262D01*
X0120855Y0195668D01*
X0121558Y0194965D01*
X0120855Y0194262D01*
X0120855Y0190668D01*
X0121329Y0190194D01*
X0121073Y0190046D01*
X0120775Y0189748D01*
X0120564Y0189383D01*
X0120455Y0188976D01*
X0120455Y0187515D01*
X0126005Y0187515D01*
X0126005Y0187415D01*
X0126105Y0187415D01*
X0126105Y0184565D01*
X0130266Y0184565D01*
X0130673Y0184674D01*
X0131038Y0184885D01*
X0131335Y0185183D01*
X0131546Y0185548D01*
X0131655Y0185955D01*
X0131655Y0187415D01*
X0126105Y0187415D01*
X0126105Y0187515D01*
X0131655Y0187515D01*
X0131655Y0188976D01*
X0131546Y0189383D01*
X0131335Y0189748D01*
X0131038Y0190046D01*
X0130781Y0190194D01*
X0131255Y0190668D01*
X0131255Y0194262D01*
X0130552Y0194965D01*
X0128455Y0194965D01*
X0128455Y0194965D01*
X0130552Y0194965D01*
X0131255Y0195668D01*
X0131255Y0199262D01*
X0130552Y0199965D01*
X0128455Y0199965D01*
X0128455Y0199965D01*
X0130552Y0199965D01*
X0130787Y0200200D01*
X0131597Y0200200D01*
X0132077Y0199720D01*
X0133065Y0199311D01*
X0134135Y0199311D01*
X0135123Y0199720D01*
X0135880Y0200477D01*
X0136289Y0201465D01*
X0136289Y0202143D01*
X0137800Y0203654D01*
X0137800Y0219506D01*
X0137873Y0219433D01*
X0144773Y0219433D01*
X0145476Y0220136D01*
X0145476Y0221392D01*
X0146485Y0221392D01*
X0146485Y0220966D01*
X0146200Y0220681D01*
X0146200Y0219603D01*
X0145720Y0219123D01*
X0145311Y0218135D01*
X0145311Y0217065D01*
X0145720Y0216077D01*
X0146477Y0215320D01*
X0147465Y0214911D01*
X0148535Y0214911D01*
X0149523Y0215320D01*
X0149829Y0215626D01*
X0150854Y0214600D01*
X0168854Y0214600D01*
X0175695Y0207759D01*
X0175695Y0195592D01*
X0174995Y0194892D01*
X0174295Y0195592D01*
X0174295Y0199315D01*
X0174689Y0200265D01*
X0174689Y0201335D01*
X0174280Y0202323D01*
X0173523Y0203080D01*
X0172535Y0203489D01*
X0171465Y0203489D01*
X0170477Y0203080D01*
X0169720Y0202323D01*
X0169311Y0201335D01*
X0169311Y0200265D01*
X0169434Y0199969D01*
X0168723Y0200680D01*
X0167735Y0201089D01*
X0166665Y0201089D01*
X0165677Y0200680D01*
X0164920Y0199923D01*
X0164511Y0198935D01*
X0164511Y0197865D01*
X0164920Y0196877D01*
X0165400Y0196397D01*
X0165400Y0195297D01*
X0165224Y0195121D01*
X0165076Y0195378D01*
X0164778Y0195676D01*
X0164413Y0195886D01*
X0164006Y0195995D01*
X0162545Y0195995D01*
X0162545Y0190445D01*
X0162445Y0190445D01*
X0162445Y0190345D01*
X0159595Y0190345D01*
X0159595Y0186185D01*
X0159704Y0185778D01*
X0159915Y0185413D01*
X0160213Y0185115D01*
X0160578Y0184904D01*
X0160985Y0184795D01*
X0162445Y0184795D01*
X0162445Y0190345D01*
X0162545Y0190345D01*
X0162545Y0184795D01*
X0164006Y0184795D01*
X0164413Y0184904D01*
X0164778Y0185115D01*
X0165076Y0185413D01*
X0165224Y0185670D01*
X0165698Y0185195D01*
X0169292Y0185195D01*
X0169995Y0185898D01*
X0169995Y0194892D01*
X0169292Y0195595D01*
X0169000Y0195595D01*
X0169000Y0196397D01*
X0169480Y0196877D01*
X0169889Y0197865D01*
X0169889Y0198935D01*
X0169766Y0199231D01*
X0170477Y0198520D01*
X0170695Y0198430D01*
X0170695Y0195592D01*
X0169995Y0194892D01*
X0169995Y0185898D01*
X0170698Y0185195D01*
X0174292Y0185195D01*
X0174995Y0185898D01*
X0174995Y0194892D01*
X0174995Y0185898D01*
X0175698Y0185195D01*
X0179292Y0185195D01*
X0179995Y0185898D01*
X0179995Y0194892D01*
X0179995Y0185898D01*
X0180698Y0185195D01*
X0184292Y0185195D01*
X0184995Y0185898D01*
X0184995Y0194892D01*
X0184295Y0195592D01*
X0184295Y0197902D01*
X0184877Y0197320D01*
X0185695Y0196981D01*
X0185695Y0195592D01*
X0184995Y0194892D01*
X0184995Y0185898D01*
X0185698Y0185195D01*
X0189292Y0185195D01*
X0189995Y0185898D01*
X0189995Y0194892D01*
X0189995Y0185898D01*
X0190698Y0185195D01*
X0194292Y0185195D01*
X0194995Y0185898D01*
X0194995Y0194892D01*
X0194295Y0195592D01*
X0194295Y0196977D01*
X0195123Y0197320D01*
X0195695Y0197893D01*
X0195695Y0195592D01*
X0194995Y0194892D01*
X0194995Y0185898D01*
X0195698Y0185195D01*
X0199292Y0185195D01*
X0199995Y0185898D01*
X0199995Y0194892D01*
X0199295Y0195592D01*
X0199295Y0219266D01*
X0203088Y0219266D01*
X0203791Y0219969D01*
X0203791Y0221225D01*
X0205131Y0221225D01*
X0205131Y0219969D01*
X0205834Y0219266D01*
X0213127Y0219266D01*
X0213830Y0219969D01*
X0213830Y0226081D01*
X0213146Y0226765D01*
X0213830Y0227449D01*
X0213830Y0233562D01*
X0213127Y0234265D01*
X0211795Y0234265D01*
X0211795Y0234750D01*
X0213051Y0234750D01*
X0213754Y0235453D01*
X0213754Y0241565D01*
X0213051Y0242268D01*
X0206939Y0242268D01*
X0206236Y0241565D01*
X0206236Y0235453D01*
X0206939Y0234750D01*
X0208195Y0234750D01*
X0208195Y0234265D01*
X0205834Y0234265D01*
X0205131Y0233562D01*
X0205131Y0227449D01*
X0205815Y0226765D01*
X0205131Y0226081D01*
X0205131Y0224825D01*
X0203791Y0224825D01*
X0203791Y0226081D01*
X0203106Y0226765D01*
X0203791Y0227449D01*
X0203791Y0233562D01*
X0203088Y0234265D01*
X0201400Y0234265D01*
X0201400Y0238397D01*
X0201880Y0238877D01*
X0202289Y0239865D01*
X0202289Y0240935D01*
X0201880Y0241923D01*
X0201123Y0242680D01*
X0201263Y0242539D02*
X0268000Y0242539D01*
X0268000Y0241341D02*
X0232462Y0241341D01*
X0232323Y0241480D02*
X0231335Y0241889D01*
X0230265Y0241889D01*
X0229277Y0241480D01*
X0228520Y0240723D01*
X0228111Y0239735D01*
X0228111Y0239057D01*
X0227365Y0238311D01*
X0227365Y0234265D01*
X0225716Y0234265D01*
X0225013Y0233562D01*
X0225013Y0227449D01*
X0225697Y0226765D01*
X0225013Y0226081D01*
X0225013Y0224825D01*
X0223672Y0224825D01*
X0223672Y0226081D01*
X0222988Y0226765D01*
X0223672Y0227449D01*
X0223672Y0233562D01*
X0222969Y0234265D01*
X0220850Y0234265D01*
X0220850Y0234750D01*
X0222106Y0234750D01*
X0222809Y0235453D01*
X0222809Y0241565D01*
X0222106Y0242268D01*
X0215994Y0242268D01*
X0215291Y0241565D01*
X0215291Y0235453D01*
X0215994Y0234750D01*
X0217250Y0234750D01*
X0217250Y0234265D01*
X0215676Y0234265D01*
X0214973Y0233562D01*
X0214973Y0227449D01*
X0215657Y0226765D01*
X0214973Y0226081D01*
X0214973Y0219969D01*
X0215676Y0219266D01*
X0217523Y0219266D01*
X0217523Y0217668D01*
X0216854Y0217000D01*
X0204854Y0217000D01*
X0203800Y0215946D01*
X0200695Y0212841D01*
X0200695Y0195592D01*
X0199995Y0194892D01*
X0199995Y0185898D01*
X0200698Y0185195D01*
X0204292Y0185195D01*
X0204767Y0185670D01*
X0204915Y0185413D01*
X0205213Y0185115D01*
X0205578Y0184904D01*
X0205985Y0184795D01*
X0207445Y0184795D01*
X0207445Y0190345D01*
X0207545Y0190345D01*
X0207545Y0184795D01*
X0209006Y0184795D01*
X0209413Y0184904D01*
X0209778Y0185115D01*
X0210076Y0185413D01*
X0210286Y0185778D01*
X0210395Y0186185D01*
X0210395Y0190345D01*
X0207545Y0190345D01*
X0207545Y0190445D01*
X0207445Y0190445D01*
X0207445Y0195995D01*
X0205985Y0195995D01*
X0205578Y0195886D01*
X0205213Y0195676D01*
X0204915Y0195378D01*
X0204767Y0195121D01*
X0204295Y0195592D01*
X0204295Y0211350D01*
X0206346Y0213400D01*
X0217338Y0213400D01*
X0217720Y0212477D01*
X0218477Y0211720D01*
X0219465Y0211311D01*
X0220535Y0211311D01*
X0221523Y0211720D01*
X0222280Y0212477D01*
X0222689Y0213465D01*
X0222689Y0214535D01*
X0222280Y0215523D01*
X0221523Y0216280D01*
X0221123Y0216445D01*
X0221123Y0219266D01*
X0222969Y0219266D01*
X0223672Y0219969D01*
X0223672Y0221225D01*
X0225013Y0221225D01*
X0225013Y0219969D01*
X0225716Y0219266D01*
X0232615Y0219266D01*
X0233318Y0219969D01*
X0233318Y0226081D01*
X0232634Y0226765D01*
X0233318Y0227449D01*
X0233318Y0233562D01*
X0232615Y0234265D01*
X0230965Y0234265D01*
X0230965Y0236511D01*
X0231335Y0236511D01*
X0232323Y0236920D01*
X0233080Y0237677D01*
X0233489Y0238665D01*
X0233489Y0239735D01*
X0233080Y0240723D01*
X0232323Y0241480D01*
X0233320Y0240142D02*
X0268000Y0240142D01*
X0268000Y0238944D02*
X0233489Y0238944D01*
X0233108Y0237745D02*
X0268000Y0237745D01*
X0268459Y0236547D02*
X0231422Y0236547D01*
X0230965Y0235348D02*
X0239662Y0235348D01*
X0239725Y0235365D02*
X0239318Y0235256D01*
X0238953Y0235046D01*
X0238655Y0234748D01*
X0238444Y0234383D01*
X0238335Y0233976D01*
X0238335Y0232515D01*
X0243885Y0232515D01*
X0243885Y0235365D01*
X0239725Y0235365D01*
X0238382Y0234150D02*
X0232730Y0234150D01*
X0233318Y0232951D02*
X0238335Y0232951D01*
X0238335Y0231753D02*
X0233318Y0231753D01*
X0233318Y0230554D02*
X0238443Y0230554D01*
X0238829Y0229356D02*
X0233318Y0229356D01*
X0233318Y0228157D02*
X0238735Y0228157D01*
X0238735Y0226959D02*
X0232828Y0226959D01*
X0233318Y0225760D02*
X0238735Y0225760D01*
X0239438Y0224965D02*
X0241535Y0224965D01*
X0239438Y0224965D01*
X0239035Y0224562D02*
X0233318Y0224562D01*
X0233318Y0223363D02*
X0238735Y0223363D01*
X0238735Y0222165D02*
X0233318Y0222165D01*
X0233318Y0220966D02*
X0238735Y0220966D01*
X0239438Y0219965D02*
X0241535Y0219965D01*
X0239438Y0219965D01*
X0239241Y0219768D02*
X0233117Y0219768D01*
X0233971Y0214974D02*
X0222507Y0214974D01*
X0222689Y0213775D02*
X0233093Y0213775D01*
X0232911Y0212577D02*
X0222321Y0212577D01*
X0220697Y0211378D02*
X0233278Y0211378D01*
X0234899Y0210180D02*
X0204295Y0210180D01*
X0204324Y0211378D02*
X0219303Y0211378D01*
X0217679Y0212577D02*
X0205522Y0212577D01*
X0205600Y0215200D02*
X0217600Y0215200D01*
X0219323Y0216923D01*
X0219323Y0222400D01*
X0219948Y0223025D01*
X0229165Y0223025D01*
X0225013Y0220966D02*
X0223672Y0220966D01*
X0223471Y0219768D02*
X0225214Y0219768D01*
X0221123Y0218569D02*
X0238735Y0218569D01*
X0238735Y0217371D02*
X0221123Y0217371D01*
X0221631Y0216172D02*
X0238735Y0216172D01*
X0239430Y0214974D02*
X0237229Y0214974D01*
X0239438Y0214965D02*
X0241535Y0214965D01*
X0241535Y0214965D01*
X0239438Y0214965D01*
X0235935Y0212465D02*
X0235600Y0212800D01*
X0235935Y0212465D02*
X0243935Y0212465D01*
X0246335Y0214965D02*
X0246335Y0214965D01*
X0246335Y0219965D02*
X0246335Y0219965D01*
X0248432Y0219965D01*
X0246335Y0219965D01*
X0241535Y0219965D02*
X0241535Y0219965D01*
X0241535Y0224965D02*
X0241535Y0224965D01*
X0243885Y0232951D02*
X0243985Y0232951D01*
X0243985Y0234150D02*
X0243885Y0234150D01*
X0243885Y0235348D02*
X0243985Y0235348D01*
X0255846Y0246135D02*
X0114144Y0246135D01*
X0114154Y0247334D02*
X0255836Y0247334D01*
X0256741Y0244937D02*
X0113249Y0244937D01*
X0110595Y0244937D02*
X0109395Y0244937D01*
X0109395Y0244783D02*
X0109395Y0248735D01*
X0110595Y0248735D01*
X0110595Y0249935D01*
X0109395Y0249935D01*
X0109395Y0253888D01*
X0107226Y0253888D01*
X0106819Y0253779D01*
X0106454Y0253568D01*
X0106156Y0253271D01*
X0106021Y0253038D01*
X0105571Y0253488D01*
X0099459Y0253488D01*
X0098756Y0252785D01*
X0098756Y0251735D01*
X0096067Y0251735D01*
X0095523Y0252280D01*
X0094535Y0252689D01*
X0093465Y0252689D01*
X0092477Y0252280D01*
X0091720Y0251523D01*
X0091311Y0250535D01*
X0091311Y0249465D01*
X0091720Y0248477D01*
X0092477Y0247720D01*
X0093174Y0247431D01*
X0093305Y0247301D01*
X0094187Y0246935D01*
X0098756Y0246935D01*
X0098756Y0245886D01*
X0099459Y0245183D01*
X0105571Y0245183D01*
X0106021Y0245633D01*
X0106156Y0245400D01*
X0106454Y0245102D01*
X0106819Y0244892D01*
X0107226Y0244783D01*
X0109395Y0244783D01*
X0109395Y0246135D02*
X0110595Y0246135D01*
X0110595Y0247334D02*
X0109395Y0247334D01*
X0109395Y0248532D02*
X0110595Y0248532D01*
X0110595Y0249731D02*
X0145018Y0249731D01*
X0146182Y0249731D02*
X0259395Y0249731D01*
X0259395Y0250929D02*
X0260595Y0250929D01*
X0260595Y0252128D02*
X0259395Y0252128D01*
X0259395Y0253326D02*
X0260595Y0253326D01*
X0263779Y0253326D02*
X0264257Y0253326D01*
X0260595Y0248532D02*
X0259395Y0248532D01*
X0259395Y0247334D02*
X0260595Y0247334D01*
X0260595Y0246135D02*
X0259395Y0246135D01*
X0259395Y0244937D02*
X0260595Y0244937D01*
X0263249Y0244937D02*
X0268000Y0244937D01*
X0268000Y0243738D02*
X0078060Y0243738D01*
X0079258Y0244937D02*
X0106741Y0244937D01*
X0109395Y0250929D02*
X0110595Y0250929D01*
X0110595Y0252128D02*
X0109395Y0252128D01*
X0109395Y0253326D02*
X0110595Y0253326D01*
X0106211Y0253326D02*
X0105733Y0253326D01*
X0099297Y0253326D02*
X0087648Y0253326D01*
X0088846Y0254525D02*
X0143800Y0254525D01*
X0143800Y0255723D02*
X0090045Y0255723D01*
X0091243Y0256922D02*
X0143800Y0256922D01*
X0143800Y0258120D02*
X0092442Y0258120D01*
X0093640Y0259319D02*
X0143800Y0259319D01*
X0143800Y0260517D02*
X0094839Y0260517D01*
X0096037Y0261716D02*
X0143800Y0261716D01*
X0143800Y0262914D02*
X0097236Y0262914D01*
X0098434Y0264113D02*
X0143967Y0264113D01*
X0145166Y0265311D02*
X0099633Y0265311D01*
X0100831Y0266510D02*
X0146364Y0266510D01*
X0145600Y0269200D02*
X0145625Y0269225D01*
X0145625Y0275123D01*
X0155468Y0275123D01*
X0151118Y0277296D02*
X0149975Y0277296D01*
X0149659Y0278495D02*
X0151434Y0278495D01*
X0151118Y0279693D02*
X0149975Y0279693D01*
X0149975Y0280892D02*
X0151118Y0280892D01*
X0151118Y0282090D02*
X0149975Y0282090D01*
X0149975Y0283289D02*
X0151118Y0283289D01*
X0151118Y0284487D02*
X0149975Y0284487D01*
X0149948Y0285686D02*
X0151145Y0285686D01*
X0153825Y0286884D02*
X0147425Y0286884D01*
X0147425Y0288083D02*
X0153825Y0288083D01*
X0153825Y0289281D02*
X0147425Y0289281D01*
X0147425Y0290480D02*
X0153825Y0290480D01*
X0153825Y0291678D02*
X0147425Y0291678D01*
X0147425Y0292877D02*
X0153825Y0292877D01*
X0153619Y0294075D02*
X0147632Y0294075D01*
X0149281Y0295274D02*
X0151970Y0295274D01*
X0151181Y0296472D02*
X0150069Y0296472D01*
X0150525Y0297671D02*
X0150725Y0297671D01*
X0150725Y0298870D02*
X0150525Y0298870D01*
X0150299Y0300068D02*
X0150951Y0300068D01*
X0151448Y0301267D02*
X0149803Y0301267D01*
X0148638Y0302465D02*
X0152613Y0302465D01*
X0155625Y0298548D02*
X0155625Y0282761D01*
X0155468Y0282603D01*
X0145625Y0282603D02*
X0145625Y0298548D01*
X0143619Y0294075D02*
X0128397Y0294075D01*
X0127199Y0292877D02*
X0143825Y0292877D01*
X0143825Y0291678D02*
X0126000Y0291678D01*
X0124802Y0290480D02*
X0143825Y0290480D01*
X0143825Y0289281D02*
X0123603Y0289281D01*
X0122405Y0288083D02*
X0143825Y0288083D01*
X0143825Y0286884D02*
X0121206Y0286884D01*
X0120008Y0285686D02*
X0141302Y0285686D01*
X0141276Y0284487D02*
X0118809Y0284487D01*
X0117611Y0283289D02*
X0141276Y0283289D01*
X0141276Y0282090D02*
X0116412Y0282090D01*
X0115214Y0280892D02*
X0141276Y0280892D01*
X0141276Y0279693D02*
X0114015Y0279693D01*
X0112817Y0278495D02*
X0141591Y0278495D01*
X0141276Y0277296D02*
X0111618Y0277296D01*
X0110420Y0276098D02*
X0141276Y0276098D01*
X0141276Y0274899D02*
X0109221Y0274899D01*
X0108023Y0273701D02*
X0141276Y0273701D01*
X0141276Y0272502D02*
X0106824Y0272502D01*
X0105626Y0271304D02*
X0143825Y0271304D01*
X0143064Y0270105D02*
X0104427Y0270105D01*
X0103228Y0268907D02*
X0142911Y0268907D01*
X0143307Y0267708D02*
X0102030Y0267708D01*
X0098756Y0252128D02*
X0095675Y0252128D01*
X0092325Y0252128D02*
X0086449Y0252128D01*
X0085251Y0250929D02*
X0091474Y0250929D01*
X0091311Y0249731D02*
X0084052Y0249731D01*
X0082854Y0248532D02*
X0091698Y0248532D01*
X0093272Y0247334D02*
X0081655Y0247334D01*
X0080457Y0246135D02*
X0098756Y0246135D01*
X0090952Y0234965D02*
X0081958Y0234965D01*
X0081255Y0234262D01*
X0081255Y0230668D01*
X0081958Y0229965D01*
X0081255Y0229262D01*
X0081255Y0225668D01*
X0081958Y0224965D01*
X0081255Y0224262D01*
X0081255Y0220668D01*
X0081958Y0219965D01*
X0081858Y0219865D01*
X0068908Y0219865D01*
X0068026Y0219500D01*
X0067491Y0218965D01*
X0063289Y0218965D01*
X0061819Y0218356D01*
X0060694Y0217231D01*
X0060085Y0215761D01*
X0060085Y0214170D01*
X0060694Y0212700D01*
X0061819Y0211574D01*
X0063289Y0210965D01*
X0070481Y0210965D01*
X0071951Y0211574D01*
X0073076Y0212700D01*
X0073685Y0214170D01*
X0073685Y0215065D01*
X0081858Y0215065D01*
X0081958Y0214965D01*
X0081255Y0214262D01*
X0081255Y0210668D01*
X0081958Y0209965D01*
X0081255Y0209262D01*
X0081255Y0207365D01*
X0072942Y0207365D01*
X0071951Y0208356D01*
X0070481Y0208965D01*
X0063289Y0208965D01*
X0061819Y0208356D01*
X0060694Y0207231D01*
X0060085Y0205761D01*
X0060085Y0204170D01*
X0060694Y0202700D01*
X0061819Y0201574D01*
X0063289Y0200965D01*
X0070481Y0200965D01*
X0071951Y0201574D01*
X0072942Y0202565D01*
X0081255Y0202565D01*
X0081255Y0200668D01*
X0081958Y0199965D01*
X0081255Y0199262D01*
X0081255Y0195668D01*
X0081730Y0195194D01*
X0081473Y0195046D01*
X0081175Y0194748D01*
X0080964Y0194383D01*
X0080855Y0193976D01*
X0080855Y0192515D01*
X0086405Y0192515D01*
X0086405Y0192415D01*
X0080855Y0192415D01*
X0080855Y0190955D01*
X0080964Y0190548D01*
X0081175Y0190183D01*
X0081473Y0189885D01*
X0081730Y0189737D01*
X0081255Y0189262D01*
X0081255Y0185668D01*
X0081958Y0184965D01*
X0089641Y0184965D01*
X0096765Y0177841D01*
X0097441Y0177165D01*
X0098323Y0176800D01*
X0098767Y0176800D01*
X0099465Y0176511D01*
X0100535Y0176511D01*
X0101523Y0176920D01*
X0102280Y0177677D01*
X0102689Y0178665D01*
X0102689Y0179735D01*
X0102280Y0180723D01*
X0101523Y0181480D01*
X0100535Y0181889D01*
X0099505Y0181889D01*
X0091894Y0189500D01*
X0091240Y0189771D01*
X0091438Y0189885D01*
X0091735Y0190183D01*
X0091946Y0190548D01*
X0092055Y0190955D01*
X0092055Y0192415D01*
X0086505Y0192415D01*
X0086505Y0192515D01*
X0092055Y0192515D01*
X0092055Y0193976D01*
X0091946Y0194383D01*
X0091735Y0194748D01*
X0091438Y0195046D01*
X0091181Y0195194D01*
X0091655Y0195668D01*
X0091655Y0199262D01*
X0090952Y0199965D01*
X0088855Y0199965D01*
X0088855Y0199965D01*
X0090952Y0199965D01*
X0091655Y0200668D01*
X0091655Y0204262D01*
X0090952Y0204965D01*
X0088855Y0204965D01*
X0088855Y0204965D01*
X0090952Y0204965D01*
X0091655Y0205668D01*
X0091655Y0209262D01*
X0090952Y0209965D01*
X0088855Y0209965D01*
X0088855Y0209965D01*
X0090952Y0209965D01*
X0091655Y0210668D01*
X0091655Y0214262D01*
X0090952Y0214965D01*
X0081958Y0214965D01*
X0090952Y0214965D01*
X0091655Y0215668D01*
X0091655Y0219262D01*
X0090952Y0219965D01*
X0088855Y0219965D01*
X0088855Y0219965D01*
X0090952Y0219965D01*
X0091655Y0220668D01*
X0091655Y0224262D01*
X0090952Y0224965D01*
X0088855Y0224965D01*
X0088855Y0224965D01*
X0090952Y0224965D01*
X0091655Y0225668D01*
X0091655Y0229262D01*
X0090952Y0229965D01*
X0088855Y0229965D01*
X0088855Y0229965D01*
X0090952Y0229965D01*
X0091655Y0230668D01*
X0091655Y0234262D01*
X0090952Y0234965D01*
X0091655Y0234150D02*
X0120502Y0234150D01*
X0120455Y0233976D02*
X0120455Y0232515D01*
X0126005Y0232515D01*
X0126005Y0232415D01*
X0120455Y0232415D01*
X0120455Y0230955D01*
X0120564Y0230548D01*
X0120775Y0230183D01*
X0121073Y0229885D01*
X0121330Y0229737D01*
X0120855Y0229262D01*
X0120855Y0225668D01*
X0121558Y0224965D01*
X0120855Y0224262D01*
X0120855Y0221800D01*
X0120003Y0221800D01*
X0119523Y0222280D01*
X0118535Y0222689D01*
X0117465Y0222689D01*
X0116477Y0222280D01*
X0115720Y0221523D01*
X0115311Y0220535D01*
X0115311Y0219465D01*
X0115720Y0218477D01*
X0116477Y0217720D01*
X0117465Y0217311D01*
X0118535Y0217311D01*
X0119523Y0217720D01*
X0120003Y0218200D01*
X0120855Y0218200D01*
X0120855Y0215668D01*
X0121558Y0214965D01*
X0120855Y0214262D01*
X0120855Y0210668D01*
X0121558Y0209965D01*
X0130552Y0209965D01*
X0131255Y0210668D01*
X0131255Y0214262D01*
X0130552Y0214965D01*
X0128455Y0214965D01*
X0128455Y0214965D01*
X0130552Y0214965D01*
X0131255Y0215668D01*
X0131255Y0219262D01*
X0130552Y0219965D01*
X0128455Y0219965D01*
X0128455Y0219965D01*
X0130552Y0219965D01*
X0131255Y0220668D01*
X0131255Y0224262D01*
X0130552Y0224965D01*
X0128455Y0224965D01*
X0128455Y0224965D01*
X0130552Y0224965D01*
X0131255Y0225668D01*
X0131255Y0229262D01*
X0130781Y0229737D01*
X0131038Y0229885D01*
X0131335Y0230183D01*
X0131546Y0230548D01*
X0131655Y0230955D01*
X0131655Y0232415D01*
X0126105Y0232415D01*
X0126105Y0232515D01*
X0131655Y0232515D01*
X0131655Y0233976D01*
X0131546Y0234383D01*
X0131335Y0234748D01*
X0131038Y0235046D01*
X0130673Y0235256D01*
X0130266Y0235365D01*
X0126105Y0235365D01*
X0126105Y0232515D01*
X0126005Y0232515D01*
X0126005Y0235365D01*
X0121844Y0235365D01*
X0121438Y0235256D01*
X0121073Y0235046D01*
X0120775Y0234748D01*
X0120564Y0234383D01*
X0120455Y0233976D01*
X0120455Y0232951D02*
X0091655Y0232951D01*
X0091655Y0231753D02*
X0120455Y0231753D01*
X0120562Y0230554D02*
X0091541Y0230554D01*
X0091562Y0229356D02*
X0120949Y0229356D01*
X0120855Y0228157D02*
X0091655Y0228157D01*
X0091655Y0226959D02*
X0120855Y0226959D01*
X0120855Y0225760D02*
X0091655Y0225760D01*
X0091356Y0224562D02*
X0121155Y0224562D01*
X0121558Y0224965D02*
X0123655Y0224965D01*
X0123655Y0224965D01*
X0121558Y0224965D01*
X0120855Y0223363D02*
X0091655Y0223363D01*
X0091655Y0222165D02*
X0116362Y0222165D01*
X0115490Y0220966D02*
X0091655Y0220966D01*
X0091150Y0219768D02*
X0115311Y0219768D01*
X0115682Y0218569D02*
X0091655Y0218569D01*
X0091655Y0217371D02*
X0117321Y0217371D01*
X0118679Y0217371D02*
X0120855Y0217371D01*
X0120855Y0216172D02*
X0091655Y0216172D01*
X0090961Y0214974D02*
X0121550Y0214974D01*
X0121558Y0214965D02*
X0123655Y0214965D01*
X0121558Y0214965D01*
X0120855Y0213775D02*
X0091655Y0213775D01*
X0091655Y0212577D02*
X0120855Y0212577D01*
X0120855Y0211378D02*
X0091655Y0211378D01*
X0091166Y0210180D02*
X0121344Y0210180D01*
X0120855Y0208981D02*
X0091655Y0208981D01*
X0091655Y0207783D02*
X0120855Y0207783D01*
X0120855Y0206584D02*
X0091655Y0206584D01*
X0091372Y0205386D02*
X0121138Y0205386D01*
X0121558Y0204965D02*
X0123655Y0204965D01*
X0123655Y0204965D01*
X0121558Y0204965D01*
X0120855Y0204187D02*
X0091655Y0204187D01*
X0091655Y0202989D02*
X0120855Y0202989D01*
X0120855Y0201790D02*
X0091655Y0201790D01*
X0091578Y0200592D02*
X0120932Y0200592D01*
X0121558Y0199965D02*
X0123655Y0199965D01*
X0121558Y0199965D01*
X0120986Y0199393D02*
X0091524Y0199393D01*
X0091655Y0198195D02*
X0120855Y0198195D01*
X0120855Y0196996D02*
X0091655Y0196996D01*
X0091655Y0195798D02*
X0120855Y0195798D01*
X0121558Y0194965D02*
X0123655Y0194965D01*
X0123655Y0194965D01*
X0121558Y0194965D01*
X0121192Y0194599D02*
X0091821Y0194599D01*
X0092055Y0193401D02*
X0120855Y0193401D01*
X0120855Y0192202D02*
X0092055Y0192202D01*
X0092055Y0191003D02*
X0120855Y0191003D01*
X0120832Y0189805D02*
X0091299Y0189805D01*
X0092788Y0188606D02*
X0120455Y0188606D01*
X0120455Y0187415D02*
X0120455Y0185955D01*
X0120564Y0185548D01*
X0120775Y0185183D01*
X0121073Y0184885D01*
X0121438Y0184674D01*
X0121844Y0184565D01*
X0126005Y0184565D01*
X0126005Y0187415D01*
X0120455Y0187415D01*
X0120455Y0187408D02*
X0093986Y0187408D01*
X0095185Y0186209D02*
X0120455Y0186209D01*
X0120947Y0185011D02*
X0096383Y0185011D01*
X0097582Y0183812D02*
X0317891Y0183812D01*
X0317891Y0182614D02*
X0098780Y0182614D01*
X0101587Y0181415D02*
X0317891Y0181415D01*
X0317891Y0180217D02*
X0102489Y0180217D01*
X0102689Y0179018D02*
X0317891Y0179018D01*
X0317891Y0177820D02*
X0238474Y0177820D01*
X0238761Y0176621D02*
X0317891Y0176621D01*
X0317891Y0175423D02*
X0238761Y0175423D01*
X0238827Y0185011D02*
X0209598Y0185011D01*
X0210395Y0186209D02*
X0238335Y0186209D01*
X0238335Y0187408D02*
X0236369Y0187408D01*
X0234831Y0187408D02*
X0210395Y0187408D01*
X0210395Y0188606D02*
X0233267Y0188606D01*
X0232911Y0189805D02*
X0210395Y0189805D01*
X0210395Y0190445D02*
X0210395Y0194606D01*
X0210286Y0195013D01*
X0210076Y0195378D01*
X0209778Y0195676D01*
X0209413Y0195886D01*
X0209006Y0195995D01*
X0207545Y0195995D01*
X0207545Y0190445D01*
X0210395Y0190445D01*
X0210395Y0191003D02*
X0233105Y0191003D01*
X0233999Y0192202D02*
X0210395Y0192202D01*
X0210395Y0193401D02*
X0236455Y0193401D01*
X0238065Y0192465D02*
X0235600Y0190000D01*
X0238289Y0189805D02*
X0238712Y0189805D01*
X0238335Y0188606D02*
X0237933Y0188606D01*
X0238065Y0192465D02*
X0243935Y0192465D01*
X0241535Y0194965D02*
X0239438Y0194965D01*
X0241535Y0194965D01*
X0241535Y0194965D01*
X0239072Y0194599D02*
X0210395Y0194599D01*
X0209566Y0195798D02*
X0238735Y0195798D01*
X0238735Y0196996D02*
X0204295Y0196996D01*
X0204295Y0195798D02*
X0205424Y0195798D01*
X0207445Y0195798D02*
X0207545Y0195798D01*
X0207545Y0194599D02*
X0207445Y0194599D01*
X0207445Y0193401D02*
X0207545Y0193401D01*
X0207545Y0192202D02*
X0207445Y0192202D01*
X0207445Y0191003D02*
X0207545Y0191003D01*
X0207495Y0190395D02*
X0207495Y0199095D01*
X0208000Y0199600D01*
X0204295Y0199393D02*
X0238866Y0199393D01*
X0239438Y0199965D02*
X0241535Y0199965D01*
X0241535Y0199965D01*
X0239438Y0199965D01*
X0238812Y0200592D02*
X0204295Y0200592D01*
X0204295Y0201790D02*
X0238735Y0201790D01*
X0238735Y0202989D02*
X0204295Y0202989D01*
X0204295Y0204187D02*
X0238735Y0204187D01*
X0239438Y0204965D02*
X0241535Y0204965D01*
X0241535Y0204965D01*
X0239438Y0204965D01*
X0239018Y0205386D02*
X0204295Y0205386D01*
X0204295Y0206584D02*
X0238735Y0206584D01*
X0238735Y0207783D02*
X0204295Y0207783D01*
X0204295Y0208981D02*
X0238735Y0208981D01*
X0239224Y0210180D02*
X0236301Y0210180D01*
X0238735Y0198195D02*
X0204295Y0198195D01*
X0200695Y0198195D02*
X0199295Y0198195D01*
X0199295Y0199393D02*
X0200695Y0199393D01*
X0200695Y0200592D02*
X0199295Y0200592D01*
X0199295Y0201790D02*
X0200695Y0201790D01*
X0200695Y0202989D02*
X0199295Y0202989D01*
X0199295Y0204187D02*
X0200695Y0204187D01*
X0200695Y0205386D02*
X0199295Y0205386D01*
X0199295Y0206584D02*
X0200695Y0206584D01*
X0200695Y0207783D02*
X0199295Y0207783D01*
X0199295Y0208981D02*
X0200695Y0208981D01*
X0200695Y0210180D02*
X0199295Y0210180D01*
X0199295Y0211378D02*
X0200695Y0211378D01*
X0200695Y0212577D02*
X0199295Y0212577D01*
X0199295Y0213775D02*
X0201630Y0213775D01*
X0202828Y0214974D02*
X0199295Y0214974D01*
X0199295Y0216172D02*
X0204027Y0216172D01*
X0205600Y0215200D02*
X0202495Y0212095D01*
X0202495Y0190395D01*
X0199995Y0189805D02*
X0199995Y0189805D01*
X0199995Y0191003D02*
X0199995Y0191003D01*
X0199995Y0192202D02*
X0199995Y0192202D01*
X0199995Y0193401D02*
X0199995Y0193401D01*
X0199995Y0194599D02*
X0199995Y0194599D01*
X0199295Y0195798D02*
X0200695Y0195798D01*
X0200695Y0196996D02*
X0199295Y0196996D01*
X0195695Y0196996D02*
X0194340Y0196996D01*
X0194295Y0195798D02*
X0195695Y0195798D01*
X0194995Y0194599D02*
X0194995Y0194599D01*
X0194995Y0193401D02*
X0194995Y0193401D01*
X0194995Y0192202D02*
X0194995Y0192202D01*
X0194995Y0191003D02*
X0194995Y0191003D01*
X0194995Y0189805D02*
X0194995Y0189805D01*
X0194995Y0188606D02*
X0194995Y0188606D01*
X0194995Y0187408D02*
X0194995Y0187408D01*
X0194995Y0186209D02*
X0194995Y0186209D01*
X0192495Y0190395D02*
X0192495Y0198495D01*
X0193600Y0199600D01*
X0191100Y0200592D02*
X0188900Y0200592D01*
X0189152Y0199393D02*
X0190847Y0199393D01*
X0190695Y0198195D02*
X0189295Y0198195D01*
X0189295Y0196996D02*
X0190695Y0196996D01*
X0190695Y0195798D02*
X0189295Y0195798D01*
X0189995Y0194599D02*
X0189995Y0194599D01*
X0189995Y0193401D02*
X0189995Y0193401D01*
X0189995Y0192202D02*
X0189995Y0192202D01*
X0189995Y0191003D02*
X0189995Y0191003D01*
X0189995Y0189805D02*
X0189995Y0189805D01*
X0189995Y0188606D02*
X0189995Y0188606D01*
X0189995Y0187408D02*
X0189995Y0187408D01*
X0189995Y0186209D02*
X0189995Y0186209D01*
X0187495Y0190395D02*
X0187495Y0198505D01*
X0186400Y0199600D01*
X0185660Y0196996D02*
X0184295Y0196996D01*
X0184295Y0195798D02*
X0185695Y0195798D01*
X0184995Y0194599D02*
X0184995Y0194599D01*
X0184995Y0193401D02*
X0184995Y0193401D01*
X0184995Y0192202D02*
X0184995Y0192202D01*
X0184995Y0191003D02*
X0184995Y0191003D01*
X0184995Y0189805D02*
X0184995Y0189805D01*
X0184995Y0188606D02*
X0184995Y0188606D01*
X0184995Y0187408D02*
X0184995Y0187408D01*
X0184995Y0186209D02*
X0184995Y0186209D01*
X0182495Y0190395D02*
X0182495Y0209505D01*
X0169108Y0222892D01*
X0169408Y0223192D01*
X0169108Y0222892D02*
X0168743Y0222528D01*
X0160677Y0222528D01*
X0173328Y0222528D01*
X0175600Y0224800D01*
X0178113Y0225760D02*
X0191087Y0225760D01*
X0190911Y0224562D02*
X0178289Y0224562D01*
X0177915Y0223363D02*
X0191285Y0223363D01*
X0192935Y0222165D02*
X0176265Y0222165D01*
X0174312Y0220966D02*
X0195485Y0220966D01*
X0195686Y0219768D02*
X0174778Y0219768D01*
X0175976Y0218569D02*
X0195695Y0218569D01*
X0195695Y0217371D02*
X0177175Y0217371D01*
X0178373Y0216172D02*
X0195695Y0216172D01*
X0195695Y0214974D02*
X0179572Y0214974D01*
X0180770Y0213775D02*
X0195695Y0213775D01*
X0195695Y0212577D02*
X0181969Y0212577D01*
X0183167Y0211378D02*
X0195695Y0211378D01*
X0195695Y0210180D02*
X0184295Y0210180D01*
X0184295Y0208981D02*
X0195695Y0208981D01*
X0195695Y0207783D02*
X0184295Y0207783D01*
X0184295Y0206584D02*
X0195695Y0206584D01*
X0195695Y0205386D02*
X0184295Y0205386D01*
X0184295Y0204187D02*
X0195695Y0204187D01*
X0195695Y0202989D02*
X0184295Y0202989D01*
X0184295Y0201790D02*
X0184787Y0201790D01*
X0188013Y0201790D02*
X0191987Y0201790D01*
X0195213Y0201790D02*
X0195695Y0201790D01*
X0197495Y0190395D02*
X0197495Y0220883D01*
X0199638Y0223025D01*
X0209480Y0223025D01*
X0196575Y0223025D01*
X0194800Y0224800D01*
X0193600Y0224800D01*
X0191956Y0226959D02*
X0177244Y0226959D01*
X0173956Y0226959D02*
X0172903Y0226959D01*
X0173561Y0228157D02*
X0195485Y0228157D01*
X0195485Y0229356D02*
X0173561Y0229356D01*
X0173561Y0230554D02*
X0195485Y0230554D01*
X0195485Y0231753D02*
X0173561Y0231753D01*
X0173561Y0232951D02*
X0195485Y0232951D01*
X0196073Y0234150D02*
X0173139Y0234150D01*
X0171909Y0235348D02*
X0197800Y0235348D01*
X0197800Y0236547D02*
X0172289Y0236547D01*
X0172119Y0237745D02*
X0197800Y0237745D01*
X0197293Y0238944D02*
X0171259Y0238944D01*
X0169600Y0236800D02*
X0169408Y0236608D01*
X0169408Y0230672D01*
X0165255Y0230554D02*
X0165027Y0230554D01*
X0165027Y0229356D02*
X0165255Y0229356D01*
X0165255Y0228157D02*
X0165027Y0228157D01*
X0165027Y0226959D02*
X0165913Y0226959D01*
X0165255Y0225760D02*
X0164850Y0225760D01*
X0165027Y0224562D02*
X0165255Y0224562D01*
X0165027Y0219768D02*
X0165623Y0219768D01*
X0169600Y0216400D02*
X0151600Y0216400D01*
X0150400Y0217600D01*
X0150413Y0217613D01*
X0150413Y0223192D01*
X0150835Y0222770D01*
X0148000Y0219935D01*
X0148000Y0217600D01*
X0145491Y0218569D02*
X0137800Y0218569D01*
X0137800Y0217371D02*
X0145311Y0217371D01*
X0145681Y0216172D02*
X0137800Y0216172D01*
X0137800Y0214974D02*
X0147314Y0214974D01*
X0148686Y0214974D02*
X0150481Y0214974D01*
X0152213Y0218569D02*
X0170885Y0218569D01*
X0171175Y0217371D02*
X0172084Y0217371D01*
X0172373Y0216172D02*
X0173282Y0216172D01*
X0173572Y0214974D02*
X0174481Y0214974D01*
X0174770Y0213775D02*
X0175679Y0213775D01*
X0175969Y0212577D02*
X0176878Y0212577D01*
X0177167Y0211378D02*
X0178076Y0211378D01*
X0178366Y0210180D02*
X0179275Y0210180D01*
X0179295Y0208981D02*
X0180473Y0208981D01*
X0180695Y0207783D02*
X0179295Y0207783D01*
X0179295Y0206584D02*
X0180695Y0206584D01*
X0180695Y0205386D02*
X0179295Y0205386D01*
X0179295Y0204187D02*
X0180695Y0204187D01*
X0180695Y0202989D02*
X0179295Y0202989D01*
X0179295Y0201790D02*
X0180695Y0201790D01*
X0180695Y0200592D02*
X0179295Y0200592D01*
X0179295Y0199393D02*
X0180695Y0199393D01*
X0180695Y0198195D02*
X0179295Y0198195D01*
X0179295Y0196996D02*
X0180695Y0196996D01*
X0180695Y0195798D02*
X0179295Y0195798D01*
X0179995Y0194599D02*
X0179995Y0194599D01*
X0179995Y0193401D02*
X0179995Y0193401D01*
X0179995Y0192202D02*
X0179995Y0192202D01*
X0179995Y0191003D02*
X0179995Y0191003D01*
X0179995Y0189805D02*
X0179995Y0189805D01*
X0179995Y0188606D02*
X0179995Y0188606D01*
X0179995Y0187408D02*
X0179995Y0187408D01*
X0179995Y0186209D02*
X0179995Y0186209D01*
X0177495Y0190395D02*
X0177495Y0208505D01*
X0169600Y0216400D01*
X0169679Y0213775D02*
X0137800Y0213775D01*
X0137800Y0212577D02*
X0170878Y0212577D01*
X0172076Y0211378D02*
X0137800Y0211378D01*
X0137800Y0210180D02*
X0173275Y0210180D01*
X0174473Y0208981D02*
X0137800Y0208981D01*
X0137800Y0207783D02*
X0175672Y0207783D01*
X0175695Y0206584D02*
X0137800Y0206584D01*
X0137800Y0205386D02*
X0175695Y0205386D01*
X0175695Y0204187D02*
X0137800Y0204187D01*
X0137134Y0202989D02*
X0170386Y0202989D01*
X0169500Y0201790D02*
X0136289Y0201790D01*
X0135927Y0200592D02*
X0165589Y0200592D01*
X0164701Y0199393D02*
X0134333Y0199393D01*
X0132867Y0199393D02*
X0131124Y0199393D01*
X0131255Y0198195D02*
X0164511Y0198195D01*
X0164871Y0196996D02*
X0131255Y0196996D01*
X0131255Y0195798D02*
X0160424Y0195798D01*
X0160578Y0195886D02*
X0160213Y0195676D01*
X0159915Y0195378D01*
X0159704Y0195013D01*
X0159595Y0194606D01*
X0159595Y0190445D01*
X0162445Y0190445D01*
X0162445Y0195995D01*
X0160985Y0195995D01*
X0160578Y0195886D01*
X0159595Y0194599D02*
X0130918Y0194599D01*
X0131255Y0193401D02*
X0159595Y0193401D01*
X0159595Y0192202D02*
X0131255Y0192202D01*
X0131255Y0191003D02*
X0159595Y0191003D01*
X0159595Y0189805D02*
X0131278Y0189805D01*
X0131655Y0188606D02*
X0159595Y0188606D01*
X0159595Y0187408D02*
X0131655Y0187408D01*
X0131655Y0186209D02*
X0159595Y0186209D01*
X0160393Y0185011D02*
X0131163Y0185011D01*
X0126105Y0185011D02*
X0126005Y0185011D01*
X0126005Y0186209D02*
X0126105Y0186209D01*
X0126105Y0187408D02*
X0126005Y0187408D01*
X0123655Y0199965D02*
X0123655Y0199965D01*
X0126055Y0202000D02*
X0133600Y0202000D01*
X0136000Y0204400D01*
X0136000Y0229600D01*
X0137072Y0230672D01*
X0141323Y0230672D01*
X0145476Y0230554D02*
X0146485Y0230554D01*
X0146485Y0229356D02*
X0145476Y0229356D01*
X0145476Y0228157D02*
X0146485Y0228157D01*
X0146720Y0226959D02*
X0144818Y0226959D01*
X0145476Y0225760D02*
X0146485Y0225760D01*
X0150413Y0223192D02*
X0141323Y0223192D01*
X0145476Y0220966D02*
X0146485Y0220966D01*
X0146200Y0219768D02*
X0145107Y0219768D01*
X0155184Y0219768D02*
X0156328Y0219768D01*
X0156328Y0220966D02*
X0155184Y0220966D01*
X0155184Y0222165D02*
X0156328Y0222165D01*
X0156328Y0223363D02*
X0155184Y0223363D01*
X0155184Y0224562D02*
X0156328Y0224562D01*
X0156504Y0225760D02*
X0155184Y0225760D01*
X0154949Y0226959D02*
X0156328Y0226959D01*
X0156328Y0228157D02*
X0155184Y0228157D01*
X0155184Y0229356D02*
X0156328Y0229356D01*
X0156328Y0230554D02*
X0155184Y0230554D01*
X0155184Y0231753D02*
X0156328Y0231753D01*
X0156328Y0232951D02*
X0155184Y0232951D01*
X0154595Y0235348D02*
X0156340Y0235348D01*
X0156236Y0236547D02*
X0154699Y0236547D01*
X0154699Y0237745D02*
X0156236Y0237745D01*
X0156236Y0238944D02*
X0154699Y0238944D01*
X0154699Y0240142D02*
X0156236Y0240142D01*
X0156236Y0241341D02*
X0154699Y0241341D01*
X0159995Y0238509D02*
X0159995Y0230690D01*
X0160677Y0230008D01*
X0161795Y0234150D02*
X0165676Y0234150D01*
X0165255Y0232951D02*
X0165027Y0232951D01*
X0165027Y0231753D02*
X0165255Y0231753D01*
X0163650Y0235348D02*
X0167291Y0235348D01*
X0166911Y0236547D02*
X0163754Y0236547D01*
X0163754Y0237745D02*
X0167081Y0237745D01*
X0167941Y0238944D02*
X0163754Y0238944D01*
X0163754Y0240142D02*
X0196911Y0240142D01*
X0197079Y0241341D02*
X0163754Y0241341D01*
X0158195Y0234150D02*
X0152635Y0234150D01*
X0149035Y0234150D02*
X0145054Y0234150D01*
X0145476Y0232951D02*
X0146485Y0232951D01*
X0146485Y0231753D02*
X0145476Y0231753D01*
X0147285Y0235348D02*
X0130329Y0235348D01*
X0131609Y0234150D02*
X0137591Y0234150D01*
X0137170Y0232951D02*
X0131655Y0232951D01*
X0131655Y0231753D02*
X0135607Y0231753D01*
X0134409Y0230554D02*
X0131548Y0230554D01*
X0131162Y0229356D02*
X0134200Y0229356D01*
X0134200Y0228157D02*
X0131255Y0228157D01*
X0131255Y0226959D02*
X0134200Y0226959D01*
X0134200Y0225760D02*
X0131255Y0225760D01*
X0130956Y0224562D02*
X0134200Y0224562D01*
X0134200Y0223363D02*
X0131255Y0223363D01*
X0131255Y0222165D02*
X0134200Y0222165D01*
X0134200Y0220966D02*
X0131255Y0220966D01*
X0130750Y0219768D02*
X0134200Y0219768D01*
X0134200Y0218569D02*
X0131255Y0218569D01*
X0131255Y0217371D02*
X0134200Y0217371D01*
X0134200Y0216172D02*
X0131255Y0216172D01*
X0130561Y0214974D02*
X0134200Y0214974D01*
X0134200Y0213775D02*
X0131255Y0213775D01*
X0131255Y0212577D02*
X0134200Y0212577D01*
X0134200Y0211378D02*
X0131255Y0211378D01*
X0130766Y0210180D02*
X0134200Y0210180D01*
X0134200Y0208981D02*
X0131255Y0208981D01*
X0131255Y0207783D02*
X0134200Y0207783D01*
X0134200Y0206584D02*
X0131255Y0206584D01*
X0130972Y0205386D02*
X0134200Y0205386D01*
X0131984Y0204187D02*
X0131255Y0204187D01*
X0123655Y0214965D02*
X0123655Y0214965D01*
X0123590Y0220000D02*
X0126055Y0222465D01*
X0123590Y0220000D02*
X0118000Y0220000D01*
X0119638Y0222165D02*
X0120855Y0222165D01*
X0126005Y0232951D02*
X0126105Y0232951D01*
X0126105Y0234150D02*
X0126005Y0234150D01*
X0126005Y0235348D02*
X0126105Y0235348D01*
X0121781Y0235348D02*
X0069670Y0235348D01*
X0068472Y0234150D02*
X0081255Y0234150D01*
X0081255Y0232951D02*
X0067273Y0232951D01*
X0066075Y0231753D02*
X0081255Y0231753D01*
X0081369Y0230554D02*
X0064876Y0230554D01*
X0063678Y0229356D02*
X0081349Y0229356D01*
X0081958Y0229965D02*
X0084055Y0229965D01*
X0084055Y0229965D01*
X0081958Y0229965D01*
X0081255Y0228157D02*
X0062479Y0228157D01*
X0061281Y0226959D02*
X0081255Y0226959D01*
X0081255Y0225760D02*
X0060082Y0225760D01*
X0058884Y0224562D02*
X0081555Y0224562D01*
X0081958Y0224965D02*
X0084055Y0224965D01*
X0084055Y0224965D01*
X0081958Y0224965D01*
X0081255Y0223363D02*
X0057685Y0223363D01*
X0056487Y0222165D02*
X0081255Y0222165D01*
X0081255Y0220966D02*
X0055288Y0220966D01*
X0054090Y0219768D02*
X0068672Y0219768D01*
X0062333Y0218569D02*
X0052891Y0218569D01*
X0052100Y0217371D02*
X0060834Y0217371D01*
X0060255Y0216172D02*
X0052100Y0216172D01*
X0052100Y0214974D02*
X0060085Y0214974D01*
X0060248Y0213775D02*
X0052100Y0213775D01*
X0052100Y0212577D02*
X0060817Y0212577D01*
X0062293Y0211378D02*
X0052100Y0211378D01*
X0052100Y0210180D02*
X0081744Y0210180D01*
X0081958Y0209965D02*
X0084055Y0209965D01*
X0084055Y0209965D01*
X0081958Y0209965D01*
X0081255Y0208981D02*
X0052100Y0208981D01*
X0052100Y0207783D02*
X0061245Y0207783D01*
X0060426Y0206584D02*
X0052100Y0206584D01*
X0052100Y0205386D02*
X0060085Y0205386D01*
X0060085Y0204187D02*
X0052100Y0204187D01*
X0052100Y0202989D02*
X0060574Y0202989D01*
X0061603Y0201790D02*
X0052100Y0201790D01*
X0052100Y0200592D02*
X0081332Y0200592D01*
X0081958Y0199965D02*
X0084055Y0199965D01*
X0081958Y0199965D01*
X0081386Y0199393D02*
X0052100Y0199393D01*
X0052100Y0198195D02*
X0081255Y0198195D01*
X0081255Y0196996D02*
X0052100Y0196996D01*
X0052100Y0195798D02*
X0081255Y0195798D01*
X0081089Y0194599D02*
X0052100Y0194599D01*
X0052100Y0193401D02*
X0080855Y0193401D01*
X0080855Y0192202D02*
X0052100Y0192202D01*
X0052100Y0191003D02*
X0080855Y0191003D01*
X0081611Y0189805D02*
X0052100Y0189805D01*
X0052100Y0188606D02*
X0081255Y0188606D01*
X0081255Y0187408D02*
X0052100Y0187408D01*
X0052100Y0186209D02*
X0081255Y0186209D01*
X0081912Y0185011D02*
X0052100Y0185011D01*
X0052100Y0183812D02*
X0090793Y0183812D01*
X0091992Y0182614D02*
X0052100Y0182614D01*
X0052100Y0181415D02*
X0093190Y0181415D01*
X0094389Y0180217D02*
X0052100Y0180217D01*
X0052100Y0179018D02*
X0095587Y0179018D01*
X0096786Y0177820D02*
X0052100Y0177820D01*
X0052100Y0176621D02*
X0099199Y0176621D01*
X0100801Y0176621D02*
X0219813Y0176621D01*
X0219813Y0175423D02*
X0052100Y0175423D01*
X0072167Y0201790D02*
X0081255Y0201790D01*
X0084055Y0199965D02*
X0084055Y0199965D01*
X0086455Y0202465D02*
X0086455Y0203131D01*
X0084620Y0204965D01*
X0086455Y0206800D02*
X0086455Y0207465D01*
X0081255Y0207783D02*
X0072525Y0207783D01*
X0071477Y0211378D02*
X0081255Y0211378D01*
X0081255Y0212577D02*
X0072953Y0212577D01*
X0073522Y0213775D02*
X0081255Y0213775D01*
X0081950Y0214974D02*
X0073685Y0214974D01*
X0081958Y0219965D02*
X0084055Y0219965D01*
X0084055Y0219965D01*
X0081958Y0219965D01*
X0070869Y0236547D02*
X0147181Y0236547D01*
X0147181Y0237745D02*
X0072067Y0237745D01*
X0073266Y0238944D02*
X0147181Y0238944D01*
X0147181Y0240142D02*
X0074464Y0240142D01*
X0075663Y0241341D02*
X0147181Y0241341D01*
X0150835Y0238403D02*
X0150835Y0230250D01*
X0150835Y0238403D02*
X0150940Y0238509D01*
X0149931Y0262914D02*
X0147860Y0262914D01*
X0149975Y0272502D02*
X0151118Y0272502D01*
X0141970Y0295274D02*
X0129596Y0295274D01*
X0130794Y0296472D02*
X0141181Y0296472D01*
X0140725Y0297671D02*
X0131993Y0297671D01*
X0133191Y0298870D02*
X0140725Y0298870D01*
X0140951Y0300068D02*
X0134390Y0300068D01*
X0135588Y0301267D02*
X0141448Y0301267D01*
X0142613Y0302465D02*
X0136787Y0302465D01*
X0076861Y0242539D02*
X0197937Y0242539D01*
X0199600Y0240400D02*
X0199600Y0230543D01*
X0199638Y0230506D01*
X0203202Y0234150D02*
X0205719Y0234150D01*
X0205131Y0232951D02*
X0203791Y0232951D01*
X0203791Y0231753D02*
X0205131Y0231753D01*
X0205131Y0230554D02*
X0203791Y0230554D01*
X0203791Y0229356D02*
X0205131Y0229356D01*
X0205131Y0228157D02*
X0203791Y0228157D01*
X0203300Y0226959D02*
X0205621Y0226959D01*
X0205131Y0225760D02*
X0203791Y0225760D01*
X0209480Y0230506D02*
X0209995Y0231020D01*
X0209995Y0238509D01*
X0206236Y0238944D02*
X0201907Y0238944D01*
X0202289Y0240142D02*
X0206236Y0240142D01*
X0206236Y0241341D02*
X0202121Y0241341D01*
X0201400Y0237745D02*
X0206236Y0237745D01*
X0206236Y0236547D02*
X0201400Y0236547D01*
X0201400Y0235348D02*
X0206340Y0235348D01*
X0213242Y0234150D02*
X0215562Y0234150D01*
X0215395Y0235348D02*
X0213650Y0235348D01*
X0213754Y0236547D02*
X0215291Y0236547D01*
X0215291Y0237745D02*
X0213754Y0237745D01*
X0213754Y0238944D02*
X0215291Y0238944D01*
X0215291Y0240142D02*
X0213754Y0240142D01*
X0213754Y0241341D02*
X0215291Y0241341D01*
X0219050Y0238509D02*
X0219050Y0230778D01*
X0219323Y0230506D01*
X0214973Y0230554D02*
X0213830Y0230554D01*
X0213830Y0229356D02*
X0214973Y0229356D01*
X0214973Y0228157D02*
X0213830Y0228157D01*
X0213339Y0226959D02*
X0215464Y0226959D01*
X0214973Y0225760D02*
X0213830Y0225760D01*
X0213830Y0224562D02*
X0214973Y0224562D01*
X0214973Y0223363D02*
X0213830Y0223363D01*
X0213830Y0222165D02*
X0214973Y0222165D01*
X0214973Y0220966D02*
X0213830Y0220966D01*
X0213629Y0219768D02*
X0215175Y0219768D01*
X0217523Y0218569D02*
X0199295Y0218569D01*
X0199295Y0217371D02*
X0217225Y0217371D01*
X0219323Y0214677D02*
X0220000Y0214000D01*
X0219323Y0214677D02*
X0219323Y0223025D01*
X0219323Y0222400D01*
X0223182Y0226959D02*
X0225503Y0226959D01*
X0225013Y0228157D02*
X0223672Y0228157D01*
X0223672Y0229356D02*
X0225013Y0229356D01*
X0225013Y0230554D02*
X0223672Y0230554D01*
X0223672Y0231753D02*
X0225013Y0231753D01*
X0225013Y0232951D02*
X0223672Y0232951D01*
X0223084Y0234150D02*
X0225601Y0234150D01*
X0227365Y0235348D02*
X0222705Y0235348D01*
X0222809Y0236547D02*
X0227365Y0236547D01*
X0227365Y0237745D02*
X0222809Y0237745D01*
X0222809Y0238944D02*
X0227998Y0238944D01*
X0228280Y0240142D02*
X0222809Y0240142D01*
X0222809Y0241341D02*
X0229138Y0241341D01*
X0230800Y0239200D02*
X0229165Y0237565D01*
X0229165Y0230506D01*
X0225013Y0225760D02*
X0223672Y0225760D01*
X0214973Y0231753D02*
X0213830Y0231753D01*
X0213830Y0232951D02*
X0214973Y0232951D01*
X0205131Y0220966D02*
X0203791Y0220966D01*
X0203589Y0219768D02*
X0205332Y0219768D01*
X0194890Y0222165D02*
X0194265Y0222165D01*
X0195244Y0226959D02*
X0195976Y0226959D01*
X0183241Y0211305D02*
X0183241Y0211305D01*
X0175695Y0202989D02*
X0173614Y0202989D01*
X0174500Y0201790D02*
X0175695Y0201790D01*
X0175695Y0200592D02*
X0174689Y0200592D01*
X0174328Y0199393D02*
X0175695Y0199393D01*
X0175695Y0198195D02*
X0174295Y0198195D01*
X0174295Y0196996D02*
X0175695Y0196996D01*
X0175695Y0195798D02*
X0174295Y0195798D01*
X0174995Y0194599D02*
X0174995Y0194599D01*
X0174995Y0193401D02*
X0174995Y0193401D01*
X0174995Y0192202D02*
X0174995Y0192202D01*
X0174995Y0191003D02*
X0174995Y0191003D01*
X0174995Y0189805D02*
X0174995Y0189805D01*
X0174995Y0188606D02*
X0174995Y0188606D01*
X0174995Y0187408D02*
X0174995Y0187408D01*
X0174995Y0186209D02*
X0174995Y0186209D01*
X0172495Y0190395D02*
X0172495Y0200305D01*
X0172000Y0200800D01*
X0169311Y0200592D02*
X0168811Y0200592D01*
X0169889Y0198195D02*
X0170695Y0198195D01*
X0170695Y0196996D02*
X0169529Y0196996D01*
X0169000Y0195798D02*
X0170695Y0195798D01*
X0169995Y0194599D02*
X0169995Y0194599D01*
X0169995Y0193401D02*
X0169995Y0193401D01*
X0169995Y0192202D02*
X0169995Y0192202D01*
X0169995Y0191003D02*
X0169995Y0191003D01*
X0169995Y0189805D02*
X0169995Y0189805D01*
X0169995Y0188606D02*
X0169995Y0188606D01*
X0169995Y0187408D02*
X0169995Y0187408D01*
X0169995Y0186209D02*
X0169995Y0186209D01*
X0167495Y0190395D02*
X0167200Y0190691D01*
X0167200Y0198400D01*
X0165400Y0195798D02*
X0164566Y0195798D01*
X0162545Y0195798D02*
X0162445Y0195798D01*
X0162445Y0194599D02*
X0162545Y0194599D01*
X0162545Y0193401D02*
X0162445Y0193401D01*
X0162445Y0192202D02*
X0162545Y0192202D01*
X0162545Y0191003D02*
X0162445Y0191003D01*
X0162445Y0189805D02*
X0162545Y0189805D01*
X0162545Y0188606D02*
X0162445Y0188606D01*
X0162445Y0187408D02*
X0162545Y0187408D01*
X0162545Y0186209D02*
X0162445Y0186209D01*
X0162445Y0185011D02*
X0162545Y0185011D01*
X0164598Y0185011D02*
X0205393Y0185011D01*
X0207445Y0185011D02*
X0207545Y0185011D01*
X0207545Y0186209D02*
X0207445Y0186209D01*
X0207445Y0187408D02*
X0207545Y0187408D01*
X0207545Y0188606D02*
X0207445Y0188606D01*
X0207445Y0189805D02*
X0207545Y0189805D01*
X0199995Y0188606D02*
X0199995Y0188606D01*
X0199995Y0187408D02*
X0199995Y0187408D01*
X0199995Y0186209D02*
X0199995Y0186209D01*
X0193233Y0164636D02*
X0187967Y0164636D01*
X0188881Y0163438D02*
X0192319Y0163438D01*
X0192111Y0162239D02*
X0189106Y0162239D01*
X0190305Y0161041D02*
X0192452Y0161041D01*
X0191503Y0159842D02*
X0193948Y0159842D01*
X0175655Y0165835D02*
X0173568Y0165835D01*
X0164995Y0155048D02*
X0164995Y0155048D01*
X0164995Y0153850D02*
X0164995Y0153850D01*
X0164995Y0152651D02*
X0164995Y0152651D01*
X0164995Y0151453D02*
X0164995Y0151453D01*
X0164995Y0150254D02*
X0164995Y0150254D01*
X0164995Y0149056D02*
X0164995Y0149056D01*
X0164995Y0147857D02*
X0164995Y0147857D01*
X0164995Y0146659D02*
X0164995Y0146659D01*
X0165695Y0145460D02*
X0159706Y0145460D01*
X0158507Y0144262D02*
X0165695Y0144262D01*
X0165695Y0143063D02*
X0157309Y0143063D01*
X0157268Y0141865D02*
X0165695Y0141865D01*
X0167495Y0141095D02*
X0164800Y0138400D01*
X0167495Y0141095D02*
X0167495Y0150795D01*
X0172495Y0150795D02*
X0172495Y0135505D01*
X0173800Y0132276D02*
X0182778Y0132276D01*
X0183195Y0131078D02*
X0173800Y0131078D01*
X0173800Y0129879D02*
X0183195Y0129879D01*
X0181148Y0128681D02*
X0179000Y0128681D01*
X0179502Y0127482D02*
X0180646Y0127482D01*
X0180646Y0126284D02*
X0179502Y0126284D01*
X0179502Y0125085D02*
X0180646Y0125085D01*
X0180646Y0123887D02*
X0179502Y0123887D01*
X0179502Y0122688D02*
X0180646Y0122688D01*
X0181223Y0121490D02*
X0178925Y0121490D01*
X0179502Y0120291D02*
X0180646Y0120291D01*
X0180646Y0119093D02*
X0179502Y0119093D01*
X0175153Y0125123D02*
X0172000Y0128276D01*
X0184995Y0125123D02*
X0184995Y0132605D01*
X0162495Y0150795D02*
X0155468Y0143768D01*
X0155468Y0126400D01*
X0148143Y0133725D01*
X0126055Y0133725D01*
X0130905Y0135872D02*
X0153668Y0135872D01*
X0153668Y0137070D02*
X0131255Y0137070D01*
X0131255Y0138269D02*
X0153668Y0138269D01*
X0153668Y0139468D02*
X0131255Y0139468D01*
X0131111Y0140666D02*
X0153668Y0140666D01*
X0153668Y0141865D02*
X0131191Y0141865D01*
X0131255Y0143063D02*
X0153668Y0143063D01*
X0153668Y0144262D02*
X0131255Y0144262D01*
X0131255Y0145460D02*
X0154614Y0145460D01*
X0155813Y0146659D02*
X0130986Y0146659D01*
X0131255Y0147857D02*
X0157012Y0147857D01*
X0158210Y0149056D02*
X0131255Y0149056D01*
X0131255Y0150254D02*
X0159409Y0150254D01*
X0159995Y0151453D02*
X0131341Y0151453D01*
X0131655Y0152651D02*
X0159995Y0152651D01*
X0159995Y0153850D02*
X0131655Y0153850D01*
X0131655Y0155048D02*
X0159995Y0155048D01*
X0153668Y0134673D02*
X0149740Y0134673D01*
X0150938Y0133475D02*
X0153668Y0133475D01*
X0153668Y0132276D02*
X0152137Y0132276D01*
X0153335Y0131078D02*
X0153668Y0131078D01*
X0150641Y0128681D02*
X0131255Y0128681D01*
X0131255Y0129879D02*
X0149443Y0129879D01*
X0148244Y0131078D02*
X0130699Y0131078D01*
X0131255Y0127482D02*
X0151118Y0127482D01*
X0155468Y0126400D02*
X0155468Y0125123D01*
X0133833Y0121490D02*
X0130817Y0121490D01*
X0130611Y0126284D02*
X0133287Y0126284D01*
X0123655Y0141225D02*
X0123655Y0141225D01*
X0102339Y0177820D02*
X0220099Y0177820D01*
X0243885Y0185011D02*
X0243985Y0185011D01*
X0243985Y0186209D02*
X0243885Y0186209D01*
X0243885Y0187408D02*
X0243985Y0187408D01*
X0246335Y0204965D02*
X0246335Y0204965D01*
X0279038Y0189965D02*
X0281135Y0189965D01*
X0279038Y0189965D01*
X0281135Y0189965D02*
X0281135Y0189965D01*
X0285935Y0189965D02*
X0288032Y0189965D01*
X0285935Y0189965D01*
X0285935Y0189965D01*
X0288193Y0189805D02*
X0317891Y0189805D01*
X0317891Y0191003D02*
X0288735Y0191003D01*
X0288735Y0192202D02*
X0317891Y0192202D01*
X0317891Y0193401D02*
X0288735Y0193401D01*
X0288399Y0194599D02*
X0317891Y0194599D01*
X0317891Y0195798D02*
X0288735Y0195798D01*
X0288032Y0194965D02*
X0285935Y0194965D01*
X0285935Y0194965D01*
X0288032Y0194965D01*
X0288735Y0196996D02*
X0317891Y0196996D01*
X0317891Y0198195D02*
X0288735Y0198195D01*
X0288605Y0199393D02*
X0317891Y0199393D01*
X0317891Y0200592D02*
X0302126Y0200592D01*
X0296306Y0205386D02*
X0288453Y0205386D01*
X0288735Y0206584D02*
X0296646Y0206584D01*
X0297466Y0207783D02*
X0288735Y0207783D01*
X0288735Y0208981D02*
X0317891Y0208981D01*
X0317891Y0207783D02*
X0308745Y0207783D01*
X0309565Y0206584D02*
X0317891Y0206584D01*
X0317891Y0205386D02*
X0309905Y0205386D01*
X0309905Y0204187D02*
X0317891Y0204187D01*
X0317891Y0202989D02*
X0309416Y0202989D01*
X0308387Y0201790D02*
X0317891Y0201790D01*
X0317891Y0210180D02*
X0288247Y0210180D01*
X0288032Y0209965D02*
X0285935Y0209965D01*
X0285935Y0209965D01*
X0288032Y0209965D01*
X0288735Y0211378D02*
X0298513Y0211378D01*
X0297054Y0217371D02*
X0288735Y0217371D01*
X0288735Y0218569D02*
X0298554Y0218569D01*
X0289083Y0225760D02*
X0309908Y0225760D01*
X0308710Y0226959D02*
X0289135Y0226959D01*
X0289135Y0228157D02*
X0307511Y0228157D01*
X0306313Y0229356D02*
X0289034Y0229356D01*
X0288621Y0230554D02*
X0305114Y0230554D01*
X0303916Y0231753D02*
X0288735Y0231753D01*
X0288735Y0232951D02*
X0302717Y0232951D01*
X0301519Y0234150D02*
X0288735Y0234150D01*
X0295526Y0240142D02*
X0272800Y0240142D01*
X0272800Y0241341D02*
X0294328Y0241341D01*
X0293129Y0242539D02*
X0272800Y0242539D01*
X0272800Y0243738D02*
X0291931Y0243738D01*
X0290732Y0244937D02*
X0272800Y0244937D01*
X0272800Y0246135D02*
X0289534Y0246135D01*
X0288335Y0247334D02*
X0275928Y0247334D01*
X0277502Y0248532D02*
X0287137Y0248532D01*
X0285938Y0249731D02*
X0277889Y0249731D01*
X0277726Y0250929D02*
X0284740Y0250929D01*
X0283541Y0252128D02*
X0276875Y0252128D01*
X0273525Y0252128D02*
X0271235Y0252128D01*
X0270694Y0253326D02*
X0282343Y0253326D01*
X0272850Y0238944D02*
X0296725Y0238944D01*
X0297923Y0237745D02*
X0274049Y0237745D01*
X0275247Y0236547D02*
X0299122Y0236547D01*
X0300320Y0235348D02*
X0276446Y0235348D01*
X0288436Y0224562D02*
X0311107Y0224562D01*
X0312305Y0223363D02*
X0288735Y0223363D01*
X0288735Y0222165D02*
X0313504Y0222165D01*
X0314702Y0220966D02*
X0288735Y0220966D01*
X0288032Y0219965D02*
X0285935Y0219965D01*
X0285935Y0219965D01*
X0288032Y0219965D01*
X0288230Y0219768D02*
X0315901Y0219768D01*
X0317100Y0218569D02*
X0307657Y0218569D01*
X0309157Y0217371D02*
X0317891Y0217371D01*
X0317891Y0216172D02*
X0309735Y0216172D01*
X0309905Y0214974D02*
X0317891Y0214974D01*
X0317891Y0213775D02*
X0309742Y0213775D01*
X0309174Y0212577D02*
X0317891Y0212577D01*
X0317891Y0211378D02*
X0307698Y0211378D01*
X0288032Y0199965D02*
X0285935Y0199965D01*
X0285935Y0199965D01*
X0288032Y0199965D01*
X0281135Y0199965D02*
X0281135Y0199965D01*
X0281135Y0209965D02*
X0281135Y0209965D01*
X0281135Y0214965D02*
X0281135Y0214965D01*
X0288735Y0188606D02*
X0317891Y0188606D01*
X0317891Y0187408D02*
X0288735Y0187408D01*
X0288735Y0186209D02*
X0317891Y0186209D01*
X0317891Y0185011D02*
X0288078Y0185011D01*
X0288735Y0155048D02*
X0317891Y0155048D01*
X0317891Y0153850D02*
X0288735Y0153850D01*
X0288735Y0152651D02*
X0317891Y0152651D01*
X0317891Y0151453D02*
X0288263Y0151453D01*
X0289131Y0150254D02*
X0317891Y0150254D01*
X0317891Y0149056D02*
X0289135Y0149056D01*
X0289135Y0147857D02*
X0317891Y0147857D01*
X0317891Y0146659D02*
X0288940Y0146659D01*
X0288735Y0145460D02*
X0317891Y0145460D01*
X0317891Y0144262D02*
X0288735Y0144262D01*
X0288735Y0143063D02*
X0317891Y0143063D01*
X0317891Y0141865D02*
X0288672Y0141865D01*
X0285935Y0141225D02*
X0285935Y0141225D01*
X0288386Y0135872D02*
X0296306Y0135872D01*
X0296619Y0134673D02*
X0288735Y0134673D01*
X0288735Y0133475D02*
X0297399Y0133475D01*
X0299386Y0132276D02*
X0288735Y0132276D01*
X0288180Y0131078D02*
X0317891Y0131078D01*
X0317891Y0132276D02*
X0306825Y0132276D01*
X0308812Y0133475D02*
X0317891Y0133475D01*
X0317891Y0134673D02*
X0309592Y0134673D01*
X0309905Y0135872D02*
X0317891Y0135872D01*
X0317891Y0137070D02*
X0309885Y0137070D01*
X0309389Y0138269D02*
X0317891Y0138269D01*
X0317891Y0139468D02*
X0308320Y0139468D01*
X0301732Y0140666D02*
X0317891Y0140666D01*
X0317891Y0129879D02*
X0307536Y0129879D01*
X0309107Y0128681D02*
X0317891Y0128681D01*
X0317891Y0127482D02*
X0309714Y0127482D01*
X0309905Y0126284D02*
X0317891Y0126284D01*
X0317891Y0125085D02*
X0309763Y0125085D01*
X0309224Y0123887D02*
X0317891Y0123887D01*
X0317167Y0122688D02*
X0307819Y0122688D01*
X0301480Y0121490D02*
X0315968Y0121490D01*
X0314770Y0120291D02*
X0288735Y0120291D01*
X0288735Y0119093D02*
X0313571Y0119093D01*
X0312373Y0117894D02*
X0288735Y0117894D01*
X0288503Y0116696D02*
X0311174Y0116696D01*
X0309976Y0115497D02*
X0288735Y0115497D01*
X0288735Y0114299D02*
X0308777Y0114299D01*
X0307578Y0113100D02*
X0288735Y0113100D01*
X0288709Y0111902D02*
X0306380Y0111902D01*
X0305181Y0110703D02*
X0288554Y0110703D01*
X0288735Y0109505D02*
X0303983Y0109505D01*
X0302784Y0108306D02*
X0288735Y0108306D01*
X0288735Y0107108D02*
X0301586Y0107108D01*
X0285935Y0111225D02*
X0285935Y0111225D01*
X0285935Y0116225D02*
X0285935Y0116225D01*
X0285935Y0121225D02*
X0285935Y0121225D01*
X0288091Y0126284D02*
X0296306Y0126284D01*
X0296497Y0127482D02*
X0288735Y0127482D01*
X0288735Y0128681D02*
X0297104Y0128681D01*
X0298675Y0129879D02*
X0288735Y0129879D01*
X0285935Y0131225D02*
X0285935Y0131225D01*
X0281135Y0131225D02*
X0281135Y0131225D01*
X0281135Y0141225D02*
X0281135Y0141225D01*
M02*
