G75*
%MOIN*%
%OFA0B0*%
%FSLAX25Y25*%
%IPPOS*%
%LPD*%
%AMOC8*
5,1,8,0,0,1.08239X$1,22.5*
%
%ADD10C,0.05600*%
%ADD11R,0.06299X0.05118*%
%ADD12R,0.05906X0.05118*%
%ADD13C,0.07400*%
%ADD14C,0.05000*%
%ADD15C,0.02978*%
%ADD16C,0.02400*%
%ADD17C,0.01200*%
D10*
X0044885Y0111825D02*
X0050485Y0111825D01*
X0050485Y0121825D02*
X0044885Y0121825D01*
X0044885Y0190565D02*
X0050485Y0190565D01*
X0050485Y0200565D02*
X0044885Y0200565D01*
X0202365Y0052928D02*
X0207965Y0052928D01*
X0207965Y0042928D02*
X0202365Y0042928D01*
X0281106Y0111825D02*
X0286706Y0111825D01*
X0286706Y0121825D02*
X0281106Y0121825D01*
X0281106Y0190565D02*
X0286706Y0190565D01*
X0286706Y0200565D02*
X0281106Y0200565D01*
D11*
X0174605Y0172575D03*
X0174605Y0165094D03*
X0165795Y0164710D03*
X0165795Y0172191D03*
X0155405Y0172165D03*
X0155405Y0164685D03*
X0146290Y0164685D03*
X0146290Y0172165D03*
D12*
X0145395Y0191520D03*
X0145395Y0199000D03*
X0154038Y0198515D03*
X0154038Y0191035D03*
X0167647Y0191494D03*
X0167647Y0198975D03*
X0176353Y0198591D03*
X0176353Y0191110D03*
D13*
X0175638Y0284148D03*
X0185638Y0284148D03*
X0195638Y0284148D03*
X0205638Y0284148D03*
X0156425Y0284148D03*
X0146425Y0284148D03*
X0136425Y0284148D03*
X0126425Y0284148D03*
D14*
X0096400Y0234400D02*
X0094600Y0232600D01*
X0091600Y0229600D01*
X0091600Y0180400D01*
X0091600Y0148000D01*
X0091600Y0098800D01*
X0091600Y0070000D01*
X0108672Y0052928D01*
X0205165Y0052928D01*
X0217328Y0052928D01*
X0241600Y0077200D01*
X0241600Y0092800D01*
X0241600Y0142000D01*
X0241600Y0167200D01*
X0241600Y0174400D01*
X0241600Y0220000D01*
X0241600Y0230800D01*
X0238000Y0234400D01*
X0251200Y0233200D02*
X0252400Y0234400D01*
X0251200Y0233200D02*
X0251200Y0142000D01*
X0251200Y0085600D01*
X0251200Y0073600D01*
X0220528Y0042928D01*
X0205165Y0042928D01*
X0106672Y0042928D01*
X0080800Y0068800D01*
X0080800Y0085600D01*
X0080800Y0164800D01*
X0080800Y0230800D01*
X0077200Y0234400D01*
D15*
X0074800Y0235600D03*
X0098800Y0236800D03*
X0118000Y0264400D03*
X0126400Y0254800D03*
X0126400Y0238000D03*
X0150400Y0222400D03*
X0156400Y0210400D03*
X0162400Y0205600D03*
X0174400Y0210400D03*
X0180400Y0226000D03*
X0162400Y0252400D03*
X0185200Y0253600D03*
X0194800Y0253600D03*
X0214000Y0264400D03*
X0234400Y0236800D03*
X0241600Y0220000D03*
X0256000Y0235600D03*
X0216400Y0198400D03*
X0200800Y0199600D03*
X0188800Y0185200D03*
X0174400Y0185200D03*
X0167200Y0185200D03*
X0152800Y0184000D03*
X0145600Y0184000D03*
X0128800Y0203200D03*
X0114400Y0187600D03*
X0098800Y0205600D03*
X0091600Y0180400D03*
X0080800Y0164800D03*
X0094000Y0148000D03*
X0115600Y0109600D03*
X0127600Y0088000D03*
X0143200Y0119200D03*
X0151600Y0119200D03*
X0158800Y0121600D03*
X0172000Y0119200D03*
X0181600Y0118000D03*
X0181823Y0124223D03*
X0190000Y0128800D03*
X0175600Y0148000D03*
X0167200Y0148000D03*
X0158800Y0152800D03*
X0152800Y0149200D03*
X0137200Y0156400D03*
X0194800Y0156400D03*
X0216400Y0175600D03*
X0239200Y0174400D03*
X0239200Y0167200D03*
X0241600Y0142000D03*
X0251200Y0142000D03*
X0217600Y0119200D03*
X0217600Y0109600D03*
X0214000Y0088000D03*
X0241600Y0092800D03*
X0253600Y0085600D03*
X0294400Y0156400D03*
X0211600Y0224800D03*
X0166000Y0277600D03*
X0037600Y0155200D03*
X0091600Y0098800D03*
X0080800Y0085600D03*
X0109600Y0050800D03*
D16*
X0094000Y0148000D02*
X0091600Y0148000D01*
X0094600Y0232600D02*
X0098800Y0236800D01*
X0077200Y0234400D02*
X0076000Y0235600D01*
X0074800Y0235600D01*
X0234400Y0236800D02*
X0236800Y0234400D01*
X0238000Y0234400D01*
X0251200Y0233200D02*
X0253600Y0235600D01*
X0256000Y0235600D01*
X0241600Y0174400D02*
X0239200Y0174400D01*
X0239200Y0167200D02*
X0241600Y0167200D01*
X0251200Y0085600D02*
X0253600Y0085600D01*
D17*
X0077100Y0071134D02*
X0070778Y0071134D01*
X0071976Y0069936D02*
X0077100Y0069936D01*
X0077100Y0068737D02*
X0073175Y0068737D01*
X0074373Y0067539D02*
X0077317Y0067539D01*
X0077100Y0068064D02*
X0077663Y0066704D01*
X0078704Y0065663D01*
X0104577Y0039791D01*
X0105936Y0039228D01*
X0200845Y0039228D01*
X0201570Y0038928D01*
X0208761Y0038928D01*
X0209485Y0039228D01*
X0221264Y0039228D01*
X0222623Y0039791D01*
X0253296Y0070463D01*
X0254337Y0071504D01*
X0254900Y0072864D01*
X0254900Y0083228D01*
X0255123Y0083320D01*
X0255880Y0084077D01*
X0256289Y0085065D01*
X0256289Y0086135D01*
X0255880Y0087123D01*
X0255123Y0087880D01*
X0254900Y0087972D01*
X0254900Y0231667D01*
X0255537Y0232304D01*
X0255788Y0232911D01*
X0256535Y0232911D01*
X0257523Y0233320D01*
X0258280Y0234077D01*
X0258689Y0235065D01*
X0258689Y0236135D01*
X0258280Y0237123D01*
X0257523Y0237880D01*
X0256535Y0238289D01*
X0255465Y0238289D01*
X0254767Y0238000D01*
X0253377Y0238000D01*
X0253136Y0238100D01*
X0251664Y0238100D01*
X0250304Y0237537D01*
X0249104Y0236337D01*
X0248063Y0235296D01*
X0247500Y0233936D01*
X0247500Y0075133D01*
X0218995Y0046628D01*
X0209485Y0046628D01*
X0208761Y0046928D01*
X0201570Y0046928D01*
X0200845Y0046628D01*
X0108205Y0046628D01*
X0084500Y0070333D01*
X0084500Y0231536D01*
X0083937Y0232896D01*
X0079296Y0237537D01*
X0077936Y0238100D01*
X0076464Y0238100D01*
X0076223Y0238000D01*
X0076033Y0238000D01*
X0075335Y0238289D01*
X0074265Y0238289D01*
X0073277Y0237880D01*
X0072520Y0237123D01*
X0072111Y0236135D01*
X0072111Y0235065D01*
X0072520Y0234077D01*
X0073277Y0233320D01*
X0073718Y0233138D01*
X0074063Y0232304D01*
X0077100Y0229267D01*
X0077100Y0068064D01*
X0078027Y0066340D02*
X0075572Y0066340D01*
X0076770Y0065142D02*
X0079225Y0065142D01*
X0080424Y0063943D02*
X0077969Y0063943D01*
X0079167Y0062745D02*
X0081622Y0062745D01*
X0082821Y0061546D02*
X0080366Y0061546D01*
X0081564Y0060348D02*
X0084020Y0060348D01*
X0085218Y0059149D02*
X0082763Y0059149D01*
X0083961Y0057951D02*
X0086417Y0057951D01*
X0087615Y0056752D02*
X0085160Y0056752D01*
X0086358Y0055554D02*
X0088814Y0055554D01*
X0090012Y0054355D02*
X0087557Y0054355D01*
X0088755Y0053157D02*
X0091211Y0053157D01*
X0092409Y0051958D02*
X0089954Y0051958D01*
X0091152Y0050760D02*
X0093608Y0050760D01*
X0094806Y0049561D02*
X0092351Y0049561D01*
X0093550Y0048363D02*
X0096005Y0048363D01*
X0097203Y0047164D02*
X0094748Y0047164D01*
X0095947Y0045966D02*
X0098402Y0045966D01*
X0099600Y0044767D02*
X0097145Y0044767D01*
X0098344Y0043569D02*
X0100799Y0043569D01*
X0101997Y0042370D02*
X0099542Y0042370D01*
X0100741Y0041172D02*
X0103196Y0041172D01*
X0104394Y0039973D02*
X0101939Y0039973D01*
X0103138Y0038775D02*
X0228453Y0038775D01*
X0229651Y0039973D02*
X0222806Y0039973D01*
X0224004Y0041172D02*
X0230850Y0041172D01*
X0232048Y0042370D02*
X0225203Y0042370D01*
X0226401Y0043569D02*
X0233247Y0043569D01*
X0234445Y0044767D02*
X0227600Y0044767D01*
X0228798Y0045966D02*
X0235644Y0045966D01*
X0236843Y0047164D02*
X0229997Y0047164D01*
X0231195Y0048363D02*
X0238041Y0048363D01*
X0239240Y0049561D02*
X0232394Y0049561D01*
X0233592Y0050760D02*
X0240438Y0050760D01*
X0241637Y0051958D02*
X0234791Y0051958D01*
X0235989Y0053157D02*
X0242835Y0053157D01*
X0244034Y0054355D02*
X0237188Y0054355D01*
X0238386Y0055554D02*
X0245232Y0055554D01*
X0246431Y0056752D02*
X0239585Y0056752D01*
X0240783Y0057951D02*
X0247629Y0057951D01*
X0248828Y0059149D02*
X0241982Y0059149D01*
X0243180Y0060348D02*
X0250026Y0060348D01*
X0251225Y0061546D02*
X0244379Y0061546D01*
X0245578Y0062745D02*
X0252423Y0062745D01*
X0253622Y0063943D02*
X0246776Y0063943D01*
X0247975Y0065142D02*
X0254820Y0065142D01*
X0256019Y0066340D02*
X0249173Y0066340D01*
X0250372Y0067539D02*
X0257217Y0067539D01*
X0258416Y0068737D02*
X0251570Y0068737D01*
X0252769Y0069936D02*
X0259614Y0069936D01*
X0260813Y0071134D02*
X0253967Y0071134D01*
X0254680Y0072333D02*
X0262011Y0072333D01*
X0263210Y0073532D02*
X0254900Y0073532D01*
X0254900Y0074730D02*
X0264408Y0074730D01*
X0265607Y0075929D02*
X0254900Y0075929D01*
X0254900Y0077127D02*
X0266805Y0077127D01*
X0268004Y0078326D02*
X0254900Y0078326D01*
X0254900Y0079524D02*
X0269202Y0079524D01*
X0270401Y0080723D02*
X0254900Y0080723D01*
X0254900Y0081921D02*
X0271599Y0081921D01*
X0272798Y0083120D02*
X0254900Y0083120D01*
X0255980Y0084318D02*
X0273996Y0084318D01*
X0275195Y0085517D02*
X0256289Y0085517D01*
X0256049Y0086715D02*
X0276393Y0086715D01*
X0277592Y0087914D02*
X0255041Y0087914D01*
X0254900Y0089112D02*
X0278790Y0089112D01*
X0279989Y0090311D02*
X0254900Y0090311D01*
X0254900Y0091509D02*
X0281187Y0091509D01*
X0282386Y0092708D02*
X0254900Y0092708D01*
X0254900Y0093906D02*
X0283584Y0093906D01*
X0284783Y0095105D02*
X0254900Y0095105D01*
X0254900Y0096303D02*
X0285981Y0096303D01*
X0287180Y0097502D02*
X0254900Y0097502D01*
X0254900Y0098700D02*
X0288378Y0098700D01*
X0289577Y0099899D02*
X0254900Y0099899D01*
X0254900Y0101097D02*
X0290776Y0101097D01*
X0291974Y0102296D02*
X0254900Y0102296D01*
X0254900Y0103494D02*
X0293173Y0103494D01*
X0294371Y0104693D02*
X0254900Y0104693D01*
X0254900Y0105891D02*
X0295570Y0105891D01*
X0296768Y0107090D02*
X0254900Y0107090D01*
X0254900Y0108288D02*
X0279192Y0108288D01*
X0278840Y0108434D02*
X0280310Y0107825D01*
X0287501Y0107825D01*
X0288971Y0108434D01*
X0290097Y0109559D01*
X0290705Y0111030D01*
X0290705Y0112621D01*
X0290097Y0114091D01*
X0288971Y0115216D01*
X0287501Y0115825D01*
X0280310Y0115825D01*
X0278840Y0115216D01*
X0277714Y0114091D01*
X0277106Y0112621D01*
X0277106Y0111030D01*
X0277714Y0109559D01*
X0278840Y0108434D01*
X0277787Y0109487D02*
X0254900Y0109487D01*
X0254900Y0110685D02*
X0277248Y0110685D01*
X0277106Y0111884D02*
X0254900Y0111884D01*
X0254900Y0113082D02*
X0277297Y0113082D01*
X0277904Y0114281D02*
X0254900Y0114281D01*
X0254900Y0115479D02*
X0279475Y0115479D01*
X0280310Y0117825D02*
X0278840Y0118434D01*
X0277714Y0119559D01*
X0277106Y0121030D01*
X0277106Y0122621D01*
X0277714Y0124091D01*
X0278840Y0125216D01*
X0280310Y0125825D01*
X0287501Y0125825D01*
X0288971Y0125216D01*
X0290097Y0124091D01*
X0290705Y0122621D01*
X0290705Y0121030D01*
X0290097Y0119559D01*
X0288971Y0118434D01*
X0287501Y0117825D01*
X0280310Y0117825D01*
X0280186Y0117876D02*
X0254900Y0117876D01*
X0254900Y0116678D02*
X0298691Y0116678D01*
X0298691Y0117876D02*
X0287625Y0117876D01*
X0289612Y0119075D02*
X0298691Y0119075D01*
X0298691Y0120273D02*
X0290392Y0120273D01*
X0290705Y0121472D02*
X0298691Y0121472D01*
X0298691Y0122670D02*
X0290685Y0122670D01*
X0290189Y0123869D02*
X0298691Y0123869D01*
X0298691Y0125068D02*
X0289120Y0125068D01*
X0288336Y0115479D02*
X0298691Y0115479D01*
X0298691Y0114281D02*
X0289907Y0114281D01*
X0290514Y0113082D02*
X0298691Y0113082D01*
X0298691Y0111884D02*
X0290705Y0111884D01*
X0290563Y0110685D02*
X0298691Y0110685D01*
X0298691Y0109487D02*
X0290024Y0109487D01*
X0288619Y0108288D02*
X0297967Y0108288D01*
X0298691Y0109012D02*
X0212978Y0023300D01*
X0118612Y0023300D01*
X0032900Y0109012D01*
X0032900Y0203378D01*
X0118612Y0289091D01*
X0212978Y0289091D01*
X0298691Y0203378D01*
X0298691Y0109012D01*
X0298691Y0126266D02*
X0254900Y0126266D01*
X0254900Y0125068D02*
X0278691Y0125068D01*
X0277623Y0123869D02*
X0254900Y0123869D01*
X0254900Y0122670D02*
X0277126Y0122670D01*
X0277106Y0121472D02*
X0254900Y0121472D01*
X0254900Y0120273D02*
X0277419Y0120273D01*
X0278199Y0119075D02*
X0254900Y0119075D01*
X0247500Y0119075D02*
X0220289Y0119075D01*
X0220289Y0118665D02*
X0219880Y0117677D01*
X0219123Y0116920D01*
X0218135Y0116511D01*
X0217065Y0116511D01*
X0216077Y0116920D01*
X0215597Y0117400D01*
X0190746Y0117400D01*
X0190600Y0117254D01*
X0189546Y0116200D01*
X0183603Y0116200D01*
X0183123Y0115720D01*
X0182135Y0115311D01*
X0181065Y0115311D01*
X0180077Y0115720D01*
X0179320Y0116477D01*
X0178911Y0117465D01*
X0178911Y0118535D01*
X0179320Y0119523D01*
X0180077Y0120280D01*
X0181065Y0120689D01*
X0182135Y0120689D01*
X0183123Y0120280D01*
X0183603Y0119800D01*
X0188054Y0119800D01*
X0189254Y0121000D01*
X0215597Y0121000D01*
X0216077Y0121480D01*
X0217065Y0121889D01*
X0218135Y0121889D01*
X0219123Y0121480D01*
X0219880Y0120723D01*
X0220289Y0119735D01*
X0220289Y0118665D01*
X0219962Y0117876D02*
X0247500Y0117876D01*
X0247500Y0116678D02*
X0218538Y0116678D01*
X0216662Y0116678D02*
X0190024Y0116678D01*
X0188800Y0118000D02*
X0181600Y0118000D01*
X0179135Y0119075D02*
X0174689Y0119075D01*
X0174689Y0118665D02*
X0174689Y0119735D01*
X0174280Y0120723D01*
X0173523Y0121480D01*
X0172535Y0121889D01*
X0171465Y0121889D01*
X0170477Y0121480D01*
X0169720Y0120723D01*
X0169311Y0119735D01*
X0169311Y0119057D01*
X0169000Y0118746D01*
X0169000Y0112454D01*
X0173654Y0107800D01*
X0215597Y0107800D01*
X0216077Y0107320D01*
X0217065Y0106911D01*
X0218135Y0106911D01*
X0219123Y0107320D01*
X0219880Y0108077D01*
X0220289Y0109065D01*
X0220289Y0110135D01*
X0219880Y0111123D01*
X0219123Y0111880D01*
X0218135Y0112289D01*
X0217065Y0112289D01*
X0216077Y0111880D01*
X0215597Y0111400D01*
X0175146Y0111400D01*
X0172600Y0113946D01*
X0172600Y0116538D01*
X0173523Y0116920D01*
X0174280Y0117677D01*
X0174689Y0118665D01*
X0174362Y0117876D02*
X0178911Y0117876D01*
X0179237Y0116678D02*
X0172938Y0116678D01*
X0172600Y0115479D02*
X0180659Y0115479D01*
X0182541Y0115479D02*
X0247500Y0115479D01*
X0247500Y0114281D02*
X0172600Y0114281D01*
X0173463Y0113082D02*
X0247500Y0113082D01*
X0247500Y0111884D02*
X0219113Y0111884D01*
X0220061Y0110685D02*
X0247500Y0110685D01*
X0247500Y0109487D02*
X0220289Y0109487D01*
X0219967Y0108288D02*
X0247500Y0108288D01*
X0247500Y0107090D02*
X0218567Y0107090D01*
X0216633Y0107090D02*
X0116567Y0107090D01*
X0116135Y0106911D02*
X0117123Y0107320D01*
X0117603Y0107800D01*
X0134346Y0107800D01*
X0135400Y0108854D01*
X0143057Y0116511D01*
X0143735Y0116511D01*
X0144723Y0116920D01*
X0145480Y0117677D01*
X0145889Y0118665D01*
X0145889Y0119735D01*
X0145480Y0120723D01*
X0144723Y0121480D01*
X0143735Y0121889D01*
X0142665Y0121889D01*
X0141677Y0121480D01*
X0140920Y0120723D01*
X0140511Y0119735D01*
X0140511Y0119057D01*
X0132854Y0111400D01*
X0117603Y0111400D01*
X0117123Y0111880D01*
X0116135Y0112289D01*
X0115065Y0112289D01*
X0114077Y0111880D01*
X0113320Y0111123D01*
X0112911Y0110135D01*
X0112911Y0109065D01*
X0113320Y0108077D01*
X0114077Y0107320D01*
X0115065Y0106911D01*
X0116135Y0106911D01*
X0114633Y0107090D02*
X0084500Y0107090D01*
X0084500Y0108288D02*
X0113233Y0108288D01*
X0112911Y0109487D02*
X0084500Y0109487D01*
X0084500Y0110685D02*
X0113139Y0110685D01*
X0114087Y0111884D02*
X0084500Y0111884D01*
X0084500Y0113082D02*
X0134537Y0113082D01*
X0133338Y0111884D02*
X0117113Y0111884D01*
X0115600Y0109600D02*
X0133600Y0109600D01*
X0143200Y0119200D01*
X0140734Y0120273D02*
X0084500Y0120273D01*
X0084500Y0119075D02*
X0140511Y0119075D01*
X0139331Y0117876D02*
X0084500Y0117876D01*
X0084500Y0116678D02*
X0138132Y0116678D01*
X0136934Y0115479D02*
X0084500Y0115479D01*
X0084500Y0114281D02*
X0135735Y0114281D01*
X0138429Y0111884D02*
X0169571Y0111884D01*
X0169000Y0113082D02*
X0139628Y0113082D01*
X0140826Y0114281D02*
X0169000Y0114281D01*
X0169000Y0115479D02*
X0142025Y0115479D01*
X0144138Y0116678D02*
X0150662Y0116678D01*
X0151065Y0116511D02*
X0152135Y0116511D01*
X0153123Y0116920D01*
X0153880Y0117677D01*
X0154289Y0118665D01*
X0154289Y0119735D01*
X0153880Y0120723D01*
X0153400Y0121203D01*
X0153400Y0122346D01*
X0151000Y0124746D01*
X0149946Y0125800D01*
X0110346Y0125800D01*
X0105400Y0130746D01*
X0105400Y0196600D01*
X0133146Y0196600D01*
X0134200Y0197654D01*
X0139746Y0203200D01*
X0143346Y0203200D01*
X0144400Y0204254D01*
X0152200Y0212054D01*
X0152200Y0220397D01*
X0152680Y0220877D01*
X0153089Y0221865D01*
X0153089Y0222935D01*
X0152680Y0223923D01*
X0151923Y0224680D01*
X0150935Y0225089D01*
X0149865Y0225089D01*
X0148877Y0224680D01*
X0148120Y0223923D01*
X0147711Y0222935D01*
X0147711Y0221865D01*
X0148120Y0220877D01*
X0148600Y0220397D01*
X0148600Y0213546D01*
X0141854Y0206800D01*
X0138254Y0206800D01*
X0131654Y0200200D01*
X0106746Y0200200D01*
X0105400Y0201546D01*
X0104346Y0202600D01*
X0104346Y0202600D01*
X0101489Y0205457D01*
X0101489Y0206135D01*
X0101080Y0207123D01*
X0100323Y0207880D01*
X0099335Y0208289D01*
X0098265Y0208289D01*
X0097277Y0207880D01*
X0096520Y0207123D01*
X0096111Y0206135D01*
X0096111Y0205065D01*
X0096520Y0204077D01*
X0097277Y0203320D01*
X0098265Y0202911D01*
X0098943Y0202911D01*
X0101800Y0200054D01*
X0101800Y0129254D01*
X0102854Y0128200D01*
X0102854Y0128200D01*
X0107800Y0123254D01*
X0108854Y0122200D01*
X0148454Y0122200D01*
X0149626Y0121029D01*
X0149320Y0120723D01*
X0148911Y0119735D01*
X0148911Y0118665D01*
X0149320Y0117677D01*
X0150077Y0116920D01*
X0151065Y0116511D01*
X0152538Y0116678D02*
X0169000Y0116678D01*
X0169000Y0117876D02*
X0153962Y0117876D01*
X0154289Y0119075D02*
X0157869Y0119075D01*
X0158265Y0118911D02*
X0159335Y0118911D01*
X0160323Y0119320D01*
X0161080Y0120077D01*
X0161489Y0121065D01*
X0161489Y0122135D01*
X0161080Y0123123D01*
X0160323Y0123880D01*
X0160226Y0123920D01*
X0155800Y0128346D01*
X0154746Y0129400D01*
X0113946Y0129400D01*
X0110200Y0133146D01*
X0110200Y0184454D01*
X0111546Y0185800D01*
X0112397Y0185800D01*
X0112877Y0185320D01*
X0113865Y0184911D01*
X0114935Y0184911D01*
X0115923Y0185320D01*
X0116680Y0186077D01*
X0117089Y0187065D01*
X0117089Y0188135D01*
X0116680Y0189123D01*
X0115923Y0189880D01*
X0114935Y0190289D01*
X0113865Y0190289D01*
X0112877Y0189880D01*
X0112397Y0189400D01*
X0110054Y0189400D01*
X0109000Y0188346D01*
X0106600Y0185946D01*
X0106600Y0131654D01*
X0107654Y0130600D01*
X0111400Y0126854D01*
X0112454Y0125800D01*
X0153254Y0125800D01*
X0156348Y0122707D01*
X0156111Y0122135D01*
X0156111Y0121065D01*
X0156520Y0120077D01*
X0157277Y0119320D01*
X0158265Y0118911D01*
X0159731Y0119075D02*
X0169311Y0119075D01*
X0169534Y0120273D02*
X0161161Y0120273D01*
X0161489Y0121472D02*
X0170469Y0121472D01*
X0172000Y0119200D02*
X0170800Y0118000D01*
X0170800Y0113200D01*
X0174400Y0109600D01*
X0217600Y0109600D01*
X0216087Y0111884D02*
X0174662Y0111884D01*
X0171968Y0109487D02*
X0136032Y0109487D01*
X0134834Y0108288D02*
X0173166Y0108288D01*
X0170769Y0110685D02*
X0137231Y0110685D01*
X0145562Y0117876D02*
X0149238Y0117876D01*
X0148911Y0119075D02*
X0145889Y0119075D01*
X0145666Y0120273D02*
X0149134Y0120273D01*
X0149182Y0121472D02*
X0144731Y0121472D01*
X0141669Y0121472D02*
X0084500Y0121472D01*
X0084500Y0122670D02*
X0108384Y0122670D01*
X0107800Y0123254D02*
X0107800Y0123254D01*
X0107185Y0123869D02*
X0084500Y0123869D01*
X0084500Y0125068D02*
X0105987Y0125068D01*
X0104788Y0126266D02*
X0084500Y0126266D01*
X0084500Y0127465D02*
X0103590Y0127465D01*
X0102391Y0128663D02*
X0084500Y0128663D01*
X0084500Y0129862D02*
X0101800Y0129862D01*
X0101800Y0131060D02*
X0084500Y0131060D01*
X0084500Y0132259D02*
X0101800Y0132259D01*
X0101800Y0133457D02*
X0084500Y0133457D01*
X0084500Y0134656D02*
X0101800Y0134656D01*
X0101800Y0135854D02*
X0084500Y0135854D01*
X0084500Y0137053D02*
X0101800Y0137053D01*
X0101800Y0138251D02*
X0084500Y0138251D01*
X0084500Y0139450D02*
X0101800Y0139450D01*
X0101800Y0140648D02*
X0084500Y0140648D01*
X0084500Y0141847D02*
X0101800Y0141847D01*
X0101800Y0143045D02*
X0084500Y0143045D01*
X0084500Y0144244D02*
X0101800Y0144244D01*
X0101800Y0145442D02*
X0084500Y0145442D01*
X0084500Y0146641D02*
X0101800Y0146641D01*
X0101800Y0147839D02*
X0084500Y0147839D01*
X0084500Y0149038D02*
X0101800Y0149038D01*
X0101800Y0150236D02*
X0084500Y0150236D01*
X0084500Y0151435D02*
X0101800Y0151435D01*
X0101800Y0152633D02*
X0084500Y0152633D01*
X0084500Y0153832D02*
X0101800Y0153832D01*
X0101800Y0155030D02*
X0084500Y0155030D01*
X0084500Y0156229D02*
X0101800Y0156229D01*
X0101800Y0157427D02*
X0084500Y0157427D01*
X0084500Y0158626D02*
X0101800Y0158626D01*
X0101800Y0159824D02*
X0084500Y0159824D01*
X0084500Y0161023D02*
X0101800Y0161023D01*
X0101800Y0162221D02*
X0084500Y0162221D01*
X0084500Y0163420D02*
X0101800Y0163420D01*
X0101800Y0164618D02*
X0084500Y0164618D01*
X0084500Y0165817D02*
X0101800Y0165817D01*
X0101800Y0167015D02*
X0084500Y0167015D01*
X0084500Y0168214D02*
X0101800Y0168214D01*
X0101800Y0169412D02*
X0084500Y0169412D01*
X0084500Y0170611D02*
X0101800Y0170611D01*
X0101800Y0171809D02*
X0084500Y0171809D01*
X0084500Y0173008D02*
X0101800Y0173008D01*
X0101800Y0174206D02*
X0084500Y0174206D01*
X0084500Y0175405D02*
X0101800Y0175405D01*
X0101800Y0176603D02*
X0084500Y0176603D01*
X0084500Y0177802D02*
X0101800Y0177802D01*
X0101800Y0179001D02*
X0084500Y0179001D01*
X0084500Y0180199D02*
X0101800Y0180199D01*
X0101800Y0181398D02*
X0084500Y0181398D01*
X0084500Y0182596D02*
X0101800Y0182596D01*
X0101800Y0183795D02*
X0084500Y0183795D01*
X0084500Y0184993D02*
X0101800Y0184993D01*
X0101800Y0186192D02*
X0084500Y0186192D01*
X0084500Y0187390D02*
X0101800Y0187390D01*
X0101800Y0188589D02*
X0084500Y0188589D01*
X0084500Y0189787D02*
X0101800Y0189787D01*
X0101800Y0190986D02*
X0084500Y0190986D01*
X0084500Y0192184D02*
X0101800Y0192184D01*
X0101800Y0193383D02*
X0084500Y0193383D01*
X0084500Y0194581D02*
X0101800Y0194581D01*
X0101800Y0195780D02*
X0084500Y0195780D01*
X0084500Y0196978D02*
X0101800Y0196978D01*
X0101800Y0198177D02*
X0084500Y0198177D01*
X0084500Y0199375D02*
X0101800Y0199375D01*
X0101281Y0200574D02*
X0084500Y0200574D01*
X0084500Y0201772D02*
X0100082Y0201772D01*
X0098121Y0202971D02*
X0084500Y0202971D01*
X0084500Y0204169D02*
X0096482Y0204169D01*
X0096111Y0205368D02*
X0084500Y0205368D01*
X0084500Y0206566D02*
X0096290Y0206566D01*
X0097162Y0207765D02*
X0084500Y0207765D01*
X0084500Y0208963D02*
X0127000Y0208963D01*
X0127000Y0207765D02*
X0100438Y0207765D01*
X0101310Y0206566D02*
X0127000Y0206566D01*
X0127000Y0205368D02*
X0101578Y0205368D01*
X0102776Y0204169D02*
X0126291Y0204169D01*
X0126111Y0203735D02*
X0126520Y0204723D01*
X0127000Y0205203D01*
X0127000Y0234854D01*
X0126543Y0235311D01*
X0125865Y0235311D01*
X0124877Y0235720D01*
X0124120Y0236477D01*
X0123711Y0237465D01*
X0123711Y0238535D01*
X0124120Y0239523D01*
X0124877Y0240280D01*
X0125865Y0240689D01*
X0126935Y0240689D01*
X0127923Y0240280D01*
X0128680Y0239523D01*
X0129089Y0238535D01*
X0129089Y0237857D01*
X0130600Y0236346D01*
X0130600Y0205203D01*
X0131080Y0204723D01*
X0131489Y0203735D01*
X0131489Y0202665D01*
X0131080Y0201677D01*
X0130323Y0200920D01*
X0129335Y0200511D01*
X0128265Y0200511D01*
X0127277Y0200920D01*
X0126520Y0201677D01*
X0126111Y0202665D01*
X0126111Y0203735D01*
X0126111Y0202971D02*
X0103975Y0202971D01*
X0105173Y0201772D02*
X0126481Y0201772D01*
X0128114Y0200574D02*
X0106372Y0200574D01*
X0105400Y0201546D02*
X0105400Y0201546D01*
X0103600Y0200800D02*
X0106000Y0198400D01*
X0132400Y0198400D01*
X0139000Y0205000D01*
X0142600Y0205000D01*
X0150400Y0212800D01*
X0150400Y0222400D01*
X0147881Y0223345D02*
X0130600Y0223345D01*
X0130600Y0222147D02*
X0147711Y0222147D01*
X0148091Y0220948D02*
X0130600Y0220948D01*
X0130600Y0219750D02*
X0148600Y0219750D01*
X0148600Y0218551D02*
X0130600Y0218551D01*
X0130600Y0217353D02*
X0148600Y0217353D01*
X0148600Y0216154D02*
X0130600Y0216154D01*
X0130600Y0214956D02*
X0148600Y0214956D01*
X0148600Y0213757D02*
X0130600Y0213757D01*
X0130600Y0212559D02*
X0147613Y0212559D01*
X0146415Y0211360D02*
X0130600Y0211360D01*
X0130600Y0210162D02*
X0145216Y0210162D01*
X0144018Y0208963D02*
X0130600Y0208963D01*
X0130600Y0207765D02*
X0142819Y0207765D01*
X0145513Y0205368D02*
X0168487Y0205368D01*
X0169685Y0204169D02*
X0144315Y0204169D01*
X0144795Y0203159D02*
X0142232Y0203159D01*
X0141825Y0203050D01*
X0141460Y0202839D01*
X0141162Y0202541D01*
X0140952Y0202177D01*
X0140843Y0201770D01*
X0140843Y0199600D01*
X0144795Y0199600D01*
X0144795Y0198400D01*
X0140843Y0198400D01*
X0140843Y0196230D01*
X0140952Y0195823D01*
X0141162Y0195459D01*
X0141460Y0195161D01*
X0141693Y0195026D01*
X0141243Y0194576D01*
X0141243Y0188464D01*
X0141945Y0187761D01*
X0143595Y0187761D01*
X0143595Y0185798D01*
X0143320Y0185523D01*
X0142911Y0184535D01*
X0142911Y0183465D01*
X0143320Y0182477D01*
X0143595Y0182202D01*
X0143595Y0175924D01*
X0142643Y0175924D01*
X0141940Y0175221D01*
X0141940Y0169109D01*
X0142624Y0168425D01*
X0141940Y0167741D01*
X0141940Y0161629D01*
X0142643Y0160926D01*
X0144490Y0160926D01*
X0144490Y0154965D01*
X0150111Y0149343D01*
X0150111Y0148665D01*
X0150520Y0147677D01*
X0151277Y0146920D01*
X0152265Y0146511D01*
X0153335Y0146511D01*
X0154323Y0146920D01*
X0155080Y0147677D01*
X0155489Y0148665D01*
X0155489Y0149735D01*
X0155080Y0150723D01*
X0154323Y0151480D01*
X0153335Y0151889D01*
X0152657Y0151889D01*
X0148090Y0156456D01*
X0148090Y0160926D01*
X0149936Y0160926D01*
X0150639Y0161629D01*
X0150639Y0167741D01*
X0149955Y0168425D01*
X0150639Y0169109D01*
X0150639Y0175221D01*
X0149936Y0175924D01*
X0147195Y0175924D01*
X0147195Y0181792D01*
X0147880Y0182477D01*
X0148289Y0183465D01*
X0148289Y0184535D01*
X0147880Y0185523D01*
X0147195Y0186208D01*
X0147195Y0187761D01*
X0148845Y0187761D01*
X0149548Y0188464D01*
X0149548Y0194576D01*
X0149098Y0195026D01*
X0149330Y0195161D01*
X0149576Y0195406D01*
X0149594Y0195338D01*
X0149805Y0194973D01*
X0150103Y0194676D01*
X0150335Y0194541D01*
X0149885Y0194091D01*
X0149885Y0187979D01*
X0150588Y0187276D01*
X0151000Y0187276D01*
X0151000Y0186003D01*
X0150520Y0185523D01*
X0150111Y0184535D01*
X0150111Y0183465D01*
X0150520Y0182477D01*
X0151277Y0181720D01*
X0152265Y0181311D01*
X0152943Y0181311D01*
X0153605Y0180650D01*
X0153605Y0175924D01*
X0151758Y0175924D01*
X0151055Y0175221D01*
X0151055Y0169109D01*
X0151739Y0168425D01*
X0151055Y0167741D01*
X0151055Y0161629D01*
X0151758Y0160926D01*
X0153605Y0160926D01*
X0153605Y0155450D01*
X0156111Y0152943D01*
X0156111Y0152265D01*
X0156520Y0151277D01*
X0157277Y0150520D01*
X0158265Y0150111D01*
X0159335Y0150111D01*
X0160323Y0150520D01*
X0161080Y0151277D01*
X0161489Y0152265D01*
X0161489Y0153335D01*
X0161080Y0154323D01*
X0160323Y0155080D01*
X0159335Y0155489D01*
X0158657Y0155489D01*
X0157205Y0156941D01*
X0157205Y0160926D01*
X0159051Y0160926D01*
X0159754Y0161629D01*
X0159754Y0167741D01*
X0159070Y0168425D01*
X0159754Y0169109D01*
X0159754Y0175221D01*
X0159051Y0175924D01*
X0157205Y0175924D01*
X0157205Y0182141D01*
X0155489Y0183857D01*
X0155489Y0184535D01*
X0155080Y0185523D01*
X0154631Y0185972D01*
X0154649Y0187117D01*
X0154600Y0187168D01*
X0154600Y0187276D01*
X0157488Y0187276D01*
X0158191Y0187979D01*
X0158191Y0194091D01*
X0157740Y0194541D01*
X0157973Y0194676D01*
X0158271Y0194973D01*
X0158482Y0195338D01*
X0158591Y0195745D01*
X0158591Y0197915D01*
X0154638Y0197915D01*
X0154638Y0199115D01*
X0158591Y0199115D01*
X0158591Y0201285D01*
X0158482Y0201692D01*
X0158271Y0202056D01*
X0157973Y0202354D01*
X0157608Y0202565D01*
X0157201Y0202674D01*
X0154638Y0202674D01*
X0154638Y0199115D01*
X0153438Y0199115D01*
X0153438Y0202674D01*
X0150874Y0202674D01*
X0150467Y0202565D01*
X0150103Y0202354D01*
X0149857Y0202109D01*
X0149839Y0202177D01*
X0149628Y0202541D01*
X0149330Y0202839D01*
X0148966Y0203050D01*
X0148559Y0203159D01*
X0145995Y0203159D01*
X0145995Y0199600D01*
X0144795Y0199600D01*
X0144795Y0203159D01*
X0144795Y0202971D02*
X0145995Y0202971D01*
X0145995Y0201772D02*
X0144795Y0201772D01*
X0144795Y0200574D02*
X0145995Y0200574D01*
X0145995Y0199600D02*
X0149485Y0199600D01*
X0149485Y0199115D01*
X0153438Y0199115D01*
X0153438Y0197915D01*
X0149948Y0197915D01*
X0149948Y0198400D01*
X0145995Y0198400D01*
X0145995Y0199600D01*
X0145995Y0199375D02*
X0149485Y0199375D01*
X0149948Y0198177D02*
X0153438Y0198177D01*
X0154038Y0198515D02*
X0167187Y0198515D01*
X0167647Y0198975D01*
X0175969Y0198975D01*
X0176353Y0198591D01*
X0185009Y0198591D01*
X0188800Y0194800D01*
X0188800Y0185200D01*
X0180505Y0188054D02*
X0180505Y0194166D01*
X0180055Y0194617D01*
X0180288Y0194751D01*
X0180586Y0195049D01*
X0180796Y0195414D01*
X0180905Y0195821D01*
X0180905Y0197991D01*
X0176953Y0197991D01*
X0176953Y0199191D01*
X0175753Y0199191D01*
X0175753Y0202750D01*
X0173189Y0202750D01*
X0172782Y0202641D01*
X0172418Y0202430D01*
X0172120Y0202132D01*
X0172104Y0202104D01*
X0172091Y0202151D01*
X0171880Y0202516D01*
X0171582Y0202814D01*
X0171218Y0203025D01*
X0170811Y0203134D01*
X0168247Y0203134D01*
X0168247Y0199575D01*
X0167047Y0199575D01*
X0167047Y0198375D01*
X0163094Y0198375D01*
X0163094Y0196205D01*
X0163204Y0195798D01*
X0163414Y0195433D01*
X0163712Y0195135D01*
X0163945Y0195001D01*
X0163494Y0194551D01*
X0163494Y0188438D01*
X0164197Y0187735D01*
X0165400Y0187735D01*
X0165400Y0187203D01*
X0164920Y0186723D01*
X0164511Y0185735D01*
X0164511Y0185057D01*
X0163995Y0184541D01*
X0163995Y0175950D01*
X0162149Y0175950D01*
X0161446Y0175247D01*
X0161446Y0169134D01*
X0162130Y0168450D01*
X0161446Y0167766D01*
X0161446Y0161654D01*
X0162149Y0160951D01*
X0163995Y0160951D01*
X0163995Y0148659D01*
X0164511Y0148143D01*
X0164511Y0147465D01*
X0164920Y0146477D01*
X0165677Y0145720D01*
X0166665Y0145311D01*
X0167735Y0145311D01*
X0168723Y0145720D01*
X0169480Y0146477D01*
X0169889Y0147465D01*
X0169889Y0148535D01*
X0169480Y0149523D01*
X0168723Y0150280D01*
X0167735Y0150689D01*
X0167595Y0150689D01*
X0167595Y0160951D01*
X0169442Y0160951D01*
X0170145Y0161654D01*
X0170145Y0167766D01*
X0169461Y0168450D01*
X0170145Y0169134D01*
X0170145Y0175247D01*
X0169442Y0175950D01*
X0167595Y0175950D01*
X0167595Y0182511D01*
X0167735Y0182511D01*
X0168723Y0182920D01*
X0169480Y0183677D01*
X0169889Y0184665D01*
X0169889Y0185735D01*
X0169480Y0186723D01*
X0169000Y0187203D01*
X0169000Y0187735D01*
X0171097Y0187735D01*
X0171800Y0188438D01*
X0171800Y0194551D01*
X0171350Y0195001D01*
X0171582Y0195135D01*
X0171880Y0195433D01*
X0171896Y0195461D01*
X0171909Y0195414D01*
X0172120Y0195049D01*
X0172418Y0194751D01*
X0172650Y0194617D01*
X0172200Y0194166D01*
X0172200Y0188054D01*
X0172600Y0187654D01*
X0172600Y0187203D01*
X0172120Y0186723D01*
X0171711Y0185735D01*
X0171711Y0184665D01*
X0172120Y0183677D01*
X0172805Y0182992D01*
X0172805Y0176334D01*
X0170958Y0176334D01*
X0170255Y0175631D01*
X0170255Y0169519D01*
X0170939Y0168835D01*
X0170255Y0168151D01*
X0170255Y0162038D01*
X0170958Y0161335D01*
X0172805Y0161335D01*
X0172805Y0148250D01*
X0172911Y0148143D01*
X0172911Y0147465D01*
X0173320Y0146477D01*
X0174077Y0145720D01*
X0175065Y0145311D01*
X0176135Y0145311D01*
X0177123Y0145720D01*
X0177880Y0146477D01*
X0178289Y0147465D01*
X0178289Y0148535D01*
X0177880Y0149523D01*
X0177123Y0150280D01*
X0176405Y0150577D01*
X0176405Y0161335D01*
X0178251Y0161335D01*
X0178954Y0162038D01*
X0178954Y0168151D01*
X0178270Y0168835D01*
X0178954Y0169519D01*
X0178954Y0175631D01*
X0178251Y0176334D01*
X0176405Y0176334D01*
X0176405Y0183402D01*
X0176680Y0183677D01*
X0177089Y0184665D01*
X0177089Y0185735D01*
X0176680Y0186723D01*
X0176200Y0187203D01*
X0176200Y0187351D01*
X0179803Y0187351D01*
X0180505Y0188054D01*
X0180505Y0188589D02*
X0203800Y0188589D01*
X0203800Y0189787D02*
X0180505Y0189787D01*
X0180505Y0190986D02*
X0203800Y0190986D01*
X0203800Y0192184D02*
X0180505Y0192184D01*
X0180505Y0193383D02*
X0203800Y0193383D01*
X0203800Y0194581D02*
X0180091Y0194581D01*
X0180894Y0195780D02*
X0203800Y0195780D01*
X0203800Y0196978D02*
X0201497Y0196978D01*
X0201335Y0196911D02*
X0202323Y0197320D01*
X0203080Y0198077D01*
X0203489Y0199065D01*
X0203489Y0200135D01*
X0203080Y0201123D01*
X0202323Y0201880D01*
X0201335Y0202289D01*
X0200657Y0202289D01*
X0196600Y0206346D01*
X0195546Y0207400D01*
X0171546Y0207400D01*
X0169000Y0209946D01*
X0169000Y0240854D01*
X0179946Y0251800D01*
X0183197Y0251800D01*
X0183677Y0251320D01*
X0184665Y0250911D01*
X0185735Y0250911D01*
X0186723Y0251320D01*
X0187480Y0252077D01*
X0187889Y0253065D01*
X0187889Y0254135D01*
X0187480Y0255123D01*
X0186723Y0255880D01*
X0185735Y0256289D01*
X0184665Y0256289D01*
X0183677Y0255880D01*
X0183197Y0255400D01*
X0178454Y0255400D01*
X0165400Y0242346D01*
X0165400Y0208454D01*
X0170054Y0203800D01*
X0194054Y0203800D01*
X0198111Y0199743D01*
X0198111Y0199065D01*
X0198520Y0198077D01*
X0199277Y0197320D01*
X0200265Y0196911D01*
X0201335Y0196911D01*
X0200103Y0196978D02*
X0180905Y0196978D01*
X0180905Y0199191D02*
X0180905Y0201360D01*
X0180796Y0201767D01*
X0180586Y0202132D01*
X0180288Y0202430D01*
X0179923Y0202641D01*
X0179516Y0202750D01*
X0176953Y0202750D01*
X0176953Y0199191D01*
X0180905Y0199191D01*
X0180905Y0199375D02*
X0198111Y0199375D01*
X0198479Y0198177D02*
X0176953Y0198177D01*
X0176953Y0199375D02*
X0175753Y0199375D01*
X0175753Y0199191D02*
X0175753Y0197991D01*
X0172200Y0197991D01*
X0172200Y0198375D01*
X0168247Y0198375D01*
X0168247Y0199575D01*
X0171800Y0199575D01*
X0171800Y0199191D01*
X0175753Y0199191D01*
X0175753Y0198177D02*
X0172200Y0198177D01*
X0171800Y0199375D02*
X0168247Y0199375D01*
X0168247Y0200574D02*
X0167047Y0200574D01*
X0167047Y0199575D02*
X0167047Y0203134D01*
X0164484Y0203134D01*
X0164077Y0203025D01*
X0163712Y0202814D01*
X0163414Y0202516D01*
X0163204Y0202151D01*
X0163094Y0201745D01*
X0163094Y0199575D01*
X0167047Y0199575D01*
X0167047Y0199375D02*
X0158591Y0199375D01*
X0158591Y0200574D02*
X0163094Y0200574D01*
X0163102Y0201772D02*
X0158435Y0201772D01*
X0154638Y0201772D02*
X0153438Y0201772D01*
X0153438Y0200574D02*
X0154638Y0200574D01*
X0154638Y0199375D02*
X0153438Y0199375D01*
X0153553Y0199000D02*
X0154038Y0198515D01*
X0153553Y0199000D02*
X0145395Y0199000D01*
X0144795Y0199375D02*
X0135921Y0199375D01*
X0134722Y0198177D02*
X0140843Y0198177D01*
X0140843Y0196978D02*
X0133524Y0196978D01*
X0132028Y0200574D02*
X0129486Y0200574D01*
X0131119Y0201772D02*
X0133227Y0201772D01*
X0134425Y0202971D02*
X0131489Y0202971D01*
X0131309Y0204169D02*
X0135624Y0204169D01*
X0136822Y0205368D02*
X0130600Y0205368D01*
X0130600Y0206566D02*
X0138021Y0206566D01*
X0139516Y0202971D02*
X0141688Y0202971D01*
X0140843Y0201772D02*
X0138318Y0201772D01*
X0137119Y0200574D02*
X0140843Y0200574D01*
X0140977Y0195780D02*
X0105400Y0195780D01*
X0105400Y0194581D02*
X0141248Y0194581D01*
X0141243Y0193383D02*
X0105400Y0193383D01*
X0105400Y0192184D02*
X0141243Y0192184D01*
X0141243Y0190986D02*
X0105400Y0190986D01*
X0105400Y0189787D02*
X0112784Y0189787D01*
X0114400Y0187600D02*
X0110800Y0187600D01*
X0108400Y0185200D01*
X0108400Y0132400D01*
X0113200Y0127600D01*
X0154000Y0127600D01*
X0158800Y0122800D01*
X0158800Y0121600D01*
X0156333Y0122670D02*
X0153075Y0122670D01*
X0153400Y0121472D02*
X0156111Y0121472D01*
X0156439Y0120273D02*
X0154066Y0120273D01*
X0151600Y0119200D02*
X0151600Y0121600D01*
X0149200Y0124000D01*
X0109600Y0124000D01*
X0103600Y0130000D01*
X0103600Y0200800D01*
X0098800Y0205600D01*
X0084500Y0210162D02*
X0127000Y0210162D01*
X0127000Y0211360D02*
X0084500Y0211360D01*
X0084500Y0212559D02*
X0127000Y0212559D01*
X0127000Y0213757D02*
X0084500Y0213757D01*
X0084500Y0214956D02*
X0127000Y0214956D01*
X0127000Y0216154D02*
X0084500Y0216154D01*
X0084500Y0217353D02*
X0127000Y0217353D01*
X0127000Y0218551D02*
X0084500Y0218551D01*
X0084500Y0219750D02*
X0127000Y0219750D01*
X0127000Y0220948D02*
X0084500Y0220948D01*
X0084500Y0222147D02*
X0127000Y0222147D01*
X0127000Y0223345D02*
X0084500Y0223345D01*
X0084500Y0224544D02*
X0127000Y0224544D01*
X0127000Y0225742D02*
X0084500Y0225742D01*
X0084500Y0226941D02*
X0127000Y0226941D01*
X0127000Y0228139D02*
X0084500Y0228139D01*
X0084500Y0229338D02*
X0127000Y0229338D01*
X0127000Y0230537D02*
X0084500Y0230537D01*
X0084418Y0231735D02*
X0127000Y0231735D01*
X0127000Y0232934D02*
X0083899Y0232934D01*
X0082701Y0234132D02*
X0127000Y0234132D01*
X0125818Y0235331D02*
X0081502Y0235331D01*
X0080304Y0236529D02*
X0124099Y0236529D01*
X0123711Y0237728D02*
X0078835Y0237728D01*
X0073125Y0237728D02*
X0067249Y0237728D01*
X0068448Y0238926D02*
X0123873Y0238926D01*
X0124722Y0240125D02*
X0069646Y0240125D01*
X0070845Y0241323D02*
X0154600Y0241323D01*
X0154600Y0240125D02*
X0128078Y0240125D01*
X0128927Y0238926D02*
X0154600Y0238926D01*
X0154600Y0237728D02*
X0129218Y0237728D01*
X0130417Y0236529D02*
X0154600Y0236529D01*
X0154600Y0235331D02*
X0130600Y0235331D01*
X0130600Y0234132D02*
X0154600Y0234132D01*
X0154600Y0232934D02*
X0130600Y0232934D01*
X0130600Y0231735D02*
X0154600Y0231735D01*
X0154600Y0230537D02*
X0130600Y0230537D01*
X0130600Y0229338D02*
X0154600Y0229338D01*
X0154600Y0228139D02*
X0130600Y0228139D01*
X0130600Y0226941D02*
X0154600Y0226941D01*
X0154600Y0225742D02*
X0130600Y0225742D01*
X0130600Y0224544D02*
X0148741Y0224544D01*
X0152059Y0224544D02*
X0154600Y0224544D01*
X0154600Y0223345D02*
X0152919Y0223345D01*
X0153089Y0222147D02*
X0154600Y0222147D01*
X0154600Y0220948D02*
X0152709Y0220948D01*
X0152200Y0219750D02*
X0154600Y0219750D01*
X0154600Y0218551D02*
X0152200Y0218551D01*
X0152200Y0217353D02*
X0154600Y0217353D01*
X0154600Y0216154D02*
X0152200Y0216154D01*
X0152200Y0214956D02*
X0154600Y0214956D01*
X0154600Y0213757D02*
X0152200Y0213757D01*
X0152200Y0212559D02*
X0154600Y0212559D01*
X0154600Y0212403D02*
X0154120Y0211923D01*
X0153711Y0210935D01*
X0153711Y0209865D01*
X0154120Y0208877D01*
X0154877Y0208120D01*
X0155865Y0207711D01*
X0156935Y0207711D01*
X0157923Y0208120D01*
X0158680Y0208877D01*
X0159089Y0209865D01*
X0159089Y0210935D01*
X0158680Y0211923D01*
X0158200Y0212403D01*
X0158200Y0244746D01*
X0146346Y0256600D01*
X0128403Y0256600D01*
X0128200Y0256803D01*
X0128200Y0266054D01*
X0133146Y0271000D01*
X0160746Y0271000D01*
X0164893Y0275148D01*
X0165465Y0274911D01*
X0166535Y0274911D01*
X0167523Y0275320D01*
X0168280Y0276077D01*
X0168689Y0277065D01*
X0168689Y0278135D01*
X0168280Y0279123D01*
X0167523Y0279880D01*
X0166535Y0280289D01*
X0165465Y0280289D01*
X0164477Y0279880D01*
X0163720Y0279123D01*
X0163680Y0279026D01*
X0159254Y0274600D01*
X0131654Y0274600D01*
X0125654Y0268600D01*
X0124600Y0267546D01*
X0124600Y0256803D01*
X0124120Y0256323D01*
X0123711Y0255335D01*
X0123711Y0254265D01*
X0124120Y0253277D01*
X0124877Y0252520D01*
X0125865Y0252111D01*
X0126935Y0252111D01*
X0127923Y0252520D01*
X0128403Y0253000D01*
X0144854Y0253000D01*
X0154600Y0243254D01*
X0154600Y0212403D01*
X0153887Y0211360D02*
X0151506Y0211360D01*
X0150307Y0210162D02*
X0153711Y0210162D01*
X0154085Y0208963D02*
X0149109Y0208963D01*
X0147910Y0207765D02*
X0155735Y0207765D01*
X0157065Y0207765D02*
X0166090Y0207765D01*
X0165400Y0208963D02*
X0158715Y0208963D01*
X0159089Y0210162D02*
X0165400Y0210162D01*
X0165400Y0211360D02*
X0158913Y0211360D01*
X0158200Y0212559D02*
X0165400Y0212559D01*
X0165400Y0213757D02*
X0158200Y0213757D01*
X0158200Y0214956D02*
X0165400Y0214956D01*
X0165400Y0216154D02*
X0158200Y0216154D01*
X0158200Y0217353D02*
X0165400Y0217353D01*
X0165400Y0218551D02*
X0158200Y0218551D01*
X0158200Y0219750D02*
X0165400Y0219750D01*
X0165400Y0220948D02*
X0158200Y0220948D01*
X0158200Y0222147D02*
X0165400Y0222147D01*
X0165400Y0223345D02*
X0158200Y0223345D01*
X0158200Y0224544D02*
X0165400Y0224544D01*
X0165400Y0225742D02*
X0158200Y0225742D01*
X0158200Y0226941D02*
X0165400Y0226941D01*
X0165400Y0228139D02*
X0158200Y0228139D01*
X0158200Y0229338D02*
X0165400Y0229338D01*
X0165400Y0230537D02*
X0158200Y0230537D01*
X0158200Y0231735D02*
X0165400Y0231735D01*
X0165400Y0232934D02*
X0158200Y0232934D01*
X0158200Y0234132D02*
X0165400Y0234132D01*
X0165400Y0235331D02*
X0158200Y0235331D01*
X0158200Y0236529D02*
X0165400Y0236529D01*
X0165400Y0237728D02*
X0158200Y0237728D01*
X0158200Y0238926D02*
X0165400Y0238926D01*
X0165400Y0240125D02*
X0158200Y0240125D01*
X0158200Y0241323D02*
X0165400Y0241323D01*
X0165576Y0242522D02*
X0158200Y0242522D01*
X0158200Y0243720D02*
X0166775Y0243720D01*
X0167973Y0244919D02*
X0158027Y0244919D01*
X0156828Y0246117D02*
X0169172Y0246117D01*
X0170370Y0247316D02*
X0155630Y0247316D01*
X0154431Y0248514D02*
X0171569Y0248514D01*
X0172767Y0249713D02*
X0153233Y0249713D01*
X0152034Y0250911D02*
X0173966Y0250911D01*
X0175164Y0252110D02*
X0150836Y0252110D01*
X0149637Y0253308D02*
X0176363Y0253308D01*
X0177561Y0254507D02*
X0148439Y0254507D01*
X0147240Y0255705D02*
X0183502Y0255705D01*
X0185200Y0253600D02*
X0179200Y0253600D01*
X0167200Y0241600D01*
X0167200Y0209200D01*
X0170800Y0205600D01*
X0194800Y0205600D01*
X0200800Y0199600D01*
X0203307Y0200574D02*
X0203800Y0200574D01*
X0203800Y0201772D02*
X0202431Y0201772D01*
X0203800Y0202971D02*
X0199975Y0202971D01*
X0198776Y0204169D02*
X0203800Y0204169D01*
X0203800Y0205368D02*
X0197578Y0205368D01*
X0196379Y0206566D02*
X0203800Y0206566D01*
X0203800Y0207765D02*
X0175065Y0207765D01*
X0174935Y0207711D02*
X0175923Y0208120D01*
X0176680Y0208877D01*
X0177089Y0209865D01*
X0177089Y0210935D01*
X0176680Y0211923D01*
X0176200Y0212403D01*
X0176200Y0237254D01*
X0184746Y0245800D01*
X0189546Y0245800D01*
X0194657Y0250911D01*
X0195335Y0250911D01*
X0196323Y0251320D01*
X0197080Y0252077D01*
X0197489Y0253065D01*
X0197489Y0254135D01*
X0197080Y0255123D01*
X0196323Y0255880D01*
X0195335Y0256289D01*
X0194265Y0256289D01*
X0193277Y0255880D01*
X0192520Y0255123D01*
X0192111Y0254135D01*
X0192111Y0253457D01*
X0188054Y0249400D01*
X0183254Y0249400D01*
X0182200Y0248346D01*
X0172600Y0238746D01*
X0172600Y0212403D01*
X0172120Y0211923D01*
X0171711Y0210935D01*
X0171711Y0209865D01*
X0172120Y0208877D01*
X0172877Y0208120D01*
X0173865Y0207711D01*
X0174935Y0207711D01*
X0173735Y0207765D02*
X0171181Y0207765D01*
X0172085Y0208963D02*
X0169982Y0208963D01*
X0169000Y0210162D02*
X0171711Y0210162D01*
X0171887Y0211360D02*
X0169000Y0211360D01*
X0169000Y0212559D02*
X0172600Y0212559D01*
X0172600Y0213757D02*
X0169000Y0213757D01*
X0169000Y0214956D02*
X0172600Y0214956D01*
X0172600Y0216154D02*
X0169000Y0216154D01*
X0169000Y0217353D02*
X0172600Y0217353D01*
X0172600Y0218551D02*
X0169000Y0218551D01*
X0169000Y0219750D02*
X0172600Y0219750D01*
X0172600Y0220948D02*
X0169000Y0220948D01*
X0169000Y0222147D02*
X0172600Y0222147D01*
X0172600Y0223345D02*
X0169000Y0223345D01*
X0169000Y0224544D02*
X0172600Y0224544D01*
X0172600Y0225742D02*
X0169000Y0225742D01*
X0169000Y0226941D02*
X0172600Y0226941D01*
X0172600Y0228139D02*
X0169000Y0228139D01*
X0169000Y0229338D02*
X0172600Y0229338D01*
X0172600Y0230537D02*
X0169000Y0230537D01*
X0169000Y0231735D02*
X0172600Y0231735D01*
X0172600Y0232934D02*
X0169000Y0232934D01*
X0169000Y0234132D02*
X0172600Y0234132D01*
X0172600Y0235331D02*
X0169000Y0235331D01*
X0169000Y0236529D02*
X0172600Y0236529D01*
X0172600Y0237728D02*
X0169000Y0237728D01*
X0169000Y0238926D02*
X0172780Y0238926D01*
X0173979Y0240125D02*
X0169000Y0240125D01*
X0169469Y0241323D02*
X0175178Y0241323D01*
X0176376Y0242522D02*
X0170667Y0242522D01*
X0171866Y0243720D02*
X0177575Y0243720D01*
X0178773Y0244919D02*
X0173064Y0244919D01*
X0174263Y0246117D02*
X0179972Y0246117D01*
X0181170Y0247316D02*
X0175461Y0247316D01*
X0176660Y0248514D02*
X0182369Y0248514D01*
X0184000Y0247600D02*
X0188800Y0247600D01*
X0194800Y0253600D01*
X0192265Y0254507D02*
X0187735Y0254507D01*
X0187889Y0253308D02*
X0191963Y0253308D01*
X0190764Y0252110D02*
X0187493Y0252110D01*
X0185735Y0250911D02*
X0189566Y0250911D01*
X0188367Y0249713D02*
X0177858Y0249713D01*
X0179057Y0250911D02*
X0184665Y0250911D01*
X0184000Y0247600D02*
X0174400Y0238000D01*
X0174400Y0210400D01*
X0176913Y0211360D02*
X0203800Y0211360D01*
X0203800Y0210162D02*
X0177089Y0210162D01*
X0176715Y0208963D02*
X0203800Y0208963D01*
X0203800Y0212559D02*
X0176200Y0212559D01*
X0176200Y0213757D02*
X0203800Y0213757D01*
X0203800Y0214956D02*
X0176200Y0214956D01*
X0176200Y0216154D02*
X0203800Y0216154D01*
X0203800Y0217353D02*
X0176200Y0217353D01*
X0176200Y0218551D02*
X0203303Y0218551D01*
X0203800Y0218054D02*
X0203800Y0185654D01*
X0204854Y0184600D01*
X0211000Y0178454D01*
X0211000Y0135546D01*
X0204854Y0129400D01*
X0192662Y0129400D01*
X0192280Y0130323D01*
X0191523Y0131080D01*
X0190535Y0131489D01*
X0189465Y0131489D01*
X0188477Y0131080D01*
X0187720Y0130323D01*
X0187311Y0129335D01*
X0187311Y0128265D01*
X0187720Y0127277D01*
X0188477Y0126520D01*
X0189465Y0126111D01*
X0190143Y0126111D01*
X0190454Y0125800D01*
X0206346Y0125800D01*
X0207400Y0126854D01*
X0214600Y0134054D01*
X0214600Y0173597D01*
X0214600Y0131946D01*
X0208454Y0125800D01*
X0184048Y0125800D01*
X0183346Y0126502D01*
X0182358Y0126912D01*
X0181288Y0126912D01*
X0180300Y0126502D01*
X0179543Y0125746D01*
X0179134Y0124758D01*
X0179134Y0123688D01*
X0179543Y0122700D01*
X0180300Y0121943D01*
X0181288Y0121534D01*
X0182358Y0121534D01*
X0183346Y0121943D01*
X0183603Y0122200D01*
X0209946Y0122200D01*
X0211000Y0123254D01*
X0218200Y0130454D01*
X0218200Y0173597D01*
X0218680Y0174077D01*
X0219089Y0175065D01*
X0219089Y0175743D01*
X0226600Y0183254D01*
X0226600Y0202746D01*
X0225546Y0203800D01*
X0213400Y0215946D01*
X0213400Y0222797D01*
X0213880Y0223277D01*
X0214289Y0224265D01*
X0214289Y0225335D01*
X0213880Y0226323D01*
X0213123Y0227080D01*
X0212135Y0227489D01*
X0211065Y0227489D01*
X0210077Y0227080D01*
X0209320Y0226323D01*
X0208911Y0225335D01*
X0208911Y0224265D01*
X0209320Y0223277D01*
X0209800Y0222797D01*
X0209800Y0214454D01*
X0223000Y0201254D01*
X0223000Y0184746D01*
X0216543Y0178289D01*
X0215865Y0178289D01*
X0215471Y0178126D01*
X0218200Y0180854D01*
X0218200Y0196397D01*
X0218680Y0196877D01*
X0219089Y0197865D01*
X0219089Y0198935D01*
X0218680Y0199923D01*
X0217923Y0200680D01*
X0216935Y0201089D01*
X0215865Y0201089D01*
X0214877Y0200680D01*
X0214120Y0199923D01*
X0213711Y0198935D01*
X0213711Y0197865D01*
X0214120Y0196877D01*
X0214600Y0196397D01*
X0214600Y0182346D01*
X0213400Y0181146D01*
X0207400Y0187146D01*
X0207400Y0219546D01*
X0206346Y0220600D01*
X0199146Y0227800D01*
X0182403Y0227800D01*
X0181923Y0228280D01*
X0180935Y0228689D01*
X0179865Y0228689D01*
X0178877Y0228280D01*
X0178120Y0227523D01*
X0177711Y0226535D01*
X0177711Y0225465D01*
X0178120Y0224477D01*
X0178877Y0223720D01*
X0179865Y0223311D01*
X0180935Y0223311D01*
X0181923Y0223720D01*
X0182403Y0224200D01*
X0197654Y0224200D01*
X0203800Y0218054D01*
X0205600Y0218800D02*
X0205600Y0186400D01*
X0213400Y0178600D01*
X0212800Y0178000D01*
X0212800Y0134800D01*
X0205600Y0127600D01*
X0191200Y0127600D01*
X0190000Y0128800D01*
X0187529Y0129862D02*
X0113484Y0129862D01*
X0112286Y0131060D02*
X0188457Y0131060D01*
X0187311Y0128663D02*
X0155483Y0128663D01*
X0156681Y0127465D02*
X0187643Y0127465D01*
X0189091Y0126266D02*
X0183582Y0126266D01*
X0181823Y0124223D02*
X0182046Y0124000D01*
X0209200Y0124000D01*
X0216400Y0131200D01*
X0216400Y0175600D01*
X0224800Y0184000D01*
X0224800Y0202000D01*
X0211600Y0215200D01*
X0211600Y0224800D01*
X0209080Y0225742D02*
X0201203Y0225742D01*
X0202402Y0224544D02*
X0208911Y0224544D01*
X0209292Y0223345D02*
X0203600Y0223345D01*
X0204799Y0222147D02*
X0209800Y0222147D01*
X0209800Y0220948D02*
X0205997Y0220948D01*
X0207196Y0219750D02*
X0209800Y0219750D01*
X0209800Y0218551D02*
X0207400Y0218551D01*
X0207400Y0217353D02*
X0209800Y0217353D01*
X0209800Y0216154D02*
X0207400Y0216154D01*
X0207400Y0214956D02*
X0209800Y0214956D01*
X0210497Y0213757D02*
X0207400Y0213757D01*
X0207400Y0212559D02*
X0211696Y0212559D01*
X0212894Y0211360D02*
X0207400Y0211360D01*
X0207400Y0210162D02*
X0214093Y0210162D01*
X0215291Y0208963D02*
X0207400Y0208963D01*
X0207400Y0207765D02*
X0216490Y0207765D01*
X0217688Y0206566D02*
X0207400Y0206566D01*
X0207400Y0205368D02*
X0218887Y0205368D01*
X0220085Y0204169D02*
X0207400Y0204169D01*
X0207400Y0202971D02*
X0221284Y0202971D01*
X0222482Y0201772D02*
X0207400Y0201772D01*
X0207400Y0200574D02*
X0214771Y0200574D01*
X0213893Y0199375D02*
X0207400Y0199375D01*
X0207400Y0198177D02*
X0213711Y0198177D01*
X0214078Y0196978D02*
X0207400Y0196978D01*
X0207400Y0195780D02*
X0214600Y0195780D01*
X0214600Y0194581D02*
X0207400Y0194581D01*
X0207400Y0193383D02*
X0214600Y0193383D01*
X0214600Y0192184D02*
X0207400Y0192184D01*
X0207400Y0190986D02*
X0214600Y0190986D01*
X0214600Y0189787D02*
X0207400Y0189787D01*
X0207400Y0188589D02*
X0214600Y0188589D01*
X0214600Y0187390D02*
X0207400Y0187390D01*
X0208354Y0186192D02*
X0214600Y0186192D01*
X0214600Y0184993D02*
X0209552Y0184993D01*
X0210751Y0183795D02*
X0214600Y0183795D01*
X0214600Y0182596D02*
X0211950Y0182596D01*
X0213148Y0181398D02*
X0213652Y0181398D01*
X0216400Y0181600D02*
X0213400Y0178600D01*
X0211000Y0177802D02*
X0176405Y0177802D01*
X0176405Y0176603D02*
X0211000Y0176603D01*
X0211000Y0175405D02*
X0178954Y0175405D01*
X0178954Y0174206D02*
X0211000Y0174206D01*
X0211000Y0173008D02*
X0178954Y0173008D01*
X0178954Y0171809D02*
X0211000Y0171809D01*
X0211000Y0170611D02*
X0178954Y0170611D01*
X0178848Y0169412D02*
X0211000Y0169412D01*
X0211000Y0168214D02*
X0178891Y0168214D01*
X0178954Y0167015D02*
X0211000Y0167015D01*
X0211000Y0165817D02*
X0178954Y0165817D01*
X0178954Y0164618D02*
X0211000Y0164618D01*
X0211000Y0163420D02*
X0178954Y0163420D01*
X0178954Y0162221D02*
X0211000Y0162221D01*
X0211000Y0161023D02*
X0176405Y0161023D01*
X0176405Y0159824D02*
X0211000Y0159824D01*
X0211000Y0158626D02*
X0176405Y0158626D01*
X0176405Y0157427D02*
X0211000Y0157427D01*
X0211000Y0156229D02*
X0176405Y0156229D01*
X0176405Y0155030D02*
X0211000Y0155030D01*
X0211000Y0153832D02*
X0176405Y0153832D01*
X0176405Y0152633D02*
X0211000Y0152633D01*
X0211000Y0151435D02*
X0176405Y0151435D01*
X0177167Y0150236D02*
X0211000Y0150236D01*
X0211000Y0149038D02*
X0178081Y0149038D01*
X0178289Y0147839D02*
X0211000Y0147839D01*
X0211000Y0146641D02*
X0177947Y0146641D01*
X0176452Y0145442D02*
X0211000Y0145442D01*
X0211000Y0144244D02*
X0110200Y0144244D01*
X0110200Y0145442D02*
X0166348Y0145442D01*
X0168052Y0145442D02*
X0174748Y0145442D01*
X0173252Y0146641D02*
X0169547Y0146641D01*
X0169889Y0147839D02*
X0172911Y0147839D01*
X0172805Y0149038D02*
X0169681Y0149038D01*
X0168767Y0150236D02*
X0172805Y0150236D01*
X0172805Y0151435D02*
X0167595Y0151435D01*
X0167595Y0152633D02*
X0172805Y0152633D01*
X0172805Y0153832D02*
X0167595Y0153832D01*
X0167595Y0155030D02*
X0172805Y0155030D01*
X0172805Y0156229D02*
X0167595Y0156229D01*
X0167595Y0157427D02*
X0172805Y0157427D01*
X0172805Y0158626D02*
X0167595Y0158626D01*
X0167595Y0159824D02*
X0172805Y0159824D01*
X0172805Y0161023D02*
X0169514Y0161023D01*
X0170145Y0162221D02*
X0170255Y0162221D01*
X0170255Y0163420D02*
X0170145Y0163420D01*
X0170145Y0164618D02*
X0170255Y0164618D01*
X0170255Y0165817D02*
X0170145Y0165817D01*
X0170145Y0167015D02*
X0170255Y0167015D01*
X0170318Y0168214D02*
X0169697Y0168214D01*
X0170145Y0169412D02*
X0170361Y0169412D01*
X0170255Y0170611D02*
X0170145Y0170611D01*
X0170145Y0171809D02*
X0170255Y0171809D01*
X0170255Y0173008D02*
X0170145Y0173008D01*
X0170145Y0174206D02*
X0170255Y0174206D01*
X0170255Y0175405D02*
X0169987Y0175405D01*
X0167595Y0176603D02*
X0172805Y0176603D01*
X0172805Y0177802D02*
X0167595Y0177802D01*
X0167595Y0179001D02*
X0172805Y0179001D01*
X0172805Y0180199D02*
X0167595Y0180199D01*
X0167595Y0181398D02*
X0172805Y0181398D01*
X0172805Y0182596D02*
X0167940Y0182596D01*
X0169528Y0183795D02*
X0172072Y0183795D01*
X0171711Y0184993D02*
X0169889Y0184993D01*
X0169700Y0186192D02*
X0171900Y0186192D01*
X0172600Y0187390D02*
X0169000Y0187390D01*
X0166995Y0185405D02*
X0167200Y0185200D01*
X0165795Y0183795D01*
X0165795Y0172191D01*
X0163995Y0176603D02*
X0157205Y0176603D01*
X0157205Y0177802D02*
X0163995Y0177802D01*
X0163995Y0179001D02*
X0157205Y0179001D01*
X0157205Y0180199D02*
X0163995Y0180199D01*
X0163995Y0181398D02*
X0157205Y0181398D01*
X0156750Y0182596D02*
X0163995Y0182596D01*
X0163995Y0183795D02*
X0155551Y0183795D01*
X0155299Y0184993D02*
X0164448Y0184993D01*
X0164700Y0186192D02*
X0154635Y0186192D01*
X0152838Y0186400D02*
X0152800Y0184000D01*
X0155405Y0181395D01*
X0155405Y0172165D01*
X0151055Y0171809D02*
X0150639Y0171809D01*
X0150639Y0170611D02*
X0151055Y0170611D01*
X0151055Y0169412D02*
X0150639Y0169412D01*
X0150167Y0168214D02*
X0151528Y0168214D01*
X0151055Y0167015D02*
X0150639Y0167015D01*
X0150639Y0165817D02*
X0151055Y0165817D01*
X0151055Y0164618D02*
X0150639Y0164618D01*
X0150639Y0163420D02*
X0151055Y0163420D01*
X0151055Y0162221D02*
X0150639Y0162221D01*
X0150033Y0161023D02*
X0151661Y0161023D01*
X0153605Y0159824D02*
X0148090Y0159824D01*
X0148090Y0158626D02*
X0153605Y0158626D01*
X0153605Y0157427D02*
X0148090Y0157427D01*
X0148317Y0156229D02*
X0153605Y0156229D01*
X0154024Y0155030D02*
X0149515Y0155030D01*
X0150714Y0153832D02*
X0155223Y0153832D01*
X0156111Y0152633D02*
X0151912Y0152633D01*
X0154368Y0151435D02*
X0156455Y0151435D01*
X0155281Y0150236D02*
X0157963Y0150236D01*
X0159637Y0150236D02*
X0163995Y0150236D01*
X0163995Y0149038D02*
X0155489Y0149038D01*
X0155147Y0147839D02*
X0164511Y0147839D01*
X0164852Y0146641D02*
X0153648Y0146641D01*
X0151952Y0146641D02*
X0110200Y0146641D01*
X0110200Y0147839D02*
X0150453Y0147839D01*
X0150111Y0149038D02*
X0110200Y0149038D01*
X0110200Y0150236D02*
X0149218Y0150236D01*
X0148020Y0151435D02*
X0110200Y0151435D01*
X0110200Y0152633D02*
X0146821Y0152633D01*
X0145623Y0153832D02*
X0110200Y0153832D01*
X0110200Y0155030D02*
X0144490Y0155030D01*
X0144490Y0156229D02*
X0110200Y0156229D01*
X0110200Y0157427D02*
X0144490Y0157427D01*
X0144490Y0158626D02*
X0110200Y0158626D01*
X0110200Y0159824D02*
X0144490Y0159824D01*
X0142546Y0161023D02*
X0110200Y0161023D01*
X0110200Y0162221D02*
X0141940Y0162221D01*
X0141940Y0163420D02*
X0110200Y0163420D01*
X0110200Y0164618D02*
X0141940Y0164618D01*
X0141940Y0165817D02*
X0110200Y0165817D01*
X0110200Y0167015D02*
X0141940Y0167015D01*
X0142413Y0168214D02*
X0110200Y0168214D01*
X0110200Y0169412D02*
X0141940Y0169412D01*
X0141940Y0170611D02*
X0110200Y0170611D01*
X0110200Y0171809D02*
X0141940Y0171809D01*
X0141940Y0173008D02*
X0110200Y0173008D01*
X0110200Y0174206D02*
X0141940Y0174206D01*
X0142124Y0175405D02*
X0110200Y0175405D01*
X0110200Y0176603D02*
X0143595Y0176603D01*
X0143595Y0177802D02*
X0110200Y0177802D01*
X0110200Y0179001D02*
X0143595Y0179001D01*
X0143595Y0180199D02*
X0110200Y0180199D01*
X0110200Y0181398D02*
X0143595Y0181398D01*
X0143271Y0182596D02*
X0110200Y0182596D01*
X0110200Y0183795D02*
X0142911Y0183795D01*
X0143101Y0184993D02*
X0115133Y0184993D01*
X0113667Y0184993D02*
X0110739Y0184993D01*
X0108045Y0187390D02*
X0105400Y0187390D01*
X0105400Y0186192D02*
X0106846Y0186192D01*
X0106600Y0184993D02*
X0105400Y0184993D01*
X0105400Y0183795D02*
X0106600Y0183795D01*
X0106600Y0182596D02*
X0105400Y0182596D01*
X0105400Y0181398D02*
X0106600Y0181398D01*
X0106600Y0180199D02*
X0105400Y0180199D01*
X0105400Y0179001D02*
X0106600Y0179001D01*
X0106600Y0177802D02*
X0105400Y0177802D01*
X0105400Y0176603D02*
X0106600Y0176603D01*
X0106600Y0175405D02*
X0105400Y0175405D01*
X0105400Y0174206D02*
X0106600Y0174206D01*
X0106600Y0173008D02*
X0105400Y0173008D01*
X0105400Y0171809D02*
X0106600Y0171809D01*
X0106600Y0170611D02*
X0105400Y0170611D01*
X0105400Y0169412D02*
X0106600Y0169412D01*
X0106600Y0168214D02*
X0105400Y0168214D01*
X0105400Y0167015D02*
X0106600Y0167015D01*
X0106600Y0165817D02*
X0105400Y0165817D01*
X0105400Y0164618D02*
X0106600Y0164618D01*
X0106600Y0163420D02*
X0105400Y0163420D01*
X0105400Y0162221D02*
X0106600Y0162221D01*
X0106600Y0161023D02*
X0105400Y0161023D01*
X0105400Y0159824D02*
X0106600Y0159824D01*
X0106600Y0158626D02*
X0105400Y0158626D01*
X0105400Y0157427D02*
X0106600Y0157427D01*
X0106600Y0156229D02*
X0105400Y0156229D01*
X0105400Y0155030D02*
X0106600Y0155030D01*
X0106600Y0153832D02*
X0105400Y0153832D01*
X0105400Y0152633D02*
X0106600Y0152633D01*
X0106600Y0151435D02*
X0105400Y0151435D01*
X0105400Y0150236D02*
X0106600Y0150236D01*
X0106600Y0149038D02*
X0105400Y0149038D01*
X0105400Y0147839D02*
X0106600Y0147839D01*
X0106600Y0146641D02*
X0105400Y0146641D01*
X0105400Y0145442D02*
X0106600Y0145442D01*
X0106600Y0144244D02*
X0105400Y0144244D01*
X0105400Y0143045D02*
X0106600Y0143045D01*
X0106600Y0141847D02*
X0105400Y0141847D01*
X0105400Y0140648D02*
X0106600Y0140648D01*
X0106600Y0139450D02*
X0105400Y0139450D01*
X0105400Y0138251D02*
X0106600Y0138251D01*
X0106600Y0137053D02*
X0105400Y0137053D01*
X0105400Y0135854D02*
X0106600Y0135854D01*
X0106600Y0134656D02*
X0105400Y0134656D01*
X0105400Y0133457D02*
X0106600Y0133457D01*
X0106600Y0132259D02*
X0105400Y0132259D01*
X0105400Y0131060D02*
X0107194Y0131060D01*
X0106284Y0129862D02*
X0108393Y0129862D01*
X0107483Y0128663D02*
X0109591Y0128663D01*
X0108681Y0127465D02*
X0110790Y0127465D01*
X0109880Y0126266D02*
X0111988Y0126266D01*
X0111087Y0132259D02*
X0207713Y0132259D01*
X0208912Y0133457D02*
X0110200Y0133457D01*
X0110200Y0134656D02*
X0210110Y0134656D01*
X0211000Y0135854D02*
X0110200Y0135854D01*
X0110200Y0137053D02*
X0211000Y0137053D01*
X0211000Y0138251D02*
X0110200Y0138251D01*
X0110200Y0139450D02*
X0211000Y0139450D01*
X0211000Y0140648D02*
X0110200Y0140648D01*
X0110200Y0141847D02*
X0211000Y0141847D01*
X0211000Y0143045D02*
X0110200Y0143045D01*
X0077100Y0143045D02*
X0032900Y0143045D01*
X0032900Y0141847D02*
X0077100Y0141847D01*
X0077100Y0140648D02*
X0032900Y0140648D01*
X0032900Y0139450D02*
X0077100Y0139450D01*
X0077100Y0138251D02*
X0032900Y0138251D01*
X0032900Y0137053D02*
X0077100Y0137053D01*
X0077100Y0135854D02*
X0032900Y0135854D01*
X0032900Y0134656D02*
X0077100Y0134656D01*
X0077100Y0133457D02*
X0032900Y0133457D01*
X0032900Y0132259D02*
X0077100Y0132259D01*
X0077100Y0131060D02*
X0032900Y0131060D01*
X0032900Y0129862D02*
X0077100Y0129862D01*
X0077100Y0128663D02*
X0032900Y0128663D01*
X0032900Y0127465D02*
X0077100Y0127465D01*
X0077100Y0126266D02*
X0032900Y0126266D01*
X0032900Y0125068D02*
X0042470Y0125068D01*
X0042619Y0125216D02*
X0041494Y0124091D01*
X0040885Y0122621D01*
X0040885Y0121030D01*
X0041494Y0119559D01*
X0042619Y0118434D01*
X0044089Y0117825D01*
X0051281Y0117825D01*
X0052751Y0118434D01*
X0053876Y0119559D01*
X0054485Y0121030D01*
X0054485Y0122621D01*
X0053876Y0124091D01*
X0052751Y0125216D01*
X0051281Y0125825D01*
X0044089Y0125825D01*
X0042619Y0125216D01*
X0041402Y0123869D02*
X0032900Y0123869D01*
X0032900Y0122670D02*
X0040906Y0122670D01*
X0040885Y0121472D02*
X0032900Y0121472D01*
X0032900Y0120273D02*
X0041198Y0120273D01*
X0041978Y0119075D02*
X0032900Y0119075D01*
X0032900Y0117876D02*
X0043966Y0117876D01*
X0044089Y0115825D02*
X0042619Y0115216D01*
X0041494Y0114091D01*
X0040885Y0112621D01*
X0040885Y0111030D01*
X0041494Y0109559D01*
X0042619Y0108434D01*
X0044089Y0107825D01*
X0051281Y0107825D01*
X0052751Y0108434D01*
X0053876Y0109559D01*
X0054485Y0111030D01*
X0054485Y0112621D01*
X0053876Y0114091D01*
X0052751Y0115216D01*
X0051281Y0115825D01*
X0044089Y0115825D01*
X0043255Y0115479D02*
X0032900Y0115479D01*
X0032900Y0114281D02*
X0041684Y0114281D01*
X0041076Y0113082D02*
X0032900Y0113082D01*
X0032900Y0111884D02*
X0040885Y0111884D01*
X0041028Y0110685D02*
X0032900Y0110685D01*
X0032900Y0109487D02*
X0041567Y0109487D01*
X0042971Y0108288D02*
X0033624Y0108288D01*
X0034822Y0107090D02*
X0077100Y0107090D01*
X0077100Y0108288D02*
X0052399Y0108288D01*
X0053804Y0109487D02*
X0077100Y0109487D01*
X0077100Y0110685D02*
X0054342Y0110685D01*
X0054485Y0111884D02*
X0077100Y0111884D01*
X0077100Y0113082D02*
X0054294Y0113082D01*
X0053686Y0114281D02*
X0077100Y0114281D01*
X0077100Y0115479D02*
X0052115Y0115479D01*
X0051404Y0117876D02*
X0077100Y0117876D01*
X0077100Y0116678D02*
X0032900Y0116678D01*
X0036021Y0105891D02*
X0077100Y0105891D01*
X0077100Y0104693D02*
X0037219Y0104693D01*
X0038418Y0103494D02*
X0077100Y0103494D01*
X0077100Y0102296D02*
X0039617Y0102296D01*
X0040815Y0101097D02*
X0077100Y0101097D01*
X0077100Y0099899D02*
X0042014Y0099899D01*
X0043212Y0098700D02*
X0077100Y0098700D01*
X0077100Y0097502D02*
X0044411Y0097502D01*
X0045609Y0096303D02*
X0077100Y0096303D01*
X0077100Y0095105D02*
X0046808Y0095105D01*
X0048006Y0093906D02*
X0077100Y0093906D01*
X0077100Y0092708D02*
X0049205Y0092708D01*
X0050403Y0091509D02*
X0077100Y0091509D01*
X0077100Y0090311D02*
X0051602Y0090311D01*
X0052800Y0089112D02*
X0077100Y0089112D01*
X0077100Y0087914D02*
X0053999Y0087914D01*
X0055197Y0086715D02*
X0077100Y0086715D01*
X0077100Y0085517D02*
X0056396Y0085517D01*
X0057594Y0084318D02*
X0077100Y0084318D01*
X0077100Y0083120D02*
X0058793Y0083120D01*
X0059991Y0081921D02*
X0077100Y0081921D01*
X0077100Y0080723D02*
X0061190Y0080723D01*
X0062388Y0079524D02*
X0077100Y0079524D01*
X0077100Y0078326D02*
X0063587Y0078326D01*
X0064785Y0077127D02*
X0077100Y0077127D01*
X0077100Y0075929D02*
X0065984Y0075929D01*
X0067182Y0074730D02*
X0077100Y0074730D01*
X0077100Y0073532D02*
X0068381Y0073532D01*
X0069579Y0072333D02*
X0077100Y0072333D01*
X0084500Y0072333D02*
X0244700Y0072333D01*
X0243502Y0071134D02*
X0084500Y0071134D01*
X0084897Y0069936D02*
X0242303Y0069936D01*
X0241105Y0068737D02*
X0086095Y0068737D01*
X0087294Y0067539D02*
X0239906Y0067539D01*
X0238708Y0066340D02*
X0088492Y0066340D01*
X0089691Y0065142D02*
X0237509Y0065142D01*
X0236311Y0063943D02*
X0090889Y0063943D01*
X0092088Y0062745D02*
X0235112Y0062745D01*
X0233914Y0061546D02*
X0093286Y0061546D01*
X0094485Y0060348D02*
X0232715Y0060348D01*
X0231517Y0059149D02*
X0095683Y0059149D01*
X0096882Y0057951D02*
X0230318Y0057951D01*
X0229120Y0056752D02*
X0210151Y0056752D01*
X0210271Y0056691D02*
X0209654Y0057005D01*
X0208996Y0057219D01*
X0208312Y0057328D01*
X0205465Y0057328D01*
X0205465Y0053228D01*
X0204865Y0053228D01*
X0204865Y0057328D01*
X0202019Y0057328D01*
X0201335Y0057219D01*
X0200676Y0057005D01*
X0200059Y0056691D01*
X0199499Y0056284D01*
X0199009Y0055794D01*
X0198602Y0055234D01*
X0198288Y0054617D01*
X0198074Y0053958D01*
X0197965Y0053274D01*
X0197965Y0053228D01*
X0204865Y0053228D01*
X0204865Y0052628D01*
X0197965Y0052628D01*
X0197965Y0052581D01*
X0198074Y0051897D01*
X0198288Y0051239D01*
X0198602Y0050621D01*
X0199009Y0050061D01*
X0199499Y0049571D01*
X0200059Y0049164D01*
X0200676Y0048850D01*
X0201335Y0048636D01*
X0202019Y0048528D01*
X0204865Y0048528D01*
X0204865Y0052627D01*
X0205465Y0052627D01*
X0205465Y0048528D01*
X0208312Y0048528D01*
X0208996Y0048636D01*
X0209654Y0048850D01*
X0210271Y0049164D01*
X0210832Y0049571D01*
X0211321Y0050061D01*
X0211729Y0050621D01*
X0212043Y0051239D01*
X0212257Y0051897D01*
X0212365Y0052581D01*
X0212365Y0052628D01*
X0205465Y0052628D01*
X0205465Y0053228D01*
X0212365Y0053228D01*
X0212365Y0053274D01*
X0212257Y0053958D01*
X0212043Y0054617D01*
X0211729Y0055234D01*
X0211321Y0055794D01*
X0210832Y0056284D01*
X0210271Y0056691D01*
X0211496Y0055554D02*
X0227921Y0055554D01*
X0226723Y0054355D02*
X0212128Y0054355D01*
X0212267Y0051958D02*
X0224326Y0051958D01*
X0223127Y0050760D02*
X0211799Y0050760D01*
X0210818Y0049561D02*
X0221929Y0049561D01*
X0220730Y0048363D02*
X0106470Y0048363D01*
X0105271Y0049561D02*
X0199513Y0049561D01*
X0198532Y0050760D02*
X0104073Y0050760D01*
X0102874Y0051958D02*
X0198064Y0051958D01*
X0198203Y0054355D02*
X0100477Y0054355D01*
X0101676Y0053157D02*
X0204865Y0053157D01*
X0205465Y0053157D02*
X0225524Y0053157D01*
X0219532Y0047164D02*
X0107668Y0047164D01*
X0104336Y0037576D02*
X0227254Y0037576D01*
X0226056Y0036378D02*
X0105535Y0036378D01*
X0106733Y0035179D02*
X0224857Y0035179D01*
X0223659Y0033981D02*
X0107932Y0033981D01*
X0109130Y0032782D02*
X0222460Y0032782D01*
X0221262Y0031584D02*
X0110329Y0031584D01*
X0111527Y0030385D02*
X0220063Y0030385D01*
X0218865Y0029187D02*
X0112726Y0029187D01*
X0113924Y0027988D02*
X0217666Y0027988D01*
X0216468Y0026790D02*
X0115123Y0026790D01*
X0116321Y0025591D02*
X0215269Y0025591D01*
X0214071Y0024393D02*
X0117520Y0024393D01*
X0099279Y0055554D02*
X0198835Y0055554D01*
X0200180Y0056752D02*
X0098080Y0056752D01*
X0084500Y0073532D02*
X0245899Y0073532D01*
X0247097Y0074730D02*
X0084500Y0074730D01*
X0084500Y0075929D02*
X0247500Y0075929D01*
X0247500Y0077127D02*
X0084500Y0077127D01*
X0084500Y0078326D02*
X0247500Y0078326D01*
X0247500Y0079524D02*
X0084500Y0079524D01*
X0084500Y0080723D02*
X0247500Y0080723D01*
X0247500Y0081921D02*
X0084500Y0081921D01*
X0084500Y0083120D02*
X0247500Y0083120D01*
X0247500Y0084318D02*
X0084500Y0084318D01*
X0084500Y0085517D02*
X0247500Y0085517D01*
X0247500Y0086715D02*
X0084500Y0086715D01*
X0084500Y0087914D02*
X0247500Y0087914D01*
X0247500Y0089112D02*
X0084500Y0089112D01*
X0084500Y0090311D02*
X0247500Y0090311D01*
X0247500Y0091509D02*
X0084500Y0091509D01*
X0084500Y0092708D02*
X0247500Y0092708D01*
X0247500Y0093906D02*
X0084500Y0093906D01*
X0084500Y0095105D02*
X0247500Y0095105D01*
X0247500Y0096303D02*
X0084500Y0096303D01*
X0084500Y0097502D02*
X0247500Y0097502D01*
X0247500Y0098700D02*
X0084500Y0098700D01*
X0084500Y0099899D02*
X0247500Y0099899D01*
X0247500Y0101097D02*
X0084500Y0101097D01*
X0084500Y0102296D02*
X0247500Y0102296D01*
X0247500Y0103494D02*
X0084500Y0103494D01*
X0084500Y0104693D02*
X0247500Y0104693D01*
X0247500Y0105891D02*
X0084500Y0105891D01*
X0077100Y0119075D02*
X0053392Y0119075D01*
X0054172Y0120273D02*
X0077100Y0120273D01*
X0077100Y0121472D02*
X0054485Y0121472D01*
X0054464Y0122670D02*
X0077100Y0122670D01*
X0077100Y0123869D02*
X0053968Y0123869D01*
X0052900Y0125068D02*
X0077100Y0125068D01*
X0077100Y0144244D02*
X0032900Y0144244D01*
X0032900Y0145442D02*
X0077100Y0145442D01*
X0077100Y0146641D02*
X0032900Y0146641D01*
X0032900Y0147839D02*
X0077100Y0147839D01*
X0077100Y0149038D02*
X0032900Y0149038D01*
X0032900Y0150236D02*
X0077100Y0150236D01*
X0077100Y0151435D02*
X0032900Y0151435D01*
X0032900Y0152633D02*
X0077100Y0152633D01*
X0077100Y0153832D02*
X0032900Y0153832D01*
X0032900Y0155030D02*
X0077100Y0155030D01*
X0077100Y0156229D02*
X0032900Y0156229D01*
X0032900Y0157427D02*
X0077100Y0157427D01*
X0077100Y0158626D02*
X0032900Y0158626D01*
X0032900Y0159824D02*
X0077100Y0159824D01*
X0077100Y0161023D02*
X0032900Y0161023D01*
X0032900Y0162221D02*
X0077100Y0162221D01*
X0077100Y0163420D02*
X0032900Y0163420D01*
X0032900Y0164618D02*
X0077100Y0164618D01*
X0077100Y0165817D02*
X0032900Y0165817D01*
X0032900Y0167015D02*
X0077100Y0167015D01*
X0077100Y0168214D02*
X0032900Y0168214D01*
X0032900Y0169412D02*
X0077100Y0169412D01*
X0077100Y0170611D02*
X0032900Y0170611D01*
X0032900Y0171809D02*
X0077100Y0171809D01*
X0077100Y0173008D02*
X0032900Y0173008D01*
X0032900Y0174206D02*
X0077100Y0174206D01*
X0077100Y0175405D02*
X0032900Y0175405D01*
X0032900Y0176603D02*
X0077100Y0176603D01*
X0077100Y0177802D02*
X0032900Y0177802D01*
X0032900Y0179001D02*
X0077100Y0179001D01*
X0077100Y0180199D02*
X0032900Y0180199D01*
X0032900Y0181398D02*
X0077100Y0181398D01*
X0077100Y0182596D02*
X0032900Y0182596D01*
X0032900Y0183795D02*
X0077100Y0183795D01*
X0077100Y0184993D02*
X0032900Y0184993D01*
X0032900Y0186192D02*
X0077100Y0186192D01*
X0077100Y0187390D02*
X0052967Y0187390D01*
X0052751Y0187174D02*
X0053876Y0188300D01*
X0054485Y0189770D01*
X0054485Y0191361D01*
X0053876Y0192831D01*
X0052751Y0193956D01*
X0051281Y0194565D01*
X0044089Y0194565D01*
X0042619Y0193956D01*
X0041494Y0192831D01*
X0040885Y0191361D01*
X0040885Y0189770D01*
X0041494Y0188300D01*
X0042619Y0187174D01*
X0044089Y0186565D01*
X0051281Y0186565D01*
X0052751Y0187174D01*
X0053996Y0188589D02*
X0077100Y0188589D01*
X0077100Y0189787D02*
X0054485Y0189787D01*
X0054485Y0190986D02*
X0077100Y0190986D01*
X0077100Y0192184D02*
X0054144Y0192184D01*
X0053325Y0193383D02*
X0077100Y0193383D01*
X0077100Y0194581D02*
X0032900Y0194581D01*
X0032900Y0193383D02*
X0042045Y0193383D01*
X0041226Y0192184D02*
X0032900Y0192184D01*
X0032900Y0190986D02*
X0040885Y0190986D01*
X0040885Y0189787D02*
X0032900Y0189787D01*
X0032900Y0188589D02*
X0041374Y0188589D01*
X0042403Y0187390D02*
X0032900Y0187390D01*
X0032900Y0195780D02*
X0077100Y0195780D01*
X0077100Y0196978D02*
X0052277Y0196978D01*
X0052751Y0197174D02*
X0053876Y0198300D01*
X0054485Y0199770D01*
X0054485Y0201361D01*
X0053876Y0202831D01*
X0052751Y0203956D01*
X0051281Y0204565D01*
X0044089Y0204565D01*
X0042619Y0203956D01*
X0041494Y0202831D01*
X0040885Y0201361D01*
X0040885Y0199770D01*
X0041494Y0198300D01*
X0042619Y0197174D01*
X0044089Y0196565D01*
X0051281Y0196565D01*
X0052751Y0197174D01*
X0053753Y0198177D02*
X0077100Y0198177D01*
X0077100Y0199375D02*
X0054322Y0199375D01*
X0054485Y0200574D02*
X0077100Y0200574D01*
X0077100Y0201772D02*
X0054315Y0201772D01*
X0053736Y0202971D02*
X0077100Y0202971D01*
X0077100Y0204169D02*
X0052237Y0204169D01*
X0043133Y0204169D02*
X0033691Y0204169D01*
X0032900Y0202971D02*
X0041634Y0202971D01*
X0041055Y0201772D02*
X0032900Y0201772D01*
X0032900Y0200574D02*
X0040885Y0200574D01*
X0041048Y0199375D02*
X0032900Y0199375D01*
X0032900Y0198177D02*
X0041617Y0198177D01*
X0043093Y0196978D02*
X0032900Y0196978D01*
X0034890Y0205368D02*
X0077100Y0205368D01*
X0077100Y0206566D02*
X0036088Y0206566D01*
X0037287Y0207765D02*
X0077100Y0207765D01*
X0077100Y0208963D02*
X0038485Y0208963D01*
X0039684Y0210162D02*
X0077100Y0210162D01*
X0077100Y0211360D02*
X0040882Y0211360D01*
X0042081Y0212559D02*
X0077100Y0212559D01*
X0077100Y0213757D02*
X0043279Y0213757D01*
X0044478Y0214956D02*
X0077100Y0214956D01*
X0077100Y0216154D02*
X0045676Y0216154D01*
X0046875Y0217353D02*
X0077100Y0217353D01*
X0077100Y0218551D02*
X0048073Y0218551D01*
X0049272Y0219750D02*
X0077100Y0219750D01*
X0077100Y0220948D02*
X0050470Y0220948D01*
X0051669Y0222147D02*
X0077100Y0222147D01*
X0077100Y0223345D02*
X0052867Y0223345D01*
X0054066Y0224544D02*
X0077100Y0224544D01*
X0077100Y0225742D02*
X0055264Y0225742D01*
X0056463Y0226941D02*
X0077100Y0226941D01*
X0077100Y0228139D02*
X0057661Y0228139D01*
X0058860Y0229338D02*
X0077029Y0229338D01*
X0075831Y0230537D02*
X0060058Y0230537D01*
X0061257Y0231735D02*
X0074632Y0231735D01*
X0073803Y0232934D02*
X0062455Y0232934D01*
X0063654Y0234132D02*
X0072498Y0234132D01*
X0072111Y0235331D02*
X0064852Y0235331D01*
X0066051Y0236529D02*
X0072274Y0236529D01*
X0072043Y0242522D02*
X0154600Y0242522D01*
X0154134Y0243720D02*
X0073242Y0243720D01*
X0074440Y0244919D02*
X0152936Y0244919D01*
X0151737Y0246117D02*
X0075639Y0246117D01*
X0076837Y0247316D02*
X0150539Y0247316D01*
X0149340Y0248514D02*
X0078036Y0248514D01*
X0079234Y0249713D02*
X0148142Y0249713D01*
X0146943Y0250911D02*
X0080433Y0250911D01*
X0081631Y0252110D02*
X0145745Y0252110D01*
X0145600Y0254800D02*
X0156400Y0244000D01*
X0156400Y0210400D01*
X0149103Y0202971D02*
X0163983Y0202971D01*
X0167047Y0202971D02*
X0168247Y0202971D01*
X0168247Y0201772D02*
X0167047Y0201772D01*
X0171311Y0202971D02*
X0194884Y0202971D01*
X0196082Y0201772D02*
X0180794Y0201772D01*
X0180905Y0200574D02*
X0197281Y0200574D01*
X0203121Y0198177D02*
X0203800Y0198177D01*
X0203800Y0199375D02*
X0203489Y0199375D01*
X0203800Y0187390D02*
X0179841Y0187390D01*
X0176900Y0186192D02*
X0203800Y0186192D01*
X0204461Y0184993D02*
X0177089Y0184993D01*
X0176728Y0183795D02*
X0205660Y0183795D01*
X0206858Y0182596D02*
X0176405Y0182596D01*
X0176405Y0181398D02*
X0208057Y0181398D01*
X0209255Y0180199D02*
X0176405Y0180199D01*
X0176405Y0179001D02*
X0210454Y0179001D01*
X0216346Y0179001D02*
X0217255Y0179001D01*
X0217545Y0180199D02*
X0218453Y0180199D01*
X0218200Y0181398D02*
X0219652Y0181398D01*
X0220850Y0182596D02*
X0218200Y0182596D01*
X0218200Y0183795D02*
X0222049Y0183795D01*
X0223000Y0184993D02*
X0218200Y0184993D01*
X0218200Y0186192D02*
X0223000Y0186192D01*
X0223000Y0187390D02*
X0218200Y0187390D01*
X0218200Y0188589D02*
X0223000Y0188589D01*
X0223000Y0189787D02*
X0218200Y0189787D01*
X0218200Y0190986D02*
X0223000Y0190986D01*
X0223000Y0192184D02*
X0218200Y0192184D01*
X0218200Y0193383D02*
X0223000Y0193383D01*
X0223000Y0194581D02*
X0218200Y0194581D01*
X0218200Y0195780D02*
X0223000Y0195780D01*
X0223000Y0196978D02*
X0218722Y0196978D01*
X0219089Y0198177D02*
X0223000Y0198177D01*
X0223000Y0199375D02*
X0218907Y0199375D01*
X0218029Y0200574D02*
X0223000Y0200574D01*
X0226600Y0200574D02*
X0247500Y0200574D01*
X0247500Y0201772D02*
X0226600Y0201772D01*
X0226375Y0202971D02*
X0247500Y0202971D01*
X0247500Y0204169D02*
X0225176Y0204169D01*
X0223978Y0205368D02*
X0247500Y0205368D01*
X0247500Y0206566D02*
X0222779Y0206566D01*
X0221581Y0207765D02*
X0247500Y0207765D01*
X0247500Y0208963D02*
X0220382Y0208963D01*
X0219184Y0210162D02*
X0247500Y0210162D01*
X0247500Y0211360D02*
X0217985Y0211360D01*
X0216787Y0212559D02*
X0247500Y0212559D01*
X0247500Y0213757D02*
X0215588Y0213757D01*
X0214390Y0214956D02*
X0247500Y0214956D01*
X0247500Y0216154D02*
X0213400Y0216154D01*
X0213400Y0217353D02*
X0247500Y0217353D01*
X0247500Y0218551D02*
X0213400Y0218551D01*
X0213400Y0219750D02*
X0247500Y0219750D01*
X0247500Y0220948D02*
X0213400Y0220948D01*
X0213400Y0222147D02*
X0247500Y0222147D01*
X0247500Y0223345D02*
X0213908Y0223345D01*
X0214289Y0224544D02*
X0247500Y0224544D01*
X0247500Y0225742D02*
X0214120Y0225742D01*
X0213262Y0226941D02*
X0247500Y0226941D01*
X0247500Y0228139D02*
X0182063Y0228139D01*
X0180400Y0226000D02*
X0198400Y0226000D01*
X0205600Y0218800D01*
X0202105Y0219750D02*
X0176200Y0219750D01*
X0176200Y0220948D02*
X0200906Y0220948D01*
X0199707Y0222147D02*
X0176200Y0222147D01*
X0176200Y0223345D02*
X0179782Y0223345D01*
X0181018Y0223345D02*
X0198509Y0223345D01*
X0200005Y0226941D02*
X0209938Y0226941D01*
X0191061Y0247316D02*
X0254753Y0247316D01*
X0253555Y0248514D02*
X0192260Y0248514D01*
X0193458Y0249713D02*
X0252356Y0249713D01*
X0251158Y0250911D02*
X0195335Y0250911D01*
X0197093Y0252110D02*
X0249959Y0252110D01*
X0248761Y0253308D02*
X0197489Y0253308D01*
X0197335Y0254507D02*
X0247562Y0254507D01*
X0246364Y0255705D02*
X0196498Y0255705D01*
X0193102Y0255705D02*
X0186898Y0255705D01*
X0189863Y0246117D02*
X0255952Y0246117D01*
X0257150Y0244919D02*
X0183864Y0244919D01*
X0182666Y0243720D02*
X0258349Y0243720D01*
X0259547Y0242522D02*
X0181467Y0242522D01*
X0180269Y0241323D02*
X0260746Y0241323D01*
X0261944Y0240125D02*
X0179070Y0240125D01*
X0177872Y0238926D02*
X0263143Y0238926D01*
X0264341Y0237728D02*
X0257675Y0237728D01*
X0258526Y0236529D02*
X0265540Y0236529D01*
X0266738Y0235331D02*
X0258689Y0235331D01*
X0258302Y0234132D02*
X0267937Y0234132D01*
X0269135Y0232934D02*
X0256589Y0232934D01*
X0254968Y0231735D02*
X0270334Y0231735D01*
X0271532Y0230537D02*
X0254900Y0230537D01*
X0254900Y0229338D02*
X0272731Y0229338D01*
X0273929Y0228139D02*
X0254900Y0228139D01*
X0254900Y0226941D02*
X0275128Y0226941D01*
X0276326Y0225742D02*
X0254900Y0225742D01*
X0254900Y0224544D02*
X0277525Y0224544D01*
X0278723Y0223345D02*
X0254900Y0223345D01*
X0254900Y0222147D02*
X0279922Y0222147D01*
X0281120Y0220948D02*
X0254900Y0220948D01*
X0254900Y0219750D02*
X0282319Y0219750D01*
X0283517Y0218551D02*
X0254900Y0218551D01*
X0254900Y0217353D02*
X0284716Y0217353D01*
X0285914Y0216154D02*
X0254900Y0216154D01*
X0254900Y0214956D02*
X0287113Y0214956D01*
X0288311Y0213757D02*
X0254900Y0213757D01*
X0254900Y0212559D02*
X0289510Y0212559D01*
X0290708Y0211360D02*
X0254900Y0211360D01*
X0254900Y0210162D02*
X0291907Y0210162D01*
X0293105Y0208963D02*
X0254900Y0208963D01*
X0254900Y0207765D02*
X0294304Y0207765D01*
X0295502Y0206566D02*
X0254900Y0206566D01*
X0254900Y0205368D02*
X0296701Y0205368D01*
X0297900Y0204169D02*
X0288457Y0204169D01*
X0288971Y0203956D02*
X0287501Y0204565D01*
X0280310Y0204565D01*
X0278840Y0203956D01*
X0277714Y0202831D01*
X0277106Y0201361D01*
X0277106Y0199770D01*
X0277714Y0198300D01*
X0278840Y0197174D01*
X0280310Y0196565D01*
X0287501Y0196565D01*
X0288971Y0197174D01*
X0290097Y0198300D01*
X0290705Y0199770D01*
X0290705Y0201361D01*
X0290097Y0202831D01*
X0288971Y0203956D01*
X0289957Y0202971D02*
X0298691Y0202971D01*
X0298691Y0201772D02*
X0290535Y0201772D01*
X0290705Y0200574D02*
X0298691Y0200574D01*
X0298691Y0199375D02*
X0290542Y0199375D01*
X0289974Y0198177D02*
X0298691Y0198177D01*
X0298691Y0196978D02*
X0288498Y0196978D01*
X0287501Y0194565D02*
X0280310Y0194565D01*
X0278840Y0193956D01*
X0277714Y0192831D01*
X0277106Y0191361D01*
X0277106Y0189770D01*
X0277714Y0188300D01*
X0278840Y0187174D01*
X0280310Y0186565D01*
X0287501Y0186565D01*
X0288971Y0187174D01*
X0290097Y0188300D01*
X0290705Y0189770D01*
X0290705Y0191361D01*
X0290097Y0192831D01*
X0288971Y0193956D01*
X0287501Y0194565D01*
X0289545Y0193383D02*
X0298691Y0193383D01*
X0298691Y0194581D02*
X0254900Y0194581D01*
X0254900Y0193383D02*
X0278266Y0193383D01*
X0277446Y0192184D02*
X0254900Y0192184D01*
X0254900Y0190986D02*
X0277106Y0190986D01*
X0277106Y0189787D02*
X0254900Y0189787D01*
X0254900Y0188589D02*
X0277595Y0188589D01*
X0278624Y0187390D02*
X0254900Y0187390D01*
X0254900Y0186192D02*
X0298691Y0186192D01*
X0298691Y0187390D02*
X0289187Y0187390D01*
X0290216Y0188589D02*
X0298691Y0188589D01*
X0298691Y0189787D02*
X0290705Y0189787D01*
X0290705Y0190986D02*
X0298691Y0190986D01*
X0298691Y0192184D02*
X0290365Y0192184D01*
X0298691Y0195780D02*
X0254900Y0195780D01*
X0254900Y0196978D02*
X0279313Y0196978D01*
X0277837Y0198177D02*
X0254900Y0198177D01*
X0254900Y0199375D02*
X0277269Y0199375D01*
X0277106Y0200574D02*
X0254900Y0200574D01*
X0254900Y0201772D02*
X0277276Y0201772D01*
X0277854Y0202971D02*
X0254900Y0202971D01*
X0254900Y0204169D02*
X0279354Y0204169D01*
X0298691Y0184993D02*
X0254900Y0184993D01*
X0254900Y0183795D02*
X0298691Y0183795D01*
X0298691Y0182596D02*
X0254900Y0182596D01*
X0254900Y0181398D02*
X0298691Y0181398D01*
X0298691Y0180199D02*
X0254900Y0180199D01*
X0254900Y0179001D02*
X0298691Y0179001D01*
X0298691Y0177802D02*
X0254900Y0177802D01*
X0254900Y0176603D02*
X0298691Y0176603D01*
X0298691Y0175405D02*
X0254900Y0175405D01*
X0254900Y0174206D02*
X0298691Y0174206D01*
X0298691Y0173008D02*
X0254900Y0173008D01*
X0254900Y0171809D02*
X0298691Y0171809D01*
X0298691Y0170611D02*
X0254900Y0170611D01*
X0254900Y0169412D02*
X0298691Y0169412D01*
X0298691Y0168214D02*
X0254900Y0168214D01*
X0254900Y0167015D02*
X0298691Y0167015D01*
X0298691Y0165817D02*
X0254900Y0165817D01*
X0254900Y0164618D02*
X0298691Y0164618D01*
X0298691Y0163420D02*
X0254900Y0163420D01*
X0254900Y0162221D02*
X0298691Y0162221D01*
X0298691Y0161023D02*
X0254900Y0161023D01*
X0254900Y0159824D02*
X0298691Y0159824D01*
X0298691Y0158626D02*
X0254900Y0158626D01*
X0254900Y0157427D02*
X0298691Y0157427D01*
X0298691Y0156229D02*
X0254900Y0156229D01*
X0254900Y0155030D02*
X0298691Y0155030D01*
X0298691Y0153832D02*
X0254900Y0153832D01*
X0254900Y0152633D02*
X0298691Y0152633D01*
X0298691Y0151435D02*
X0254900Y0151435D01*
X0254900Y0150236D02*
X0298691Y0150236D01*
X0298691Y0149038D02*
X0254900Y0149038D01*
X0254900Y0147839D02*
X0298691Y0147839D01*
X0298691Y0146641D02*
X0254900Y0146641D01*
X0254900Y0145442D02*
X0298691Y0145442D01*
X0298691Y0144244D02*
X0254900Y0144244D01*
X0254900Y0143045D02*
X0298691Y0143045D01*
X0298691Y0141847D02*
X0254900Y0141847D01*
X0254900Y0140648D02*
X0298691Y0140648D01*
X0298691Y0139450D02*
X0254900Y0139450D01*
X0254900Y0138251D02*
X0298691Y0138251D01*
X0298691Y0137053D02*
X0254900Y0137053D01*
X0254900Y0135854D02*
X0298691Y0135854D01*
X0298691Y0134656D02*
X0254900Y0134656D01*
X0254900Y0133457D02*
X0298691Y0133457D01*
X0298691Y0132259D02*
X0254900Y0132259D01*
X0254900Y0131060D02*
X0298691Y0131060D01*
X0298691Y0129862D02*
X0254900Y0129862D01*
X0254900Y0128663D02*
X0298691Y0128663D01*
X0298691Y0127465D02*
X0254900Y0127465D01*
X0247500Y0127465D02*
X0215210Y0127465D01*
X0216409Y0128663D02*
X0247500Y0128663D01*
X0247500Y0129862D02*
X0217607Y0129862D01*
X0218200Y0131060D02*
X0247500Y0131060D01*
X0247500Y0132259D02*
X0218200Y0132259D01*
X0218200Y0133457D02*
X0247500Y0133457D01*
X0247500Y0134656D02*
X0218200Y0134656D01*
X0218200Y0135854D02*
X0247500Y0135854D01*
X0247500Y0137053D02*
X0218200Y0137053D01*
X0218200Y0138251D02*
X0247500Y0138251D01*
X0247500Y0139450D02*
X0218200Y0139450D01*
X0218200Y0140648D02*
X0247500Y0140648D01*
X0247500Y0141847D02*
X0218200Y0141847D01*
X0218200Y0143045D02*
X0247500Y0143045D01*
X0247500Y0144244D02*
X0218200Y0144244D01*
X0218200Y0145442D02*
X0247500Y0145442D01*
X0247500Y0146641D02*
X0218200Y0146641D01*
X0218200Y0147839D02*
X0247500Y0147839D01*
X0247500Y0149038D02*
X0218200Y0149038D01*
X0218200Y0150236D02*
X0247500Y0150236D01*
X0247500Y0151435D02*
X0218200Y0151435D01*
X0218200Y0152633D02*
X0247500Y0152633D01*
X0247500Y0153832D02*
X0218200Y0153832D01*
X0218200Y0155030D02*
X0247500Y0155030D01*
X0247500Y0156229D02*
X0218200Y0156229D01*
X0218200Y0157427D02*
X0247500Y0157427D01*
X0247500Y0158626D02*
X0218200Y0158626D01*
X0218200Y0159824D02*
X0247500Y0159824D01*
X0247500Y0161023D02*
X0218200Y0161023D01*
X0218200Y0162221D02*
X0247500Y0162221D01*
X0247500Y0163420D02*
X0218200Y0163420D01*
X0218200Y0164618D02*
X0247500Y0164618D01*
X0247500Y0165817D02*
X0218200Y0165817D01*
X0218200Y0167015D02*
X0247500Y0167015D01*
X0247500Y0168214D02*
X0218200Y0168214D01*
X0218200Y0169412D02*
X0247500Y0169412D01*
X0247500Y0170611D02*
X0218200Y0170611D01*
X0218200Y0171809D02*
X0247500Y0171809D01*
X0247500Y0173008D02*
X0218200Y0173008D01*
X0218733Y0174206D02*
X0247500Y0174206D01*
X0247500Y0175405D02*
X0219089Y0175405D01*
X0219949Y0176603D02*
X0247500Y0176603D01*
X0247500Y0177802D02*
X0221148Y0177802D01*
X0222346Y0179001D02*
X0247500Y0179001D01*
X0247500Y0180199D02*
X0223545Y0180199D01*
X0224743Y0181398D02*
X0247500Y0181398D01*
X0247500Y0182596D02*
X0225942Y0182596D01*
X0226600Y0183795D02*
X0247500Y0183795D01*
X0247500Y0184993D02*
X0226600Y0184993D01*
X0226600Y0186192D02*
X0247500Y0186192D01*
X0247500Y0187390D02*
X0226600Y0187390D01*
X0226600Y0188589D02*
X0247500Y0188589D01*
X0247500Y0189787D02*
X0226600Y0189787D01*
X0226600Y0190986D02*
X0247500Y0190986D01*
X0247500Y0192184D02*
X0226600Y0192184D01*
X0226600Y0193383D02*
X0247500Y0193383D01*
X0247500Y0194581D02*
X0226600Y0194581D01*
X0226600Y0195780D02*
X0247500Y0195780D01*
X0247500Y0196978D02*
X0226600Y0196978D01*
X0226600Y0198177D02*
X0247500Y0198177D01*
X0247500Y0199375D02*
X0226600Y0199375D01*
X0216400Y0198400D02*
X0216400Y0181600D01*
X0214600Y0173597D02*
X0214600Y0173597D01*
X0214600Y0173008D02*
X0214600Y0173008D01*
X0214600Y0171809D02*
X0214600Y0171809D01*
X0214600Y0170611D02*
X0214600Y0170611D01*
X0214600Y0169412D02*
X0214600Y0169412D01*
X0214600Y0168214D02*
X0214600Y0168214D01*
X0214600Y0167015D02*
X0214600Y0167015D01*
X0214600Y0165817D02*
X0214600Y0165817D01*
X0214600Y0164618D02*
X0214600Y0164618D01*
X0214600Y0163420D02*
X0214600Y0163420D01*
X0214600Y0162221D02*
X0214600Y0162221D01*
X0214600Y0161023D02*
X0214600Y0161023D01*
X0214600Y0159824D02*
X0214600Y0159824D01*
X0214600Y0158626D02*
X0214600Y0158626D01*
X0214600Y0157427D02*
X0214600Y0157427D01*
X0214600Y0156229D02*
X0214600Y0156229D01*
X0214600Y0155030D02*
X0214600Y0155030D01*
X0214600Y0153832D02*
X0214600Y0153832D01*
X0214600Y0152633D02*
X0214600Y0152633D01*
X0214600Y0151435D02*
X0214600Y0151435D01*
X0214600Y0150236D02*
X0214600Y0150236D01*
X0214600Y0149038D02*
X0214600Y0149038D01*
X0214600Y0147839D02*
X0214600Y0147839D01*
X0214600Y0146641D02*
X0214600Y0146641D01*
X0214600Y0145442D02*
X0214600Y0145442D01*
X0214600Y0144244D02*
X0214600Y0144244D01*
X0214600Y0143045D02*
X0214600Y0143045D01*
X0214600Y0141847D02*
X0214600Y0141847D01*
X0214600Y0140648D02*
X0214600Y0140648D01*
X0214600Y0139450D02*
X0214600Y0139450D01*
X0214600Y0138251D02*
X0214600Y0138251D01*
X0214600Y0137053D02*
X0214600Y0137053D01*
X0214600Y0135854D02*
X0214600Y0135854D01*
X0214600Y0134656D02*
X0214600Y0134656D01*
X0214600Y0133457D02*
X0214003Y0133457D01*
X0214600Y0132259D02*
X0212804Y0132259D01*
X0213714Y0131060D02*
X0211606Y0131060D01*
X0212516Y0129862D02*
X0210407Y0129862D01*
X0211317Y0128663D02*
X0209209Y0128663D01*
X0210119Y0127465D02*
X0208010Y0127465D01*
X0208920Y0126266D02*
X0206812Y0126266D01*
X0205316Y0129862D02*
X0192471Y0129862D01*
X0191543Y0131060D02*
X0206514Y0131060D01*
X0212813Y0125068D02*
X0247500Y0125068D01*
X0247500Y0126266D02*
X0214012Y0126266D01*
X0211615Y0123869D02*
X0247500Y0123869D01*
X0247500Y0122670D02*
X0210416Y0122670D01*
X0216069Y0121472D02*
X0173531Y0121472D01*
X0174466Y0120273D02*
X0180071Y0120273D01*
X0179572Y0122670D02*
X0161267Y0122670D01*
X0160334Y0123869D02*
X0179134Y0123869D01*
X0179262Y0125068D02*
X0159078Y0125068D01*
X0157880Y0126266D02*
X0180063Y0126266D01*
X0183129Y0120273D02*
X0188528Y0120273D01*
X0190000Y0119200D02*
X0188800Y0118000D01*
X0190000Y0119200D02*
X0217600Y0119200D01*
X0220066Y0120273D02*
X0247500Y0120273D01*
X0247500Y0121472D02*
X0219131Y0121472D01*
X0175600Y0148000D02*
X0174605Y0148995D01*
X0174605Y0165094D01*
X0174605Y0172575D02*
X0174605Y0184995D01*
X0174400Y0185200D01*
X0174400Y0189157D01*
X0176353Y0191110D01*
X0172200Y0190986D02*
X0171800Y0190986D01*
X0171800Y0192184D02*
X0172200Y0192184D01*
X0172200Y0193383D02*
X0171800Y0193383D01*
X0171769Y0194581D02*
X0172615Y0194581D01*
X0175753Y0200574D02*
X0176953Y0200574D01*
X0176953Y0201772D02*
X0175753Y0201772D01*
X0167288Y0206566D02*
X0146712Y0206566D01*
X0154638Y0198177D02*
X0163094Y0198177D01*
X0163094Y0196978D02*
X0158591Y0196978D01*
X0158591Y0195780D02*
X0163214Y0195780D01*
X0163525Y0194581D02*
X0157809Y0194581D01*
X0158191Y0193383D02*
X0163494Y0193383D01*
X0163494Y0192184D02*
X0158191Y0192184D01*
X0158191Y0190986D02*
X0163494Y0190986D01*
X0163494Y0189787D02*
X0158191Y0189787D01*
X0158191Y0188589D02*
X0163494Y0188589D01*
X0165400Y0187390D02*
X0157602Y0187390D01*
X0154038Y0191035D02*
X0152800Y0189797D01*
X0152800Y0184000D01*
X0150301Y0184993D02*
X0148099Y0184993D01*
X0148289Y0183795D02*
X0150111Y0183795D01*
X0150471Y0182596D02*
X0147929Y0182596D01*
X0147195Y0181398D02*
X0152056Y0181398D01*
X0153605Y0180199D02*
X0147195Y0180199D01*
X0147195Y0179001D02*
X0153605Y0179001D01*
X0153605Y0177802D02*
X0147195Y0177802D01*
X0147195Y0176603D02*
X0153605Y0176603D01*
X0151239Y0175405D02*
X0150456Y0175405D01*
X0150639Y0174206D02*
X0151055Y0174206D01*
X0151055Y0173008D02*
X0150639Y0173008D01*
X0146290Y0172165D02*
X0145395Y0173060D01*
X0145395Y0184205D01*
X0145395Y0186400D01*
X0145395Y0191520D01*
X0149548Y0190986D02*
X0149885Y0190986D01*
X0149885Y0192184D02*
X0149548Y0192184D01*
X0149548Y0193383D02*
X0149885Y0193383D01*
X0149543Y0194581D02*
X0150266Y0194581D01*
X0149885Y0189787D02*
X0149548Y0189787D01*
X0149548Y0188589D02*
X0149885Y0188589D01*
X0150473Y0187390D02*
X0147195Y0187390D01*
X0147211Y0186192D02*
X0151000Y0186192D01*
X0145600Y0184000D02*
X0145395Y0184205D01*
X0143595Y0186192D02*
X0116727Y0186192D01*
X0117089Y0187390D02*
X0143595Y0187390D01*
X0141243Y0188589D02*
X0116901Y0188589D01*
X0116016Y0189787D02*
X0141243Y0189787D01*
X0128800Y0203200D02*
X0128800Y0235600D01*
X0126400Y0238000D01*
X0124107Y0253308D02*
X0082830Y0253308D01*
X0084028Y0254507D02*
X0123711Y0254507D01*
X0123864Y0255705D02*
X0085227Y0255705D01*
X0086426Y0256904D02*
X0124600Y0256904D01*
X0124600Y0258102D02*
X0087624Y0258102D01*
X0088823Y0259301D02*
X0124600Y0259301D01*
X0124600Y0260499D02*
X0090021Y0260499D01*
X0091220Y0261698D02*
X0124600Y0261698D01*
X0124600Y0262896D02*
X0092418Y0262896D01*
X0093617Y0264095D02*
X0124600Y0264095D01*
X0124600Y0265293D02*
X0094815Y0265293D01*
X0096014Y0266492D02*
X0124600Y0266492D01*
X0124745Y0267690D02*
X0097212Y0267690D01*
X0098411Y0268889D02*
X0125943Y0268889D01*
X0127142Y0270087D02*
X0099609Y0270087D01*
X0100808Y0271286D02*
X0128340Y0271286D01*
X0129539Y0272484D02*
X0102006Y0272484D01*
X0103205Y0273683D02*
X0130737Y0273683D01*
X0132400Y0272800D02*
X0126400Y0266800D01*
X0126400Y0254800D01*
X0145600Y0254800D01*
X0128200Y0256904D02*
X0245165Y0256904D01*
X0243967Y0258102D02*
X0128200Y0258102D01*
X0128200Y0259301D02*
X0242768Y0259301D01*
X0241569Y0260499D02*
X0128200Y0260499D01*
X0128200Y0261698D02*
X0240371Y0261698D01*
X0239172Y0262896D02*
X0128200Y0262896D01*
X0128200Y0264095D02*
X0237974Y0264095D01*
X0236775Y0265293D02*
X0128200Y0265293D01*
X0128637Y0266492D02*
X0235577Y0266492D01*
X0234378Y0267690D02*
X0129836Y0267690D01*
X0131034Y0268889D02*
X0233180Y0268889D01*
X0231981Y0270087D02*
X0132233Y0270087D01*
X0132400Y0272800D02*
X0160000Y0272800D01*
X0164800Y0277600D01*
X0166000Y0277600D01*
X0168547Y0278477D02*
X0223592Y0278477D01*
X0224790Y0277278D02*
X0168689Y0277278D01*
X0168281Y0276080D02*
X0225989Y0276080D01*
X0227187Y0274881D02*
X0164627Y0274881D01*
X0163428Y0273683D02*
X0228386Y0273683D01*
X0229584Y0272484D02*
X0162230Y0272484D01*
X0161031Y0271286D02*
X0230783Y0271286D01*
X0222393Y0279675D02*
X0207644Y0279675D01*
X0208413Y0279994D02*
X0209792Y0281372D01*
X0210538Y0283173D01*
X0210538Y0285123D01*
X0209792Y0286924D01*
X0208413Y0288302D01*
X0206612Y0289048D01*
X0204663Y0289048D01*
X0202862Y0288302D01*
X0201484Y0286924D01*
X0200738Y0285123D01*
X0200738Y0283173D01*
X0201484Y0281372D01*
X0202862Y0279994D01*
X0204663Y0279248D01*
X0206612Y0279248D01*
X0208413Y0279994D01*
X0209293Y0280874D02*
X0221195Y0280874D01*
X0219996Y0282072D02*
X0210082Y0282072D01*
X0210538Y0283271D02*
X0218798Y0283271D01*
X0217599Y0284470D02*
X0210538Y0284470D01*
X0210312Y0285668D02*
X0216401Y0285668D01*
X0215202Y0286867D02*
X0209815Y0286867D01*
X0208650Y0288065D02*
X0214004Y0288065D01*
X0202625Y0288065D02*
X0198650Y0288065D01*
X0198413Y0288302D02*
X0196612Y0289048D01*
X0194663Y0289048D01*
X0192862Y0288302D01*
X0191484Y0286924D01*
X0190738Y0285123D01*
X0190738Y0283173D01*
X0191484Y0281372D01*
X0192862Y0279994D01*
X0194663Y0279248D01*
X0196612Y0279248D01*
X0198413Y0279994D01*
X0199792Y0281372D01*
X0200538Y0283173D01*
X0200538Y0285123D01*
X0199792Y0286924D01*
X0198413Y0288302D01*
X0199815Y0286867D02*
X0201460Y0286867D01*
X0200964Y0285668D02*
X0200312Y0285668D01*
X0200538Y0284470D02*
X0200738Y0284470D01*
X0200738Y0283271D02*
X0200538Y0283271D01*
X0200082Y0282072D02*
X0201194Y0282072D01*
X0201982Y0280874D02*
X0199293Y0280874D01*
X0197644Y0279675D02*
X0203631Y0279675D01*
X0193631Y0279675D02*
X0187644Y0279675D01*
X0188413Y0279994D02*
X0189792Y0281372D01*
X0190538Y0283173D01*
X0190538Y0285123D01*
X0189792Y0286924D01*
X0188413Y0288302D01*
X0186612Y0289048D01*
X0184663Y0289048D01*
X0182862Y0288302D01*
X0181484Y0286924D01*
X0180738Y0285123D01*
X0180738Y0283173D01*
X0181484Y0281372D01*
X0182862Y0279994D01*
X0184663Y0279248D01*
X0186612Y0279248D01*
X0188413Y0279994D01*
X0189293Y0280874D02*
X0191982Y0280874D01*
X0191194Y0282072D02*
X0190082Y0282072D01*
X0190538Y0283271D02*
X0190738Y0283271D01*
X0190738Y0284470D02*
X0190538Y0284470D01*
X0190312Y0285668D02*
X0190964Y0285668D01*
X0191460Y0286867D02*
X0189815Y0286867D01*
X0188650Y0288065D02*
X0192625Y0288065D01*
X0182625Y0288065D02*
X0178650Y0288065D01*
X0178413Y0288302D02*
X0176612Y0289048D01*
X0174663Y0289048D01*
X0172862Y0288302D01*
X0171484Y0286924D01*
X0170738Y0285123D01*
X0170738Y0283173D01*
X0171484Y0281372D01*
X0172862Y0279994D01*
X0174663Y0279248D01*
X0176612Y0279248D01*
X0178413Y0279994D01*
X0179792Y0281372D01*
X0180538Y0283173D01*
X0180538Y0285123D01*
X0179792Y0286924D01*
X0178413Y0288302D01*
X0179815Y0286867D02*
X0181460Y0286867D01*
X0180964Y0285668D02*
X0180312Y0285668D01*
X0180538Y0284470D02*
X0180738Y0284470D01*
X0180738Y0283271D02*
X0180538Y0283271D01*
X0180082Y0282072D02*
X0181194Y0282072D01*
X0181982Y0280874D02*
X0179293Y0280874D01*
X0177644Y0279675D02*
X0183631Y0279675D01*
X0173631Y0279675D02*
X0167727Y0279675D01*
X0164273Y0279675D02*
X0158432Y0279675D01*
X0159201Y0279994D02*
X0157400Y0279248D01*
X0155451Y0279248D01*
X0153650Y0279994D01*
X0152271Y0281372D01*
X0151525Y0283173D01*
X0151525Y0285123D01*
X0152271Y0286924D01*
X0153650Y0288302D01*
X0155451Y0289048D01*
X0157400Y0289048D01*
X0159201Y0288302D01*
X0160579Y0286924D01*
X0161325Y0285123D01*
X0161325Y0283173D01*
X0160579Y0281372D01*
X0159201Y0279994D01*
X0160081Y0280874D02*
X0171982Y0280874D01*
X0171194Y0282072D02*
X0160869Y0282072D01*
X0161325Y0283271D02*
X0170738Y0283271D01*
X0170738Y0284470D02*
X0161325Y0284470D01*
X0161099Y0285668D02*
X0170964Y0285668D01*
X0171460Y0286867D02*
X0160603Y0286867D01*
X0159438Y0288065D02*
X0172625Y0288065D01*
X0163131Y0278477D02*
X0107999Y0278477D01*
X0109197Y0279675D02*
X0124419Y0279675D01*
X0123650Y0279994D02*
X0125451Y0279248D01*
X0127400Y0279248D01*
X0129201Y0279994D01*
X0130579Y0281372D01*
X0131325Y0283173D01*
X0131325Y0285123D01*
X0130579Y0286924D01*
X0129201Y0288302D01*
X0127400Y0289048D01*
X0125451Y0289048D01*
X0123650Y0288302D01*
X0122271Y0286924D01*
X0121525Y0285123D01*
X0121525Y0283173D01*
X0122271Y0281372D01*
X0123650Y0279994D01*
X0122770Y0280874D02*
X0110396Y0280874D01*
X0111594Y0282072D02*
X0121981Y0282072D01*
X0121525Y0283271D02*
X0112793Y0283271D01*
X0113991Y0284470D02*
X0121525Y0284470D01*
X0121751Y0285668D02*
X0115190Y0285668D01*
X0116388Y0286867D02*
X0122248Y0286867D01*
X0123413Y0288065D02*
X0117587Y0288065D01*
X0129438Y0288065D02*
X0133413Y0288065D01*
X0133650Y0288302D02*
X0132271Y0286924D01*
X0131525Y0285123D01*
X0131525Y0283173D01*
X0132271Y0281372D01*
X0133650Y0279994D01*
X0135451Y0279248D01*
X0137400Y0279248D01*
X0139201Y0279994D01*
X0140579Y0281372D01*
X0141325Y0283173D01*
X0141325Y0285123D01*
X0140579Y0286924D01*
X0139201Y0288302D01*
X0137400Y0289048D01*
X0135451Y0289048D01*
X0133650Y0288302D01*
X0132248Y0286867D02*
X0130603Y0286867D01*
X0131099Y0285668D02*
X0131751Y0285668D01*
X0131525Y0284470D02*
X0131325Y0284470D01*
X0131325Y0283271D02*
X0131525Y0283271D01*
X0131981Y0282072D02*
X0130869Y0282072D01*
X0130081Y0280874D02*
X0132770Y0280874D01*
X0134419Y0279675D02*
X0128432Y0279675D01*
X0138432Y0279675D02*
X0144419Y0279675D01*
X0143650Y0279994D02*
X0145451Y0279248D01*
X0147400Y0279248D01*
X0149201Y0279994D01*
X0150579Y0281372D01*
X0151325Y0283173D01*
X0151325Y0285123D01*
X0150579Y0286924D01*
X0149201Y0288302D01*
X0147400Y0289048D01*
X0145451Y0289048D01*
X0143650Y0288302D01*
X0142271Y0286924D01*
X0141525Y0285123D01*
X0141525Y0283173D01*
X0142271Y0281372D01*
X0143650Y0279994D01*
X0142770Y0280874D02*
X0140081Y0280874D01*
X0140869Y0282072D02*
X0141981Y0282072D01*
X0141525Y0283271D02*
X0141325Y0283271D01*
X0141325Y0284470D02*
X0141525Y0284470D01*
X0141751Y0285668D02*
X0141099Y0285668D01*
X0140603Y0286867D02*
X0142248Y0286867D01*
X0143413Y0288065D02*
X0139438Y0288065D01*
X0149438Y0288065D02*
X0153413Y0288065D01*
X0152248Y0286867D02*
X0150603Y0286867D01*
X0151099Y0285668D02*
X0151751Y0285668D01*
X0151525Y0284470D02*
X0151325Y0284470D01*
X0151325Y0283271D02*
X0151525Y0283271D01*
X0151981Y0282072D02*
X0150869Y0282072D01*
X0150081Y0280874D02*
X0152770Y0280874D01*
X0154419Y0279675D02*
X0148432Y0279675D01*
X0159536Y0274881D02*
X0104403Y0274881D01*
X0105602Y0276080D02*
X0160734Y0276080D01*
X0161933Y0277278D02*
X0106800Y0277278D01*
X0176673Y0237728D02*
X0250765Y0237728D01*
X0249296Y0236529D02*
X0176200Y0236529D01*
X0176200Y0235331D02*
X0248098Y0235331D01*
X0247581Y0234132D02*
X0176200Y0234132D01*
X0176200Y0232934D02*
X0247500Y0232934D01*
X0247500Y0231735D02*
X0176200Y0231735D01*
X0176200Y0230537D02*
X0247500Y0230537D01*
X0247500Y0229338D02*
X0176200Y0229338D01*
X0176200Y0228139D02*
X0178737Y0228139D01*
X0177879Y0226941D02*
X0176200Y0226941D01*
X0176200Y0225742D02*
X0177711Y0225742D01*
X0178093Y0224544D02*
X0176200Y0224544D01*
X0167647Y0191494D02*
X0167200Y0191047D01*
X0167200Y0185200D01*
X0171800Y0188589D02*
X0172200Y0188589D01*
X0172200Y0189787D02*
X0171800Y0189787D01*
X0161604Y0175405D02*
X0159571Y0175405D01*
X0159754Y0174206D02*
X0161446Y0174206D01*
X0161446Y0173008D02*
X0159754Y0173008D01*
X0159754Y0171809D02*
X0161446Y0171809D01*
X0161446Y0170611D02*
X0159754Y0170611D01*
X0159754Y0169412D02*
X0161446Y0169412D01*
X0161893Y0168214D02*
X0159282Y0168214D01*
X0159754Y0167015D02*
X0161446Y0167015D01*
X0161446Y0165817D02*
X0159754Y0165817D01*
X0159754Y0164618D02*
X0161446Y0164618D01*
X0161446Y0163420D02*
X0159754Y0163420D01*
X0159754Y0162221D02*
X0161446Y0162221D01*
X0162077Y0161023D02*
X0159148Y0161023D01*
X0157205Y0159824D02*
X0163995Y0159824D01*
X0163995Y0158626D02*
X0157205Y0158626D01*
X0157205Y0157427D02*
X0163995Y0157427D01*
X0163995Y0156229D02*
X0157917Y0156229D01*
X0155405Y0156195D02*
X0158800Y0152800D01*
X0161283Y0153832D02*
X0163995Y0153832D01*
X0163995Y0155030D02*
X0160372Y0155030D01*
X0161489Y0152633D02*
X0163995Y0152633D01*
X0163995Y0151435D02*
X0161145Y0151435D01*
X0165795Y0149405D02*
X0167200Y0148000D01*
X0165795Y0149405D02*
X0165795Y0164710D01*
X0155405Y0164685D02*
X0155405Y0156195D01*
X0152800Y0149200D02*
X0146290Y0155710D01*
X0146290Y0164685D01*
X0109243Y0188589D02*
X0105400Y0188589D01*
X0150678Y0125068D02*
X0153987Y0125068D01*
X0155185Y0123869D02*
X0151877Y0123869D01*
X0204865Y0056752D02*
X0205465Y0056752D01*
X0205465Y0055554D02*
X0204865Y0055554D01*
X0204865Y0054355D02*
X0205465Y0054355D01*
X0205465Y0051958D02*
X0204865Y0051958D01*
X0204865Y0050760D02*
X0205465Y0050760D01*
X0205465Y0049561D02*
X0204865Y0049561D01*
X0249104Y0236337D02*
X0249104Y0236337D01*
M02*
