%
M48
M72
T01C0.01378
T02C0.03600
T03C0.04000
%
T01
X80800Y85600
X91600Y98800
X115600Y109600
X127600Y88000
X143200Y119200
X151600Y119200
X158800Y121600
X172000Y119200
X181600Y118000
X181823Y124223
X190000Y128800
X175600Y148000
X167200Y148000
X158800Y152800
X152800Y149200
X137200Y156400
X145600Y184000
X152800Y184000
X167200Y185200
X174400Y185200
X188800Y185200
X200800Y199600
X216400Y198400
X216400Y175600
X239200Y174400
X239200Y167200
X241600Y142000
X251200Y142000
X217600Y119200
X217600Y109600
X214000Y88000
X241600Y92800
X253600Y85600
X294400Y156400
X241600Y220000
X256000Y235600
X234400Y236800
X211600Y224800
X194800Y253600
X185200Y253600
X162400Y252400
X166000Y277600
X126400Y254800
X118000Y264400
X126400Y238000
X150400Y222400
X156400Y210400
X162400Y205600
X174400Y210400
X180400Y226000
X214000Y264400
X128800Y203200
X114400Y187600
X98800Y205600
X91600Y180400
X80800Y164800
X94000Y148000
X37600Y155200
X74800Y235600
X98800Y236800
X194800Y156400
X109600Y50800
T02
X47685Y111825
X47685Y121825
X47685Y190565
X47685Y200565
X205165Y52928
X205165Y42928
X283906Y111825
X283906Y121825
X283906Y190565
X283906Y200565
T03
X205638Y284148
X195638Y284148
X185638Y284148
X175638Y284148
X156425Y284148
X146425Y284148
X136425Y284148
X126425Y284148
M30
