G75*
%MOIN*%
%OFA0B0*%
%FSLAX25Y25*%
%IPPOS*%
%LPD*%
%AMOC8*
5,1,8,0,0,1.08239X$1,22.5*
%
%ADD10C,0.06400*%
%ADD11R,0.07099X0.05918*%
%ADD12R,0.06706X0.05918*%
%ADD13C,0.08200*%
%ADD14C,0.03778*%
D10*
X0064085Y0126225D02*
X0069685Y0126225D01*
X0069685Y0136225D02*
X0064085Y0136225D01*
X0064085Y0204965D02*
X0069685Y0204965D01*
X0069685Y0214965D02*
X0064085Y0214965D01*
X0221565Y0067328D02*
X0227165Y0067328D01*
X0227165Y0057328D02*
X0221565Y0057328D01*
X0300306Y0126225D02*
X0305906Y0126225D01*
X0305906Y0136225D02*
X0300306Y0136225D01*
X0300306Y0204965D02*
X0305906Y0204965D01*
X0305906Y0214965D02*
X0300306Y0214965D01*
D11*
X0195005Y0214575D03*
X0195005Y0207094D03*
X0186195Y0206710D03*
X0186195Y0214191D03*
X0174195Y0214115D03*
X0174195Y0206635D03*
X0165310Y0206635D03*
X0165310Y0214115D03*
D12*
X0165795Y0190600D03*
X0165795Y0183120D03*
X0174438Y0182635D03*
X0174438Y0190115D03*
X0185647Y0190090D03*
X0185647Y0182609D03*
X0194353Y0182225D03*
X0194353Y0189706D03*
D13*
X0194838Y0298548D03*
X0204838Y0298548D03*
X0214838Y0298548D03*
X0224838Y0298548D03*
X0175625Y0298548D03*
X0165625Y0298548D03*
X0155625Y0298548D03*
X0145625Y0298548D03*
D14*
X0100000Y0100000D03*
X0110800Y0113200D03*
X0134800Y0124000D03*
X0146800Y0102400D03*
X0162400Y0133600D03*
X0170800Y0133600D03*
X0178000Y0136000D03*
X0191200Y0133600D03*
X0200800Y0132400D03*
X0201023Y0138623D03*
X0209200Y0143200D03*
X0194800Y0162400D03*
X0186400Y0162400D03*
X0178000Y0167200D03*
X0172000Y0163600D03*
X0156400Y0170800D03*
X0167200Y0198400D03*
X0172000Y0200800D03*
X0186400Y0199600D03*
X0193600Y0199600D03*
X0208000Y0199600D03*
X0220000Y0214000D03*
X0235600Y0212800D03*
X0235600Y0190000D03*
X0214000Y0170800D03*
X0236800Y0133600D03*
X0236800Y0124000D03*
X0233200Y0102400D03*
X0260800Y0107200D03*
X0272800Y0100000D03*
X0270400Y0156400D03*
X0260800Y0156400D03*
X0258400Y0181600D03*
X0258400Y0188800D03*
X0260800Y0234400D03*
X0275200Y0250000D03*
X0253600Y0251200D03*
X0230800Y0239200D03*
X0214000Y0268000D03*
X0204400Y0268000D03*
X0185200Y0292000D03*
X0181600Y0266800D03*
X0199600Y0240400D03*
X0193600Y0224800D03*
X0175600Y0224800D03*
X0169600Y0236800D03*
X0148000Y0217600D03*
X0133600Y0202000D03*
X0118000Y0220000D03*
X0110800Y0194800D03*
X0100000Y0179200D03*
X0113200Y0162400D03*
X0056800Y0169600D03*
X0094000Y0250000D03*
X0118000Y0251200D03*
X0137200Y0278800D03*
X0145600Y0269200D03*
X0145600Y0252400D03*
X0233200Y0278800D03*
X0313600Y0170800D03*
X0128800Y0065200D03*
M02*
