G75*
%MOIN*%
%OFA0B0*%
%FSLAX25Y25*%
%IPPOS*%
%LPD*%
%AMOC8*
5,1,8,0,0,1.08239X$1,22.5*
%
%ADD10C,0.06400*%
%ADD11R,0.07099X0.05918*%
%ADD12R,0.06706X0.05918*%
%ADD13C,0.08200*%
%ADD14C,0.03778*%
D10*
X0044885Y0111825D02*
X0050485Y0111825D01*
X0050485Y0121825D02*
X0044885Y0121825D01*
X0044885Y0190565D02*
X0050485Y0190565D01*
X0050485Y0200565D02*
X0044885Y0200565D01*
X0202365Y0052928D02*
X0207965Y0052928D01*
X0207965Y0042928D02*
X0202365Y0042928D01*
X0281106Y0111825D02*
X0286706Y0111825D01*
X0286706Y0121825D02*
X0281106Y0121825D01*
X0281106Y0190565D02*
X0286706Y0190565D01*
X0286706Y0200565D02*
X0281106Y0200565D01*
D11*
X0174605Y0172575D03*
X0174605Y0165094D03*
X0165795Y0164710D03*
X0165795Y0172191D03*
X0155405Y0172165D03*
X0155405Y0164685D03*
X0146290Y0164685D03*
X0146290Y0172165D03*
D12*
X0145395Y0191520D03*
X0145395Y0199000D03*
X0154038Y0198515D03*
X0154038Y0191035D03*
X0167647Y0191494D03*
X0167647Y0198975D03*
X0176353Y0198591D03*
X0176353Y0191110D03*
D13*
X0175638Y0284148D03*
X0185638Y0284148D03*
X0195638Y0284148D03*
X0205638Y0284148D03*
X0156425Y0284148D03*
X0146425Y0284148D03*
X0136425Y0284148D03*
X0126425Y0284148D03*
D14*
X0080800Y0085600D03*
X0091600Y0098800D03*
X0115600Y0109600D03*
X0127600Y0088000D03*
X0143200Y0119200D03*
X0151600Y0119200D03*
X0158800Y0121600D03*
X0172000Y0119200D03*
X0181600Y0118000D03*
X0181823Y0124223D03*
X0190000Y0128800D03*
X0175600Y0148000D03*
X0167200Y0148000D03*
X0158800Y0152800D03*
X0152800Y0149200D03*
X0137200Y0156400D03*
X0145600Y0184000D03*
X0152800Y0184000D03*
X0167200Y0185200D03*
X0174400Y0185200D03*
X0188800Y0185200D03*
X0200800Y0199600D03*
X0216400Y0198400D03*
X0216400Y0175600D03*
X0239200Y0174400D03*
X0239200Y0167200D03*
X0241600Y0142000D03*
X0251200Y0142000D03*
X0217600Y0119200D03*
X0217600Y0109600D03*
X0214000Y0088000D03*
X0241600Y0092800D03*
X0253600Y0085600D03*
X0294400Y0156400D03*
X0241600Y0220000D03*
X0256000Y0235600D03*
X0234400Y0236800D03*
X0211600Y0224800D03*
X0194800Y0253600D03*
X0185200Y0253600D03*
X0162400Y0252400D03*
X0166000Y0277600D03*
X0126400Y0254800D03*
X0118000Y0264400D03*
X0126400Y0238000D03*
X0150400Y0222400D03*
X0156400Y0210400D03*
X0162400Y0205600D03*
X0174400Y0210400D03*
X0180400Y0226000D03*
X0214000Y0264400D03*
X0128800Y0203200D03*
X0114400Y0187600D03*
X0098800Y0205600D03*
X0091600Y0180400D03*
X0080800Y0164800D03*
X0094000Y0148000D03*
X0037600Y0155200D03*
X0074800Y0235600D03*
X0098800Y0236800D03*
X0194800Y0156400D03*
X0109600Y0050800D03*
M02*
